<svg width="162" height="70" viewBox="0 0 162 70" fill="none" xmlns="http://www.w3.org/2000/svg">
<g clip-path="url(#clip0_3_151)">
<path d="M66.07 20.2742C65.7413 21.4797 65.4126 22.7948 64.9744 24.3291C64.6457 25.7537 64.0979 27.3976 63.6596 29.3702H74.2872L74.835 27.3976H69.4664L70.5621 23.4523H77.4645C78.9984 23.4523 79.9844 24.6578 79.5462 26.3017L78.7793 29.3702L78.341 30.9045C77.9028 32.4387 76.3689 33.7538 74.7254 33.7538H59.8249C58.2911 33.7538 57.305 32.5483 57.7432 30.9045L61.0301 18.5208C61.4684 16.9865 63.1118 15.6714 64.6457 15.6714H81.7374L80.5323 20.1646C75.4924 20.2742 71.0003 20.2742 66.07 20.2742ZM128.082 28.8222L128.849 25.0962L127.754 26.6304L124.686 30.4661H124.576L121.947 33.7538H116.25L115.483 30.4661H115.373L114.387 26.6304L114.058 25.0962L112.853 28.8222L111.319 33.7538H105.951L111.648 15.781H117.455L120.632 28.3839L130.602 15.781H136.409L132.465 33.7538H127.096L128.082 28.8222ZM143.75 22.7948C143.969 21.8085 144.079 21.2605 144.407 20.2742H160.294L161.499 15.781H143.202C141.559 15.781 139.915 17.0961 139.477 18.74C138.929 20.7126 138.381 22.7948 137.833 24.7674C137.286 26.74 136.738 28.8222 136.19 30.7949C135.752 32.4387 136.738 33.7538 138.381 33.7538H156.678L157.883 29.2606H141.997C142.106 28.7127 142.216 28.2743 142.326 27.9455C142.435 27.5072 142.545 27.1784 142.654 26.6304H154.597L155.583 22.7948H143.75ZM94.9945 21.1509L96.5284 26.9592H90.3929L94.9945 21.1509ZM98.1718 33.7538H103.979L99.377 15.6714H93.6798L79.2175 33.7538H85.0243L87.3251 30.9045H97.4049L98.1718 33.7538Z" fill="black"/>
<path d="M91.2694 48.8771C92.5842 48.8771 94.0085 47.6716 94.4467 46.0278C94.5563 45.5894 94.6659 45.1511 94.7754 44.6031C95.1041 43.1785 95.5424 41.5346 95.871 40.2195C96.3093 38.5757 95.5424 37.3702 94.2276 37.3702H78.1219L77.0263 41.8634H90.7216L90.0642 44.3839H78.7793C77.4646 44.3839 76.0402 45.5894 75.602 47.2333C75.2733 48.6579 74.9446 49.973 74.5064 51.3977C74.1777 52.8224 73.7394 54.1374 73.4107 55.5621H78.1219C78.4506 54.3566 78.6697 53.2607 78.9984 52.2744C79.3271 51.1785 79.5462 50.1922 79.8749 48.9867H91.2694V48.8771ZM114.606 37.5894H100.911C99.5962 37.5894 98.1719 38.9044 97.7336 40.5483C97.1858 42.5209 96.7476 44.6031 96.1997 46.5757C95.6519 48.6579 95.2137 50.6306 94.6659 52.6032C94.3372 54.247 95.1041 55.5621 96.4189 55.5621H110.114C111.429 55.5621 112.853 54.247 113.291 52.6032C113.839 50.6306 114.278 48.5484 114.825 46.5757C115.373 44.4935 115.811 42.5209 116.359 40.5483C116.797 38.9044 116.031 37.5894 114.606 37.5894ZM110.662 45.699C110.333 46.9045 110.224 47.4525 109.238 51.0689H99.5962C100.144 49.0963 100.363 48.0004 100.582 47.3429C101.02 45.9182 101.02 45.5894 102.007 41.973H111.648C111.1 44.0552 110.772 45.0415 110.662 45.699ZM133.67 55.5621H128.959L127.535 48.4388H121.837C121.18 50.8497 120.523 53.2607 119.975 55.6717H115.264C116.031 52.932 116.688 50.1922 117.455 47.4525C117.893 45.8086 119.208 44.6031 120.632 44.6031C122.495 44.6031 124.357 44.6031 126.329 44.6031C128.192 44.6031 130.055 44.6031 132.027 44.6031L132.684 42.0826H118.989L120.084 37.5894H136.19C137.395 37.5894 138.272 38.7949 137.833 40.4387L136.519 45.4798C136.08 47.1237 134.766 48.3292 133.341 48.3292H132.465L133.67 55.5621ZM71.4386 44.0552C72.7534 44.0552 73.5203 45.2607 73.082 46.9045C72.9725 47.3429 72.8629 47.7812 72.7534 48.3292C72.4247 49.7538 71.9864 51.3977 71.6577 52.7128C71.2195 54.3566 69.9047 55.5621 68.4804 55.5621H52.813L53.9086 51.0689H67.1657L67.8231 48.5484H56.5381C55.2234 48.5484 54.4564 47.3429 54.8947 45.699C55.1138 44.8223 55.3329 43.9456 55.5521 42.9593C55.7712 42.0826 55.9903 41.0962 56.2094 40.2195C56.6477 38.6853 57.9624 37.4798 59.2772 37.4798H74.8351L73.7394 41.973H60.5919L60.0441 44.0552H71.4386ZM155.473 41.973L156.678 37.4798H139.696L138.491 41.973H144.736L141.23 55.5621H145.722L149.228 41.973H155.473Z" fill="#F5333F"/>
<path d="M0.552065 57.206C0.33294 58.1923 0.77119 60.1649 2.52419 60.6033C2.52419 60.6033 2.63375 60.6033 2.74332 60.6033C5.04413 61.0416 6.90669 59.617 7.78319 59.069C12.2753 56.3293 14.3569 54.6854 16.2195 54.0279C18.7394 53.1511 21.3689 53.4799 23.1219 53.8087C24.7654 54.3566 27.2853 55.3429 29.0383 57.4252C30.3531 58.9594 31.3391 61.48 33.8591 66.0828C34.4069 66.9595 35.2834 69.1513 37.4746 69.9184C37.4746 69.9184 37.5842 69.9184 37.6938 69.9184C39.4468 70.3568 40.7615 68.9321 41.0902 67.9458C41.638 66.3019 44.1579 53.2607 43.8293 50.0826C43.7197 48.0004 42.6241 45.5894 40.5424 43.9456C40.9806 40.4387 40.3233 37.9181 39.4468 34.74C41.0902 33.2058 42.2954 31.2331 42.8432 28.9318C43.7197 25.9728 43.2814 22.9043 42.0763 20.2741C42.5145 9.42474 37.6938 0 37.6938 0C37.6938 0 28.8192 5.69868 23.5602 15.4522C21.1498 17.096 19.3968 19.6166 18.5203 22.5755C17.8629 24.8769 17.9725 27.2879 18.5203 29.3701C16.1099 31.6715 14.3569 33.5345 12.9326 36.7126C10.4127 36.9318 8.331 38.5757 7.12582 40.2195C5.26325 42.9593 0.990315 55.5621 0.552065 57.206ZM31.9965 42.4113C30.1339 42.3017 28.2714 42.0826 26.5184 41.5346C24.7654 41.0962 23.0124 40.3291 21.3689 39.4524C21.2594 37.8085 21.2594 36.0551 21.3689 34.0825C23.0124 35.8359 25.0941 37.2606 27.5044 37.9181C30.0244 38.5757 32.5443 38.4661 34.8451 37.699C33.8591 39.4524 32.9826 41.0962 31.9965 42.4113ZM27.3949 13.6987C28.4905 12.0549 29.6957 10.5206 30.9009 9.20556L39.0085 11.3974C39.3372 13.1508 39.6659 15.0138 39.7754 17.096C38.2416 15.5618 36.379 14.3563 34.0782 13.6987C31.7774 13.0412 29.4766 13.1508 27.3949 13.6987ZM33.4208 15.8905C38.8989 17.4248 42.1858 23.0139 40.6519 28.4934C39.1181 33.9729 33.5304 37.2606 28.0523 35.7263C22.5741 34.1921 19.2873 28.603 20.8211 23.1235C22.2454 17.644 27.9427 14.4659 33.4208 15.8905ZM38.0224 50.6306C38.8989 50.8498 39.3372 51.7265 39.1181 52.4936C38.8989 53.3703 38.0224 53.8087 37.2555 53.5895C36.379 53.3703 35.9408 52.4936 36.1599 51.7265C36.379 50.9593 37.1459 50.4114 38.0224 50.6306ZM35.5025 46.247C36.379 46.4662 36.8173 47.3429 36.5981 48.11C36.379 48.9867 35.5025 49.4251 34.7356 49.2059C33.8591 48.9867 33.4208 48.11 33.6399 47.3429C33.7495 46.5757 34.626 46.0278 35.5025 46.247ZM33.5304 53.1511C34.4069 53.3703 34.8451 54.247 34.626 55.0142C34.4069 55.8909 33.5304 56.3293 32.7634 56.1101C31.8869 55.8909 31.4487 55.0142 31.6678 54.247C31.8869 53.4799 32.7634 52.932 33.5304 53.1511ZM31.0104 48.7675C31.8869 48.9867 32.3252 49.8634 32.1061 50.6306C31.8869 51.3977 31.0104 51.9457 30.2435 51.7265C29.367 51.5073 28.9288 50.6306 29.1479 49.8634C29.367 49.0963 30.2435 48.5484 31.0104 48.7675ZM10.3031 44.0552C10.4127 43.7264 10.8509 43.3976 11.1796 43.5072L13.59 44.1648L14.2474 41.7538C14.3569 41.425 14.7952 41.0962 15.1239 41.2058L16.5482 41.5346C16.8769 41.6442 17.2056 42.0826 17.096 42.4113L16.3291 44.9319L18.7394 45.5894C19.0681 45.699 19.3968 46.1374 19.2873 46.4662L18.849 47.8908C18.7394 48.2196 18.3012 48.5484 17.9725 48.4388L15.5621 47.7812L14.9048 50.1922C14.7952 50.521 14.3569 50.8498 14.0283 50.7402L12.6039 50.4114C12.2753 50.3018 11.9466 49.8634 12.0561 49.5347L12.7135 47.1237L10.4127 46.3566C10.084 46.247 9.75532 45.8086 9.86488 45.4798L10.3031 44.0552Z" fill="#F5333F"/>
<path d="M25.0936 58.0828C24.5458 60.0554 22.1354 61.5896 20.8207 63.0143C20.3824 61.0417 19.0677 58.5211 19.5059 56.5485C19.5059 56.3293 19.725 56.0006 19.8346 55.7814C18.6294 56.3293 17.6434 57.4252 17.3147 58.7403C16.4382 62.1376 18.3007 66.302 18.9581 69.5897C21.1494 67.0691 24.9841 64.5486 25.8606 61.1513C26.1892 59.7266 25.8606 58.4115 25.0936 57.3156C25.2032 57.5348 25.0936 57.8636 25.0936 58.0828Z" fill="black"/>
<path d="M32.2149 20.3837C35.2827 21.2604 37.0357 24.329 36.2688 27.2879C35.3923 30.3564 32.3245 32.1099 29.3663 31.3427C26.4081 30.5756 24.5456 27.3975 25.3125 24.4386C26.0794 21.37 29.1472 19.507 32.2149 20.3837Z" fill="black"/>
</g>
<defs>
<clipPath id="clip0_3_151">
<rect width="161" height="70" fill="white" transform="translate(0.5)"/>
</clipPath>
</defs>
</svg>
