<svg width="276" height="120" viewBox="0 0 276 120" fill="none" xmlns="http://www.w3.org/2000/svg">
<path d="M112.406 34.7557C111.842 36.8223 111.279 39.0767 110.527 41.7068C109.964 44.1491 109.025 46.9672 108.274 50.3488H126.492L127.431 46.9672H118.228L120.106 40.2039H131.939C134.569 40.2039 136.259 42.2705 135.508 45.0885L134.193 50.3488L133.442 52.979C132.69 55.6091 130.061 57.8635 127.243 57.8635H101.7C99.0703 57.8635 97.3799 55.797 98.1312 52.979L103.766 31.7498C104.517 29.1197 107.334 26.8652 109.964 26.8652H139.264L137.198 34.5678C128.558 34.7557 120.858 34.7557 112.406 34.7557ZM218.713 49.4095L220.027 43.0219L218.149 45.6521L212.89 52.2275H212.702L208.195 57.8635H198.428L197.113 52.2275H196.925L195.235 45.6521L194.671 43.0219L192.605 49.4095L189.976 57.8635H180.773L190.539 27.0531H200.494L205.941 48.658L223.032 27.0531H232.987L226.225 57.8635H217.022L218.713 49.4095ZM245.571 39.0767C245.947 37.3859 246.134 36.4465 246.698 34.7557H273.932L275.998 27.0531H244.632C241.815 27.0531 238.997 29.3075 238.246 32.1256C237.307 35.5072 236.368 39.0767 235.429 42.4583C234.49 45.84 233.55 49.4095 232.611 52.7911C231.86 55.6091 233.55 57.8635 236.368 57.8635H267.734L269.8 50.1609H242.566C242.754 49.2216 242.941 48.4701 243.129 47.9065C243.317 47.155 243.505 46.5914 243.693 45.6521H264.165L265.856 39.0767H245.571ZM161.99 36.2587L164.62 46.2157H154.102L161.99 36.2587ZM167.437 57.8635H177.392L169.503 26.8652H159.737L134.944 57.8635H144.899L148.843 52.979H166.123L167.437 57.8635Z" fill="black"/>
<path d="M155.605 83.7893C157.858 83.7893 160.3 81.7228 161.051 78.9047C161.239 78.1533 161.427 77.4018 161.615 76.4624C162.178 74.0201 162.93 71.2021 163.493 68.9477C164.244 66.1297 162.93 64.0631 160.676 64.0631H133.066L131.188 71.7657H154.665L153.538 76.0867H134.193C131.939 76.0867 129.497 78.1533 128.746 80.9713C128.183 83.4136 127.619 85.668 126.868 88.1103C126.304 90.5526 125.553 92.807 124.99 95.2493H133.066C133.629 93.1827 134.005 91.3041 134.569 89.6132C135.132 87.7346 135.508 86.0437 136.071 83.9772H155.605V83.7893ZM195.61 64.4388H172.133C169.879 64.4388 167.437 66.6933 166.686 69.5113C165.747 72.8929 164.996 76.4624 164.057 79.8441C163.117 83.4136 162.366 86.7952 161.427 90.1768C160.864 92.9949 162.178 95.2493 164.432 95.2493H187.91C190.164 95.2493 192.605 92.9949 193.357 90.1768C194.296 86.7952 195.047 83.2257 195.986 79.8441C196.925 76.2746 197.677 72.8929 198.616 69.5113C199.367 66.6933 198.052 64.4388 195.61 64.4388ZM188.849 78.3411C188.285 80.4077 188.098 81.347 186.407 87.5467H169.879C170.818 84.165 171.194 82.2864 171.569 81.1592C172.321 78.7169 172.321 78.1533 174.011 71.9536H190.539C189.6 75.5231 189.037 77.2139 188.849 78.3411ZM228.291 95.2493H220.215L217.773 83.0378H208.007C206.88 87.1709 205.753 91.304 204.814 95.4372H196.737C198.052 90.7404 199.179 86.0437 200.494 81.347C201.245 78.529 203.499 76.4624 205.941 76.4624C209.134 76.4624 212.327 76.4624 215.707 76.4624C218.9 76.4624 222.093 76.4624 225.474 76.4624L226.601 72.1415H203.123L205.002 64.4388H232.611C234.677 64.4388 236.18 66.5054 235.429 69.3234L233.175 77.9654C232.423 80.7834 230.17 82.85 227.728 82.85H226.225L228.291 95.2493ZM121.609 75.5231C123.863 75.5231 125.177 77.5896 124.426 80.4077C124.238 81.1591 124.051 81.9106 123.863 82.85C123.299 85.2923 122.548 88.1103 121.984 90.3647C121.233 93.1827 118.979 95.2493 116.538 95.2493H89.6792L91.5574 87.5467H114.284L115.411 83.2257H96.0651C93.8113 83.2257 92.4965 81.1592 93.2478 78.3411C93.6234 76.8382 93.9991 75.3352 94.3747 73.6444C94.7504 72.1415 95.126 70.4506 95.5017 68.9477C96.2529 66.3175 98.5068 64.251 100.761 64.251H127.431L125.553 71.9536H103.015L102.075 75.5231H121.609ZM265.668 71.9536L267.734 64.251H238.622L236.556 71.9536H247.261L241.251 95.2493H248.952L254.962 71.9536H265.668Z" fill="#F5333F"/>
<path d="M0.0892544 98.0674C-0.286389 99.7582 0.464897 103.14 3.47004 103.891C3.47004 103.891 3.65786 103.891 3.84568 103.891C7.78993 104.643 10.9829 102.201 12.4855 101.261C20.1862 96.5644 23.7548 93.7464 26.9477 92.6192C31.2676 91.1162 35.7753 91.6799 38.7805 92.2435C41.5978 93.1828 45.9177 94.8736 48.9228 98.4431C51.1767 101.073 52.8671 105.394 57.187 113.285C58.1261 114.788 59.6287 118.545 63.3851 119.86C63.3851 119.86 63.5729 119.86 63.7607 119.86C66.7659 120.612 69.0197 118.169 69.5832 116.479C70.5223 113.66 74.8422 91.3041 74.2787 85.8559C74.0909 82.2864 72.2127 78.1533 68.6441 75.3353C69.3954 69.3235 68.2684 65.0025 66.7659 59.5543C69.5832 56.9242 71.6492 53.5425 72.5883 49.5973C74.0909 44.5248 73.3396 39.2645 71.2736 34.7557C72.0249 16.1567 63.7607 0 63.7607 0C63.7607 0 48.5472 9.76917 39.5318 26.4895C35.3997 29.3075 32.3945 33.6285 30.892 38.7009C29.765 42.6462 29.9529 46.7793 30.892 50.3488C26.7599 54.294 23.7548 57.4878 21.3131 62.936C16.9932 63.3117 13.4246 66.1297 11.3585 68.9478C8.16558 73.6445 0.84054 95.2494 0.0892544 98.0674ZM53.994 72.7051C50.8011 72.5173 47.6081 72.1415 44.6029 71.2022C41.5978 70.4507 38.5927 69.1356 35.7753 67.6327C35.5875 64.8147 35.5875 61.8088 35.7753 58.4271C38.5927 61.433 42.1613 63.8753 46.2933 65.0025C50.6132 66.1297 54.9331 65.9419 58.8774 64.6268C57.187 67.6327 55.6844 70.4507 53.994 72.7051ZM46.1055 23.4836C47.9837 20.6655 50.0498 18.0354 52.1158 15.781L66.0146 19.5383C66.578 22.5442 67.1415 25.738 67.3293 29.3075C64.6998 26.6773 61.5069 24.6108 57.5626 23.4836C53.6184 22.3564 49.6741 22.5442 46.1055 23.4836ZM56.4357 27.2409C65.8268 29.8711 71.4614 39.4524 68.8319 48.8458C66.2024 58.2393 56.6235 63.8753 47.2324 61.2451C37.8414 58.615 32.2067 49.0337 34.8362 39.6403C37.2779 30.2468 47.0446 24.7987 56.4357 27.2409ZM64.3242 86.7953C65.8268 87.171 66.5781 88.674 66.2024 89.989C65.8268 91.492 64.3242 92.2435 63.0094 91.8677C61.5069 91.492 60.7556 89.989 61.1312 88.674C61.5069 87.3589 62.8216 86.4195 64.3242 86.7953ZM60.0043 79.2805C61.5069 79.6563 62.2582 81.1592 61.8825 82.4743C61.5069 83.9772 60.0043 84.7287 58.6896 84.353C57.187 83.9772 56.4357 82.4743 56.8113 81.1592C56.9992 79.8441 58.5017 78.9048 60.0043 79.2805ZM56.6235 91.1162C58.1261 91.492 58.8774 92.9949 58.5017 94.31C58.1261 95.813 56.6235 96.5644 55.3088 96.1887C53.8062 95.813 53.0549 94.31 53.4306 92.9949C53.8062 91.6799 55.3088 90.7405 56.6235 91.1162ZM52.3036 83.6015C53.8062 83.9772 54.5575 85.4802 54.1818 86.7953C53.8062 88.1104 52.3036 89.0497 50.9889 88.674C49.4863 88.2982 48.735 86.7953 49.1107 85.4802C49.4863 84.1651 50.9889 83.2258 52.3036 83.6015ZM16.8054 75.5232C16.9932 74.9596 17.7445 74.396 18.3079 74.5838L22.44 75.711L23.5669 71.5779C23.7548 71.0143 24.506 70.4507 25.0695 70.6386L27.5112 71.2022C28.0747 71.3901 28.6381 72.1415 28.4503 72.7051L27.1355 77.0261L31.2676 78.1533C31.8311 78.3412 32.3946 79.0927 32.2067 79.6563L31.4554 82.0986C31.2676 82.6622 30.5163 83.2258 29.9529 83.0379L25.8208 81.9107L24.6939 86.0438C24.506 86.6074 23.7548 87.171 23.1913 86.9831L20.7496 86.4195C20.1862 86.2317 19.6227 85.4802 19.8105 84.9166L20.9374 80.7835L16.9932 79.4684C16.4297 79.2805 15.8663 78.5291 16.0541 77.9655L16.8054 75.5232Z" fill="#F5333F"/>
<path d="M42.1604 99.5705C41.2213 102.952 37.0892 105.582 34.8353 108.025C34.084 104.643 31.8302 100.322 32.5815 96.9403C32.5815 96.5646 32.9571 96.001 33.1449 95.6252C31.0789 96.5646 29.3885 98.4433 28.825 100.698C27.3225 106.522 30.5154 113.661 31.6424 119.297C35.3988 114.976 41.9726 110.655 43.4751 104.831C44.0386 102.389 43.4751 100.134 42.1604 98.2554C42.3482 98.6311 42.1604 99.1947 42.1604 99.5705Z" fill="black"/>
<path d="M54.3688 34.9436C59.6278 36.4465 62.633 41.7068 61.3182 46.7793C59.8156 52.0396 54.5566 55.0455 49.4855 53.7304C44.4143 52.4153 41.2213 46.9671 42.5361 41.8947C43.8508 36.6344 49.1098 33.4406 54.3688 34.9436Z" fill="black"/>
</svg>
