<svg width="112" height="48" viewBox="0 0 112 48" fill="none" xmlns="http://www.w3.org/2000/svg">
<path d="M45.7622 13.9023C45.5368 14.7289 45.3114 15.6307 45.0109 16.6827C44.7855 17.6597 44.4099 18.7869 44.1094 20.1395H51.3968L51.7725 18.7869H48.0912L48.8425 16.0816H53.5756C54.6274 16.0816 55.3035 16.9082 55.003 18.0354L54.4771 20.1395L54.1766 21.1916C53.8761 22.2436 52.8243 23.1454 51.6974 23.1454H41.4799C40.4281 23.1454 39.7519 22.3188 40.0524 21.1916L42.3063 12.6999C42.6068 11.6479 43.7337 10.7461 44.7855 10.7461H56.5056L55.6792 13.8271C52.2233 13.9023 49.143 13.9023 45.7622 13.9023ZM88.285 19.7638L88.8109 17.2088L88.0596 18.2608L85.956 20.891H85.8809L84.0778 23.1454H80.1711L79.6452 20.891H79.5701L78.8939 18.2608L78.6685 17.2088L77.8421 19.7638L76.7903 23.1454H73.109L77.0157 10.8212H80.9975L83.1762 19.4632L90.0129 10.8212H93.9948L91.2901 23.1454H87.6088L88.285 19.7638ZM99.0284 15.6307C99.1786 14.9543 99.2538 14.5786 99.4791 13.9023H110.373L111.199 10.8212H98.6527C97.5258 10.8212 96.3989 11.723 96.0984 12.8502C95.7227 14.2029 95.3471 15.6307 94.9714 16.9833C94.5958 18.336 94.2201 19.7638 93.8445 21.1164C93.544 22.2436 94.2201 23.1454 95.3471 23.1454H107.894L108.72 20.0644H97.8263C97.9014 19.6886 97.9766 19.388 98.0517 19.1626C98.1268 18.862 98.202 18.6366 98.2771 18.2608H106.466L107.142 15.6307H99.0284V15.6307ZM65.5961 14.5035L66.6479 18.4863H62.4407L65.5961 14.5035ZM67.7749 23.1454H71.7567L68.6013 10.7461H64.6946L54.7776 23.1454H58.7594L60.3371 21.1916H67.249L67.7749 23.1454Z" fill="white"/>
<path d="M63.0417 33.5157C63.9433 33.5157 64.9199 32.6891 65.2205 31.5619C65.2956 31.2613 65.3707 30.9607 65.4458 30.585C65.6712 29.6081 65.9717 28.4808 66.1971 27.5791C66.4976 26.4519 65.9717 25.6252 65.0702 25.6252H54.0263L53.275 28.7063H62.6661L62.2153 30.4347H54.4771C53.5755 30.4347 52.5989 31.2613 52.2983 32.3885C52.073 33.3654 51.8476 34.2672 51.5471 35.2441C51.3217 36.221 51.0212 37.1228 50.7958 38.0997H54.0263C54.2517 37.2731 54.4019 36.5216 54.6273 35.8453C54.8527 35.0938 55.003 34.4175 55.2284 33.5909H63.0417V33.5157ZM79.0441 25.7755H69.653C68.7515 25.7755 67.7748 26.6773 67.4743 27.8045C67.0987 29.1572 66.7982 30.585 66.4225 31.9376C66.0469 33.3654 65.7464 34.7181 65.3707 36.0707C65.1453 37.1979 65.6712 38.0997 66.5728 38.0997H75.9638C76.8654 38.0997 77.8421 37.1979 78.1426 36.0707C78.5182 34.7181 78.8187 33.2903 79.1944 31.9376C79.57 30.5098 79.8705 29.1572 80.2462 27.8045C80.5467 26.6773 80.0208 25.7755 79.0441 25.7755ZM76.3395 31.3365C76.1141 32.1631 76.039 32.5388 75.3628 35.0187H68.7515C69.1271 33.666 69.2774 32.9145 69.4277 32.4637C69.7282 31.4867 69.7282 31.2613 70.4043 28.7814H77.0156C76.64 30.2092 76.4146 30.8856 76.3395 31.3365ZM92.1165 38.0997H88.886L87.9093 33.2151H84.0026C83.5518 34.8684 83.1011 36.5216 82.7254 38.1749H79.4949C80.0208 36.2962 80.4715 34.4175 80.9974 32.5388C81.298 31.4116 82.1995 30.585 83.1762 30.585C84.4534 30.585 85.7306 30.585 87.0829 30.585C88.3601 30.585 89.6372 30.585 90.9896 30.585L91.4403 28.8566H82.0492L82.8005 25.7755H93.8444C94.6709 25.7755 95.2719 26.6022 94.9714 27.7294L94.0698 31.1862C93.7693 32.3134 92.8678 33.14 91.8911 33.14H91.2901L92.1165 38.0997ZM49.4435 30.2092C50.345 30.2092 50.8709 31.0359 50.5704 32.1631C50.4953 32.4637 50.4201 32.7643 50.345 33.14C50.1196 34.1169 49.8191 35.2441 49.5937 36.1459C49.2932 37.2731 48.3917 38.0997 47.415 38.0997H36.6716L37.4229 35.0187H46.5134L46.9642 33.2903H39.226C38.3244 33.2903 37.7985 32.4637 38.099 31.3365C38.2493 30.7353 38.3996 30.1341 38.5498 29.4578C38.7001 28.8566 38.8503 28.1803 39.0006 27.5791C39.3011 26.527 40.2026 25.7004 41.1042 25.7004H51.7724L51.0212 28.7814H42.0057L41.6301 30.2092H49.4435ZM107.067 28.7814L107.893 25.7004H96.2486L95.4221 28.7814H99.7045L97.3003 38.0997H100.381L102.785 28.7814H107.067Z" fill="#F5333F"/>
<path d="M0.83569 39.227C0.685432 39.9033 0.985947 41.2559 2.188 41.5565C2.188 41.5565 2.26313 41.5565 2.33826 41.5565C3.91596 41.8571 5.19315 40.8802 5.79417 40.5045C8.87445 38.6258 10.3019 37.4986 11.5791 37.0477C13.307 36.4465 15.1101 36.6719 16.3122 36.8974C17.4391 37.2731 19.1671 37.9494 20.3691 39.3772C21.2707 40.4293 21.9468 42.1577 23.6748 45.3139C24.0504 45.9151 24.6514 47.418 26.154 47.9441C26.154 47.9441 26.2291 47.9441 26.3043 47.9441C27.5063 48.2446 28.4079 47.2677 28.6333 46.5914C29.0089 45.4642 30.7369 36.5216 30.5115 34.3424C30.4363 32.9146 29.6851 31.2613 28.2576 30.1341C28.5581 27.7294 28.1074 26.001 27.5063 23.8217C28.6333 22.7697 29.4597 21.417 29.8353 19.8389C30.4363 17.8099 30.1358 15.7058 29.3094 13.9023C29.6099 6.46268 26.3043 0 26.3043 0C26.3043 0 20.2189 3.90767 16.6127 10.5958C14.9599 11.723 13.7578 13.4514 13.1568 15.4804C12.706 17.0585 12.7811 18.7117 13.1568 20.1395C11.5039 21.7176 10.3019 22.9951 9.32522 25.1744C7.59726 25.3247 6.16982 26.4519 5.3434 27.5791C4.06622 29.4578 1.1362 38.0997 0.83569 39.227ZM22.3976 29.0821C21.1204 29.0069 19.8432 28.8566 18.6412 28.4809C17.4391 28.1803 16.237 27.6543 15.1101 27.0531C15.035 25.9259 15.035 24.7235 15.1101 23.3708C16.237 24.5732 17.6645 25.5501 19.3173 26.001C21.0453 26.4519 22.7732 26.3767 24.3509 25.8507C23.6748 27.0531 23.0737 28.1803 22.3976 29.0821ZM19.2422 9.39343C19.9935 8.26622 20.8199 7.21415 21.6463 6.31238L27.2058 7.81533C27.4312 9.01769 27.6566 10.2952 27.7317 11.723C26.6799 10.6709 25.4027 9.84431 23.825 9.39343C22.2473 8.94254 20.6696 9.01769 19.2422 9.39343ZM23.3743 10.8964C27.1307 11.9484 29.3845 15.781 28.3327 19.5383C27.2809 23.2957 23.4494 25.5501 19.693 24.4981C15.9365 23.446 13.6827 19.6135 14.7345 15.8561C15.7111 12.0987 19.6178 9.91946 23.3743 10.8964ZM26.5297 34.7181C27.1307 34.8684 27.4312 35.4696 27.2809 35.9956C27.1307 36.5968 26.5297 36.8974 26.0038 36.7471C25.4027 36.5968 25.1022 35.9956 25.2525 35.4696C25.4027 34.9436 25.9286 34.5678 26.5297 34.7181ZM24.8017 31.7122C25.4027 31.8625 25.7032 32.4637 25.553 32.9897C25.4027 33.5909 24.8017 33.8915 24.2758 33.7412C23.6748 33.5909 23.3743 32.9897 23.5245 32.4637C23.5996 31.9377 24.2007 31.5619 24.8017 31.7122ZM23.4494 36.4465C24.0504 36.5968 24.3509 37.198 24.2007 37.724C24.0504 38.3252 23.4494 38.6258 22.9235 38.4755C22.3225 38.3252 22.0219 37.724 22.1722 37.198C22.3225 36.6719 22.9235 36.2962 23.4494 36.4465ZM21.7214 33.4406C22.3225 33.5909 22.623 34.1921 22.4727 34.7181C22.3225 35.2441 21.7214 35.6199 21.1955 35.4696C20.5945 35.3193 20.294 34.7181 20.4442 34.1921C20.5945 33.666 21.1955 33.2903 21.7214 33.4406ZM7.52213 30.2093C7.59726 29.9838 7.89777 29.7584 8.12316 29.8335L9.77599 30.2844L10.2268 28.6312C10.3019 28.4057 10.6024 28.1803 10.8278 28.2554L11.8045 28.4809C12.0298 28.556 12.2552 28.8566 12.1801 29.0821L11.6542 30.8104L13.307 31.2613C13.5324 31.3365 13.7578 31.6371 13.6827 31.8625L13.3822 32.8394C13.307 33.0649 13.0065 33.2903 12.7811 33.2152L11.1283 32.7643L10.6775 34.4175C10.6024 34.643 10.3019 34.8684 10.0765 34.7933L9.09983 34.5678C8.87445 34.4927 8.64906 34.1921 8.72419 33.9666L9.17496 32.3134L7.59726 31.7874C7.37187 31.7122 7.14649 31.4116 7.22162 31.1862L7.52213 30.2093Z" fill="#F5333F"/>
<path d="M17.6642 39.8281C17.2885 41.1807 15.6357 42.2328 14.7341 43.2097C14.4336 41.8571 13.5321 40.1287 13.8326 38.776C13.8326 38.6257 13.9829 38.4003 14.058 38.25C13.2316 38.6257 12.5554 39.3772 12.33 40.279C11.729 42.6085 13.0062 45.4642 13.457 47.7186C14.9595 45.9902 17.589 44.2618 18.1901 41.9322C18.4154 40.9553 18.1901 40.0535 17.6642 39.3021C17.7393 39.4524 17.6642 39.6778 17.6642 39.8281Z" fill="white"/>
<path d="M22.5475 13.9775C24.6511 14.5787 25.8532 16.6828 25.3272 18.7118C24.7262 20.8159 22.6226 22.0183 20.5941 21.4923C18.5657 20.9662 17.2885 18.787 17.8144 16.758C18.3403 14.6539 20.4439 13.3763 22.5475 13.9775Z" fill="white"/>
</svg>
