<svg width="112" height="110" viewBox="0 0 112 110" fill="none" xmlns="http://www.w3.org/2000/svg">
<path d="M109.828 40.4929C109.527 40.1519 109.351 39.8403 109.102 39.407C108.973 39.1878 108.833 38.9511 108.678 38.697C109.108 38.1427 109.47 37.5017 109.745 36.7976L110.843 34.0089L108.139 33.5756C107.683 33.5007 106.948 33.2871 106.088 33.033C104.431 32.5479 102.302 31.9245 99.9814 31.653C100.774 31.2663 101.447 30.5676 101.918 29.6207L102.364 28.7258C102.364 28.7258 102.245 27.4728 101.81 27.0804C101.976 26.6933 102.105 26.2661 102.193 25.7984L102.561 23.8007L100.831 23.1427C100.562 23.0385 100.292 22.9636 100.028 22.9175C99.9296 22.5536 99.7846 22.1668 99.5878 21.7569L98.5622 19.661L96.7131 20.8677C96.2521 21.168 95.8638 21.5143 95.5478 21.9013C95.2732 21.8434 94.9779 21.8146 94.6672 21.8146C94.6672 21.8146 93.6108 21.6818 92.4452 22.1552L90.9536 20.4289L89.1874 18.3273C87.535 16.3583 85.2977 15.7753 83.0188 16.7453C82.1486 15.7753 80.7914 14.9726 78.6836 14.9726C77.9687 14.9726 77.3418 15.0708 76.9742 15.1229C76.9742 15.1229 74.0737 15.7117 72.4421 17.4381L70.4637 16.3873C69.1377 18.7141 66.8691 19.4532 66.8691 19.4532C66.7137 18.7718 66.4495 18.1367 66.0716 17.5535L66.2011 16.7336C66.2011 16.7105 66.6463 13.9334 68.0035 11.5776L70.3652 7.47832L67.0194 7.89974C67.0297 7.53039 67.0143 7.09155 66.9674 6.57193L66.667 3.38472L64.0462 4.70684C63.7562 4.85124 63.5129 4.99565 63.285 5.12848L62.7669 3.89867L61.5655 4.59143C61.4463 4.26237 61.2907 3.88713 61.0785 3.45395L59.6957 0.625L57.7327 2.9864C57.5306 3.22877 57.3596 3.45395 57.2146 3.66759L56.0233 2.34546L54.8218 3.6735C54.6714 3.45986 54.5056 3.23466 54.3038 2.99204L52.32 0.625L50.9319 3.46549C50.7195 3.89867 50.5694 4.26803 50.4502 4.59733L49.2538 3.90433L48.7358 5.13414C48.5079 5.00128 48.2646 4.85713 47.9744 4.70684L45.3434 3.3906L45.0532 6.58913C45.0065 7.10311 44.9911 7.53604 45.0014 7.90562L41.6503 7.48423L44.0173 11.5835C45.3796 13.9334 45.8146 16.7105 45.8146 16.7336L45.9389 17.5535C45.5609 18.1424 45.2916 18.7777 45.1412 19.4589C45.1412 19.4589 42.997 18.4368 41.5624 16.3873L39.5423 17.4612C37.2375 15.7289 35.808 15.0536 33.3218 14.9726C31.2138 14.9092 29.8567 15.7753 28.9865 16.7453C26.7024 15.781 24.4701 16.3642 22.8231 18.333C22.8231 18.333 21.7406 19.6435 21.0569 20.4348C20.3731 21.2314 19.3631 21.8898 19.3631 21.8898C19.3631 21.8898 17.9285 21.5317 16.4523 21.907C16.1365 21.5202 15.7427 21.1737 15.2766 20.8677L13.4223 19.661L12.402 21.7685C12.2052 22.1727 12.0652 22.5536 11.972 22.9175C11.708 22.9636 11.4387 23.0385 11.1694 23.1427L9.4497 23.8123L9.80713 25.7984C9.89507 26.2779 10.0194 26.7048 10.1902 27.092C10.0919 27.3056 10.0039 27.5307 9.93142 27.7674L9.64142 28.7315L10.0815 29.6264C10.5478 30.5676 11.2159 31.272 12.0135 31.6589C9.68792 31.9304 7.56446 32.5538 5.90178 33.0389C5.04722 33.2871 4.31168 33.5063 3.85586 33.5814L1.14186 34.0204L1.75815 35.5793L2.25034 36.8206C2.52983 37.5132 2.8977 38.1542 3.32245 38.7086C3.16177 38.9627 2.47804 40.1578 2.17254 40.4985L0.799988 42.0516L2.11566 43.6683C2.28142 43.8644 3.75756 45.5911 6.14514 45.5967C6.79781 45.5967 7.44525 45.4698 8.0874 45.2157C8.72448 46.3244 9.48077 47.45 10.1694 48.0042C8.90056 49.6672 7.45561 51.1108 5.39945 52.202L3.67976 53.1141L4.42035 55.3023C4.90219 56.6246 5.83964 58.0738 7.6524 58.6282C7.26389 59.9215 7.07746 61.1453 6.91174 62.2366C6.52336 64.8291 6.3576 65.903 4.31168 66.7055L2.47297 67.4217L3.00131 69.5117C3.42605 71.215 4.06306 72.3409 4.75187 73.0857L3.52964 74.5868C3.52964 74.5868 6.43013 77.0119 9.27342 77.3062C9.31506 77.3119 11.7389 77.4852 12.8266 75.938C13.2618 77.6929 13.9505 79.3096 14.5774 80.7762C15.8617 83.7903 16.5455 85.5744 15.6856 87.2023L13.7433 90.8746L17.5607 90.6956C19.2285 90.6205 20.7772 90.5051 22.1186 90.1354C22.1186 90.2164 22.1135 90.2915 22.1082 90.3666L21.7975 93.5189L25.1433 92.7336C25.4957 92.6182 25.8271 92.4623 26.1275 92.2835C28.1992 94.9856 31.7213 97.093 36.4658 97.093H36.7403L31.2863 99.5871L35.2588 101.891C37.8746 103.409 40.7803 104.68 44.0951 105.759L43.6341 107.532L45.6282 108.184C46.778 108.56 50.9372 109.789 56.0026 109.789C61.0681 109.789 65.222 108.56 66.377 108.184L68.366 107.532L67.9048 105.765C71.2251 104.685 74.1308 103.415 76.7463 101.897L80.7189 99.5927L75.2598 97.0986H75.5345C80.2788 97.0986 83.7954 94.9914 85.8675 92.2892C86.1679 92.4682 86.4993 92.624 86.8515 92.7394L90.1973 93.5248L89.8919 90.3782C89.8866 90.303 89.8815 90.2223 89.8815 90.1413C91.2178 90.5107 92.7716 90.6205 94.4343 90.7013L98.2515 90.8802L96.3193 87.2139C95.4546 85.5859 96.1432 83.8018 97.4229 80.788C98.0494 79.3213 98.7383 77.7044 99.1735 75.9495C99.9088 76.5729 100.701 76.9483 101.489 77.1447C101.489 77.1447 102.1 77.3465 102.685 77.3639C104.373 77.4216 105.218 76.8849 106.378 76.0706L108.486 74.5924L107.253 73.0914C107.942 72.3524 108.579 71.2265 109.004 69.5289L109.538 67.4332L107.694 66.7171C105.642 65.9145 105.482 64.8407 105.094 62.2481C104.928 61.1569 104.746 59.9271 104.353 58.6397C106.166 58.0797 107.098 56.6302 107.58 55.3138L108.315 53.12L106.595 52.2077C104.539 51.1164 103.094 49.6729 101.82 48.01C102.514 47.4559 103.27 46.33 103.913 45.2216C104.55 45.4754 105.197 45.5967 105.855 45.6026C108.243 45.6026 109.724 43.8762 109.885 43.6798L111.2 42.0632L109.828 40.4929Z" fill="white"/>
<path fill-rule="evenodd" clip-rule="evenodd" d="M39.1692 68.946V51.3359C39.1692 49.6962 38.7445 48.0565 38.2368 46.5493H50.4967C51.6208 48.2701 53.6614 49.4247 56.0025 49.4247C58.3333 49.4247 60.3739 48.2701 61.5031 46.5493H73.7628C73.2447 48.0621 72.8253 49.6962 72.8253 51.3359V68.946H39.1692ZM55.9973 93.011C54.2828 91.1115 53.0604 90.9036 48.4404 90.9036C42.9192 90.9036 39.1692 87.2949 39.1692 81.527V69.9794H72.8202V81.527C72.8202 87.2949 69.0753 90.9036 63.5437 90.9036C58.9288 90.8979 57.7064 91.1115 55.9973 93.011Z" fill="#FFDD2D"/>
<path d="M41.1221 95.1877V98.7039L38.3823 99.9338C40.6975 101.106 43.5722 102.272 46.9491 103.132L48.5029 97.4913C45.1881 96.7349 42.878 95.9439 41.1221 95.1877Z" fill="white"/>
<path d="M55.996 99.9511C52.7586 99.9511 50.0343 99.576 48.9467 99.2988L47.305 105.217C49.8842 105.921 52.9039 106.441 55.996 106.441C59.0777 106.441 62.0973 105.927 64.6871 105.217L63.0401 99.2988C61.9523 99.5817 59.2383 99.9511 55.996 99.9511Z" fill="white"/>
<path d="M70.8725 95.1877C69.1115 95.9439 66.8065 96.7293 63.4917 97.4972L65.0506 103.138C68.433 102.278 71.2971 101.112 73.6123 99.9395L70.8777 98.7095V95.1877H70.8725Z" fill="white"/>
<path d="M35.3836 38.4603C39.6724 35.8794 50.1555 30.1979 43.0491 24.072C42.0806 23.2405 41.0138 22.49 40.1175 21.5605C39.0093 22.5131 40.532 24.8804 40.9153 25.7466C40.9153 25.7466 38.5481 26.012 37.9837 26.012C34.327 25.9948 30.4941 23.5812 32.4365 18.9565C30.9809 19.2913 30.8049 20.8503 30.3597 22.184C29.4273 21.4795 27.8061 19.9668 26.5579 20.1804C27.573 23.8007 31.8461 27.0628 35.1608 27.802C31.8097 29.8343 25.5945 31.3468 22.3262 26.9704C20.0318 31.9186 23.2273 33.9855 26.3611 36.5781C14.4327 42.6462 16.1939 49.4534 8.36778 54.8115C9.3828 55.3428 13.9096 54.2746 14.3137 54.211C12.6147 56.6648 11.8223 57.7043 11.3251 58.8992C10.8485 60.0194 10.6362 61.284 10.1649 64.0091C9.79709 66.1627 9.12366 68.3106 6.77234 69.7368C7.69435 71.5958 9.74023 70.1409 10.5948 69.8927C10.4809 70.0888 10.1907 72.3291 9.42423 73.4088C13.4435 73.1201 11.584 63.6743 15.6033 65.9491C16.7375 66.5842 17.0795 68.074 16.5562 69.2922C13.9147 75.366 19.9179 80.7185 19.5913 86.042C21.0677 86.0305 22.5957 85.9839 23.559 83.761C24.0614 84.8697 24.8382 86.4287 25.2732 87.93L26.4751 85.6492C27.2155 89.4251 30.3751 92.9127 34.643 93.2243C32.6074 89.6331 35.0471 84.731 30.1008 79.5175C30.7169 78.9631 32.1414 77.8949 32.6489 77.1675C26.5787 77.9644 20.244 72.6121 23.1187 70.0716C24.9989 68.4145 25.8224 71.8557 28.7228 71.2783L27.5886 70.187C27.9873 69.7483 28.4432 69.1768 28.9143 68.7437C27.6818 68.576 26.3352 67.6984 26.3352 67.6984L27.0705 66.3417C19.9593 66.3301 19.7779 60.2679 22.668 60.0251C24.0251 59.9156 25.7809 62.7043 30.1576 62.1212C29.5981 61.3707 29.3755 60.2332 29.1111 59.3961C30.168 59.2863 31.4111 59.2979 32.4107 58.7551C30.2716 58.4492 29.7328 57.6464 27.9511 56.1451L30.0177 55.3025C27.0187 53.6338 27.2001 50.7295 27.1069 47.7041C28.6763 48.7087 30.5201 50.2675 32.4882 49.5457C32.9545 49.3726 33.2549 49.13 33.2652 48.5872C30.458 47.3344 28.6556 42.5134 35.3836 38.4603ZM30.2612 38.9337C26.5062 43.4083 28.1323 46.0875 28.8885 46.9131C27.4901 46.578 25.403 44.5919 25.8792 42.6693C25.4341 43.2639 24.9781 43.9108 24.5121 44.5747C23.5797 45.9605 22.7458 47.3172 22.0052 48.6334C20.8657 52.4095 22.953 56.3071 26.5062 58.0333C22.5594 57.3866 20.7881 53.472 20.7984 50.9777C18.913 54.95 18.0117 58.5761 18.0946 61.6189C18.1309 62.7504 18.2188 63.8071 18.3535 64.8058C19.2601 66.7227 20.7156 67.4271 23.3102 67.7796C20.9538 67.947 19.7052 67.8258 18.6798 66.6245C20.2854 74.3211 27.7957 80.9839 30.8516 86.6885C27.7905 82.2544 21.456 75.649 19.2393 70.8742C19.0684 72.6006 19.4826 77.0232 21.4093 79.7426C18.571 76.6306 18.3484 71.9193 18.5348 69.1594C17.8151 67.1732 17.3592 64.956 17.297 62.433C17.24 60.112 17.385 58.0966 17.701 56.2897C15.9087 59.1302 13.3192 60.2274 12.0448 64.5519C12.2936 58.9743 16.0282 58.8877 18.8251 52.1151C19.9075 49.1533 21.4818 46.5954 23.2223 43.697C21.0107 44.5054 19.3533 45.0829 16.7944 48.2064C18.6124 43.4142 29.1164 38.027 33.9283 32.8135C32.4832 33.154 26.5837 33.3217 24.1339 31.4971C28.5728 32.8366 38.4498 31.3066 42.1791 28.4658C39.605 32.5942 34.0008 32.8309 27.1794 41.0411C28.0494 40.2675 29.2098 39.488 30.2612 38.9337Z" fill="white"/>
<path d="M101.826 64.009C101.355 61.2841 101.148 60.0196 100.671 58.8993C100.179 57.7042 99.3819 56.665 97.6778 54.2111C98.0817 54.2745 102.619 55.3427 103.629 54.8116C95.8029 49.4535 97.5639 42.6464 85.6304 36.5782C88.764 33.9857 91.9597 31.9187 89.6651 26.9647C86.397 31.347 80.1816 29.8344 76.8305 27.7962C80.1505 27.0572 84.4183 23.8006 85.4336 20.1749C84.1799 19.9613 82.5589 21.474 81.6267 22.1726C81.1812 20.8387 81.0102 19.2798 79.5549 18.9392C81.4972 23.5696 77.6593 25.9832 73.9974 26.0006C73.4379 26.0006 71.0762 25.7347 71.0762 25.7347C71.4542 24.869 72.9771 22.5017 71.8632 21.5489C70.9674 22.4842 69.9107 23.2291 68.9369 24.0606C61.8257 30.1865 72.3191 35.8736 76.6079 38.4487C83.3255 42.502 81.5386 47.323 78.7263 48.5586C78.7366 49.1014 79.037 49.3438 79.5083 49.5171C81.4661 50.2445 83.3205 48.6856 84.8793 47.6751C84.7912 50.7007 84.9776 53.6106 81.9789 55.2734L84.0402 56.1165C82.2585 57.6178 81.725 58.4203 79.5859 58.7262C80.5804 59.2688 81.8339 59.2573 82.8853 59.3672C82.616 60.2042 82.383 61.3418 81.8339 62.0921C86.2157 62.6696 87.9768 59.8867 89.3233 59.9965C92.203 60.239 92.0322 66.3013 84.9155 66.3129L85.6511 67.6698C85.6511 67.6698 84.3044 68.5474 83.0664 68.7146C83.538 69.1421 83.9988 69.7193 84.3976 70.1582L83.2634 71.2495C86.1588 71.8269 86.9874 68.3857 88.8673 70.0428C91.742 72.5831 85.4129 77.9356 79.3374 77.1387C79.8501 77.8663 81.2744 78.9402 81.8907 79.4945C76.9393 84.7024 79.3735 89.6101 77.3483 93.207C81.606 92.8896 84.7654 89.4022 85.5164 85.626L86.7181 87.9068C87.148 86.4058 87.9352 84.8466 88.4273 83.7381C89.3854 85.9609 90.9238 86.0071 92.4051 86.0186C92.0684 80.6953 98.0663 75.343 95.4349 69.269C94.9069 68.0567 95.2485 66.567 96.3829 65.9259C100.413 63.6511 98.5427 73.0971 102.567 73.3856C101.795 72.3061 101.511 70.0659 101.402 69.8697C102.251 70.1179 104.292 71.5728 105.214 69.7077C102.878 68.3108 102.205 66.1628 101.826 64.009ZM94.3007 56.2837C94.6169 58.0968 94.7773 60.106 94.7048 62.4272C94.6376 64.9503 94.1868 67.1675 93.4668 69.1536C93.648 71.9136 93.4307 76.6251 90.5921 79.7369C92.5137 77.0117 92.9335 72.5946 92.7625 70.8685C90.5353 75.6435 84.2061 82.2484 81.1397 86.6827C84.2006 80.9781 91.7109 74.3095 93.3218 66.619C92.2859 67.8141 91.0481 67.9413 88.6862 67.7736C91.2759 67.4215 92.7314 66.717 93.6376 64.8001C93.7725 63.807 93.8606 62.7447 93.8968 61.6131C93.9849 58.5703 93.0785 54.9445 91.1931 50.9722C91.2087 53.4663 89.4372 57.3811 85.4854 58.0275C89.0282 56.2953 91.1206 52.3981 89.9863 48.6279C89.2508 47.3115 88.4222 45.9489 87.4795 44.5689C87.0132 43.9048 86.5574 43.2584 86.107 42.6635C86.5834 44.5861 84.4961 46.5725 83.0975 46.9074C83.859 46.0817 85.4803 43.4028 81.7303 38.9279C82.7817 39.4823 83.9419 40.2618 84.8172 41.0238C77.9958 32.8136 72.3969 32.5826 69.8122 28.4485C73.5466 31.2893 83.424 32.8252 87.8574 31.48C85.4129 33.3042 79.5083 33.1369 78.0632 32.7962C82.8749 38.01 93.3892 43.3969 95.202 48.1891C92.6433 45.0656 90.9809 44.4881 88.7794 43.6797C90.5249 46.584 92.0891 49.1361 93.1717 52.0978C95.9737 58.8706 99.7133 58.9514 99.9566 64.5346C98.6827 60.2214 96.098 59.1245 94.3007 56.2837Z" fill="white"/>
<path d="M61.4977 46.5432C60.3736 48.2637 58.3279 49.4186 56.0022 49.4186C55.4583 49.4186 54.9351 49.3493 54.438 49.2453C54.5779 49.9555 54.9041 50.6888 55.5826 51.3181C55.3082 53.3795 56.1059 55.308 58.0897 55.8101C58.3019 56.8611 58.8819 57.6521 59.8663 58.0272L58.4831 59.8057C57.9495 60.4869 57.2556 60.7062 56.6963 60.6254L50.5225 59.8459C50.7916 59.0841 50.0769 58.2005 48.119 58.5759L50.5432 51.0121L49.0668 47.5073L46.2648 50.175L46.0577 58.108L44.8509 57.4557C43.2969 56.7052 42.8359 59.8634 44.3174 59.8749L44.9131 59.8806C44.8717 60.2041 44.9649 60.5621 45.1978 60.6775C44.9182 60.8044 44.8353 61.3877 45.1824 61.5954C44.8302 61.7859 44.7784 62.3864 45.0632 62.6462C44.7575 63.2295 44.7005 64.4938 45.7833 64.8113C46.674 65.0713 47.2333 64.009 47.4147 63.391L57.0225 66.7051C58.3744 67.1384 59.3482 66.8959 60.4771 65.7928L62.9842 63.3508C62.668 64.9502 63.1808 66.3877 64.2738 66.8671C64.2738 66.8671 64.1028 68.3335 64.1703 68.9397L67.5317 68.9456H72.8249V51.3355C72.8249 49.6957 73.2447 48.056 73.7626 46.5432H67.5317H61.4977Z" fill="white"/>
<path d="M47.11 76.175L47.2964 76.4347C47.5554 76.7925 47.7107 76.706 48.006 76.5155L48.441 76.2558C48.7156 76.0245 50.5025 76.7868 50.6008 75.1299C50.7978 76.3655 49.4769 78.9693 50.2747 80.4242L51.3468 82.3816L47.8454 82.4393C47.4621 82.4393 47.2603 82.6991 47.1567 82.9301L46.2398 85.049C46.0013 85.609 46.017 86.1865 46.3175 86.5732L46.939 87.3529C46.939 87.3529 47.4467 86.8736 47.6122 86.2442L47.3378 85.9267C47.11 85.6844 47.11 85.4532 47.2343 85.1531L47.7986 83.8483C48.0164 83.3342 48.2391 83.2247 48.7363 83.3573L51.5693 84.0388C51.7767 84.0965 52.1134 84.2062 52.3153 83.8193C52.6623 83.1321 53.2734 83.086 53.8951 83.1957C55.4487 83.4555 59.0382 83.8713 60.3176 82.2026C61.8195 84.4255 64.7563 84.4255 64.5648 85.5916L63.9431 89.4139H64.8753L65.4452 85.5052C65.5073 85.049 65.7612 84.4255 65.3209 84.0734C65.1397 83.9175 65.0568 83.8367 64.6474 83.0514C64.1141 82.0121 64.1401 80.4532 63.6271 79.108C64.1141 78.467 64.6424 78.2476 65.1034 78.3688C66.1393 78.6517 66.4189 80.6437 67.8899 82.2662C67.7244 81.5444 67.6517 80.7534 67.3046 80.0665C67.3046 80.0665 68.3249 80.9498 68.5891 81.9834C68.755 82.6298 68.9258 83.1034 69.4488 83.4034C69.7961 83.5421 70.2103 83.3573 70.6248 82.8032C70.6248 82.8032 69.6561 81.2673 68.9465 80.2627C67.9728 78.8827 66.6726 77.497 64.9015 77.6586C64.342 77.7106 63.8032 77.9937 63.2906 78.3342C61.2758 77.0755 59.7116 78.4093 59.09 78.4093L55.3193 78.1611C54.5789 78.1091 53.9934 77.1506 53.9934 77.1506C53.9001 73.594 51.3364 72.1792 50.4507 72.1792C50.4507 72.1792 50.5336 71.5386 50.3005 71.3135L49.5131 72.4161L47.3275 71.5271L49.0419 73.0915L47.1825 75.4994C46.991 75.736 47.0168 76.0476 47.11 76.175Z" fill="white"/>
<path d="M44.6376 81.1693C44.1096 81.6254 44.1354 82.2606 44.4514 82.9708L44.7672 83.6288L45.5907 82.9303L45.4043 82.4798C45.2696 82.1624 45.2749 81.8393 45.5078 81.637L46.6888 80.6439C47.0204 80.3726 47.124 80.3437 47.4761 80.4013L49.9674 80.9847C49.9674 80.9847 49.5894 80.3726 49.4649 79.7488L47.1187 79.4026C46.7873 79.3565 46.5852 79.5121 46.2952 79.7603L44.6376 81.1693Z" fill="white"/>
<path d="M60.5713 89.4138H61.514L63.0264 85.2625C63.0782 85.118 63.1507 85.0546 63.2078 84.9333C62.5291 84.6331 62.1304 84.4254 61.5658 84.0615C61.9438 84.6274 62.2391 84.8697 62.0837 85.3954L60.5713 89.4138Z" fill="white"/>
<path d="M61.3733 33.2639L63.1186 22.0801L56.5047 24.586V36.1162L61.3733 33.2639ZM57.6233 25.7178L62.0101 23.9163C62.0101 23.9163 61.1556 24.6901 60.1353 25.4693C59.2289 26.168 57.6233 26.9129 57.6233 26.9129V25.7178ZM57.6233 28.4255L61.6373 26.8262C61.6373 26.8262 61.1556 27.3919 60.1403 28.1714C59.234 28.8644 57.6286 29.6093 57.6286 29.6093V28.4255H57.6233ZM57.6233 31.3008L61.1556 29.7882C61.1556 29.7882 61.1556 30.2672 60.1353 31.0411C59.2289 31.7398 57.6233 32.4846 57.6233 32.4846V31.3008Z" fill="white"/>
<path d="M49.6052 43.1546L49.7502 43.4143H51.1125L51.1279 43.68C51.1435 43.934 51.1953 44.1938 51.2729 44.4594C51.4853 45.181 51.9049 45.9374 52.5781 46.5497C53.3602 47.2538 54.4894 47.762 55.9914 47.762C59.2493 47.762 60.7202 45.4122 60.8602 43.68L60.8705 43.4143H62.2377L62.3829 43.1546C63.6674 40.9143 65.2368 38.4257 67.0599 38.0679L62.0876 34.8521L55.9914 38.5469L49.8899 34.8521L44.9228 38.0679C46.7461 38.42 48.3156 40.9143 49.6052 43.1546Z" fill="white"/>
<path d="M55.4795 36.1162V24.586L48.8758 22.0801L50.6108 33.2639L55.4795 36.1162ZM54.366 32.4962C54.366 32.4962 52.7602 31.7454 51.8538 31.0526C50.8335 30.2788 50.8335 29.7939 50.8335 29.7939L54.3711 31.3065V32.4962H54.366ZM54.366 25.7178V26.9129C54.366 26.9129 52.7602 26.168 51.8538 25.4693C50.8283 24.6901 49.9686 23.9163 49.9686 23.9163L54.366 25.7178ZM54.366 28.4255V29.6149C54.366 29.6149 52.7602 28.8701 51.8538 28.1773C50.8283 27.3978 50.352 26.8321 50.352 26.8321L54.366 28.4255Z" fill="white"/>
<path d="M55.9957 17.1497C52.2198 17.1497 49.3867 18.5298 48.7702 20.1463L55.9957 23.3277L63.2108 20.1463C62.5995 18.5298 59.7715 17.1497 55.9957 17.1497Z" fill="white"/>
<path d="M55.9971 12.5303C58.7785 12.5303 61.5649 13.4713 63.4397 14.6895C63.7456 13.5636 64.0717 12.7611 64.5173 11.8432L62.8081 12.1376L61.4249 8.84648L58.8407 10.3766L55.9971 7.24146L53.1484 10.3766L50.569 8.84648L49.1756 12.1376L47.4665 11.8432C47.9118 12.7611 48.2329 13.5636 48.5491 14.6895C50.4293 13.4713 53.2055 12.5303 55.9971 12.5303Z" fill="white"/>
<path d="M103.129 37.8771C104.061 37.7443 104.813 37.3976 105.729 36.6358C103.756 36.0525 99.6226 34.3838 96.0957 35.1345C94.9301 35.3076 94.2829 35.8332 94.697 36.1333C96.5928 37.5361 98.934 40.7871 100.638 44.5804C102.135 42.5076 101.508 39.7881 101.192 39.0086C104.175 41.0122 104.958 41.9878 106.341 41.6068C105.6 40.3422 104.559 39.2048 103.129 37.8771Z" fill="white"/>
<path d="M11.3547 44.5746C13.0588 40.7813 15.3997 37.5308 17.3006 36.1277C17.7255 35.8275 17.0675 35.3018 15.9125 35.1288C12.3801 34.3839 8.23671 36.0467 6.26326 36.63C7.19041 37.3921 7.92578 37.7385 8.86851 37.8713C7.43391 39.2049 6.39265 40.3367 5.65204 41.6013C7.04541 41.9823 7.82221 41.0064 10.8003 39.0031C10.4948 39.7882 9.86281 42.502 11.3547 44.5746Z" fill="white"/>
<path fill-rule="evenodd" clip-rule="evenodd" d="M32.0371 79.7834C33.4096 78.5706 34.5489 77.9647 34.492 75.0257C32.4305 76.2034 26.583 76.1401 24.1383 72.387C23.4494 71.3188 24.185 70.7819 24.853 71.625C26.526 73.7381 29.6232 72.7796 30.7524 72.1734C30.5712 71.446 30.0688 70.4991 29.6492 70.095C30.0741 69.6329 31.2705 68.9401 31.5138 67.7507C30.8769 67.364 28.3958 67.0866 28.3958 67.0866C28.7946 66.6594 29.2918 66.0648 28.9916 64.4771C26.4588 65.3432 23.3252 64.1651 22.6156 63.1202C21.9163 62.0925 22.6312 61.1281 23.2214 61.8097C24.4854 63.2876 30.711 64.9794 33.0263 62.4102C32.1665 62.1443 31.2187 61.2897 31.0477 60.7587C33.1921 60.5163 34.9012 59.1074 35.0411 57.352C33.8549 57.352 31.6173 57.2541 30.8509 56.6187C31.8765 56.1974 32.529 55.7818 32.8553 54.5C28.9346 54.2343 28.6237 50.9895 28.6029 50.4526C31.1565 52.0923 35.6522 51.3649 34.4867 47.3231C32.3633 47.1962 30.2242 43.3683 36.0615 39.8519C41.3705 36.6475 47.4044 33.1948 46.8709 27.5076C46.5238 23.87 41.1528 21.3873 40.4692 19.5456C38.2263 20.7349 37.7759 22.1149 38.7858 24.4302C38.7858 24.4302 33.7877 24.9843 33.3939 21.5548C33.2231 20.019 34.1449 18.5815 35.1344 17.4786C34.5749 17.4786 30.8093 16.3527 29.675 19.7708C27.567 18.1657 25.7595 18.2234 24.3404 19.9208C26.6088 21.422 28.0126 26.5723 31.7625 28.0909C29.095 29.7015 24.7805 29.0261 22.2632 24.072C19.8808 28.0735 18.5082 32.0343 23.6204 36.2663C14.3232 40.9834 14.3906 50.0023 6.30021 54.2979C7.11853 56.7518 8.84841 56.7518 11.0551 56.3705C7.55882 61.4341 10.5371 66.7345 5.00018 68.8996C5.51815 70.9665 6.55919 72.618 8.60004 72.0119C8.01982 73.0221 7.6366 72.9991 6.7353 74.1078C9.76006 76.2324 13.3496 74.6965 14.1627 67.8776C14.3077 66.6594 15.8098 67.4217 15.2917 68.6168C11.8421 76.5672 20.5646 82.549 17.4775 88.3805C20.1966 88.2533 22.2736 88.0166 23.4029 86.9946C23.957 88.2187 24.2939 89.4312 24.1696 90.6264C25.6714 90.2858 26.2205 89.2984 26.3241 88.1551C27.3083 91.3597 30.8302 94.7835 36.4656 94.7835C33.4768 90.0259 36.2582 85.2046 32.0371 79.7834ZM26.4742 85.6436L25.2727 87.9241C24.8426 86.4231 24.0605 84.8641 23.5583 83.7556C22.5898 85.9785 21.0618 86.0246 19.5908 86.0362C19.917 80.7128 13.9142 75.3606 16.5555 69.2865C17.0839 68.074 16.7369 66.5845 15.6024 65.9435C11.5781 63.6686 13.4426 73.1147 9.42355 73.4032C10.1902 72.3237 10.48 70.0832 10.5939 69.887C9.73934 70.1355 7.69346 71.5904 6.77166 69.7311C9.12318 68.305 9.79641 66.1571 10.1642 64.0035C10.6303 61.2782 10.8478 60.0138 11.3191 58.8938C11.8163 57.6987 12.6087 56.6592 14.3078 54.2054C13.9038 54.269 9.38212 55.3372 8.36182 54.8061C16.1879 49.448 14.4268 42.6406 26.3552 36.5722C23.2267 33.9801 20.0309 31.913 22.3205 26.9648C25.5885 31.3414 31.7989 29.8286 35.1551 27.7961C31.8403 27.0574 27.567 23.8007 26.5571 20.175C27.8052 19.9613 29.4264 21.474 30.3537 22.1783C30.8042 20.839 30.9805 19.2858 32.4358 18.9508C30.4935 23.5756 34.3263 25.9889 37.983 26.0064C38.5527 26.0064 40.9146 25.7407 40.9146 25.7407C40.5364 24.8746 39.0084 22.5076 40.1169 21.5548C41.0129 22.4902 42.0799 23.235 43.0484 24.0664C50.1598 30.1981 39.6715 35.8796 35.3827 38.4604C28.6547 42.5137 30.4573 47.3405 33.2646 48.5703C33.2542 49.1131 32.9538 49.3556 32.4876 49.5287C30.5195 50.2562 28.6754 48.6916 27.1062 47.687C27.1994 50.7123 27.0128 53.6223 30.017 55.2851L27.9502 56.1223C29.7268 57.6294 30.2709 58.4261 32.4098 58.7379C31.4102 59.2805 30.1724 59.2689 29.1106 59.3787C29.3799 60.2159 29.5974 61.3533 30.1569 62.104C25.7803 62.6814 24.0244 59.8984 22.6674 60.0081C19.7772 60.2505 19.9584 66.3132 27.07 66.3247L26.3345 67.6814C26.3345 67.6814 27.6809 68.5591 28.9191 68.7265C28.4476 69.1539 27.9919 69.7311 27.593 70.1701L28.7272 71.2611C25.8217 71.8386 25.0032 68.3976 23.1178 70.0543C20.2433 72.595 26.5778 77.9472 32.648 77.1503C32.1407 77.878 30.711 78.9518 30.0999 79.506C35.0462 84.7141 32.6066 89.6218 34.6423 93.2189C30.3745 92.9069 27.2151 89.414 26.4742 85.6436Z" fill="black"/>
<path fill-rule="evenodd" clip-rule="evenodd" d="M18.6687 66.625C19.6994 67.8204 20.9427 67.9473 23.2991 67.7796C20.7043 67.4276 19.2489 66.7232 18.3426 64.8063C18.213 63.8132 18.1251 62.7509 18.0887 61.6192C18.0059 58.5766 18.9071 54.9505 20.7924 50.9782C20.782 53.4669 22.5481 57.3815 26.5001 58.0336C22.9471 56.3015 20.8598 52.4041 21.9991 48.6339C22.74 47.3177 23.5736 45.9552 24.506 44.5749C24.9721 43.9113 25.4278 43.2644 25.8734 42.6696C25.3967 44.5924 27.4843 46.5785 28.8827 46.9136C28.1264 46.0877 26.5001 43.4147 30.2554 38.9399C29.2089 39.4942 28.0486 40.2737 27.1683 41.036C33.9846 32.8255 39.5936 32.5945 42.1679 28.4604C38.4387 31.3012 28.5616 32.8371 24.1228 31.4919C26.5726 33.3163 32.472 33.1489 33.917 32.8081C29.1106 38.0217 18.6066 43.4088 16.7835 48.2011C19.3422 45.0716 20.9995 44.5001 23.2162 43.6975C21.4709 46.6016 19.9017 49.1536 18.8188 52.1156C16.0219 58.8825 12.2825 58.9689 12.039 64.5466C13.3134 60.222 15.9029 59.1248 17.6949 56.2841C17.3791 58.0971 17.2289 60.1064 17.2859 62.4276C17.3481 64.9509 17.8038 67.1678 18.5237 69.154C18.3426 71.9139 18.5599 76.6252 21.3984 79.7372C19.4715 77.0178 19.0572 72.595 19.2282 70.8688C21.4502 75.6437 27.7846 82.249 30.8457 86.6831C27.7846 80.9844 20.2796 74.3214 18.6687 66.625Z" fill="black"/>
<path fill-rule="evenodd" clip-rule="evenodd" d="M88.7843 43.697C90.9855 44.5054 92.6482 45.077 95.2067 48.2062C93.3939 43.4139 82.8745 38.0273 78.0679 32.8135C79.513 33.1483 85.4175 33.3217 87.8625 31.4971C83.4287 32.8422 73.5515 31.3066 69.8169 28.4658C72.3965 32.5999 78.0007 32.8307 84.8219 41.0411C83.9466 40.279 82.7864 39.4993 81.735 38.9452C85.485 43.42 83.8637 46.0988 83.1026 46.9246C84.5008 46.5898 86.5881 44.6036 86.1117 42.6808C86.5623 43.2755 87.0181 43.9221 87.4841 44.5862C88.4216 45.9718 89.2504 47.3288 89.991 48.6452C91.1305 52.4213 89.0382 56.3184 85.4953 58.0448C89.4472 57.3982 91.2187 53.4779 91.198 50.9892C93.0883 54.9618 93.9896 58.5874 93.9067 61.6302C93.8706 62.7622 93.7824 63.8186 93.6478 64.8176C92.7363 66.7345 91.2808 67.4388 88.6909 67.7909C91.053 67.9527 92.2908 67.8314 93.3265 66.6363C91.7158 74.3326 84.2108 80.9957 81.1444 86.7002C84.2108 82.2657 90.5349 75.6606 92.7674 70.8857C92.9382 72.6121 92.5237 77.0349 90.597 79.7542C93.4354 76.6421 93.6531 71.9306 93.4715 69.1709C94.1864 67.1847 94.637 64.9676 94.7095 62.4443C94.7769 60.1235 94.6163 58.1084 94.3056 56.3012C96.1027 59.142 98.6873 60.2389 99.9666 64.5635C99.7233 58.9802 95.9837 58.8938 93.1815 52.1269C92.094 49.1477 90.5296 46.5954 88.7843 43.697Z" fill="black"/>
<path fill-rule="evenodd" clip-rule="evenodd" d="M100.945 56.3586C103.146 56.7453 104.876 56.7453 105.7 54.2917C97.6096 49.9958 97.677 40.9831 88.3797 36.26C93.4918 32.0337 92.1143 28.067 89.7368 24.0658C87.2248 29.0198 82.8948 29.6952 80.2376 28.0844C83.9773 26.566 85.3913 21.4156 87.6598 19.9145C86.2406 18.2171 84.4279 18.1594 82.3197 19.7644C81.1804 16.3464 77.42 17.4723 76.8555 17.4723C77.8396 18.5692 78.772 20.007 78.5959 21.5485C78.2074 24.9781 73.2093 24.4237 73.2093 24.4237C74.2192 22.1086 73.7684 20.7288 71.5259 19.5392C70.8421 21.381 65.4764 23.8639 65.124 27.5014C64.5854 33.1885 70.6297 36.6411 75.9337 39.8456C81.7707 43.3618 79.6318 47.1956 77.5132 47.3169C76.3376 51.3586 80.8333 52.0858 83.392 50.4463C83.3816 50.9832 83.0552 54.2281 79.1345 54.4937C79.4659 55.7753 80.1134 56.1912 81.1389 56.6127C80.3723 57.2535 78.1349 57.346 76.9539 57.346C77.0937 59.1011 78.8081 60.5157 80.9525 60.7524C80.7815 61.2837 79.8286 62.138 78.9738 62.4037C81.289 64.9731 87.5148 63.2813 88.7786 61.8034C89.3586 61.1219 90.0684 62.0862 89.3743 63.1139C88.6594 64.1647 85.5311 65.3424 82.9931 64.4706C82.7031 66.0526 83.1899 66.6534 83.5888 67.0803C83.5888 67.0803 81.1079 67.3575 80.4655 67.7444C80.709 68.9339 81.9107 69.621 82.33 70.0885C81.9054 70.4928 81.4029 71.4397 81.2218 72.167C82.3611 72.7792 85.4586 73.7318 87.121 71.6187C87.7945 70.7815 88.53 71.3126 87.841 72.3808C85.3964 76.1336 79.5488 76.1915 77.4822 75.0192C77.4251 77.9582 78.5646 78.5643 79.9373 79.7769C75.7107 85.1986 78.5025 90.0196 75.5139 94.7657C81.144 94.7657 84.6661 91.3417 85.6503 88.1373C85.7642 89.2747 86.3028 90.2678 87.7995 90.6086C87.6858 89.4132 88.017 88.2009 88.5662 86.9768C89.7057 87.9988 91.7826 88.2355 94.5018 88.3625C91.4201 82.531 100.142 76.5495 96.6825 68.599C96.1697 67.4037 97.6717 66.6418 97.8167 67.86C98.6248 74.6787 102.219 76.2146 105.249 74.0897C104.338 72.9813 103.959 73.0044 103.379 71.9939C105.42 72.6002 106.456 70.9488 106.979 68.8818C101.468 66.7226 104.446 61.4221 100.945 56.3586ZM101.411 69.8923C101.52 70.0885 101.805 72.329 102.577 73.4085C98.5523 73.1197 100.417 63.6737 96.3923 65.9488C95.258 66.5837 94.9215 68.0736 95.4445 69.2916C98.0756 75.3659 92.0779 80.7179 92.4146 86.0414C90.9333 86.0299 89.395 85.9837 88.4368 83.7607C87.9445 84.8694 87.1523 86.4283 86.7224 87.9296L85.5207 85.6486C84.7748 89.4248 81.6154 92.9122 77.3579 93.2296C79.3831 89.6386 76.9487 84.7307 81.9003 79.5171C81.2787 78.9628 79.8544 77.8889 79.3416 77.1615C85.4171 77.9582 91.7463 72.6059 88.8718 70.0654C86.9917 68.4083 86.1629 71.8495 83.2675 71.2721L84.4021 70.1808C84.003 69.7421 83.5422 69.1705 83.0707 68.7375C84.3089 68.57 85.6554 67.6926 85.6554 67.6926L84.9198 66.3355C92.0314 66.3239 92.2022 60.2616 89.3275 60.0191C87.9756 59.9096 86.2149 62.698 81.8382 62.115C82.3924 61.3644 82.6202 60.227 82.8895 59.3898C81.8329 59.2801 80.5847 59.2916 79.5904 58.7488C81.7293 58.4429 82.2679 57.6404 84.0445 56.1393L81.9832 55.2963C84.9819 53.6276 84.7904 50.7233 84.8836 47.6979C83.3193 48.7025 81.4653 50.2615 79.5124 49.5399C79.0463 49.3666 78.7409 49.124 78.7305 48.5814C81.5429 47.3456 83.3349 42.5246 76.612 38.4713C72.3287 35.8905 61.8351 30.2093 68.9412 24.0832C69.915 23.2517 70.9715 22.5013 71.8624 21.5716C72.9761 22.5244 71.4534 24.8916 71.0752 25.7576C71.0752 25.7576 73.4371 26.0232 73.9964 26.0232C77.6585 26.0058 81.4964 23.5924 79.5538 18.9619C81.0094 19.2969 81.1804 20.8614 81.6257 22.1953C82.5581 21.4908 84.174 19.984 85.4328 20.1974C84.4125 23.8176 80.1495 27.0798 76.8297 27.8188C80.1806 29.8511 86.396 31.3639 89.6643 26.9873C91.9536 31.9355 88.763 34.0024 85.6296 36.5949C97.5631 42.6574 95.7968 49.4704 103.628 54.8284C102.618 55.3596 98.0809 54.2917 97.677 54.2281C99.386 56.6819 100.184 57.7211 100.671 58.9165C101.147 60.0365 101.354 61.2952 101.826 64.0262C102.198 66.1798 102.877 68.3275 105.218 69.7536C104.301 71.5956 102.261 70.1405 101.411 69.8923Z" fill="black"/>
<path fill-rule="evenodd" clip-rule="evenodd" d="M44.5873 84.7948L46.2914 83.184L46.0325 82.6066C45.8458 82.1909 45.9443 82.1678 46.1413 82.0061L47.0426 81.2614C47.2496 81.0707 47.4671 81.0938 47.7209 81.1632L50.4193 81.8676H47.5706C46.9128 81.9137 46.7213 82.1968 46.4831 82.7394L46.2863 83.184L45.556 84.8583C45.3074 85.4358 45.1779 86.2037 45.8304 87.0698L46.3485 87.7568L45.3022 90.1183H46.1827L46.9078 88.4786C46.9648 88.4206 48.0369 87.3296 48.2648 86.2037C47.9541 85.9209 47.7363 85.7242 47.9075 85.3319L48.2337 84.5465C48.3426 84.2868 48.3787 84.1829 48.6894 84.2463L51.5174 84.9276C51.8697 85.0375 52.3876 85.2106 52.7658 84.5755C53.1543 83.9171 53.206 83.9865 54.1071 84.0847L55.5523 84.2578C57.5257 84.4658 59.4991 83.9171 60.2657 83.236C60.535 83.9171 61.0683 84.4427 61.3171 84.9739C61.4103 85.1701 61.2549 85.4473 61.1359 85.7937L59.5147 90.1124H62.0161L63.4302 86.1747C63.5597 85.7994 63.7513 85.4991 63.8963 85.3491L63.0833 90.1183H65.5124L66.1546 85.4011C66.2945 84.3504 66.2116 84.0155 65.761 83.5824C64.7508 82.6296 64.7716 80.632 64.4454 79.4194C64.6162 79.3099 64.8183 79.2522 65.0567 79.2868C65.5849 79.3386 65.9838 80.8455 66.6052 81.8155C67.8483 83.7612 69.5418 85.9093 71.4841 82.8837C71.2977 82.5373 71.0958 82.2255 70.8576 81.9253L70.3138 81.2153C69.9978 80.8225 68.4957 78.9056 67.869 78.2184C66.4446 76.6192 64.259 76.8617 63.3887 77.6412C61.4154 76.4866 59.3333 77.6989 58.8413 77.6527L55.4434 77.4217C55.2881 77.4102 55.0551 77.3525 54.8894 77.0579L55.5212 76.8271C54.9309 74.0846 53.4443 71.7923 50.8494 71.3938C50.8494 71.3938 50.699 70.5277 50.3003 70.3603L49.5233 71.3766C49.3058 71.4113 49.0676 71.4861 48.8708 71.5787L45.556 70.2046L48.0422 73.0048C48.0422 73.0048 46.7524 75.043 46.3846 75.4587C46.1413 75.8397 46.162 76.1341 46.4364 76.4981L46.9181 77.2022C47.1669 77.5661 47.4413 77.5545 47.8399 77.3294L48.384 77.0117C48.6222 76.7925 49.4197 77.2253 49.7615 76.8789C49.544 77.6758 49.4354 78.4438 49.3836 79.0499L47.1513 78.7497C46.6643 78.6745 46.4417 78.7497 46.1464 79.0094L44.2404 80.6435C43.6188 81.1748 43.4273 82.0927 43.8105 82.9876L44.5873 84.7948ZM63.026 85.2624L61.5139 89.4196H60.5711L62.0837 85.3953C62.2391 84.8755 61.9436 84.6332 61.5657 84.0675C62.1252 84.4196 62.5291 84.6504 63.2076 84.9393C63.1505 85.0547 63.078 85.1183 63.026 85.2624ZM48.4409 76.2612L48.0111 76.5153C47.7106 76.7058 47.5603 76.7925 47.3013 76.4345L47.1151 76.1687C47.0219 76.0417 46.9908 75.7358 47.1823 75.4933L49.0365 73.0856L47.3273 71.5208L49.5026 72.4159L50.3003 71.3072C50.5332 71.5267 50.4504 72.1677 50.4504 72.1677C51.331 72.1677 53.8949 73.5881 53.9932 77.1445C53.9932 77.1445 54.5734 78.0971 55.3139 78.1492L59.0898 78.4033C59.7166 78.4033 61.2809 77.0753 63.2905 78.3284C63.798 77.9876 64.3418 77.7163 64.9013 77.6469C66.6724 77.5027 67.9779 78.8766 68.9464 80.2625C69.6558 81.2671 70.6298 82.8027 70.6298 82.8027C70.2102 83.3573 69.801 83.5419 69.4539 83.4035C68.931 83.1032 68.76 82.6355 68.594 81.983C68.33 80.9494 67.3097 80.0661 67.3097 80.0661C67.6566 80.7589 67.7291 81.5442 67.895 82.266C66.4188 80.6376 66.1391 78.6515 65.1085 78.3745C64.6526 78.2476 64.1192 78.4668 63.627 79.1017C64.145 80.4473 64.1193 82.0061 64.6526 83.0512C65.0567 83.8306 65.1446 83.8999 65.326 84.0732C65.761 84.4196 65.5175 85.0491 65.4503 85.505L64.8908 89.4137H63.9481L64.5697 85.5917C64.7612 84.4253 61.8246 84.4253 60.3226 82.2024C59.0431 83.8709 55.454 83.4553 53.9 83.1955C53.2733 83.0917 52.6622 83.1378 52.3202 83.8248C52.1183 84.2117 51.7818 84.0963 51.5745 84.0386L48.7412 83.3573C48.2441 83.2301 48.0266 83.3399 47.8089 83.8478L47.2445 85.1529C47.1202 85.4588 47.1255 85.684 47.3531 85.9324L47.6224 86.2499C47.462 86.8734 46.9494 87.3527 46.9494 87.3527L46.3328 86.5788C46.0325 86.1863 46.017 85.6204 46.2552 85.0663L47.172 82.9299C47.2806 82.6932 47.4774 82.4391 47.8606 82.4391L51.362 82.3814L50.2899 80.4358C49.4922 78.9748 50.8184 76.371 50.6161 75.141C50.5074 76.7866 48.7205 76.0361 48.4409 76.2612ZM44.6391 81.1691L46.2967 79.7602C46.5918 79.5119 46.7885 79.3502 47.1255 79.3963L49.4664 79.7427C49.5958 80.3663 49.9689 80.9784 49.9689 80.9784L47.4774 80.3953C47.1255 80.3491 47.0219 80.3663 46.6903 80.632L45.5093 81.625C45.2764 81.8271 45.266 82.1506 45.4007 82.4681L45.5922 82.924L44.7687 83.6171L44.4527 82.9586C44.1316 82.2601 44.1111 81.6194 44.6391 81.1691Z" fill="black"/>
<path fill-rule="evenodd" clip-rule="evenodd" d="M51.859 31.0472C52.7653 31.7457 54.3709 32.4906 54.3709 32.4906V31.3011L50.8334 29.7942C50.8334 29.7942 50.8334 30.2793 51.859 31.0472Z" fill="black"/>
<path fill-rule="evenodd" clip-rule="evenodd" d="M54.3649 29.6149V28.4256L50.351 26.8262C50.351 26.8262 50.8274 27.3921 51.853 28.1715C52.7593 28.8644 54.3649 29.6149 54.3649 29.6149Z" fill="black"/>
<path fill-rule="evenodd" clip-rule="evenodd" d="M54.3656 26.9124V25.7173L49.9682 23.9158C49.9682 23.9158 50.8281 24.6896 51.8537 25.4691C52.76 26.1675 54.3656 26.9124 54.3656 26.9124Z" fill="black"/>
<path fill-rule="evenodd" clip-rule="evenodd" d="M66.7191 43.1546H71.215C71.0286 42.4269 70.3292 41.6936 69.0189 41.6936C67.776 41.6936 67.03 42.4905 66.7191 43.1546Z" fill="black"/>
<path fill-rule="evenodd" clip-rule="evenodd" d="M62.0158 23.9158L57.629 25.7173V26.9124C57.629 26.9124 59.2344 26.1675 60.141 25.4691C61.1613 24.6896 62.0158 23.9158 62.0158 23.9158Z" fill="black"/>
<path fill-rule="evenodd" clip-rule="evenodd" d="M61.1613 29.7942L57.629 31.307V32.4962C57.629 32.4962 59.2344 31.7455 60.141 31.0529C61.1613 30.2793 61.1613 29.7942 61.1613 29.7942Z" fill="black"/>
<path fill-rule="evenodd" clip-rule="evenodd" d="M61.6372 26.8262L57.623 28.4256V29.6149C57.623 29.6149 59.2337 28.87 60.135 28.1774C61.1606 27.3921 61.6372 26.8262 61.6372 26.8262Z" fill="black"/>
<path fill-rule="evenodd" clip-rule="evenodd" d="M42.9664 41.6936C41.6561 41.6936 40.9569 42.4269 40.7705 43.1546H45.2715C44.9502 42.4905 44.2148 41.6936 42.9664 41.6936Z" fill="black"/>
<path fill-rule="evenodd" clip-rule="evenodd" d="M64.9281 20.7061C64.9281 17.8884 60.6808 15.3652 55.9934 15.3652C51.3059 15.3652 47.059 17.8884 47.059 20.7061L47.1573 21.3988L49.0218 33.3678L40.1649 39.1242C39.2224 39.7421 38.0414 41.4397 37.8913 43.1487H39.5073C39.7766 41.4397 40.9833 39.5459 43.2469 39.6613C45.2928 39.7826 46.5046 41.168 47.7063 43.1487L48.0172 43.6682L48.4625 44.4477H35.436C36.3944 46.5897 37.3008 48.8646 37.3008 51.33V81.5212C37.3008 89.2868 42.6513 92.9878 48.4469 92.9878C52.9221 92.9878 53.5281 92.7625 55.9986 95.5165C58.4588 92.7625 59.0648 92.9878 63.5502 92.9878C69.3407 92.9878 74.6965 89.2868 74.6965 81.5212V51.3358C74.6965 48.8702 75.6029 46.5956 76.561 44.4536H63.5244L63.975 43.6741L64.2857 43.1546C65.4821 41.1739 66.6994 39.7882 68.7453 39.667C70.9983 39.5516 72.2154 41.4454 72.4796 43.1546H74.0903C73.9455 41.4454 72.7593 39.7421 71.8218 39.13L62.9651 33.3737L64.8349 21.4047L64.9281 20.7061ZM48.8718 22.0801L55.4808 24.586V36.1162L50.6118 33.2639L48.8718 22.0801ZM50.4981 46.5436C51.3681 47.8715 52.7771 48.8531 54.4448 49.2341C54.5848 49.9328 54.9266 50.7005 55.5894 51.3184C55.3149 53.3797 56.1073 55.3022 58.0963 55.8104C58.3035 56.8614 58.8888 57.6524 59.8676 58.0276L58.4848 59.806C57.9564 60.4873 57.2677 60.7066 56.6979 60.6258L50.5239 59.8463C50.7934 59.0842 50.0785 58.2007 48.1258 58.5763L50.5549 51.0125L49.0736 47.5077L46.2664 50.1753L46.0592 58.1084L44.8679 57.4558C43.2987 56.7055 42.8428 59.8637 44.3344 59.8753L44.9248 59.8809C44.8887 60.2043 44.9768 60.5624 45.2046 60.6719C44.9248 60.8048 44.8419 61.3937 45.1943 61.6017C44.8369 61.7863 44.7902 62.3868 45.0753 62.6465C44.7644 63.2296 44.7177 64.4942 45.8001 64.8117C46.686 65.0714 47.2402 64.0091 47.4213 63.3914L57.024 66.7055C58.3863 67.1388 59.3498 66.896 60.4789 65.7932L62.9858 63.3511C62.6698 64.9504 63.1877 66.388 64.2807 66.8673C64.2807 66.8673 64.1253 68.3049 64.1718 68.9457H39.1706V51.3358C39.1706 49.6959 38.7459 48.0564 38.2382 46.5436H50.4981ZM60.8258 53.2238C60.2976 54.3497 60.3493 55.6432 60.9708 56.815L60.5565 57.2653C58.7541 57.0171 58.0445 54.0207 58.0445 54.0207C58.0082 54.292 57.9875 54.5517 57.9927 54.8174C56.9412 54.3843 56.2783 53.3451 56.3303 51.9189C56.7289 52.1671 57.1743 52.3405 57.6509 52.4328L57.7752 51.5551C56.5167 51.3128 55.7811 50.4351 55.5015 49.3959C55.4393 49.39 55.3876 49.3728 55.3303 49.3669C55.5533 49.3843 55.7759 49.4074 56.0037 49.4074C56.7497 49.4074 57.4592 49.2805 58.1221 49.061C58.6453 49.8925 59.5725 50.4871 60.5047 50.6025C60.3546 51.2953 60.4271 52.1556 60.8258 53.2238ZM63.4933 61.1453C63.312 61.4168 63.167 61.7286 63.0737 62.0691L62.0691 63.0968C62.2709 61.4573 61.2817 59.5232 60.3804 58.732L61.4474 57.5658L61.6596 57.8083C61.3024 58.8532 62.0016 60.9029 63.4933 61.1453ZM58.6402 60.6317L59.469 59.725C60.3079 60.545 61.4164 62.3752 61.0695 64.1188L60.1682 65.0427C59.9816 65.245 59.79 65.3893 59.5933 65.5219C60.1578 63.9688 59.4379 61.5786 58.6402 60.6317ZM56.8583 61.3996H56.8843C57.1847 61.4514 57.5059 61.3937 57.7959 61.2609C58.4277 62.2655 58.9198 64.5519 58.1635 65.978C57.7338 65.9896 57.3142 65.9029 56.9204 65.776L56.6099 65.6721C57.247 64.5693 57.1587 62.6178 56.8583 61.3996ZM54.7712 61.1107L55.9365 61.2724C56.1229 62.3522 55.9986 64.2173 55.3823 65.2796L54.0253 64.8406C54.6209 63.9399 54.9006 62.0865 54.7712 61.1107ZM52.3419 60.7817L53.756 60.9663C53.8957 61.8324 53.6317 63.6742 53.0982 64.5519L51.6583 64.0899C52.233 63.2412 52.4402 61.746 52.3419 60.7817ZM46.6185 60.3601C45.9609 60.597 45.6707 60.0658 45.6967 59.6155C46.9865 59.0899 47.5613 59.4304 47.9394 59.6963C48.2865 59.9386 48.5765 60.6317 49.0426 61.0645C48.965 61.6535 48.8045 62.5081 48.6126 63.0796C47.292 62.7045 47.2247 61.4053 47.7166 60.6142C47.442 60.2563 47.1522 60.1637 46.6185 60.3601ZM45.6967 63.2296C45.6967 63.2296 46.0903 63.4145 46.5875 63.455C46.5306 63.7609 46.3182 64.0496 45.9817 63.9688C45.7018 63.8994 45.5775 63.5186 45.6967 63.2296ZM44.3966 59.0148C44.0704 58.7725 44.2154 58.2412 44.5779 58.2412C44.9768 58.2527 45.505 58.755 46.0282 59.0032C46.0282 59.0032 44.6555 59.2112 44.3966 59.0148ZM45.7382 62.075C46.0231 62.3811 46.8777 62.2655 46.8777 62.2655L46.9087 62.4563C46.5357 63.0104 45.4999 62.7622 45.7382 62.075ZM46.888 61.4458C46.2767 61.717 45.65 61.3473 45.8415 60.9086C46.1267 61.1973 46.9191 61.053 46.9191 61.053L46.888 61.4458ZM47.7893 53.5182L46.6185 58.2699L47.0176 50.6025L48.8303 48.8761L49.7523 51.1338L47.4213 58.5819L48.0379 53.5702C48.0948 53.2122 47.8411 53.172 47.7893 53.5182ZM47.8722 59.2804C47.8722 59.2804 49.1772 59.2112 49.545 59.3671C49.8145 59.4942 49.6329 60.0022 49.2808 59.9445C48.9132 59.8925 47.8722 59.2804 47.8722 59.2804ZM49.9181 60.4353L51.337 60.6317C51.4459 61.4978 51.2438 62.9642 50.7363 63.784L49.3636 63.3396C49.7263 62.3752 49.8145 61.4688 49.9181 60.4353ZM72.8267 81.5269C72.8267 85.1989 71.3038 87.9876 68.7713 89.535L69.6777 87.4797H68.7971L67.6316 90.1125C66.4248 90.6204 65.0575 90.9033 63.5451 90.9033C58.9249 90.9033 57.7027 91.1114 55.9934 93.0109C54.2789 91.1114 53.0567 90.9033 48.4418 90.9033C46.9398 90.9033 45.5724 90.632 44.3708 90.124H44.4019L45.5672 87.4797H44.6919L43.6716 89.7948C43.4281 89.6679 43.1898 89.5292 42.9618 89.3791L43.8009 87.4797H42.9307L42.3095 88.894C40.3308 87.2717 39.1653 84.7312 39.1653 81.5269V69.9791H72.8164V81.5269H72.8267ZM73.7642 46.5436C73.241 48.0564 72.8214 49.6959 72.8214 51.3358V68.9457H70.9827C70.1488 68.0452 69.4443 65.0427 69.4443 65.0427C68.9888 66.1226 69.5117 68.3108 69.9987 68.9457H67.6316C67.0465 68.0626 66.5388 64.9329 66.5388 64.9329C65.8294 65.8337 66.2798 68.2644 66.7199 68.9457H65.1456C65.0471 67.6929 65.3682 66.3303 65.3682 66.3303C64.5447 66.1629 63.6694 65.6778 63.6745 64.6616C64.089 65.0945 64.26 65.0888 64.8349 65.0773L65.5028 64.4885C63.2862 64.5693 63.1826 61.8555 64.9435 60.5855C63.1877 60.6489 61.8772 59.4827 62.5144 57.404C61.2663 56.6825 60.8258 54.3266 61.7478 53.293C61.0798 52.4848 60.9708 50.8971 61.3956 49.8172C60.51 49.8172 59.5155 49.4246 58.9613 48.749C58.9198 48.7723 58.868 48.7895 58.8213 48.8069C59.9298 48.3046 60.8672 47.5192 61.4992 46.5492H73.7642V46.5436ZM67.0619 38.0677C65.2388 38.42 63.6694 40.9083 62.3849 43.1546L62.2399 43.4144H60.8672L60.8621 43.6798C60.7222 45.412 59.2462 47.7618 55.9934 47.7618C54.4915 47.7618 53.3571 47.2479 52.5803 46.5492C51.9069 45.9372 51.482 45.181 51.2749 44.4592C51.1973 44.1995 51.1506 43.9339 51.1299 43.6798L51.1195 43.4144H49.7574L49.6122 43.1546C48.3226 40.9141 46.7532 38.4257 44.9352 38.0677L49.9024 34.8519L56.0037 38.547L62.0949 34.8519L67.0619 38.0677ZM61.3749 33.2639L56.5114 36.1162V24.586L63.1204 22.0801L61.3749 33.2639ZM55.9986 23.3273L48.7735 20.146C49.3844 18.5294 52.2176 17.1493 55.9986 17.1493C59.7744 17.1493 62.6024 18.5294 63.2137 20.146L55.9986 23.3273Z" fill="black"/>
<path fill-rule="evenodd" clip-rule="evenodd" d="M72.0539 57.9236L72.0693 57.0401C69.6402 56.9767 69.0809 53.7837 69.0809 53.7837C68.3711 56.1337 70.2255 57.889 72.0539 57.9236Z" fill="black"/>
</svg>
