<svg width="70" height="106" viewBox="0 0 70 106" fill="none" xmlns="http://www.w3.org/2000/svg">
<path d="M8.92113 83.3586C8.71242 84.114 8.50371 84.938 8.22543 85.8995C8.01672 86.7922 7.66887 87.8223 7.39059 89.0584H14.1389L14.4868 87.8223H11.0778L11.7735 85.3501H16.1564C17.1304 85.3501 17.7566 86.1055 17.4783 87.1356L16.9913 89.0584L16.713 90.0198C16.4347 90.9812 15.4607 91.8053 14.4172 91.8053H4.95563C3.98164 91.8053 3.35551 91.0499 3.6338 90.0198L5.7209 82.2598C5.99918 81.2984 7.04274 80.4744 8.01672 80.4744H18.8697L18.1044 83.2899C14.9042 83.3586 12.0518 83.3586 8.92113 83.3586ZM48.2979 88.715L48.7849 86.3802L48.0892 87.3416L46.1412 89.7451H46.0716L44.402 91.8053H40.7843L40.2973 89.7451H40.2277L39.6016 87.3416L39.3929 86.3802L38.6276 88.715L37.6536 91.8053H34.2447L37.8624 80.543H41.5496L43.5671 88.4403L49.898 80.543H53.5852L51.0807 91.8053H47.6718L48.2979 88.715ZM58.2464 84.938C58.3856 84.32 58.4551 83.9766 58.6638 83.3586H68.7515L69.5168 80.543H57.8986C56.855 80.543 55.8115 81.3671 55.5332 82.3972C55.1853 83.6333 54.8375 84.938 54.4896 86.1741C54.1418 87.4102 53.7939 88.715 53.4461 89.9511C53.1678 90.9812 53.7939 91.8053 54.8375 91.8053H66.4557L67.221 88.9897H57.1333C57.2029 88.6463 57.2724 88.3717 57.342 88.1656C57.4116 87.8909 57.4811 87.6849 57.5507 87.3416H65.1339L65.76 84.938H58.2464V84.938ZM27.2877 83.908L28.2617 87.5476H24.3657L27.2877 83.908ZM29.3052 91.8053H32.9924L30.0705 80.4744H26.4528L17.2696 91.8053H20.9568L22.4178 90.0198H28.8182L29.3052 91.8053Z" fill="black"/>
<path d="M24.9223 101.282C25.7571 101.282 26.6615 100.527 26.9398 99.4966C27.0094 99.2219 27.079 98.9473 27.1485 98.6039C27.3572 97.7112 27.6355 96.6811 27.8442 95.857C28.1225 94.8269 27.6355 94.0715 26.8007 94.0715H16.5739L15.8781 96.8871H24.5744L24.157 98.4666H16.9913C16.1564 98.4666 15.252 99.2219 14.9737 100.252C14.765 101.145 14.5563 101.969 14.278 102.862C14.0693 103.754 13.791 104.578 13.5823 105.471H16.5739C16.7826 104.716 16.9217 104.029 17.1304 103.411C17.3391 102.724 17.4783 102.106 17.687 101.351H24.9223V101.282ZM39.7407 94.2089H31.0445C30.2096 94.2089 29.3052 95.0329 29.0269 96.063C28.6791 97.2991 28.4008 98.6039 28.0529 99.84C27.7051 101.145 27.4268 102.381 27.079 103.617C26.8702 104.647 27.3572 105.471 28.1921 105.471H36.8884C37.7232 105.471 38.6276 104.647 38.9059 103.617C39.2537 102.381 39.532 101.076 39.8799 99.84C40.2277 98.5352 40.506 97.2991 40.8539 96.063C41.1321 95.0329 40.6451 94.2089 39.7407 94.2089ZM37.2362 99.2906C37.0275 100.046 36.9579 100.389 36.3318 102.656H30.2096C30.5575 101.419 30.6966 100.733 30.8357 100.321C31.114 99.428 31.114 99.2219 31.7402 96.9558H37.8623C37.5145 98.2605 37.3058 98.8786 37.2362 99.2906ZM51.846 105.471H48.8544L47.95 101.007H44.3324C43.9149 102.518 43.4975 104.029 43.1497 105.54H40.1582C40.6451 103.823 41.0626 102.106 41.5496 100.389C41.8278 99.3593 42.6627 98.6039 43.5671 98.6039C44.7498 98.6039 45.9325 98.6039 47.1848 98.6039C48.3674 98.6039 49.5501 98.6039 50.8024 98.6039L51.2198 97.0244H42.5235L43.2192 94.2089H53.4461C54.2113 94.2089 54.7679 94.9643 54.4896 95.9944L53.6548 99.1533C53.3765 100.183 52.5417 100.939 51.6372 100.939H51.0807L51.846 105.471ZM12.3301 98.2605C13.1649 98.2605 13.6519 99.0159 13.3736 100.046C13.304 100.321 13.2345 100.595 13.1649 100.939C12.9562 101.831 12.6779 102.862 12.4692 103.686C12.1909 104.716 11.3561 105.471 10.4517 105.471H0.503128L1.19883 102.656H9.61683L10.0342 101.076H2.86851C2.03367 101.076 1.54668 100.321 1.82496 99.2906C1.9641 98.7412 2.10324 98.1919 2.24238 97.5738C2.38152 97.0244 2.52066 96.4064 2.6598 95.857C2.93808 94.8956 3.77293 94.1402 4.60777 94.1402H14.4867L13.791 96.9558H5.44261L5.09476 98.2605H12.3301ZM65.6904 96.9558L66.4557 94.1402H55.6723L54.907 96.9558H58.8726L56.6463 105.471H59.4987L61.7249 96.9558H65.6904Z" fill="#F5333F"/>
<path d="M13.5801 56.6971C13.3627 57.6631 13.7976 59.595 15.5373 60.0243C15.5373 60.0243 15.646 60.0243 15.7548 60.0243C18.0381 60.4536 19.8865 59.0583 20.7564 58.5217C25.2143 55.8385 27.2802 54.2286 29.1287 53.5846C31.6295 52.726 34.239 53.048 35.9787 53.37C37.6097 53.9066 40.1105 54.8726 41.8502 56.9118C43.155 58.4144 44.1335 60.8829 46.6343 65.3906C47.178 66.2492 48.0478 68.3958 50.2225 69.1471C50.2225 69.1471 50.3312 69.1471 50.4399 69.1471C52.1796 69.5764 53.4844 68.1811 53.8106 67.2152C54.3542 65.6053 56.855 52.8333 56.5289 49.7209C56.4201 47.6816 55.3328 45.3204 53.2669 43.7105C53.7018 40.2761 53.0495 37.8076 52.1796 34.6951C53.8106 33.1925 55.0066 31.2606 55.5503 29.0067C56.4201 26.1089 55.9852 23.1037 54.7892 20.5279C55.2241 9.9025 50.4399 0.672363 50.4399 0.672363C50.4399 0.672363 41.6327 6.25337 36.4136 15.8055C34.0216 17.4154 32.2819 19.8839 31.412 22.7818C30.7596 25.0356 30.8684 27.3968 31.412 29.436C29.0199 31.6899 27.2802 33.5145 25.8667 36.627C23.3659 36.8416 21.3 38.4515 20.104 40.0614C18.2556 42.7446 14.0151 55.0872 13.5801 56.6971ZM44.7859 42.208C42.9375 42.1006 41.0891 41.886 39.3494 41.3493C37.6097 40.92 35.87 40.1687 34.239 39.3101C34.1303 37.7002 34.1303 35.983 34.239 34.0511C35.87 35.7683 37.9359 37.1636 40.3279 37.8075C42.8288 38.4515 45.3296 38.3442 47.6129 37.5929C46.6343 39.3101 45.7645 40.92 44.7859 42.208ZM40.2192 14.0883C41.3065 12.4783 42.5026 10.9758 43.6986 9.68784L51.7447 11.8344C52.0709 13.5516 52.3971 15.3762 52.5058 17.4154C50.9836 15.9128 49.1352 14.7322 46.8518 14.0883C44.5685 13.4443 42.2851 13.5516 40.2192 14.0883ZM46.1994 16.2348C51.636 17.7374 54.8979 23.2111 53.3757 28.5774C51.8534 33.9438 46.3081 37.1636 40.8716 35.661C35.4351 34.1584 32.1731 28.6847 33.6954 23.3184C35.1089 17.952 40.7629 14.8395 46.1994 16.2348ZM50.7661 50.2575C51.636 50.4722 52.0709 51.3308 51.8534 52.0821C51.636 52.9407 50.7661 53.37 50.005 53.1553C49.1351 52.9407 48.7002 52.0821 48.9177 51.3308C49.1351 50.5795 49.8963 50.0428 50.7661 50.2575ZM48.2653 45.9644C49.1352 46.1791 49.5701 47.0377 49.3526 47.789C49.1352 48.6476 48.2653 49.0769 47.5042 48.8622C46.6343 48.6476 46.1994 47.789 46.4169 47.0377C46.5256 46.2864 47.3955 45.7498 48.2653 45.9644ZM46.3081 52.726C47.178 52.9407 47.6129 53.7993 47.3955 54.5506C47.178 55.4092 46.3081 55.8385 45.547 55.6239C44.6772 55.4092 44.2423 54.5506 44.4597 53.7993C44.6772 53.048 45.547 52.5114 46.3081 52.726ZM43.8073 48.4329C44.6772 48.6476 45.1121 49.5062 44.8946 50.2575C44.6772 51.0088 43.8073 51.5454 43.0462 51.3308C42.1764 51.1161 41.7415 50.2575 41.9589 49.5062C42.1764 48.7549 43.0462 48.2183 43.8073 48.4329ZM23.2572 43.8179C23.3659 43.4959 23.8008 43.1739 24.127 43.2812L26.5191 43.9252L27.1715 41.564C27.2802 41.242 27.7152 40.92 28.0414 41.0274L29.4549 41.3493C29.781 41.4567 30.1072 41.886 29.9985 42.208L29.2374 44.6765L31.6295 45.3204C31.9557 45.4278 32.2819 45.8571 32.1731 46.1791L31.7382 47.5743C31.6295 47.8963 31.1945 48.2183 30.8684 48.111L28.4763 47.467L27.8239 49.8282C27.7152 50.1502 27.2802 50.4721 26.954 50.3648L25.5405 50.0428C25.2144 49.9355 24.8882 49.5062 24.9969 49.1842L25.6493 46.823L23.3659 46.0717C23.0397 45.9644 22.7135 45.5351 22.8223 45.2131L23.2572 43.8179Z" fill="#F5333F"/>
<path d="M37.9354 57.5559C37.3917 59.4878 34.9996 60.9903 33.6949 62.3856C33.2599 60.4537 31.9552 57.9852 32.3901 56.0533C32.3901 55.8386 32.6075 55.5167 32.7163 55.302C31.5202 55.8386 30.5417 56.9119 30.2155 58.1998C29.3456 61.527 31.194 65.6054 31.8464 68.8252C34.021 66.3567 37.8266 63.8882 38.6965 60.561C39.0227 59.1658 38.6965 57.8778 37.9354 56.8046C38.0441 57.0192 37.9354 57.3412 37.9354 57.5559Z" fill="black"/>
<path d="M45.0029 20.6353C48.0473 21.4939 49.787 24.4991 49.0259 27.3969C48.1561 30.402 45.1116 32.1193 42.1759 31.368C39.2401 30.6167 37.3917 27.5042 38.1528 24.6064C38.9139 21.6012 41.9584 19.7767 45.0029 20.6353Z" fill="black"/>
</svg>
