<svg width="112" height="32" viewBox="0 0 112 32" fill="none" xmlns="http://www.w3.org/2000/svg">
<path d="M65.1185 16.1517H58.5704L58.142 17.7285L58.0196 18.17C59.1211 18.17 60.2227 18.17 61.263 18.17C62.3646 18.17 63.4661 18.17 64.5065 18.17L65.1185 16.1517ZM66.1588 12.1153H59.6719L59.2435 13.7551H65.7304L66.1588 12.1153ZM67.8724 18.8007C67.6276 19.7467 66.6484 20.5666 65.6692 20.5666L54.0417 20.5035L54.7761 17.7285L55.3881 15.521L56.2449 12.1153L56.5508 11.0431L56.9792 9.34021H68.6067C69.5859 9.34021 70.1367 10.1601 69.8919 11.1062C69.7083 11.6738 69.6471 11.9261 69.5859 12.2414C69.5247 12.4937 69.4635 12.746 69.3411 13.1875C69.0963 14.1335 68.1171 14.9534 67.138 14.9534C68.0559 14.9534 68.6679 15.7733 68.3619 16.7194C68.1783 17.287 68.1171 17.5393 68.0559 17.8546C68.0559 18.1069 67.9947 18.3592 67.8724 18.8007Z" fill="#F5333F"/>
<path d="M27.4208 11.8631C27.5432 11.3585 27.6656 10.9801 27.7268 10.6648C29.1955 10.6648 30.4807 10.6648 31.9494 10.6648L32.3166 9.34029H27.3596C26.9312 9.34029 26.4417 9.71871 26.3193 10.1602L25.3401 13.8813C25.2177 14.3228 25.4625 14.7012 25.9521 14.7012H30.2359C30.7255 14.7012 31.1539 14.3228 31.2763 13.8813L31.3987 13.4398L31.6434 12.4938C31.7658 12.0523 31.521 11.6739 31.0315 11.6739H29.012L28.706 12.8091H30.2971L30.1747 13.3768H27.0536C27.176 12.8091 27.2984 12.3046 27.4208 11.8631ZM46.0248 12.1154L45.78 13.2506L45.5352 14.7012H47.0652L48.2279 9.27722H46.5756L43.6381 13.0614L42.7202 9.27722H41.0678L39.3543 14.7012H40.9454L41.3738 13.1875L41.741 12.0523L41.8634 12.4938L42.1694 13.629L42.4142 14.6381H44.0665L44.8621 13.629L45.7188 12.4938L46.0248 12.1154ZM50.5534 10.6648C50.4922 10.9801 50.431 11.1062 50.3698 11.4216H53.8581L53.5521 12.5568H50.0638C50.0026 12.7461 50.0026 12.8722 49.9415 12.9983C49.8803 13.1245 49.8803 13.2506 49.8191 13.4398H54.4089L54.1029 14.7012H48.7787C48.2891 14.7012 48.0443 14.3228 48.1667 13.8182C48.3503 13.1875 48.4727 12.6199 48.6563 11.9892C48.8399 11.3585 48.9623 10.7909 49.1459 10.1602C49.2683 9.65564 49.7579 9.27722 50.2474 9.27722H55.5716L55.2044 10.6017H50.5534V10.6648ZM36.6004 12.683L36.172 10.917L34.8257 12.683H36.6004ZM38.7423 14.7012H37.09L36.8452 13.8182H33.9077L33.2958 14.7012H31.6434L35.8049 9.27722H37.4572L38.7423 14.7012ZM37.5184 18.5485C37.6408 18.1701 37.6408 18.107 37.8856 17.224H40.7006C40.5783 17.7286 40.5171 17.9808 40.4559 18.1701C40.3947 18.4854 40.3335 18.6115 40.0887 19.4945H37.2736C37.396 18.99 37.4572 18.7377 37.5184 18.5485ZM35.8661 19.8099C35.8049 20.1883 35.9885 20.5667 36.4168 20.5667H40.3947C40.7618 20.5667 41.1902 20.2514 41.3126 19.8099C41.435 19.3053 41.5574 18.8008 41.6798 18.2962C41.8022 17.7916 41.9246 17.2871 42.047 16.7825C42.1082 16.4041 41.9246 16.0257 41.4962 16.0257H37.5184C37.1512 16.0257 36.7228 16.341 36.6004 16.7825C36.478 17.2871 36.3556 17.7916 36.2332 18.2962C36.1108 18.8008 35.9885 19.3053 35.8661 19.8099ZM34.8257 18.9269C35.1929 18.9269 35.6213 18.6115 35.6825 18.2331C35.6825 18.107 35.7437 17.9808 35.7437 17.8547C35.8661 17.4763 35.9273 17.0979 35.9885 16.7825C36.1108 16.4041 35.8661 16.0888 35.4989 16.0888H30.8479L30.5419 17.224H34.5197L34.3361 17.8547H31.0315C30.6643 17.8547 30.2359 18.1701 30.1747 18.5485C30.1135 18.8638 29.9911 19.2422 29.9299 19.5576C29.8687 19.8729 29.7463 20.2514 29.6851 20.5667H31.0927C31.1539 20.2514 31.2151 19.9991 31.3375 19.7468C31.3987 19.4945 31.4598 19.2422 31.5822 18.9269H34.8257ZM47.2488 20.5667H45.8412L45.3516 18.8008H43.6993C43.5157 19.3684 43.3933 19.9991 43.2097 20.5667H41.8022C41.9858 19.8729 42.1694 19.2422 42.353 18.5485C42.4754 18.1701 42.8426 17.8547 43.2097 17.8547C43.7605 17.8547 44.3113 17.8547 44.8621 17.8547C45.4128 17.8547 45.9636 17.8547 46.5144 17.8547L46.698 17.224H42.7202L43.0261 16.0888H47.6771C48.0443 16.0888 48.2891 16.4041 48.1667 16.7825L47.8607 18.0439C47.7383 18.4223 47.3712 18.7377 47.004 18.7377H46.7592L47.2488 20.5667ZM29.012 17.7286C29.3791 17.7286 29.6239 18.0439 29.5015 18.4223C29.5015 18.5485 29.4403 18.6746 29.4403 18.8008C29.3179 19.1792 29.2567 19.5576 29.1955 19.8729C29.0732 20.2514 28.706 20.5667 28.3388 20.5667H23.8102L24.1162 19.4314H27.9716L28.1552 18.8008H24.8505C24.4834 18.8008 24.2386 18.4854 24.361 18.107C24.4222 17.8547 24.4834 17.6655 24.5445 17.4132C24.6057 17.1609 24.6669 16.9717 24.7281 16.7194C24.8505 16.341 25.2177 16.0257 25.5849 16.0257H30.1135L29.6851 17.224H25.8909L25.7685 17.7286H29.012ZM53.4297 17.1609L53.7357 16.0257H48.7787L48.4727 17.1609H50.3086L49.4519 20.5667H50.737L51.5938 17.1609H53.4297Z" fill="black"/>
<path d="M0.799993 25.5492C0.738796 25.9907 0.86119 26.8106 1.59556 26.9998H1.65676C2.57472 27.189 3.43148 26.5583 3.79866 26.3691C5.69578 25.1708 6.55254 24.477 7.34811 24.2247C8.38846 23.8463 9.49002 23.9724 10.2244 24.1616C10.9588 24.4139 11.9991 24.8554 12.6723 25.7384C13.2231 26.4322 13.5902 27.4413 14.6918 29.4595C14.9366 29.8379 15.3038 30.784 16.2217 31.0993H16.2829C17.0173 31.2885 17.5681 30.6578 17.6905 30.2794C17.9353 29.5856 18.9756 23.9724 18.8532 22.5849C18.792 21.7019 18.3636 20.6297 17.4457 19.936C17.6293 18.4223 17.3845 17.3501 16.9561 15.9626C17.6293 15.2688 18.1188 14.4489 18.4248 13.4398C18.792 12.1784 18.6084 10.8539 18.1188 9.71868C18.2412 4.98845 16.2217 0.888916 16.2217 0.888916C16.2217 0.888916 12.4887 3.34864 10.3468 7.57431C9.36762 8.26807 8.57206 9.34026 8.26607 10.6647C8.02128 11.6738 8.02128 12.683 8.26607 13.5659C7.28691 14.512 6.49135 15.3319 5.94057 16.7194C4.83902 16.8456 3.98226 17.5393 3.49268 18.2962C2.75831 19.3683 0.983585 24.7923 0.799993 25.5492ZM13.9574 19.1161C13.1619 19.053 12.4275 18.9899 11.6931 18.7376C10.9588 18.5484 10.2244 18.2331 9.55121 17.8547C9.49002 17.1609 9.49002 16.341 9.55121 15.5211C10.2244 16.2779 11.0811 16.8456 12.1215 17.1609C13.1619 17.4763 14.2022 17.4132 15.1814 17.0978C14.753 17.8547 14.3858 18.5484 13.9574 19.1161ZM12.0603 6.7544C12.5499 6.06063 13.0395 5.36687 13.529 4.79924L16.8949 5.74529C17.0173 6.50212 17.1397 7.32203 17.2009 8.205C16.5277 7.51124 15.7321 7.00668 14.8142 6.7544C13.8962 6.43905 12.9171 6.50212 12.0603 6.7544ZM14.5694 7.70045C16.8949 8.33114 18.2412 10.7909 17.6293 13.1244C17.0173 15.5211 14.6306 16.9086 12.3663 16.2779C10.0408 15.6472 8.69445 13.1875 9.30642 10.8539C9.8572 8.45728 12.2439 7.06975 14.5694 7.70045ZM16.4665 22.711C16.8337 22.7741 17.0173 23.1525 16.8949 23.5309C16.8337 23.9094 16.4665 24.0986 16.0993 23.9724C15.7321 23.9094 15.5486 23.5309 15.6709 23.1525C15.7933 22.7741 16.1605 22.5849 16.4665 22.711ZM15.4262 20.7559C15.7933 20.8189 15.9769 21.1974 15.8545 21.5758C15.7933 21.9542 15.4262 22.1434 15.059 22.0173C14.6918 21.9542 14.5082 21.5758 14.6306 21.1974C14.6918 20.882 15.059 20.6928 15.4262 20.7559ZM14.6306 23.7832C14.9978 23.8463 15.1814 24.2247 15.059 24.6031C14.9978 24.9816 14.6306 25.1708 14.2634 25.0446C13.8962 24.9816 13.7126 24.6031 13.835 24.2247C13.9574 23.9094 14.3246 23.6571 14.6306 23.7832ZM13.5902 21.8911C13.9574 21.9542 14.141 22.3326 14.0186 22.711C13.9574 23.0895 13.5902 23.2787 13.2231 23.1525C12.8559 23.0895 12.6723 22.711 12.7947 22.3326C12.8559 22.0173 13.2231 21.765 13.5902 21.8911ZM4.83902 19.8729C4.90022 19.7468 5.08381 19.6206 5.2062 19.6206L6.24656 19.8729L6.49135 18.8007C6.55254 18.6746 6.73614 18.5484 6.85853 18.5484L7.4705 18.6746C7.5929 18.7376 7.71529 18.9269 7.71529 19.053L7.4705 20.1252L8.51086 20.3775C8.63325 20.4405 8.75565 20.6297 8.75565 20.7559L8.57206 21.3866C8.51086 21.5127 8.32727 21.6389 8.20487 21.6389L7.16452 21.3866L6.91973 22.3957C6.85853 22.5218 6.67494 22.648 6.55254 22.648L5.94057 22.5218C5.75698 22.4588 5.63458 22.2696 5.69578 22.1434L5.94057 21.0712L4.90022 20.8189C4.77782 20.7559 4.65543 20.5667 4.65543 20.4405L4.83902 19.8729Z" fill="#F5333F"/>
<path d="M15.7321 12.6198C16.0993 11.2954 15.3037 9.9709 14.0798 9.59249C12.7946 9.21407 11.5095 10.034 11.1423 11.2954C10.7751 12.6198 11.5707 13.9443 12.7946 14.3227C14.0798 14.7011 15.4261 13.9443 15.7321 12.6198ZM9.79596 27.5043C10.3467 27.0628 10.8975 26.5582 11.0199 25.9275C11.0199 25.8014 11.0811 25.6753 11.0811 25.5491C11.3871 25.9906 11.5095 26.6213 11.3871 27.1889C11.1423 28.1981 10.2243 29.081 9.42877 29.9009C9.06159 30.2163 8.7556 30.5316 8.51081 30.847C8.44961 30.4686 8.32722 30.0271 8.20482 29.5856C7.89884 28.4503 7.53165 27.252 7.83764 26.1798C7.96004 25.6122 8.38842 25.1076 8.93919 24.9184C8.878 25.0446 8.8168 25.1707 8.8168 25.2338C8.6944 25.8014 8.878 26.5582 9.12279 27.1889C9.18398 27.4412 9.30638 27.7566 9.36757 27.9458C9.42877 27.8827 9.61236 27.6935 9.79596 27.5043Z" fill="black"/>
<path d="M69.0962 20.5666L71.7277 9.34021H74.8487L72.8292 17.9808H80.2953L79.6833 20.5666H69.0962V20.5666Z" fill="#F5333F"/>
<path d="M83.4165 11.3585C83.4776 10.9801 83.6612 10.6648 83.8448 10.4125C84.0284 10.1602 84.2732 9.97099 84.518 9.78178C84.7628 9.59257 85.0688 9.46643 85.3748 9.40336C85.6807 9.34029 85.9867 9.27722 86.2927 9.27722H94.3096C94.6156 9.27722 94.8604 9.34029 95.1051 9.40336C95.3499 9.46643 95.5947 9.59257 95.7783 9.78178C95.9619 9.97099 96.0843 10.1602 96.2067 10.4125C96.2679 10.6648 96.3291 10.9801 96.2067 11.2955L94.5544 18.4854C94.4932 18.8007 94.3096 19.1161 94.126 19.3684C93.9424 19.6207 93.6976 19.8099 93.4528 19.9991C93.208 20.1883 92.902 20.3144 92.596 20.3775C92.2901 20.4406 91.9841 20.5036 91.7393 20.5036H83.7224C83.4165 20.5036 83.1105 20.4406 82.8657 20.3775C82.6209 20.3144 82.3761 20.1883 82.1925 19.9991C82.0089 19.8099 81.8865 19.6207 81.8253 19.3684C81.7641 19.1161 81.7641 18.8007 81.8253 18.4223L83.4165 11.3585ZM91.5557 17.9808L92.9632 11.9262H86.3539L84.9464 17.9808H91.5557V17.9808Z" fill="#F5333F"/>
<path d="M102.694 16.2779L103.306 13.6921H110.221L109.058 18.5484C108.997 18.8638 108.813 19.1791 108.63 19.4314C108.446 19.6837 108.201 19.8729 107.957 20.0621C107.712 20.2513 107.406 20.3774 107.1 20.4405C106.794 20.5036 106.488 20.5667 106.243 20.5667H98.2262C97.9202 20.5667 97.6142 20.5036 97.3695 20.4405C97.1247 20.3774 96.8799 20.2513 96.6963 20.0621C96.5127 19.8729 96.3903 19.6837 96.3291 19.4314C96.2679 19.1791 96.2679 18.8638 96.3291 18.4854L97.9814 11.2954C98.0426 10.917 98.2262 10.6016 98.4098 10.3494C98.5934 10.0971 98.8382 9.90788 99.083 9.71867C99.3278 9.52946 99.6338 9.40332 99.9397 9.34025C100.246 9.27718 100.552 9.21411 100.858 9.21411H111.261L110.649 11.8H100.919L99.5114 17.8547H106.059L106.427 16.1518H102.694V16.2779Z" fill="#F5333F"/>
</svg>
