<svg width="98" height="74" viewBox="0 0 98 74" fill="none" xmlns="http://www.w3.org/2000/svg">
<path fill-rule="evenodd" clip-rule="evenodd" d="M2.84699 51.9621C1.44857 47.0014 0.700073 41.7653 0.700073 36.3531C0.700073 34.8225 0.759934 33.306 0.877425 31.8059L31.137 44.3935C33.7352 42.6375 36.7975 41.6209 40.1381 41.6209H41.0661L54.5214 21.9358V21.6585C54.5214 9.82895 64.1721 0.125 75.9571 0.125C87.7421 0.125 97.3001 9.73653 97.3001 21.6585C97.3001 33.4881 87.7421 43.192 75.9571 43.192H75.4932L56.1917 56.9624V57.7018C56.1917 66.5739 48.9537 73.875 40.1381 73.875C32.3433 73.875 25.8476 68.3299 24.3629 60.9364L2.84699 51.9621ZM29.281 62.9696L36.2407 65.8346C40.7877 67.683 45.9842 65.5573 47.8401 61.0288C49.7888 56.5003 47.6545 51.2325 43.1076 49.3841L35.8695 46.4267C38.6534 45.3177 41.8084 45.3177 44.7779 46.5191C47.7473 47.7206 50.0672 50.1234 51.2736 53.0808C52.4799 56.0382 52.4799 59.3653 51.2736 62.3227C48.6753 68.5147 41.6228 71.4721 35.4983 68.8844C32.6217 67.683 30.4874 65.5573 29.281 62.9696ZM65.2857 21.6586C65.2857 15.7438 70.1111 10.9381 75.9572 10.9381C81.8961 10.9381 86.6286 15.7438 86.6286 21.6586C86.6286 27.5734 81.8033 32.3792 75.9572 32.3792C70.0183 32.3792 65.2857 27.5734 65.2857 21.6586ZM90.1549 21.6586C90.1549 13.803 83.752 7.33373 75.8644 7.33373C67.9768 7.33373 61.5739 13.803 61.5739 21.6586C61.5739 29.5142 67.9768 35.9835 75.8644 35.9835C83.8448 35.9835 90.1549 29.5142 90.1549 21.6586Z" fill="#21252C"/>
</svg>
