<svg width="112" height="48" viewBox="0 0 112 48" fill="none" xmlns="http://www.w3.org/2000/svg">
<path d="M45.7622 13.9023C45.5368 14.7289 45.3114 15.6307 45.0109 16.6827C44.7855 17.6597 44.4099 18.7869 44.1094 20.1395H51.3968L51.7725 18.7869H48.0912L48.8425 16.0816H53.5756C54.6274 16.0816 55.3035 16.9082 55.003 18.0354L54.4771 20.1395L54.1766 21.1916C53.8761 22.2436 52.8243 23.1454 51.6974 23.1454H41.4799C40.4281 23.1454 39.7519 22.3188 40.0524 21.1916L42.3063 12.6999C42.6068 11.6479 43.7337 10.7461 44.7855 10.7461H56.5056L55.6792 13.8271C52.2233 13.9023 49.143 13.9023 45.7622 13.9023ZM88.285 19.7638L88.8109 17.2088L88.0596 18.2608L85.956 20.891H85.8809L84.0778 23.1454H80.1711L79.6452 20.891H79.5701L78.8939 18.2608L78.6685 17.2088L77.8421 19.7638L76.7903 23.1454H73.109L77.0157 10.8212H80.9975L83.1762 19.4632L90.0129 10.8212H93.9948L91.2901 23.1454H87.6088L88.285 19.7638ZM99.0284 15.6307C99.1786 14.9543 99.2538 14.5786 99.4791 13.9023H110.373L111.199 10.8212H98.6527C97.5258 10.8212 96.3989 11.723 96.0984 12.8502C95.7227 14.2029 95.3471 15.6307 94.9714 16.9833C94.5958 18.336 94.2201 19.7638 93.8445 21.1164C93.544 22.2436 94.2201 23.1454 95.3471 23.1454H107.894L108.72 20.0644H97.8263C97.9014 19.6886 97.9766 19.388 98.0517 19.1626C98.1268 18.862 98.202 18.6366 98.2771 18.2608H106.466L107.142 15.6307H99.0284ZM65.5961 14.5035L66.6479 18.4863H62.4407L65.5961 14.5035ZM67.7749 23.1454H71.7567L68.6013 10.7461H64.6946L54.7776 23.1454H58.7594L60.3371 21.1916H67.249L67.7749 23.1454Z" fill="black"/>
<path d="M63.0418 33.5157C63.9433 33.5157 64.92 32.6891 65.2205 31.5619C65.2956 31.2613 65.3707 30.9607 65.4459 30.585C65.6713 29.6081 65.9718 28.4808 66.1972 27.5791C66.4977 26.4519 65.9718 25.6252 65.0702 25.6252H54.0263L53.275 28.7063H62.6661L62.2153 30.4347H54.4771C53.5756 30.4347 52.5989 31.2613 52.2984 32.3885C52.073 33.3654 51.8476 34.2672 51.5471 35.2441C51.3217 36.221 51.0212 37.1228 50.7958 38.0997H54.0263C54.2517 37.2731 54.402 36.5216 54.6274 35.8453C54.8527 35.0938 55.003 34.4175 55.2284 33.5909H63.0418V33.5157ZM79.0441 25.7755H69.6531C68.7515 25.7755 67.7749 26.6773 67.4743 27.8045C67.0987 29.1572 66.7982 30.585 66.4225 31.9376C66.0469 33.3654 65.7464 34.7181 65.3707 36.0707C65.1454 37.1979 65.6713 38.0997 66.5728 38.0997H75.9639C76.8654 38.0997 77.8421 37.1979 78.1426 36.0707C78.5182 34.7181 78.8188 33.2903 79.1944 31.9376C79.57 30.5098 79.8706 29.1572 80.2462 27.8045C80.5467 26.6773 80.0208 25.7755 79.0441 25.7755ZM76.3395 31.3365C76.1141 32.1631 76.039 32.5388 75.3628 35.0187H68.7515C69.1272 33.666 69.2774 32.9145 69.4277 32.4637C69.7282 31.4867 69.7282 31.2613 70.4044 28.7814H77.0157C76.64 30.2092 76.4146 30.8856 76.3395 31.3365ZM92.1165 38.0997H88.886L87.9093 33.2151H84.0026C83.5518 34.8684 83.1011 36.5216 82.7254 38.1749H79.4949C80.0208 36.2962 80.4716 34.4175 80.9975 32.5388C81.298 31.4116 82.1995 30.585 83.1762 30.585C84.4534 30.585 85.7306 30.585 87.0829 30.585C88.3601 30.585 89.6373 30.585 90.9896 30.585L91.4403 28.8566H82.0493L82.8006 25.7755H93.8445C94.6709 25.7755 95.2719 26.6022 94.9714 27.7294L94.0698 31.1862C93.7693 32.3134 92.8678 33.14 91.8911 33.14H91.2901L92.1165 38.0997ZM49.4435 30.2092C50.345 30.2092 50.8709 31.0359 50.5704 32.1631C50.4953 32.4637 50.4202 32.7643 50.345 33.14C50.1196 34.1169 49.8191 35.2441 49.5937 36.1459C49.2932 37.2731 48.3917 38.0997 47.415 38.0997H36.6716L37.4229 35.0187H46.5135L46.9642 33.2903H39.226C38.3245 33.2903 37.7986 32.4637 38.0991 31.3365C38.2493 30.7353 38.3996 30.1341 38.5498 29.4578C38.7001 28.8566 38.8504 28.1803 39.0006 27.5791C39.3011 26.527 40.2027 25.7004 41.1042 25.7004H51.7725L51.0212 28.7814H42.0058L41.6301 30.2092H49.4435ZM107.067 28.7814L107.894 25.7004H96.2486L95.4222 28.7814H99.7045L97.3004 38.0997H100.381L102.785 28.7814H107.067Z" fill="#F5333F"/>
<path d="M0.835751 39.227C0.685493 39.9033 0.986008 41.2559 2.18806 41.5565C2.18806 41.5565 2.26319 41.5565 2.33832 41.5565C3.91602 41.8571 5.19321 40.8802 5.79424 40.5045C8.87451 38.6258 10.302 37.4986 11.5791 37.0477C13.3071 36.4465 15.1102 36.6719 16.3122 36.8974C17.4392 37.2731 19.1671 37.9494 20.3692 39.3773C21.2707 40.4293 21.9469 42.1577 23.6748 45.3139C24.0505 45.9151 24.6515 47.418 26.1541 47.9441C26.1541 47.9441 26.2292 47.9441 26.3043 47.9441C27.5064 48.2446 28.4079 47.2677 28.6333 46.5914C29.009 45.4642 30.7369 36.5216 30.5115 34.3424C30.4364 32.9146 29.6851 31.2613 28.2577 30.1341C28.5582 27.7294 28.1074 26.001 27.5064 23.8217C28.6333 22.7697 29.4597 21.417 29.8354 19.8389C30.4364 17.8099 30.1359 15.7058 29.3095 13.9023C29.61 6.46268 26.3043 0 26.3043 0C26.3043 0 20.2189 3.90767 16.6128 10.5958C14.9599 11.723 13.7579 13.4514 13.1568 15.4804C12.7061 17.0585 12.7812 18.7117 13.1568 20.1395C11.504 21.7176 10.302 22.9951 9.32528 25.1744C7.59732 25.3247 6.16988 26.4519 5.34346 27.5791C4.06628 29.4578 1.13626 38.0997 0.835751 39.227ZM22.3976 29.0821C21.1205 29.0069 19.8433 28.8566 18.6412 28.4809C17.4392 28.1803 16.2371 27.6543 15.1102 27.0531C15.0351 25.9259 15.0351 24.7235 15.1102 23.3708C16.2371 24.5732 17.6646 25.5501 19.3174 26.001C21.0453 26.4519 22.7733 26.3767 24.351 25.8507C23.6748 27.0531 23.0738 28.1803 22.3976 29.0821ZM19.2423 9.39343C19.9935 8.26622 20.82 7.21415 21.6464 6.31238L27.2059 7.81533C27.4313 9.01769 27.6566 10.2952 27.7318 11.723C26.68 10.6709 25.4028 9.84431 23.8251 9.39343C22.2474 8.94254 20.6697 9.01769 19.2423 9.39343ZM23.3743 10.8964C27.1307 11.9484 29.3846 15.781 28.3328 19.5383C27.281 23.2957 23.4494 25.5501 19.693 24.4981C15.9366 23.446 13.6827 19.6135 14.7345 15.8561C15.7112 12.0987 19.6179 9.91946 23.3743 10.8964ZM26.5297 34.7181C27.1307 34.8684 27.4313 35.4696 27.281 35.9956C27.1307 36.5968 26.5297 36.8974 26.0038 36.7471C25.4028 36.5968 25.1023 35.9956 25.2525 35.4696C25.4028 34.9436 25.9287 34.5678 26.5297 34.7181ZM24.8018 31.7122C25.4028 31.8625 25.7033 32.4637 25.553 32.9897C25.4028 33.5909 24.8018 33.8915 24.2759 33.7412C23.6748 33.5909 23.3743 32.9897 23.5246 32.4637C23.5997 31.9377 24.2007 31.5619 24.8018 31.7122ZM23.4494 36.4465C24.0505 36.5968 24.351 37.198 24.2007 37.724C24.0505 38.3252 23.4494 38.6258 22.9235 38.4755C22.3225 38.3252 22.022 37.724 22.1723 37.198C22.3225 36.6719 22.9235 36.2962 23.4494 36.4465ZM21.7215 33.4406C22.3225 33.5909 22.623 34.1921 22.4728 34.7181C22.3225 35.2441 21.7215 35.6199 21.1956 35.4696C20.5946 35.3193 20.2941 34.7181 20.4443 34.1921C20.5946 33.666 21.1956 33.2903 21.7215 33.4406ZM7.52219 30.2093C7.59732 29.9838 7.89784 29.7584 8.12322 29.8335L9.77605 30.2844L10.2268 28.6312C10.3019 28.4057 10.6025 28.1803 10.8279 28.2554L11.8045 28.4809C12.0299 28.556 12.2553 28.8566 12.1802 29.0821L11.6543 30.8104L13.3071 31.2613C13.5325 31.3365 13.7579 31.6371 13.6827 31.8625L13.3822 32.8394C13.3071 33.0649 13.0066 33.2903 12.7812 33.2152L11.1284 32.7643L10.6776 34.4175C10.6025 34.643 10.302 34.8684 10.0766 34.7933L9.09989 34.5678C8.87451 34.4927 8.64912 34.1921 8.72425 33.9666L9.17502 32.3134L7.59732 31.7874C7.37194 31.7122 7.14655 31.4116 7.22168 31.1862L7.52219 30.2093Z" fill="#F5333F"/>
<path d="M17.6642 39.8282C17.2886 41.1809 15.6358 42.2329 14.7342 43.2099C14.4337 41.8572 13.5321 40.1288 13.8327 38.7762C13.8327 38.6259 13.9829 38.4004 14.0581 38.2501C13.2316 38.6259 12.5555 39.3773 12.3301 40.2791C11.7291 42.6087 13.0062 45.4643 13.457 47.7187C14.9596 45.9903 17.5891 44.2619 18.1901 41.9323C18.4155 40.9554 18.1901 40.0537 17.6642 39.3022C17.7394 39.4525 17.6642 39.6779 17.6642 39.8282Z" fill="black"/>
<path d="M22.5476 13.9774C24.6512 14.5786 25.8532 16.6827 25.3273 18.7117C24.7263 20.8158 22.6227 22.0182 20.5942 21.4921C18.5657 20.9661 17.2886 18.7868 17.8145 16.7579C18.3404 14.6537 20.444 13.3762 22.5476 13.9774Z" fill="black"/>
</svg>
