<svg width="14" height="14" viewBox="0 0 14 14" fill="none" xmlns="http://www.w3.org/2000/svg">
<path fill-rule="evenodd" clip-rule="evenodd" d="M7.16676 0.333313C7.35761 0.333326 7.53182 0.441992 7.61576 0.6134L9.45666 4.37234L13.5729 4.97865C13.7607 5.00631 13.9167 5.13795 13.9755 5.31845C14.0343 5.49895 13.9858 5.69718 13.8503 5.83016L10.8702 8.75508L11.5736 12.8881C11.6056 13.0759 11.5281 13.2655 11.3737 13.3772C11.2193 13.4888 11.0149 13.503 10.8466 13.4138L7.16672 11.4638L3.48683 13.4138C3.3185 13.503 3.11412 13.4888 2.95974 13.3772C2.80537 13.2655 2.72785 13.0759 2.75981 12.8881L3.46329 8.75508L0.483156 5.83016C0.347673 5.69718 0.299179 5.49896 0.357973 5.31846C0.416767 5.13796 0.572708 5.00632 0.760515 4.97865L4.87616 4.37234L6.71771 0.61334C6.80168 0.441943 6.9759 0.3333 7.16676 0.333313ZM7.16665 1.96997C7.16665 4.97865 7.16665 7.90265 7.16672 10.398C7.16672 10.398 7.32762 10.4174 7.40083 10.4562L10.4174 12.0546L9.84048 8.66521C9.813 8.5038 9.8663 8.33916 9.98316 8.22447L12.4317 5.82134L9.05053 5.32331C8.88752 5.2993 8.74681 5.19653 8.67435 5.04856L7.16665 1.96997Z" fill="#FFB800"/>
</svg>
