<svg width="12" height="10" viewBox="0 0 12 10" fill="none" xmlns="http://www.w3.org/2000/svg">
<path fill-rule="evenodd" clip-rule="evenodd" d="M6.00004 0.072998C6.14318 0.0730077 6.27383 0.154508 6.33679 0.283063L7.71746 3.10227L10.8047 3.557C10.9455 3.57775 11.0625 3.67648 11.1066 3.81185C11.1507 3.94723 11.1143 4.0959 11.0127 4.19563L8.77759 6.38932L9.30519 9.48907C9.32917 9.62992 9.27102 9.77216 9.15524 9.85588C9.03947 9.9396 8.88617 9.95025 8.75993 9.88335L6.00001 8.42089L3.24009 9.88335C3.11385 9.95025 2.96056 9.9396 2.84478 9.85588C2.729 9.77216 2.67085 9.62992 2.69483 9.48907L3.22244 6.38932L0.987336 4.19563C0.885725 4.0959 0.849354 3.94723 0.893449 3.81186C0.937545 3.67648 1.0545 3.57775 1.19536 3.557L4.28209 3.10227L5.66325 0.283018C5.72623 0.154471 5.85689 0.0729884 6.00004 0.072998ZM5.99995 1.30049L4.86877 3.60948C4.81441 3.72043 4.7089 3.79749 4.58667 3.81549L2.0513 4.189L3.88769 5.99137C3.97533 6.07738 4.0153 6.20086 3.99469 6.32192L3.56201 8.86398L5.82443 7.66514C5.93425 7.60695 6.06577 7.60695 6.17559 7.66514L8.43801 8.86398L8.00533 6.32192C7.98472 6.20086 8.02469 6.07738 8.11234 5.99137L9.94871 4.18902L7.41286 3.8155C7.29061 3.79749 7.18508 3.72041 7.13073 3.60943L5.99995 1.30049Z" fill="#6C89A9"/>
</svg>
