<svg width="14" height="14" viewBox="0 0 14 14" fill="none" xmlns="http://www.w3.org/2000/svg">
<path fill-rule="evenodd" clip-rule="evenodd" d="M7.00001 0.430664C7.19087 0.430677 7.36507 0.539344 7.44901 0.710751L9.28991 4.46969L13.4062 5.076C13.594 5.10367 13.7499 5.2353 13.8087 5.4158C13.8675 5.5963 13.819 5.79453 13.6835 5.92751L10.7034 8.85243L11.4069 12.9854C11.4388 13.1732 11.3613 13.3629 11.207 13.4745C11.0526 13.5861 10.8482 13.6003 10.6799 13.5111L6.99997 11.5612L3.32008 13.5111C3.15175 13.6003 2.94737 13.5861 2.793 13.4745C2.63863 13.3629 2.5611 13.1732 2.59306 12.9854L3.29654 8.85243L0.316408 5.92751C0.180925 5.79454 0.132431 5.59631 0.191225 5.41581C0.250019 5.23531 0.40596 5.10367 0.593767 5.076L4.70941 4.46969L6.55096 0.710691C6.63493 0.539294 6.80915 0.430651 7.00001 0.430664ZM6.9999 2.06732L5.49165 5.14597C5.41918 5.29391 5.27849 5.39665 5.11551 5.42066L1.73502 5.91867L4.18354 8.32182C4.3004 8.43651 4.35369 8.60115 4.32622 8.76256L3.74931 12.152L6.76586 10.5535C6.91229 10.4759 7.08765 10.4759 7.23408 10.5535L10.2506 12.152L9.67373 8.76256C9.64626 8.60115 9.69955 8.43651 9.81641 8.32182L12.2649 5.91869L8.88378 5.42066C8.72078 5.39665 8.58006 5.29388 8.5076 5.14591L6.9999 2.06732Z" fill="#FFB800"/>
</svg>
