<svg width="36" height="37" viewBox="0 0 36 37" fill="none" xmlns="http://www.w3.org/2000/svg">
<path fill-rule="evenodd" clip-rule="evenodd" d="M28.6949 7.80501C22.7883 1.89833 13.2117 1.89833 7.30501 7.80501L7.30501 7.80502C1.39833 13.7117 1.39833 23.2883 7.30501 29.195C13.2117 35.1016 22.7883 35.1016 28.695 29.1949C34.6014 23.2885 34.6016 13.7124 28.6956 7.80564L28.6949 7.80501ZM30.6395 5.86047C37.6201 12.8411 37.6201 24.1589 30.6395 31.1395C23.6589 38.1201 12.3411 38.1201 5.36047 31.1395C-1.62015 24.1589 -1.62016 12.8411 5.36047 5.86047C12.3411 -1.12015 23.6589 -1.12016 30.6395 5.86047ZM9.96922 12.3027C10.5062 11.7658 11.3768 11.7658 11.9138 12.3027L13.1971 13.5861C13.7341 14.123 13.7341 14.9936 13.1971 15.5306C12.6601 16.0676 11.7895 16.0676 11.2525 15.5306L9.96922 14.2473C9.43225 13.7103 9.43225 12.8397 9.96922 12.3027ZM22.8026 13.5861C22.2656 14.123 22.2656 14.9936 22.8026 15.5306C23.3395 16.0676 24.2101 16.0676 24.7471 15.5306L26.0304 14.2473C26.5674 13.7103 26.5674 12.8397 26.0304 12.3027C25.4935 11.7658 24.6229 11.7658 24.0859 12.3027L22.8026 13.5861ZM12.5498 26.8115C12.5537 26.8076 12.5551 26.8062 12.5498 26.8115ZM22.9151 26.3581C22.5407 26.0805 21.9716 25.7201 21.2215 25.4164C20.3771 25.0745 19.2999 24.803 18.0001 24.803C16.2764 24.803 14.8977 25.3192 13.9464 25.8379C13.4709 26.0971 13.1076 26.3541 12.8693 26.5406C12.7045 26.6695 12.6211 26.7433 12.5498 26.8115C12.0122 27.3427 11.1457 27.3405 10.6108 26.8052C9.9824 26.1764 10.1683 25.2496 10.7788 24.7044C10.873 24.6202 11.0056 24.5069 11.1751 24.3744C11.5134 24.1098 12.0025 23.7655 12.63 23.4234C13.8847 22.7394 15.7142 22.053 18.0001 22.053C19.6925 22.053 21.1193 22.4082 22.2535 22.8674C23.2549 23.2728 24.0255 23.758 24.5528 24.1489C24.949 24.4426 25.2111 24.6852 25.3364 24.8082C25.8996 25.3607 25.9549 26.272 25.3609 26.833C24.7598 27.4006 23.9894 27.2342 23.4161 26.769C23.2481 26.6327 23.0894 26.4873 22.9151 26.3581Z" fill="url(#paint0_linear_544_6488)"/>
<defs>
<linearGradient id="paint0_linear_544_6488" x1="18" y1="0.625" x2="18" y2="36.375" gradientUnits="userSpaceOnUse">
<stop stop-color="#FF9900"/>
<stop offset="1" stop-color="#FF7A00"/>
</linearGradient>
</defs>
</svg>
