<svg width="24" height="24" viewBox="0 0 24 24" fill="none" xmlns="http://www.w3.org/2000/svg">
<path fill-rule="evenodd" clip-rule="evenodd" d="M10.339 5.82611C10.501 5.68872 10.75 5.80304 10.75 6.01701V17.982C10.75 18.1963 10.5002 18.3098 10.3394 18.1733L10.3388 18.1728L6.3598 14.8018C6.2082 14.6733 6.02041 14.6155 5.83649 14.625H3.5C3.36221 14.625 3.25 14.5128 3.25 14.375V9.62499C3.25 9.48721 3.36221 9.37499 3.5 9.37499H5.86885H5.875C5.92086 9.37499 5.96576 9.37088 6.00936 9.363C5.96286 9.37142 5.91581 9.3754 5.86885 9.37499L10.339 5.82611ZM6.29879 9.24387C6.32068 9.22885 6.34174 9.2127 6.36187 9.1955L6.3598 9.19725C6.34005 9.21399 6.31968 9.22952 6.29879 9.24387ZM5.60003 7.87499L9.36903 4.6819L9.3692 4.68176C10.5071 3.71737 12.25 4.52704 12.25 6.01701V17.982C12.25 19.4717 10.5058 20.2823 9.3686 19.3167L5.60118 16.125H3.5C2.53379 16.125 1.75 15.3412 1.75 14.375V9.62499C1.75 8.65878 2.53379 7.87499 3.5 7.87499H5.60003ZM21.3604 8.90967C21.6533 9.20256 21.6533 9.67743 21.3604 9.97033L19.3907 11.94L21.3604 13.9097C21.6533 14.2026 21.6533 14.6774 21.3604 14.9703C21.0675 15.2632 20.5926 15.2632 20.2997 14.9703L18.3301 13.0007L16.3604 14.9703C16.0675 15.2632 15.5926 15.2632 15.2997 14.9703C15.0069 14.6774 15.0069 14.2026 15.2997 13.9097L17.2694 11.94L15.2997 9.97033C15.0069 9.67743 15.0069 9.20256 15.2997 8.90967C15.5926 8.61677 16.0675 8.61677 16.3604 8.90967L18.3301 10.8793L20.2997 8.90967C20.5926 8.61677 21.0675 8.61677 21.3604 8.90967Z" fill="#6C89A9"/>
</svg>
