<svg width="24" height="24" viewBox="0 0 24 24" fill="none" xmlns="http://www.w3.org/2000/svg">
<path fill-rule="evenodd" clip-rule="evenodd" d="M8.75 5C8.75 4.30964 9.30964 3.75 10 3.75C10.6904 3.75 11.25 4.30964 11.25 5V6.25H11H10C9.30964 6.25 8.75 5.69036 8.75 5ZM9.26772 7.75H4.5C4.08579 7.75 3.75 8.08579 3.75 8.5V9.5C3.75 9.91421 4.08579 10.25 4.5 10.25H9.25V8C9.25 7.91512 9.25604 7.83165 9.26772 7.75ZM9.25 11.75H4.75V19C4.75 19.6904 5.30964 20.25 6 20.25H9.26772C9.25604 20.1683 9.25 20.0849 9.25 20V11.75ZM11 20.25C10.8619 20.25 10.75 20.1381 10.75 20V11V8C10.75 7.86193 10.8619 7.75 11 7.75H12H13C13.1381 7.75 13.25 7.86193 13.25 8V11V20C13.25 20.1381 13.1381 20.25 13 20.25H11ZM13 21.75H11H6C4.48122 21.75 3.25 20.5188 3.25 19V11.3711C2.64701 10.9675 2.25 10.2801 2.25 9.5V8.5C2.25 7.25736 3.25736 6.25 4.5 6.25H7.54985C7.35814 5.87497 7.25 5.45011 7.25 5C7.25 3.48122 8.48122 2.25 10 2.25C10.788 2.25 11.4986 2.58145 12 3.11253C12.5014 2.58145 13.212 2.25 14 2.25C15.5188 2.25 16.75 3.48122 16.75 5C16.75 5.45011 16.6419 5.87497 16.4501 6.25H19.5C20.7426 6.25 21.75 7.25736 21.75 8.5V9.5C21.75 10.2801 21.353 10.9675 20.75 11.3711V19C20.75 20.5188 19.5188 21.75 18 21.75H13ZM14.7323 20.25C14.744 20.1683 14.75 20.0849 14.75 20V11.75H19.25V19C19.25 19.6904 18.6904 20.25 18 20.25H14.7323ZM14.75 10.25H19.5C19.9142 10.25 20.25 9.91421 20.25 9.5V8.5C20.25 8.08579 19.9142 7.75 19.5 7.75H14.7323C14.744 7.83165 14.75 7.91512 14.75 8V10.25ZM13 6.25H14C14.6904 6.25 15.25 5.69036 15.25 5C15.25 4.30964 14.6904 3.75 14 3.75C13.3096 3.75 12.75 4.30964 12.75 5V6.25H13Z" fill="#6C89A9"/>
</svg>
