<svg width="24" height="24" viewBox="0 0 24 24" fill="none" xmlns="http://www.w3.org/2000/svg">
<path fill-rule="evenodd" clip-rule="evenodd" d="M6.16637 6.16637C9.3882 2.94454 14.6118 2.94454 17.8336 6.16637L17.834 6.16671C21.0554 9.38857 21.0553 14.6119 17.8336 17.8336C14.6118 21.0554 9.38818 21.0554 6.16637 17.8336C2.94454 14.6118 2.94454 9.38818 6.16637 6.16637L6.16637 6.16637ZM18.8943 18.8943C22.7019 15.0867 22.7019 8.91332 18.8943 5.10571C15.0867 1.2981 8.91332 1.2981 5.10571 5.10571C1.2981 8.9133 1.2981 15.0867 5.10571 18.8943C8.9133 22.7019 15.0867 22.7019 18.8943 18.8943ZM15.7012 8.46967C15.994 8.76256 15.994 9.23744 15.7012 9.53033L13.1461 12.0854L15.7012 14.6405C15.994 14.9334 15.994 15.4083 15.7012 15.7012C15.4083 15.994 14.9334 15.994 14.6405 15.7012L12.0854 13.1461L9.53033 15.7012C9.23744 15.994 8.76256 15.994 8.46967 15.7012C8.17678 15.4083 8.17678 14.9334 8.46967 14.6405L11.0248 12.0854L8.46967 9.53033C8.17678 9.23744 8.17678 8.76256 8.46967 8.46967C8.76256 8.17678 9.23744 8.17678 9.53033 8.46967L12.0854 11.0248L14.6405 8.46967C14.9334 8.17678 15.4083 8.17678 15.7012 8.46967Z" fill="#6C89A9"/>
</svg>
