<svg width="24" height="24" viewBox="0 0 24 24" fill="none" xmlns="http://www.w3.org/2000/svg">
<path fill-rule="evenodd" clip-rule="evenodd" d="M3.50121 9.74874C3.51342 9.74904 3.5256 9.74904 3.53775 9.74874H6.998C7.41222 9.74874 7.748 9.41295 7.748 8.99874C7.748 8.58452 7.41222 8.24874 6.998 8.24874H4.65764C6.13194 5.36742 9.18973 3.58037 12.488 3.77716C16.1532 3.99585 19.2322 6.6116 20.0404 10.1932C20.8486 13.7749 19.1913 17.4594 15.9752 19.2309C12.7591 21.0023 8.75915 20.4339 6.16392 17.8365C5.87114 17.5435 5.39627 17.5433 5.10326 17.8361C4.81024 18.1289 4.81005 18.6038 5.10283 18.8968C8.17016 21.9666 12.8977 22.6384 16.6989 20.5447C20.5 18.451 22.4588 14.0962 21.5036 9.86307C20.5484 5.62989 16.9093 2.5383 12.5774 2.27983C8.97198 2.06471 5.60973 3.85521 3.74634 6.81957V4.99707C3.74634 4.58286 3.41055 4.24707 2.99634 4.24707C2.58212 4.24707 2.24634 4.58286 2.24634 4.99707V8.99874C2.24634 9.41295 2.58212 9.74874 2.99634 9.74874H3.50121ZM12 6.24792C12.4142 6.24792 12.75 6.58371 12.75 6.99792V12C12.75 12.1989 12.671 12.3897 12.5304 12.5303L9.52911 15.5316C9.23622 15.8245 8.76134 15.8245 8.46845 15.5316C8.17556 15.2387 8.17556 14.7638 8.46845 14.4709L11.25 11.6893V6.99792C11.25 6.58371 11.5858 6.24792 12 6.24792Z" fill="#6C89A9"/>
</svg>
