<svg width="24" height="24" viewBox="0 0 24 24" fill="none" xmlns="http://www.w3.org/2000/svg">
<path fill-rule="evenodd" clip-rule="evenodd" d="M3.75 11.291C3.75 7.23406 7.39093 3.85999 12 3.85999C16.6089 3.85999 20.25 7.23495 20.25 11.292L20.2501 11.3038C20.2425 15.3551 16.6042 18.723 12.0001 18.723C11.4329 18.723 10.8794 18.6696 10.3418 18.5705C10.167 18.519 9.97311 18.5307 9.79697 18.618L7.34941 19.8314L7.34922 19.5549V19.5547L7.34922 19.5533C7.34876 18.9165 7.34834 18.332 7.34889 17.843C7.34976 17.8035 7.34748 17.7639 7.34216 17.7249C7.33209 17.6502 7.31105 17.579 7.28069 17.513C7.23019 17.4027 7.15232 17.3034 7.04919 17.2261C7.03811 17.2178 7.02679 17.2098 7.01524 17.2021C5.01782 15.8332 3.75 13.6926 3.75 11.291V11.291ZM12 2.35999C17.29 2.35999 21.7416 6.26364 21.75 11.2778L21.7501 11.291C21.7501 16.312 17.2952 20.223 12.0001 20.223C11.3966 20.223 10.8076 20.1711 10.2355 20.0749L6.96614 21.6956C6.85783 21.7564 6.73291 21.791 6.59991 21.791C6.1857 21.791 5.84991 21.4552 5.84991 21.041C5.84991 20.5314 5.84956 20.031 5.84922 19.5586C5.84887 19.0732 5.84855 18.6174 5.84865 18.2115C3.67512 16.5902 2.25 14.1134 2.25 11.291V11.291C2.25 6.26991 6.70507 2.35999 12 2.35999ZM9.1001 8C9.1001 7.58579 9.43588 7.25 9.8501 7.25H14.1501C14.5643 7.25 14.9001 7.58579 14.9001 8C14.9001 8.41421 14.5643 8.75 14.1501 8.75H9.8501C9.43588 8.75 9.1001 8.41421 9.1001 8ZM8 10.5C7.58579 10.5 7.25 10.8358 7.25 11.25C7.25 11.6642 7.58579 12 8 12H16C16.4142 12 16.75 11.6642 16.75 11.25C16.75 10.8358 16.4142 10.5 16 10.5H8ZM9.8501 13.75C9.43588 13.75 9.1001 14.0858 9.1001 14.5C9.1001 14.9142 9.43588 15.25 9.8501 15.25H14.1501C14.5643 15.25 14.9001 14.9142 14.9001 14.5C14.9001 14.0858 14.5643 13.75 14.1501 13.75H9.8501Z" fill="#6C89A9"/>
</svg>
