<svg width="24" height="24" viewBox="0 0 24 24" fill="none" xmlns="http://www.w3.org/2000/svg">
<path fill-rule="evenodd" clip-rule="evenodd" d="M4 4.25C3.58579 4.25 3.25 4.58579 3.25 5C3.25 5.41421 3.58579 5.75 4 5.75H20C20.4142 5.75 20.75 5.41421 20.75 5C20.75 4.58579 20.4142 4.25 20 4.25H4ZM3.25 10C3.25 9.58579 3.58579 9.25 4 9.25H20C20.4142 9.25 20.75 9.58579 20.75 10C20.75 10.4142 20.4142 10.75 20 10.75H4C3.58579 10.75 3.25 10.4142 3.25 10ZM4 14.25C3.58579 14.25 3.25 14.5858 3.25 15C3.25 15.4142 3.58579 15.75 4 15.75H10C10.4142 15.75 10.75 15.4142 10.75 15C10.75 14.5858 10.4142 14.25 10 14.25H4ZM4 19.25C3.58579 19.25 3.25 19.5858 3.25 20C3.25 20.4142 3.58579 20.75 4 20.75H10C10.4142 20.75 10.75 20.4142 10.75 20C10.75 19.5858 10.4142 19.25 10 19.25H4ZM17.75 14.25C18.1642 14.25 18.5 14.5858 18.5 15V16.75H20.25C20.6642 16.75 21 17.0858 21 17.5C21 17.9142 20.6642 18.25 20.25 18.25H18.5V20C18.5 20.4142 18.1642 20.75 17.75 20.75C17.3358 20.75 17 20.4142 17 20V18.25H15.25C14.8358 18.25 14.5 17.9142 14.5 17.5C14.5 17.0858 14.8358 16.75 15.25 16.75H17V15C17 14.5858 17.3358 14.25 17.75 14.25Z" fill="#6C89A9"/>
</svg>
