<svg width="24" height="24" viewBox="0 0 24 24" fill="none" xmlns="http://www.w3.org/2000/svg">
<path fill-rule="evenodd" clip-rule="evenodd" d="M4 4.25C3.58579 4.25 3.25 4.58579 3.25 5C3.25 5.41421 3.58579 5.75 4 5.75H20C20.4142 5.75 20.75 5.41421 20.75 5C20.75 4.58579 20.4142 4.25 20 4.25H4ZM3.25 10C3.25 9.58579 3.58579 9.25 4 9.25H20C20.4142 9.25 20.75 9.58579 20.75 10C20.75 10.4142 20.4142 10.75 20 10.75H4C3.58579 10.75 3.25 10.4142 3.25 10ZM4 14.25C3.58579 14.25 3.25 14.5858 3.25 15C3.25 15.4142 3.58579 15.75 4 15.75H10C10.4142 15.75 10.75 15.4142 10.75 15C10.75 14.5858 10.4142 14.25 10 14.25H4ZM4 19.25C3.58579 19.25 3.25 19.5858 3.25 20C3.25 20.4142 3.58579 20.75 4 20.75H10C10.4142 20.75 10.75 20.4142 10.75 20C10.75 19.5858 10.4142 19.25 10 19.25H4Z" fill="#6C89A9"/>
<path fill-rule="evenodd" clip-rule="evenodd" d="M20.7 15.15C21.0314 15.3986 21.0985 15.8687 20.85 16.2L17.85 20.2C17.7195 20.374 17.52 20.4827 17.3032 20.4982C17.0863 20.5136 16.8734 20.4341 16.7197 20.2804L14.2197 17.7804C13.9268 17.4875 13.9268 17.0126 14.2197 16.7197C14.5126 16.4268 14.9874 16.4268 15.2803 16.7197L17.1689 18.6082L19.65 15.3C19.8985 14.9687 20.3686 14.9015 20.7 15.15Z" fill="#6C89A9"/>
</svg>
