<svg width="24" height="24" viewBox="0 0 24 24" fill="none" xmlns="http://www.w3.org/2000/svg">
<path fill-rule="evenodd" clip-rule="evenodd" d="M4 3.75C3.58579 3.75 3.25 4.08579 3.25 4.5C3.25 4.91421 3.58579 5.25 4 5.25H20C20.4142 5.25 20.75 4.91421 20.75 4.5C20.75 4.08579 20.4142 3.75 20 3.75H4ZM3.25 9.5C3.25 9.08579 3.58579 8.75 4 8.75H20C20.4142 8.75 20.75 9.08579 20.75 9.5C20.75 9.91421 20.4142 10.25 20 10.25H4C3.58579 10.25 3.25 9.91421 3.25 9.5ZM4 13.75C3.58579 13.75 3.25 14.0858 3.25 14.5C3.25 14.9142 3.58579 15.25 4 15.25H11C11.4142 15.25 11.75 14.9142 11.75 14.5C11.75 14.0858 11.4142 13.75 11 13.75H4ZM4 18.75C3.58579 18.75 3.25 19.0858 3.25 19.5C3.25 19.9142 3.58579 20.25 4 20.25H11C11.4142 20.25 11.75 19.9142 11.75 19.5C11.75 19.0858 11.4142 18.75 11 18.75H4ZM14.4697 13.9697C14.7626 13.6768 15.2374 13.6768 15.5303 13.9697L17.5 15.9393L19.4697 13.9697C19.7626 13.6768 20.2374 13.6768 20.5303 13.9697C20.8232 14.2626 20.8232 14.7374 20.5303 15.0303L18.5607 17L20.5303 18.9697C20.8232 19.2626 20.8232 19.7374 20.5303 20.0303C20.2374 20.3232 19.7626 20.3232 19.4697 20.0303L17.5 18.0607L15.5303 20.0303C15.2374 20.3232 14.7626 20.3232 14.4697 20.0303C14.1768 19.7374 14.1768 19.2626 14.4697 18.9697L16.4393 17L14.4697 15.0303C14.1768 14.7374 14.1768 14.2626 14.4697 13.9697Z" fill="#6C89A9"/>
</svg>
