<svg width="24" height="24" viewBox="0 0 24 24" fill="none" xmlns="http://www.w3.org/2000/svg">
<path fill-rule="evenodd" clip-rule="evenodd" d="M8.24878 4.59688C8.24878 3.29865 9.30121 2.24622 10.5994 2.24622H18.0025C19.5218 2.24622 20.7534 3.47781 20.7534 4.99705V15.4014C20.7534 16.6996 19.7009 17.752 18.4027 17.752H15.7514V19.4031C15.7514 20.7013 14.699 21.7537 13.4007 21.7537H5.59749C4.29926 21.7537 3.24683 20.7013 3.24683 19.4031V8.59856C3.24683 7.30032 4.29926 6.24789 5.59749 6.24789H8.24878V4.59688ZM14.2513 17.002L14.2514 16.988V11.7496H11.8001C10.9439 11.7496 10.2498 11.0555 10.2498 10.1992V7.74789H5.59749C5.12768 7.74789 4.74683 8.12875 4.74683 8.59856V19.4031C4.74683 19.8729 5.12768 20.2537 5.59749 20.2537H13.4007C13.8706 20.2537 14.2514 19.8729 14.2514 19.4031V17.0161L14.2513 17.002ZM11.7498 8.00823V10.1992C11.7498 10.227 11.7723 10.2496 11.8001 10.2496H13.9911L11.7498 8.00823ZM15.7514 10.995V10.8625C15.7514 10.2389 15.5036 9.64055 15.0624 9.19953L12.7998 6.93693C12.3587 6.49561 11.7605 6.24789 11.1368 6.24789H10.9998H9.74878V4.59688C9.74878 4.12707 10.1296 3.74622 10.5994 3.74622H18.0025C18.6933 3.74622 19.2534 4.30623 19.2534 4.99705V15.4014C19.2534 15.8712 18.8725 16.252 18.4027 16.252H15.7514V11.0041C15.7514 11.0026 15.7514 11.0011 15.7514 10.9996C15.7514 10.9981 15.7514 10.9965 15.7514 10.995Z" fill="#6C89A9"/>
</svg>
