<svg width="18" height="18" viewBox="0 0 18 18" fill="none" xmlns="http://www.w3.org/2000/svg">
<path fill-rule="evenodd" clip-rule="evenodd" d="M1.74658 8.05852C1.74658 4.57253 4.57253 1.74658 8.05852 1.74658C11.5445 1.74658 14.3705 4.57253 14.3705 8.05852C14.3705 9.79165 13.672 11.3616 12.5411 12.5023C12.5345 12.5085 12.5279 12.5148 12.5214 12.5213C12.515 12.5278 12.5086 12.5343 12.5024 12.541C11.3617 13.6719 9.79172 14.3705 8.05852 14.3705C4.57253 14.3705 1.74658 11.5445 1.74658 8.05852ZM13.0268 14.0873C11.6766 15.2013 9.94568 15.8705 8.05852 15.8705C3.74411 15.8705 0.246582 12.3729 0.246582 8.05852C0.246582 3.74411 3.74411 0.246582 8.05852 0.246582C12.3729 0.246582 15.8705 3.74411 15.8705 8.05852C15.8705 9.94561 15.2014 11.6764 14.0874 13.0266L17.5337 16.4729C17.8266 16.7658 17.8266 17.2407 17.5337 17.5336C17.2408 17.8265 16.766 17.8265 16.4731 17.5336L13.0268 14.0873Z" fill="white"/>
</svg>
