<svg width="24" height="24" viewBox="0 0 24 24" fill="none" xmlns="http://www.w3.org/2000/svg">
<path fill-rule="evenodd" clip-rule="evenodd" d="M4.08794 5.5C4.55619 5.5 4.93577 5.87958 4.93577 6.34783V17.6522C4.93577 18.1204 4.55619 18.5 4.08794 18.5C3.6197 18.5 3.24012 18.1204 3.24012 17.6522V6.34783C3.24012 5.87958 3.6197 5.5 4.08794 5.5Z" fill="#6C89A9"/>
<path fill-rule="evenodd" clip-rule="evenodd" d="M10.8706 5.5C11.3388 5.5 11.7184 5.87958 11.7184 6.34783V17.6522C11.7184 18.1204 11.3388 18.5 10.8706 18.5C10.4023 18.5 10.0227 18.1204 10.0227 17.6522V6.34783C10.0227 5.87958 10.4023 5.5 10.8706 5.5Z" fill="#6C89A9"/>
<path fill-rule="evenodd" clip-rule="evenodd" d="M11.7184 11.7174C11.7184 12.1856 11.3388 12.5652 10.8706 12.5652L4.08781 12.5652C3.61957 12.5652 3.23999 12.1856 3.23999 11.7174C3.23999 11.2491 3.61958 10.8696 4.08782 10.8696L10.8706 10.8696C11.3388 10.8696 11.7184 11.2492 11.7184 11.7174Z" fill="#6C89A9"/>
<path fill-rule="evenodd" clip-rule="evenodd" d="M15.5606 5.52152C16.0624 5.46696 16.5701 5.51641 17.052 5.66677C17.5338 5.81713 17.9796 6.06518 18.3613 6.39544C18.7431 6.72571 19.0527 7.1311 19.2708 7.58633C19.489 8.04156 19.6109 8.53686 19.6292 9.04132C19.6474 9.54579 19.5614 10.0486 19.3767 10.5184C19.192 10.9881 18.9124 11.4148 18.5555 11.7718C18.2244 12.1029 17.6876 12.1029 17.3565 11.7718C17.0254 11.4407 17.0254 10.9039 17.3565 10.5728C17.5487 10.3806 17.6992 10.1508 17.7987 9.89785C17.8981 9.64489 17.9444 9.37415 17.9346 9.10252C17.9248 8.83088 17.8591 8.56419 17.7417 8.31906C17.6242 8.07394 17.4575 7.85565 17.2519 7.67781C17.0464 7.49998 16.8064 7.36641 16.5469 7.28545C16.2874 7.20449 16.014 7.17786 15.7438 7.20724C15.4736 7.23662 15.2123 7.32137 14.9763 7.4562C14.7403 7.59103 14.5346 7.77305 14.3721 7.9909C14.0921 8.3662 13.5608 8.44344 13.1855 8.16343C12.8103 7.88342 12.733 7.35219 13.013 6.9769C13.3149 6.57231 13.6969 6.23427 14.1352 5.98387C14.5735 5.73347 15.0587 5.57608 15.5606 5.52152Z" fill="#6C89A9"/>
<path fill-rule="evenodd" clip-rule="evenodd" d="M16.132 10.0398C16.8668 9.97177 17.6067 10.0968 18.2784 10.4024C18.9501 10.7081 19.5303 11.1838 19.9618 11.7825C20.3932 12.3812 20.6609 13.0822 20.7383 13.8161C20.8158 14.55 20.7003 15.2914 20.4033 15.967C20.1063 16.6425 19.638 17.2288 19.0449 17.6679C18.4518 18.107 17.7543 18.3837 17.0215 18.4705C16.2886 18.5574 15.5458 18.4514 14.8665 18.1631C14.1872 17.8748 13.5949 17.4142 13.1482 16.8267C12.8648 16.454 12.9372 15.9221 13.3099 15.6387C13.6826 15.3552 14.2146 15.4276 14.498 15.8004C14.766 16.1528 15.1213 16.4292 15.5289 16.6022C15.9365 16.7752 16.3822 16.8388 16.8219 16.7867C17.2616 16.7346 17.6801 16.5686 18.036 16.3051C18.3919 16.0417 18.6728 15.6899 18.851 15.2845C19.0292 14.8792 19.0985 14.4343 19.0521 13.994C19.0056 13.5537 18.845 13.1331 18.5861 12.7739C18.3273 12.4146 17.9791 12.1292 17.5761 11.9458C17.1731 11.7624 16.7291 11.6874 16.2882 11.7282C15.822 11.7714 15.409 11.4284 15.3659 10.9621C15.3228 10.4959 15.6657 10.0829 16.132 10.0398Z" fill="#6C89A9"/>
</svg>
