<svg width="25" height="24" viewBox="0 0 25 24" fill="none" xmlns="http://www.w3.org/2000/svg">
<path fill-rule="evenodd" clip-rule="evenodd" d="M3.95001 5C3.95001 4.30921 4.50923 3.75 5.20001 3.75H19.2C19.8908 3.75 20.45 4.30921 20.45 5V13C20.45 13.6908 19.8908 14.25 19.2 14.25H16.2C15.7858 14.25 15.45 14.5858 15.45 15C15.45 15.4142 15.7858 15.75 16.2 15.75H19.2C20.7192 15.75 21.95 14.5192 21.95 13V5C21.95 3.48079 20.7192 2.25 19.2 2.25H5.20001C3.6808 2.25 2.45001 3.48079 2.45001 5V13C2.45001 14.5192 3.6808 15.75 5.20001 15.75H8.20001C8.61423 15.75 8.95001 15.4142 8.95001 15C8.95001 14.5858 8.61423 14.25 8.20001 14.25H5.20001C4.50923 14.25 3.95001 13.6908 3.95001 13V5ZM6.70001 6.25C7.11423 6.25 7.45001 6.58579 7.45001 7V11C7.45001 11.4142 7.11423 11.75 6.70001 11.75C6.2858 11.75 5.95001 11.4142 5.95001 11V7C5.95001 6.58579 6.2858 6.25 6.70001 6.25ZM13.0837 8.11632C12.5956 7.62822 11.8044 7.62822 11.3163 8.11632C10.8282 8.60443 10.8282 9.39556 11.3163 9.88366C11.8044 10.3718 12.5956 10.3718 13.0837 9.88366C13.5718 9.39556 13.5718 8.60443 13.0837 8.11632ZM14.1443 7.05566C13.0704 5.98177 11.3296 5.98177 10.2557 7.05566C9.18178 8.12956 9.18178 9.87043 10.2557 10.9443C11.3296 12.0182 13.0704 12.0182 14.1443 10.9443C15.2182 9.87043 15.2182 8.12956 14.1443 7.05566ZM18.45 7C18.45 6.58579 18.1142 6.25 17.7 6.25C17.2858 6.25 16.95 6.58579 16.95 7V11C16.95 11.4142 17.2858 11.75 17.7 11.75C18.1142 11.75 18.45 11.4142 18.45 11V7ZM12.95 16C12.95 15.5858 12.6142 15.25 12.2 15.25C11.7858 15.25 11.45 15.5858 11.45 16V19.1893L10.7303 18.4697C10.4374 18.1768 9.96258 18.1768 9.66968 18.4697C9.37679 18.7626 9.37679 19.2374 9.66968 19.5303L11.6697 21.5303C11.7416 21.6022 11.8245 21.6565 11.9129 21.6931C12.0014 21.7298 12.0983 21.75 12.2 21.75C12.3017 21.75 12.3987 21.7298 12.4871 21.6931C12.5756 21.6565 12.6584 21.6022 12.7303 21.5303L14.7303 19.5303C15.0232 19.2374 15.0232 18.7626 14.7303 18.4697C14.4374 18.1768 13.9626 18.1768 13.6697 18.4697L12.95 19.1893V16Z" fill="#6C89A9"/>
</svg>
