<svg width="20" height="20" viewBox="0 0 20 20" fill="none" xmlns="http://www.w3.org/2000/svg">
<g opacity="0.65">
<path fill-rule="evenodd" clip-rule="evenodd" d="M15 2.91667H4.99999C3.8494 2.91667 2.91666 3.84941 2.91666 5.00001V15C2.91666 16.1506 3.8494 17.0833 4.99999 17.0833H15C16.1506 17.0833 17.0833 16.1506 17.0833 15V5.00001C17.0833 3.84941 16.1506 2.91667 15 2.91667ZM4.99999 1.66667C3.15904 1.66667 1.66666 3.15906 1.66666 5.00001V15C1.66666 16.841 3.15904 18.3333 4.99999 18.3333H15C16.8409 18.3333 18.3333 16.841 18.3333 15V5.00001C18.3333 3.15906 16.8409 1.66667 15 1.66667H4.99999Z" fill="#6C89A9"/>
<path fill-rule="evenodd" clip-rule="evenodd" d="M7.72376 2.17851C7.94484 1.85874 8.31702 1.66667 8.71558 1.66667H9.41132C9.72747 1.66667 10.0307 1.78777 10.2542 2.00333L10.5285 2.26783C10.7521 2.48339 10.8777 2.77575 10.8777 3.0806V3.68305C10.8777 3.75701 10.8682 3.83042 10.8496 3.90167H16.4735C17.0404 3.90167 17.5 4.34481 17.5 4.89145C17.5 5.43809 17.0404 5.88123 16.4735 5.88123H13.143C13.086 5.88123 13.0354 5.91641 13.0173 5.96856L12.8602 6.42328C12.8327 6.50284 12.7962 6.57926 12.7515 6.65117L12.0851 7.72204C11.7844 8.2053 11.1645 8.40669 10.6218 8.19738C10.5251 8.16007 10.424 8.24114 10.4444 8.33965L10.4917 8.56748C10.5437 8.81812 10.5075 9.07832 10.389 9.30694L10.0067 10.0442C9.98474 10.0865 9.98885 10.1371 10.0174 10.1756L11.3179 11.9312C11.4623 12.1261 11.5399 12.3597 11.5399 12.5993V16.6531C12.1722 17.2779 11.7142 18.3333 10.8044 18.3333H10.2107C9.42787 18.3333 8.87511 17.5938 9.12266 16.8777C9.12822 16.8616 9.12861 16.8443 9.12378 16.828L8.56271 14.9344C8.50526 14.7405 8.50172 14.5355 8.55244 14.3398L8.7496 13.5794C8.76089 13.5358 8.74766 13.4898 8.71477 13.4581L7.77718 12.554C7.70632 12.4857 7.58546 12.515 7.55667 12.6076L6.90366 14.7065C6.87764 14.7901 6.84181 14.8707 6.79688 14.9465L5.74002 16.7299C6.37702 17.2807 5.98298 18.3333 5.09529 18.3333H4.49124C3.76079 18.3333 3.21294 17.689 3.35619 16.9983L3.53547 16.134L3.83863 14.38C3.87003 14.1983 3.94623 14.0266 4.06082 13.8793L4.82483 12.897C4.84203 12.8749 4.85132 12.848 4.85132 12.8204V10.5422C4.85132 10.4665 4.85908 10.391 4.87447 10.3167L5.13717 9.0502C4.95395 8.8666 4.85132 8.62151 4.85132 8.36622V7.86987C4.85132 7.56503 4.97691 7.27267 5.20046 7.05711L5.47476 6.7926C5.4996 6.76865 5.51356 6.73617 5.51356 6.7023V5.90252C5.51356 5.65382 5.59721 5.41182 5.75196 5.21286L6.42758 4.34422C6.64116 4.06962 6.99134 3.93535 7.33478 3.98458L7.23323 3.49494C7.17122 3.19601 7.23491 2.88558 7.41028 2.63193L7.72376 2.17851ZM8.71558 2.68838C8.6713 2.68838 8.62994 2.70972 8.60538 2.74525L8.2919 3.19867C8.27241 3.22686 8.26533 3.26135 8.27222 3.29456L8.40476 3.93354C8.54415 4.60561 7.90592 5.17574 7.23313 5.01139L6.59962 5.82589C6.58243 5.848 6.57313 5.87488 6.57313 5.90252V6.7023C6.57313 7.00714 6.44754 7.2995 6.224 7.51506L5.94969 7.77957C5.92485 7.80352 5.9109 7.836 5.9109 7.86987V8.35178C6.14514 8.58447 6.24604 8.91368 6.17996 9.23229L5.91347 10.5171C5.91176 10.5254 5.9109 10.5338 5.9109 10.5422V12.8204C5.9109 13.0691 5.82724 13.311 5.67249 13.51L4.90848 14.4923C4.89575 14.5087 4.88728 14.5277 4.88379 14.5479L4.57922 16.31C4.57828 16.3155 4.57726 16.3209 4.57614 16.3262L4.39519 17.1987C4.38307 17.2571 4.42943 17.3116 4.49124 17.3116H4.84569C4.6185 17.0236 4.58241 16.624 4.77676 16.296L5.87691 14.4396C5.8819 14.4311 5.88588 14.4222 5.88877 14.4129L6.54178 12.314C6.80096 11.481 7.88862 11.2165 8.52641 11.8315L9.464 12.7356C9.76007 13.0211 9.8791 13.4355 9.77754 13.8272L9.58038 14.5876C9.57474 14.6094 9.57513 14.6322 9.58152 14.6537L10.1426 16.5473C10.2061 16.7616 10.201 16.9894 10.1279 17.2008C10.109 17.2553 10.1511 17.3116 10.2107 17.3116H10.7285C10.5689 17.1327 10.4803 16.9039 10.4803 16.6663V12.5993C10.4803 12.5727 10.4717 12.5467 10.4556 12.525L9.15516 10.7694C8.89852 10.423 8.86151 9.96812 9.05897 9.58731L9.44128 8.85001C9.45445 8.82461 9.45846 8.7957 9.45269 8.76785L9.40543 8.54003C9.21998 7.6459 10.1373 6.9101 11.0153 7.24875C11.0751 7.27181 11.1434 7.24962 11.1765 7.19638L11.8429 6.12551C11.8478 6.11752 11.8519 6.10902 11.855 6.10018L12.0121 5.64547C12.1313 5.3007 12.4087 5.03836 12.751 4.92338H10.6629C9.98286 4.92338 9.5369 4.24398 9.81808 3.65447V3.0806C9.81808 3.04673 9.80412 3.01425 9.77928 2.99029L9.50498 2.72579C9.48014 2.70184 9.44645 2.68838 9.41132 2.68838H8.71558Z" fill="#6C89A9"/>
</g>
</svg>
