<svg width="16" height="16" viewBox="0 0 16 16" fill="none" xmlns="http://www.w3.org/2000/svg">
<path fill-rule="evenodd" clip-rule="evenodd" d="M8.16272 4.18503C8.41932 3.85058 8.92093 3.84184 9.18938 4.16784C9.29148 4.29152 9.34803 4.44856 9.34803 4.61067V6.79134C9.34803 7.06748 9.57188 7.29134 9.84803 7.29134H11.912C12.1457 7.29134 12.364 7.40818 12.494 7.60233L12.7133 7.92966C12.8281 8.10153 12.8611 8.3154 12.8042 8.51238L11.8982 11.6603C11.8118 11.9604 11.5376 12.1667 11.226 12.1667H7.03336C6.8387 12.1667 6.65283 12.0856 6.52099 11.9437L5.83333 11.2035V7.21789L8.16272 4.18503ZM4.83333 7.04781C4.83333 7.0477 4.83333 7.04759 4.83333 7.04747V7.03733C4.83333 6.92481 4.74186 6.83333 4.62933 6.83333H3.37067C3.25814 6.83333 3.16667 6.92481 3.16667 7.03733V11.9627C3.16667 12.0752 3.25814 12.1667 3.37067 12.1667H4.62933C4.74186 12.1667 4.83333 12.0752 4.83333 11.9627V7.04781ZM5.41305 6.1234L7.36933 3.57631C8.01803 2.73107 9.28418 2.71024 9.96107 3.53184C10.2122 3.83614 10.348 4.21818 10.348 4.61067V6.29134H11.912C12.4796 6.29134 13.0093 6.57462 13.3247 7.04568L13.5441 7.37301C13.8223 7.78897 13.9041 8.30753 13.7652 8.78896L12.8592 11.937C12.6496 12.6649 11.9838 13.1667 11.226 13.1667H7.03336C6.56137 13.1667 6.10988 12.9704 5.78839 12.6243L5.69486 12.5237C5.4931 12.906 5.09158 13.1667 4.62933 13.1667H3.37067C2.70586 13.1667 2.16667 12.6275 2.16667 11.9627V7.03733C2.16667 6.37252 2.70586 5.83333 3.37067 5.83333H4.62933C4.9286 5.83333 5.20242 5.9426 5.41305 6.1234Z" fill="#6C89A9"/>
</svg>
