<svg width="25" height="24" viewBox="0 0 25 24" fill="none" xmlns="http://www.w3.org/2000/svg">
<path d="M12.5 11C11.9067 11 11.3266 11.1759 10.8333 11.5056C10.3399 11.8352 9.95542 12.3038 9.72836 12.8519C9.5013 13.4001 9.44189 14.0033 9.55764 14.5853C9.6734 15.1672 9.95912 15.7018 10.3787 16.1213C10.7982 16.5409 11.3328 16.8266 11.9147 16.9424C12.4967 17.0581 13.0999 16.9987 13.6481 16.7716C14.1962 16.5446 14.6648 16.1601 14.9944 15.6667C15.3241 15.1734 15.5 14.5933 15.5 14C15.5 13.2044 15.1839 12.4413 14.6213 11.8787C14.0587 11.3161 13.2956 11 12.5 11ZM12.5 15C12.3022 15 12.1089 14.9414 11.9444 14.8315C11.78 14.7216 11.6518 14.5654 11.5761 14.3827C11.5004 14.2 11.4806 13.9989 11.5192 13.8049C11.5578 13.6109 11.653 13.4327 11.7929 13.2929C11.9327 13.153 12.1109 13.0578 12.3049 13.0192C12.4989 12.9806 12.7 13.0004 12.8827 13.0761C13.0654 13.1518 13.2216 13.28 13.3315 13.4444C13.4414 13.6089 13.5 13.8022 13.5 14C13.5 14.2652 13.3946 14.5196 13.2071 14.7071C13.0196 14.8946 12.7652 15 12.5 15ZM19.5 6H16.5V5C16.5 4.20435 16.1839 3.44129 15.6213 2.87868C15.0587 2.31607 14.2956 2 13.5 2H11.5C10.7044 2 9.94129 2.31607 9.37868 2.87868C8.81607 3.44129 8.5 4.20435 8.5 5V6H5.5C4.70435 6 3.94129 6.31607 3.37868 6.87868C2.81607 7.44129 2.5 8.20435 2.5 9V19C2.5 19.7956 2.81607 20.5587 3.37868 21.1213C3.94129 21.6839 4.70435 22 5.5 22H19.5C20.2956 22 21.0587 21.6839 21.6213 21.1213C22.1839 20.5587 22.5 19.7956 22.5 19V9C22.5 8.20435 22.1839 7.44129 21.6213 6.87868C21.0587 6.31607 20.2956 6 19.5 6ZM10.5 5C10.5 4.73478 10.6054 4.48043 10.7929 4.29289C10.9804 4.10536 11.2348 4 11.5 4H13.5C13.7652 4 14.0196 4.10536 14.2071 4.29289C14.3946 4.48043 14.5 4.73478 14.5 5V6H10.5V5ZM4.5 9C4.5 8.73478 4.60536 8.48043 4.79289 8.29289C4.98043 8.10536 5.23478 8 5.5 8H6.5C6.5 8.53043 6.28929 9.03914 5.91421 9.41421C5.53914 9.78929 5.03043 10 4.5 10V9ZM5.5 20C5.23478 20 4.98043 19.8946 4.79289 19.7071C4.60536 19.5196 4.5 19.2652 4.5 19V18C5.03043 18 5.53914 18.2107 5.91421 18.5858C6.28929 18.9609 6.5 19.4696 6.5 20H5.5ZM20.5 19C20.5 19.2652 20.3946 19.5196 20.2071 19.7071C20.0196 19.8946 19.7652 20 19.5 20H18.5C18.5 19.4696 18.7107 18.9609 19.0858 18.5858C19.4609 18.2107 19.9696 18 20.5 18V19ZM20.5 16C19.4391 16 18.4217 16.4214 17.6716 17.1716C16.9214 17.9217 16.5 18.9391 16.5 20H8.5C8.5 18.9391 8.07857 17.9217 7.32843 17.1716C6.57828 16.4214 5.56087 16 4.5 16V12C5.56087 12 6.57828 11.5786 7.32843 10.8284C8.07857 10.0783 8.5 9.06087 8.5 8H16.5C16.5 9.06087 16.9214 10.0783 17.6716 10.8284C18.4217 11.5786 19.4391 12 20.5 12V16ZM20.5 10C19.9696 10 19.4609 9.78929 19.0858 9.41421C18.7107 9.03914 18.5 8.53043 18.5 8H19.5C19.7652 8 20.0196 8.10536 20.2071 8.29289C20.3946 8.48043 20.5 8.73478 20.5 9V10Z" fill="#3B5C7B"/>
</svg>
