<svg width="25" height="24" viewBox="0 0 25 24" fill="none" xmlns="http://www.w3.org/2000/svg">
<path d="M21.5 18.0002H19.5V15.0002C19.5 14.735 19.3946 14.4806 19.2071 14.2931C19.0196 14.1056 18.7652 14.0002 18.5 14.0002H13.5V11.2902L14.63 11.8802C14.7948 11.9664 14.9804 12.005 15.1658 11.9915C15.3513 11.9781 15.5294 11.9131 15.68 11.8041C15.8307 11.695 15.9479 11.5461 16.0185 11.374C16.0892 11.202 16.1105 11.0137 16.08 10.8302L15.68 8.4602L17.4 6.7702C17.5303 6.64299 17.6233 6.48261 17.6692 6.30639C17.715 6.13016 17.7118 5.94476 17.66 5.7702C17.602 5.59248 17.4954 5.43456 17.3522 5.31436C17.2091 5.19417 17.0351 5.11651 16.85 5.0902L14.5 4.7202L13.4 2.5602C13.3181 2.39113 13.1903 2.24855 13.0311 2.14878C12.8719 2.04901 12.6879 1.99609 12.5 1.99609C12.3121 1.99609 12.1281 2.04901 11.9689 2.14878C11.8097 2.24855 11.6819 2.39113 11.6 2.5602L10.5 4.7202L8.11 5.0702C7.92492 5.09651 7.75092 5.17417 7.60775 5.29436C7.46458 5.41456 7.35796 5.57248 7.3 5.7502C7.24819 5.92476 7.24502 6.11016 7.29084 6.28639C7.33666 6.46261 7.42973 6.62299 7.56 6.7502L9.32 8.4602L8.92 10.8302C8.88952 11.0137 8.9108 11.202 8.98145 11.374C9.0521 11.5461 9.16933 11.695 9.31996 11.8041C9.4706 11.9131 9.64866 11.9781 9.83415 11.9915C10.0196 12.005 10.2052 11.9664 10.37 11.8802L11.5 11.2902V14.0002H6.5C6.23478 14.0002 5.98043 14.1056 5.79289 14.2931C5.60536 14.4806 5.5 14.735 5.5 15.0002V18.0002H3.5C3.23478 18.0002 2.98043 18.1056 2.79289 18.2931C2.60536 18.4806 2.5 18.735 2.5 19.0002V21.0002C2.5 21.2654 2.60536 21.5198 2.79289 21.7073C2.98043 21.8948 3.23478 22.0002 3.5 22.0002C3.76522 22.0002 4.01957 21.8948 4.20711 21.7073C4.39464 21.5198 4.5 21.2654 4.5 21.0002V20.0002H8.5V21.0002C8.5 21.2654 8.60536 21.5198 8.79289 21.7073C8.98043 21.8948 9.23478 22.0002 9.5 22.0002C9.76522 22.0002 10.0196 21.8948 10.2071 21.7073C10.3946 21.5198 10.5 21.2654 10.5 21.0002V19.0002C10.5 18.735 10.3946 18.4806 10.2071 18.2931C10.0196 18.1056 9.76522 18.0002 9.5 18.0002H7.5V16.0002H17.5V18.0002H15.5C15.2348 18.0002 14.9804 18.1056 14.7929 18.2931C14.6054 18.4806 14.5 18.735 14.5 19.0002V21.0002C14.5 21.2654 14.6054 21.5198 14.7929 21.7073C14.9804 21.8948 15.2348 22.0002 15.5 22.0002C15.7652 22.0002 16.0196 21.8948 16.2071 21.7073C16.3946 21.5198 16.5 21.2654 16.5 21.0002V20.0002H20.5V21.0002C20.5 21.2654 20.6054 21.5198 20.7929 21.7073C20.9804 21.8948 21.2348 22.0002 21.5 22.0002C21.7652 22.0002 22.0196 21.8948 22.2071 21.7073C22.3946 21.5198 22.5 21.2654 22.5 21.0002V19.0002C22.5 18.735 22.3946 18.4806 22.2071 18.2931C22.0196 18.1056 21.7652 18.0002 21.5 18.0002ZM12.5 8.6302C12.3359 8.63102 12.1744 8.67224 12.03 8.7502L11.23 9.1702L11.38 8.2702C11.4062 8.11101 11.3936 7.94783 11.3431 7.79459C11.2926 7.64135 11.2057 7.50261 11.09 7.3902L10.44 6.7502L11.34 6.6202C11.501 6.59869 11.6544 6.53828 11.7868 6.44419C11.9192 6.3501 12.0267 6.22517 12.1 6.0802L12.5 5.2602L12.9 6.0802C12.9733 6.22517 13.0808 6.3501 13.2132 6.44419C13.3456 6.53828 13.499 6.59869 13.66 6.6202L14.56 6.7502L13.91 7.3902C13.7943 7.50261 13.7074 7.64135 13.6569 7.79459C13.6064 7.94783 13.5938 8.11101 13.62 8.2702L13.77 9.1702L12.97 8.7502C12.8256 8.67224 12.6641 8.63102 12.5 8.6302Z" fill="#3B5C7B"/>
</svg>
