<svg width="24" height="24" viewBox="0 0 24 24" fill="none" xmlns="http://www.w3.org/2000/svg">
<path fill-rule="evenodd" clip-rule="evenodd" d="M3.8711 5.50021C4.35212 5.50021 4.74207 5.87979 4.74207 6.34802V17.6522C4.74207 18.1204 4.35212 18.5 3.8711 18.5C3.39008 18.5 3.00013 18.1204 3.00013 17.6522V6.34802C3.00013 5.87979 3.39008 5.50021 3.8711 5.50021Z" fill="#6C89A9"/>
<path fill-rule="evenodd" clip-rule="evenodd" d="M10.8388 5.50021C11.3199 5.50021 11.7098 5.87979 11.7098 6.34802V17.6522C11.7098 18.1204 11.3199 18.5 10.8388 18.5C10.3578 18.5 9.96787 18.1204 9.96787 17.6522V6.34802C9.96787 5.87979 10.3578 5.50021 10.8388 5.50021Z" fill="#6C89A9"/>
<path fill-rule="evenodd" clip-rule="evenodd" d="M11.7098 11.7175C11.7098 12.1857 11.3199 12.5653 10.8388 12.5653L3.87097 12.5653C3.38994 12.5653 3 12.1857 3 11.7175C3 11.2493 3.38995 10.8697 3.87097 10.8697L10.8388 10.8697C11.3199 10.8697 11.7098 11.2493 11.7098 11.7175Z" fill="#6C89A9"/>
<path fill-rule="evenodd" clip-rule="evenodd" d="M17.5162 10.8697C17.5162 11.3379 17.1263 11.7175 16.6453 11.7175L14.3227 11.7175C13.8417 11.7175 13.4517 11.3379 13.4517 10.8697C13.4517 10.4015 13.8417 10.0219 14.3227 10.0219L16.6453 10.0219C17.1263 10.0219 17.5162 10.4014 17.5162 10.8697Z" fill="#6C89A9"/>
<path fill-rule="evenodd" clip-rule="evenodd" d="M15.6953 5.52551C16.162 5.63908 16.4457 6.09938 16.329 6.55364L15.1677 11.0753C15.0511 11.5296 14.5782 11.8057 14.1115 11.6922C13.6449 11.5786 13.3612 11.1183 13.4778 10.6641L14.6391 6.14239C14.7558 5.68813 15.2286 5.41195 15.6953 5.52551Z" fill="#6C89A9"/>
<path fill-rule="evenodd" clip-rule="evenodd" d="M20.4195 6.34802C20.4195 6.81625 20.0295 7.19583 19.5485 7.19583H15.484C15.003 7.19583 14.613 6.81625 14.613 6.34802C14.613 5.87979 15.003 5.50021 15.484 5.50021L19.5485 5.50021C20.0295 5.50021 20.4195 5.87979 20.4195 6.34802Z" fill="#6C89A9"/>
<path fill-rule="evenodd" clip-rule="evenodd" d="M16.2439 10.0399C16.9988 9.97191 17.7588 10.0969 18.4489 10.4026C19.1389 10.7082 19.735 11.1839 20.1782 11.7826C20.6214 12.3813 20.8964 13.0823 20.976 13.8162C21.0555 14.5501 20.9369 15.2914 20.6317 15.967C20.3266 16.6425 19.8456 17.2289 19.2363 17.668C18.627 18.107 17.9105 18.3837 17.1576 18.4705C16.4048 18.5574 15.6417 18.4514 14.9438 18.1631C14.246 17.8748 13.6375 17.4142 13.1787 16.8267C12.8875 16.454 12.9619 15.9221 13.3448 15.6387C13.7277 15.3553 14.2741 15.4277 14.5653 15.8004C14.8406 16.1529 15.2057 16.4293 15.6244 16.6022C16.0431 16.7752 16.5009 16.8388 16.9527 16.7867C17.4044 16.7346 17.8343 16.5686 18.1999 16.3052C18.5654 16.0417 18.854 15.6899 19.0371 15.2846C19.2202 14.8792 19.2914 14.4344 19.2436 13.9941C19.1959 13.5537 19.0309 13.1332 18.765 12.7739C18.4991 12.4147 18.1414 12.1293 17.7274 11.9459C17.3134 11.7625 16.8573 11.6875 16.4044 11.7283C15.9254 11.7715 15.5012 11.4285 15.4569 10.9622C15.4126 10.496 15.7649 10.0831 16.2439 10.0399Z" fill="#6C89A9"/>
</svg>
