<svg width="25" height="24" viewBox="0 0 25 24" fill="none" xmlns="http://www.w3.org/2000/svg">
<path d="M12.8 12.22C13.3336 11.7581 13.7616 11.1869 14.0549 10.545C14.3482 9.90316 14.5 9.20571 14.5 8.5C14.5 7.17392 13.9732 5.90215 13.0355 4.96447C12.0979 4.02678 10.8261 3.5 9.5 3.5C8.17392 3.5 6.90215 4.02678 5.96447 4.96447C5.02678 5.90215 4.5 7.17392 4.5 8.5C4.49999 9.20571 4.6518 9.90316 4.94513 10.545C5.23845 11.1869 5.66642 11.7581 6.2 12.22C4.80014 12.8539 3.61247 13.8775 2.77898 15.1685C1.9455 16.4596 1.50147 17.9633 1.5 19.5C1.5 19.7652 1.60536 20.0196 1.79289 20.2071C1.98043 20.3946 2.23478 20.5 2.5 20.5C2.76522 20.5 3.01957 20.3946 3.20711 20.2071C3.39464 20.0196 3.5 19.7652 3.5 19.5C3.5 17.9087 4.13214 16.3826 5.25736 15.2574C6.38258 14.1321 7.9087 13.5 9.5 13.5C11.0913 13.5 12.6174 14.1321 13.7426 15.2574C14.8679 16.3826 15.5 17.9087 15.5 19.5C15.5 19.7652 15.6054 20.0196 15.7929 20.2071C15.9804 20.3946 16.2348 20.5 16.5 20.5C16.7652 20.5 17.0196 20.3946 17.2071 20.2071C17.3946 20.0196 17.5 19.7652 17.5 19.5C17.4985 17.9633 17.0545 16.4596 16.221 15.1685C15.3875 13.8775 14.1999 12.8539 12.8 12.22ZM9.5 11.5C8.90666 11.5 8.32664 11.3241 7.83329 10.9944C7.33994 10.6648 6.95542 10.1962 6.72836 9.64805C6.5013 9.09987 6.44189 8.49667 6.55764 7.91473C6.6734 7.33279 6.95912 6.79824 7.37868 6.37868C7.79824 5.95912 8.33279 5.6734 8.91473 5.55764C9.49667 5.44189 10.0999 5.5013 10.6481 5.72836C11.1962 5.95542 11.6648 6.33994 11.9944 6.83329C12.3241 7.32664 12.5 7.90666 12.5 8.5C12.5 9.29565 12.1839 10.0587 11.6213 10.6213C11.0587 11.1839 10.2956 11.5 9.5 11.5ZM19.24 11.82C19.88 11.0993 20.298 10.2091 20.4438 9.25634C20.5896 8.30362 20.4569 7.32907 20.0618 6.45C19.6666 5.57093 19.0258 4.8248 18.2165 4.30142C17.4071 3.77805 16.4638 3.49974 15.5 3.5C15.2348 3.5 14.9804 3.60536 14.7929 3.79289C14.6054 3.98043 14.5 4.23478 14.5 4.5C14.5 4.76522 14.6054 5.01957 14.7929 5.20711C14.9804 5.39464 15.2348 5.5 15.5 5.5C16.2956 5.5 17.0587 5.81607 17.6213 6.37868C18.1839 6.94129 18.5 7.70435 18.5 8.5C18.4986 9.02524 18.3593 9.5409 18.0961 9.99542C17.8328 10.4499 17.4549 10.8274 17 11.09C16.8517 11.1755 16.7279 11.2977 16.6404 11.4447C16.5528 11.5918 16.5045 11.7589 16.5 11.93C16.4958 12.0998 16.5349 12.2678 16.6137 12.4183C16.6924 12.5687 16.8081 12.6967 16.95 12.79L17.34 13.05L17.47 13.12C18.6754 13.6917 19.6923 14.596 20.401 15.7263C21.1096 16.8566 21.4805 18.1659 21.47 19.5C21.47 19.7652 21.5754 20.0196 21.7629 20.2071C21.9504 20.3946 22.2048 20.5 22.47 20.5C22.7352 20.5 22.9896 20.3946 23.1771 20.2071C23.3646 20.0196 23.47 19.7652 23.47 19.5C23.4782 17.9654 23.0938 16.4543 22.3535 15.1101C21.6131 13.7659 20.5413 12.6333 19.24 11.82Z" fill="#3B5C7B"/>
</svg>
