<svg width="25" height="24" viewBox="0 0 25 24" fill="none" xmlns="http://www.w3.org/2000/svg">
<path fill-rule="evenodd" clip-rule="evenodd" d="M16.959 17.5735C15.9298 18.3985 14.6677 18.9451 13.2883 19.0973V20.587C15.075 20.4243 16.7059 19.7146 18.0119 18.6264L16.959 17.5735ZM18.1539 18.7684C16.8111 19.892 15.1302 20.6239 13.2883 20.7878C13.2219 20.7937 13.1552 20.7989 13.0883 20.8033V18.916C13.0883 18.916 13.0883 18.916 13.0882 18.916H13.0883V20.8035C15.0792 20.6718 16.8917 19.877 18.3063 18.6382L18.3062 18.6381C18.2559 18.6821 18.2052 18.7255 18.1539 18.7684ZM11.1875 10.6335C11.178 10.6775 11.173 10.7231 11.173 10.7698C11.173 11.1238 11.461 11.4118 11.815 11.4118H12.0906H13.1849C14.1877 11.4118 15.0034 12.2275 15.0035 13.2303C15.0035 13.3803 14.9852 13.5282 14.9499 13.6711C14.9852 13.5282 15.0035 13.3801 15.0035 13.2301C15.0035 12.2273 14.1877 11.4116 13.185 11.4116H12.0907H11.8151C11.4611 11.4116 11.1731 11.1236 11.1731 10.7696C11.1731 10.723 11.178 10.6774 11.1875 10.6335ZM13.0883 15.0481C13.0883 15.0481 13.0883 15.0481 13.0883 15.0481V15.654C13.0883 15.7035 13.0822 15.7515 13.0707 15.7974C13.0822 15.7514 13.0883 15.7033 13.0883 15.6538V15.0481ZM10.0136 13.7622C10.0425 13.6443 10.1079 13.5343 10.2083 13.4507C10.4579 13.2427 10.8288 13.2764 11.0368 13.5261C11.2127 13.7373 11.4713 13.8596 11.7462 13.8616L13.1802 13.8722C13.4886 13.873 13.738 13.6641 13.8076 13.3874C13.7379 13.664 13.4885 13.8728 13.1803 13.872L11.7462 13.8615C11.4714 13.8594 11.2128 13.7371 11.0368 13.5259C10.8289 13.2762 10.458 13.2425 10.2084 13.4505C10.1079 13.5342 10.0424 13.6442 10.0136 13.7622ZM14.9856 10.4048C15.0239 10.2531 15.0018 10.0865 14.9109 9.94428L14.9038 9.93318C14.5538 9.38608 13.9698 9.00286 13.2001 8.96372C13.1632 8.96184 13.126 8.96076 13.0883 8.96048V8.34585C13.0883 8.02099 12.8249 7.75762 12.5 7.75762C12.2246 7.75762 11.9934 7.9469 11.9294 8.20247C11.9935 7.947 12.2247 7.75781 12.5 7.75781C12.8249 7.75781 13.0882 8.02118 13.0882 8.34605V8.96067C13.1259 8.96095 13.1632 8.96204 13.2 8.96391C13.9697 9.00305 14.5538 9.38626 14.9038 9.93338L14.9109 9.94448C15.0017 10.0867 15.0238 10.2531 14.9856 10.4048ZM11.9118 8.95177H11.8769C10.9083 8.95892 10.2545 9.56238 10.0583 10.2983C10.2569 9.55367 10.9241 8.94471 11.9118 8.95197V8.95177ZM13.2883 8.34585V8.76907C14.086 8.83291 14.7003 9.24399 15.0723 9.82541L15.0794 9.83652C15.3138 10.2034 15.2065 10.6908 14.8397 10.9252C14.4729 11.1597 13.9855 11.0524 13.751 10.6855L13.7442 10.6747C13.6101 10.4652 13.3819 10.3391 13.1328 10.3373L12.5794 10.3332L11.8198 10.3276C11.5667 10.3279 11.3731 10.5284 11.3731 10.7696C11.3731 11.0131 11.5715 11.2116 11.8151 11.2116H12.1813H13.185C14.2982 11.2116 15.2035 12.1169 15.2035 13.2301C15.2035 14.2347 14.4641 15.1547 13.2883 15.2413V15.6538C13.2883 16.0891 12.9354 16.442 12.5001 16.442C12.0648 16.442 11.7118 16.0891 11.7118 15.6538V15.2376C11.0403 15.2256 10.4098 14.9236 9.97932 14.4069C9.70066 14.0725 9.74591 13.5754 10.0804 13.2968C10.4148 13.0182 10.9118 13.0634 11.1905 13.3979C11.3288 13.5639 11.5317 13.6599 11.7477 13.6615L13.1811 13.672C13.4333 13.6726 13.627 13.4716 13.627 13.23C13.627 12.9865 13.4286 12.788 13.185 12.788H11.8151C11.7008 12.788 11.5887 12.7785 11.4795 12.7602C10.5256 12.5999 9.79663 11.7684 9.79663 10.7696C9.79663 9.77909 10.5234 8.84533 11.7118 8.75831V8.34585C11.7118 7.91053 12.0647 7.55762 12.5 7.55762C12.9354 7.55762 13.2883 7.91053 13.2883 8.34585ZM22.7001 11.9998C22.7001 6.36581 18.1336 1.7998 12.5 1.7998C6.86606 1.7998 2.30005 6.3663 2.30005 11.9998C2.30005 17.6338 6.86654 22.1998 12.5 22.1998C18.134 22.1998 22.7001 17.6333 22.7001 11.9998ZM3.69661 12.5882C3.70103 12.655 3.7062 12.7216 3.71211 12.788C3.87595 14.63 4.6079 16.3108 5.73148 17.6537C5.77439 17.705 5.81788 17.7558 5.86193 17.8061L7.19597 16.472C7.19599 16.472 7.19602 16.4721 7.19604 16.4721L5.86188 17.8063C4.62298 16.3916 3.82827 14.5792 3.69655 12.5882H3.69661ZM5.87347 17.5117C4.78523 16.2056 4.07556 14.5747 3.91291 12.788H5.40258C5.55478 14.1675 6.10131 15.4295 6.92634 16.4588L5.87347 17.5117ZM3.93875 9.86309C3.81374 10.3639 3.73163 10.8815 3.69655 11.4118H5.584C5.58401 11.4117 5.58401 11.4116 5.58402 11.4116H3.6966C3.70102 11.3447 3.70619 11.278 3.71211 11.2116C3.75307 10.7511 3.82953 10.3007 3.93875 9.86309ZM7.19602 7.52786L7.19608 7.52792C6.52133 8.3269 6.02351 9.27972 5.76349 10.3255C6.02348 9.2797 6.52128 8.32686 7.19602 7.52786ZM3.91291 11.2116C4.07556 9.42489 4.78523 7.79397 5.87347 6.48791L6.92637 7.54082C6.10131 8.57009 5.55478 9.83216 5.40258 11.2116H3.91291ZM17.8041 7.52781C18.706 8.59591 19.2919 9.93894 19.416 11.4116H21.3034C21.3034 11.4116 21.3034 11.4117 21.3035 11.4118H19.416C19.2918 9.9391 18.706 8.59604 17.804 7.52792L17.8041 7.52781ZM19.1267 6.48792C20.2149 7.79398 20.9245 9.42489 21.0872 11.2116H19.5975C19.4453 9.83216 18.8988 8.57009 18.0738 7.54082L19.1267 6.48792ZM12.5 17.5645C9.43184 17.5645 6.93534 15.068 6.93534 11.9998C6.93534 8.93159 9.43184 6.4351 12.5 6.4351C15.5683 6.4351 18.0648 8.93159 18.0648 11.9998C18.0648 15.068 15.5683 17.5645 12.5 17.5645ZM13.2883 4.90234C14.6677 5.05453 15.9298 5.60107 16.959 6.42613L18.0119 5.37323C16.7059 4.28499 15.0749 3.57531 13.2883 3.41267V4.90234ZM13.0883 3.19655V5.0838C14.561 5.208 15.904 5.79384 16.9721 6.69588L18.3062 5.36181C18.3062 5.36184 18.3062 5.36186 18.3062 5.36188L16.9721 6.69608C15.904 5.79404 14.5609 5.2082 13.0882 5.084V3.19655C13.0883 3.19655 13.0883 3.19655 13.0883 3.19655ZM6.69386 5.36177C6.69381 5.36181 6.69377 5.36184 6.69373 5.36188L8.02792 6.69608C9.09604 5.79404 10.4391 5.2082 11.9118 5.084V5.08381C10.4391 5.20801 9.09608 5.79385 8.02797 6.69588L6.69386 5.36177ZM11.7118 4.90234C10.3324 5.05453 9.07033 5.60107 8.04106 6.42613L6.98816 5.37323C8.29422 4.28499 9.92517 3.57531 11.7118 3.41267V4.90234ZM6.69389 18.638C6.74416 18.682 6.79494 18.7254 6.8462 18.7683C8.18906 19.8919 9.86992 20.6239 11.7118 20.7877C11.7783 20.7936 11.8449 20.7988 11.9118 20.8032V20.8034C9.92082 20.6717 8.10835 19.8769 6.69377 18.6381L6.69389 18.638ZM6.9882 18.6263C8.29423 19.7145 9.92517 20.4243 11.7118 20.5869V19.0972C10.3324 18.9451 9.07033 18.3985 8.04106 17.5735L6.9882 18.6263ZM19.1266 17.5117L18.0738 16.4588C18.8988 15.4295 19.4454 14.1675 19.5975 12.788H21.0872C20.9245 14.5747 20.2149 16.2056 19.1266 17.5117ZM19.416 12.5882H19.416C19.3842 12.965 19.3223 13.3333 19.2325 13.6906C19.3223 13.3333 19.3843 12.965 19.416 12.5882ZM17.8041 16.4719L19.1382 17.8061C19.1822 17.7558 19.2257 17.705 19.2686 17.6537C19.9772 16.8068 20.5301 15.8254 20.8829 14.754C20.5087 15.8904 19.9095 16.9254 19.1381 17.8063L17.804 16.4721C17.804 16.472 17.804 16.472 17.8041 16.4719ZM12.5 1.9998C18.0231 1.9998 22.5 6.47627 22.5 11.9998C22.5 12.6902 22.4301 13.3642 22.2969 14.0152C22.4301 13.3643 22.5 12.6903 22.5 12C22.5 6.47647 18.0231 2 12.5 2C7.81528 2 3.88376 5.22044 2.7977 9.56817C3.88369 5.22034 7.81526 1.9998 12.5 1.9998ZM6.73534 11.9998C6.73534 15.1785 9.32138 17.7645 12.5 17.7645C15.1991 17.7645 17.4708 15.9 18.095 13.3914C17.4709 15.9001 15.1991 17.7647 12.5 17.7647C9.32133 17.7647 6.73529 15.1787 6.73529 12C6.73529 11.5901 6.7783 11.1901 6.86002 10.8042C6.77833 11.1901 6.73534 11.59 6.73534 11.9998Z" fill="#3B5C7B"/>
</svg>
