<svg width="25" height="24" viewBox="0 0 25 24" fill="none" xmlns="http://www.w3.org/2000/svg">
<path d="M12.5 2C9.93639 2.00731 7.47349 2.99891 5.62 4.77V3C5.62 2.73478 5.51464 2.48043 5.32711 2.29289C5.13957 2.10536 4.88522 2 4.62 2C4.35478 2 4.10043 2.10536 3.91289 2.29289C3.72536 2.48043 3.62 2.73478 3.62 3V7.5C3.62 7.76522 3.72536 8.01957 3.91289 8.20711C4.10043 8.39464 4.35478 8.5 4.62 8.5H9.12C9.38522 8.5 9.63957 8.39464 9.82711 8.20711C10.0146 8.01957 10.12 7.76522 10.12 7.5C10.12 7.23478 10.0146 6.98043 9.82711 6.79289C9.63957 6.60536 9.38522 6.5 9.12 6.5H6.72C8.00578 5.15636 9.71951 4.30265 11.5665 4.08567C13.4136 3.86868 15.2785 4.30198 16.8407 5.31104C18.4028 6.32011 19.5646 7.84191 20.1263 9.61479C20.688 11.3877 20.6145 13.3009 19.9184 15.0254C19.2223 16.7499 17.9472 18.1781 16.3122 19.0643C14.6772 19.9505 12.7845 20.2394 10.9596 19.8813C9.13463 19.5232 7.49147 18.5405 6.31259 17.1022C5.13372 15.6638 4.49279 13.8597 4.5 12C4.5 11.7348 4.39464 11.4804 4.20711 11.2929C4.01957 11.1054 3.76522 11 3.5 11C3.23478 11 2.98043 11.1054 2.79289 11.2929C2.60536 11.4804 2.5 11.7348 2.5 12C2.5 13.9778 3.08649 15.9112 4.1853 17.5557C5.28412 19.2002 6.8459 20.4819 8.67317 21.2388C10.5004 21.9957 12.5111 22.1937 14.4509 21.8079C16.3907 21.422 18.1725 20.4696 19.5711 19.0711C20.9696 17.6725 21.922 15.8907 22.3079 13.9509C22.6937 12.0111 22.4957 10.0004 21.7388 8.17317C20.9819 6.3459 19.7002 4.78412 18.0557 3.6853C16.4112 2.58649 14.4778 2 12.5 2ZM12.5 8C12.2348 8 11.9804 8.10536 11.7929 8.29289C11.6054 8.48043 11.5 8.73478 11.5 9V12C11.5 12.2652 11.6054 12.5196 11.7929 12.7071C11.9804 12.8946 12.2348 13 12.5 13H14.5C14.7652 13 15.0196 12.8946 15.2071 12.7071C15.3946 12.5196 15.5 12.2652 15.5 12C15.5 11.7348 15.3946 11.4804 15.2071 11.2929C15.0196 11.1054 14.7652 11 14.5 11H13.5V9C13.5 8.73478 13.3946 8.48043 13.2071 8.29289C13.0196 8.10536 12.7652 8 12.5 8Z" fill="#3B5C7B"/>
</svg>
