<svg width="20" height="20" viewBox="0 0 20 20" fill="none" xmlns="http://www.w3.org/2000/svg">
<g opacity="0.65">
<path fill-rule="evenodd" clip-rule="evenodd" d="M11.5715 3.1324C10.5999 2.56687 9.3993 2.56687 8.42763 3.1324L4.67805 5.31473C3.7165 5.87438 3.125 6.90303 3.125 8.01559V11.9838C3.125 13.0963 3.7165 14.125 4.67805 14.6846L8.42846 16.8675C9.40014 17.433 10.6007 17.433 11.5724 16.8675L15.322 14.6851C16.2835 14.1255 16.875 13.0968 16.875 11.9843V8.01607C16.875 6.90352 16.2835 5.87486 15.322 5.31522L11.5715 3.1324ZM7.79885 2.05206C9.15919 1.26032 10.84 1.26032 12.2003 2.05206L15.9507 4.23488C17.2969 5.01838 18.125 6.4585 18.125 8.01607V11.9843C18.125 13.5418 17.2969 14.982 15.9507 15.7655L12.2011 17.9478C10.8408 18.7395 9.16002 18.7395 7.79968 17.9478L4.04927 15.765C2.7031 14.9815 1.875 13.5414 1.875 11.9838V8.01559C1.875 6.45801 2.7031 5.01789 4.04927 4.23439L7.79885 2.05206Z" fill="#00B2FF"/>
<path fill-rule="evenodd" clip-rule="evenodd" d="M8.95833 8.6038V11.3961L11.2852 9.99993L8.95833 8.6038ZM7.70833 8.23584C7.70833 7.42616 8.59164 6.92604 9.28593 7.34262L12.2261 9.10671C12.9004 9.5113 12.9004 10.4886 12.2261 10.8932L9.28593 12.6572C8.59164 13.0738 7.70833 12.5737 7.70833 11.764V8.23584Z" fill="#00B2FF"/>
</g>
</svg>
