<svg width="22" height="22" viewBox="0 0 22 22" fill="none" xmlns="http://www.w3.org/2000/svg">
<path fill-rule="evenodd" clip-rule="evenodd" d="M15.5833 5.58325H6.41667C5.95643 5.58325 5.58333 5.95635 5.58333 6.41659V15.5833C5.58333 16.0435 5.95643 16.4166 6.41667 16.4166H15.5833C16.0436 16.4166 16.4167 16.0435 16.4167 15.5833V6.41659C16.4167 5.95635 16.0436 5.58325 15.5833 5.58325ZM6.41667 4.74992C5.49619 4.74992 4.75 5.49611 4.75 6.41659V15.5833C4.75 16.5037 5.49619 17.2499 6.41667 17.2499H15.5833C16.5038 17.2499 17.25 16.5037 17.25 15.5833V6.41659C17.25 5.49611 16.5038 4.74992 15.5833 4.74992H6.41667Z" fill="url(#paint0_linear)"/>
<path fill-rule="evenodd" clip-rule="evenodd" d="M10.5833 5.58325V2.66659H11.4167V5.58325H10.5833Z" fill="url(#paint1_linear)"/>
<path fill-rule="evenodd" clip-rule="evenodd" d="M11 1.41659C10.7699 1.41659 10.5833 1.60313 10.5833 1.83325C10.5833 2.06337 10.7699 2.24992 11 2.24992C11.2301 2.24992 11.4167 2.06337 11.4167 1.83325C11.4167 1.60313 11.2301 1.41659 11 1.41659ZM9.75 1.83325C9.75 1.1429 10.3096 0.583252 11 0.583252C11.6904 0.583252 12.25 1.1429 12.25 1.83325C12.25 2.52361 11.6904 3.08325 11 3.08325C10.3096 3.08325 9.75 2.52361 9.75 1.83325Z" fill="url(#paint2_linear)"/>
<path fill-rule="evenodd" clip-rule="evenodd" d="M13.9167 5.58325V3.91659H14.75V5.58325H13.9167Z" fill="url(#paint3_linear)"/>
<path fill-rule="evenodd" clip-rule="evenodd" d="M14.3333 2.66659C14.1032 2.66659 13.9167 2.85313 13.9167 3.08325C13.9167 3.31337 14.1032 3.49992 14.3333 3.49992C14.5635 3.49992 14.75 3.31337 14.75 3.08325C14.75 2.85313 14.5635 2.66659 14.3333 2.66659ZM13.0833 3.08325C13.0833 2.3929 13.643 1.83325 14.3333 1.83325C15.0237 1.83325 15.5833 2.3929 15.5833 3.08325C15.5833 3.77361 15.0237 4.33325 14.3333 4.33325C13.643 4.33325 13.0833 3.77361 13.0833 3.08325Z" fill="url(#paint4_linear)"/>
<path fill-rule="evenodd" clip-rule="evenodd" d="M7.25 5.58325V3.91659H8.08333V5.58325H7.25Z" fill="url(#paint5_linear)"/>
<path fill-rule="evenodd" clip-rule="evenodd" d="M7.66667 2.66659C7.43655 2.66659 7.25 2.85313 7.25 3.08325C7.25 3.31337 7.43655 3.49992 7.66667 3.49992C7.89679 3.49992 8.08333 3.31337 8.08333 3.08325C8.08333 2.85313 7.89679 2.66659 7.66667 2.66659ZM6.41667 3.08325C6.41667 2.3929 6.97631 1.83325 7.66667 1.83325C8.35702 1.83325 8.91667 2.3929 8.91667 3.08325C8.91667 3.77361 8.35702 4.33325 7.66667 4.33325C6.97631 4.33325 6.41667 3.77361 6.41667 3.08325Z" fill="url(#paint6_linear)"/>
<path fill-rule="evenodd" clip-rule="evenodd" d="M11.4167 16.4166V19.3333H10.5833V16.4166H11.4167Z" fill="url(#paint7_linear)"/>
<path fill-rule="evenodd" clip-rule="evenodd" d="M11 20.5833C11.2301 20.5833 11.4167 20.3967 11.4167 20.1666C11.4167 19.9365 11.2301 19.7499 11 19.7499C10.7699 19.7499 10.5833 19.9365 10.5833 20.1666C10.5833 20.3967 10.7699 20.5833 11 20.5833ZM12.25 20.1666C12.25 20.8569 11.6904 21.4166 11 21.4166C10.3096 21.4166 9.75 20.8569 9.75 20.1666C9.75 19.4762 10.3096 18.9166 11 18.9166C11.6904 18.9166 12.25 19.4762 12.25 20.1666Z" fill="url(#paint8_linear)"/>
<path fill-rule="evenodd" clip-rule="evenodd" d="M8.08333 16.4166V18.0833H7.25V16.4166H8.08333Z" fill="url(#paint9_linear)"/>
<path fill-rule="evenodd" clip-rule="evenodd" d="M7.66667 19.3333C7.89679 19.3333 8.08333 19.1467 8.08333 18.9166C8.08333 18.6865 7.89679 18.4999 7.66667 18.4999C7.43655 18.4999 7.25 18.6865 7.25 18.9166C7.25 19.1467 7.43655 19.3333 7.66667 19.3333ZM8.91667 18.9166C8.91667 19.6069 8.35702 20.1666 7.66667 20.1666C6.97631 20.1666 6.41667 19.6069 6.41667 18.9166C6.41667 18.2262 6.97631 17.6666 7.66667 17.6666C8.35702 17.6666 8.91667 18.2262 8.91667 18.9166Z" fill="url(#paint10_linear)"/>
<path fill-rule="evenodd" clip-rule="evenodd" d="M14.75 16.4166V18.0833H13.9167V16.4166H14.75Z" fill="url(#paint11_linear)"/>
<path fill-rule="evenodd" clip-rule="evenodd" d="M14.3333 19.3333C14.5635 19.3333 14.75 19.1467 14.75 18.9166C14.75 18.6865 14.5635 18.4999 14.3333 18.4999C14.1032 18.4999 13.9167 18.6865 13.9167 18.9166C13.9167 19.1467 14.1032 19.3333 14.3333 19.3333ZM15.5833 18.9166C15.5833 19.6069 15.0237 20.1666 14.3333 20.1666C13.643 20.1666 13.0833 19.6069 13.0833 18.9166C13.0833 18.2262 13.643 17.6666 14.3333 17.6666C15.0237 17.6666 15.5833 18.2262 15.5833 18.9166Z" fill="url(#paint12_linear)"/>
<path fill-rule="evenodd" clip-rule="evenodd" d="M16.4167 10.5833H19.3333V11.4166H16.4167V10.5833Z" fill="url(#paint13_linear)"/>
<path fill-rule="evenodd" clip-rule="evenodd" d="M20.5833 10.9999C20.5833 10.7698 20.3968 10.5833 20.1667 10.5833C19.9365 10.5833 19.75 10.7698 19.75 10.9999C19.75 11.23 19.9365 11.4166 20.1667 11.4166C20.3968 11.4166 20.5833 11.23 20.5833 10.9999ZM20.1667 9.74992C20.857 9.74992 21.4167 10.3096 21.4167 10.9999C21.4167 11.6903 20.857 12.2499 20.1667 12.2499C19.4763 12.2499 18.9167 11.6903 18.9167 10.9999C18.9167 10.3096 19.4763 9.74992 20.1667 9.74992Z" fill="url(#paint14_linear)"/>
<path fill-rule="evenodd" clip-rule="evenodd" d="M16.4167 13.9166H18.0833V14.7499H16.4167V13.9166Z" fill="url(#paint15_linear)"/>
<path fill-rule="evenodd" clip-rule="evenodd" d="M19.3333 14.3333C19.3333 14.1031 19.1468 13.9166 18.9167 13.9166C18.6865 13.9166 18.5 14.1031 18.5 14.3333C18.5 14.5634 18.6865 14.7499 18.9167 14.7499C19.1468 14.7499 19.3333 14.5634 19.3333 14.3333ZM18.9167 13.0833C19.607 13.0833 20.1667 13.6429 20.1667 14.3333C20.1667 15.0236 19.607 15.5833 18.9167 15.5833C18.2263 15.5833 17.6667 15.0236 17.6667 14.3333C17.6667 13.6429 18.2263 13.0833 18.9167 13.0833Z" fill="url(#paint16_linear)"/>
<path fill-rule="evenodd" clip-rule="evenodd" d="M16.4167 7.24992L18.0833 7.24992V8.08325H16.4167V7.24992Z" fill="url(#paint17_linear)"/>
<path fill-rule="evenodd" clip-rule="evenodd" d="M19.3333 7.66659C19.3333 7.43647 19.1468 7.24992 18.9167 7.24992C18.6865 7.24992 18.5 7.43647 18.5 7.66659C18.5 7.8967 18.6865 8.08325 18.9167 8.08325C19.1468 8.08325 19.3333 7.8967 19.3333 7.66659ZM18.9167 6.41659C19.607 6.41659 20.1667 6.97623 20.1667 7.66659C20.1667 8.35694 19.607 8.91659 18.9167 8.91659C18.2263 8.91659 17.6667 8.35694 17.6667 7.66659C17.6667 6.97623 18.2263 6.41659 18.9167 6.41659Z" fill="url(#paint18_linear)"/>
<path fill-rule="evenodd" clip-rule="evenodd" d="M5.58333 10.5833H2.66667V11.4166H5.58333V10.5833Z" fill="url(#paint19_linear)"/>
<path fill-rule="evenodd" clip-rule="evenodd" d="M1.41667 10.9999C1.41667 10.7698 1.60322 10.5833 1.83333 10.5833C2.06345 10.5833 2.25 10.7698 2.25 10.9999C2.25 11.23 2.06345 11.4166 1.83333 11.4166C1.60322 11.4166 1.41667 11.23 1.41667 10.9999ZM1.83333 9.74992C1.14298 9.74992 0.583334 10.3096 0.583334 10.9999C0.583334 11.6903 1.14298 12.2499 1.83333 12.2499C2.52369 12.2499 3.08333 11.6903 3.08333 10.9999C3.08333 10.3096 2.52369 9.74992 1.83333 9.74992Z" fill="url(#paint20_linear)"/>
<path fill-rule="evenodd" clip-rule="evenodd" d="M5.58333 13.9166H3.91667V14.7499H5.58333V13.9166Z" fill="url(#paint21_linear)"/>
<path fill-rule="evenodd" clip-rule="evenodd" d="M2.66667 14.3333C2.66667 14.1031 2.85322 13.9166 3.08333 13.9166C3.31345 13.9166 3.5 14.1031 3.5 14.3333C3.5 14.5634 3.31345 14.7499 3.08333 14.7499C2.85322 14.7499 2.66667 14.5634 2.66667 14.3333ZM3.08333 13.0833C2.39298 13.0833 1.83333 13.6429 1.83333 14.3333C1.83333 15.0236 2.39298 15.5833 3.08333 15.5833C3.77369 15.5833 4.33333 15.0236 4.33333 14.3333C4.33333 13.6429 3.77369 13.0833 3.08333 13.0833Z" fill="url(#paint22_linear)"/>
<path fill-rule="evenodd" clip-rule="evenodd" d="M5.58333 7.24992L3.91667 7.24992V8.08325H5.58333V7.24992Z" fill="url(#paint23_linear)"/>
<path fill-rule="evenodd" clip-rule="evenodd" d="M2.66667 7.66659C2.66667 7.43647 2.85322 7.24992 3.08333 7.24992C3.31345 7.24992 3.5 7.43647 3.5 7.66659C3.5 7.8967 3.31345 8.08325 3.08333 8.08325C2.85322 8.08325 2.66667 7.8967 2.66667 7.66659ZM3.08333 6.41659C2.39298 6.41659 1.83333 6.97623 1.83333 7.66659C1.83333 8.35694 2.39298 8.91659 3.08333 8.91659C3.77369 8.91659 4.33333 8.35694 4.33333 7.66659C4.33333 6.97623 3.77369 6.41659 3.08333 6.41659Z" fill="url(#paint24_linear)"/>
<path d="M10.9034 12.0033H8.57002L8.11002 13.0833H7.21669L9.31669 8.41661H10.17L12.2767 13.0833H11.37L10.9034 12.0033ZM10.6167 11.3233L9.73669 9.28327L8.86335 11.3233H10.6167Z" fill="url(#paint25_linear)"/>
<path d="M12.8702 8.41661H13.7368V13.0833H12.8702V8.41661Z" fill="url(#paint26_linear)"/>
<defs>
<linearGradient id="paint0_linear" x1="1.11557" y1="0.583256" x2="22.6628" y2="2.31573" gradientUnits="userSpaceOnUse">
<stop stop-color="#FF1B2D"/>
<stop offset="1" stop-color="#DF006B"/>
</linearGradient>
<linearGradient id="paint1_linear" x1="1.11557" y1="0.583256" x2="22.6628" y2="2.31573" gradientUnits="userSpaceOnUse">
<stop stop-color="#FF1B2D"/>
<stop offset="1" stop-color="#DF006B"/>
</linearGradient>
<linearGradient id="paint2_linear" x1="1.11557" y1="0.583256" x2="22.6628" y2="2.31573" gradientUnits="userSpaceOnUse">
<stop stop-color="#FF1B2D"/>
<stop offset="1" stop-color="#DF006B"/>
</linearGradient>
<linearGradient id="paint3_linear" x1="1.11557" y1="0.583256" x2="22.6628" y2="2.31573" gradientUnits="userSpaceOnUse">
<stop stop-color="#FF1B2D"/>
<stop offset="1" stop-color="#DF006B"/>
</linearGradient>
<linearGradient id="paint4_linear" x1="1.11557" y1="0.583256" x2="22.6628" y2="2.31573" gradientUnits="userSpaceOnUse">
<stop stop-color="#FF1B2D"/>
<stop offset="1" stop-color="#DF006B"/>
</linearGradient>
<linearGradient id="paint5_linear" x1="1.11557" y1="0.583256" x2="22.6628" y2="2.31573" gradientUnits="userSpaceOnUse">
<stop stop-color="#FF1B2D"/>
<stop offset="1" stop-color="#DF006B"/>
</linearGradient>
<linearGradient id="paint6_linear" x1="1.11557" y1="0.583256" x2="22.6628" y2="2.31573" gradientUnits="userSpaceOnUse">
<stop stop-color="#FF1B2D"/>
<stop offset="1" stop-color="#DF006B"/>
</linearGradient>
<linearGradient id="paint7_linear" x1="1.11557" y1="0.583256" x2="22.6628" y2="2.31573" gradientUnits="userSpaceOnUse">
<stop stop-color="#FF1B2D"/>
<stop offset="1" stop-color="#DF006B"/>
</linearGradient>
<linearGradient id="paint8_linear" x1="1.11557" y1="0.583256" x2="22.6628" y2="2.31573" gradientUnits="userSpaceOnUse">
<stop stop-color="#FF1B2D"/>
<stop offset="1" stop-color="#DF006B"/>
</linearGradient>
<linearGradient id="paint9_linear" x1="1.11557" y1="0.583256" x2="22.6628" y2="2.31573" gradientUnits="userSpaceOnUse">
<stop stop-color="#FF1B2D"/>
<stop offset="1" stop-color="#DF006B"/>
</linearGradient>
<linearGradient id="paint10_linear" x1="1.11557" y1="0.583256" x2="22.6628" y2="2.31573" gradientUnits="userSpaceOnUse">
<stop stop-color="#FF1B2D"/>
<stop offset="1" stop-color="#DF006B"/>
</linearGradient>
<linearGradient id="paint11_linear" x1="1.11557" y1="0.583256" x2="22.6628" y2="2.31573" gradientUnits="userSpaceOnUse">
<stop stop-color="#FF1B2D"/>
<stop offset="1" stop-color="#DF006B"/>
</linearGradient>
<linearGradient id="paint12_linear" x1="1.11557" y1="0.583256" x2="22.6628" y2="2.31573" gradientUnits="userSpaceOnUse">
<stop stop-color="#FF1B2D"/>
<stop offset="1" stop-color="#DF006B"/>
</linearGradient>
<linearGradient id="paint13_linear" x1="1.11557" y1="0.583256" x2="22.6628" y2="2.31573" gradientUnits="userSpaceOnUse">
<stop stop-color="#FF1B2D"/>
<stop offset="1" stop-color="#DF006B"/>
</linearGradient>
<linearGradient id="paint14_linear" x1="1.11557" y1="0.583256" x2="22.6628" y2="2.31573" gradientUnits="userSpaceOnUse">
<stop stop-color="#FF1B2D"/>
<stop offset="1" stop-color="#DF006B"/>
</linearGradient>
<linearGradient id="paint15_linear" x1="1.11557" y1="0.583256" x2="22.6628" y2="2.31573" gradientUnits="userSpaceOnUse">
<stop stop-color="#FF1B2D"/>
<stop offset="1" stop-color="#DF006B"/>
</linearGradient>
<linearGradient id="paint16_linear" x1="1.11557" y1="0.583256" x2="22.6628" y2="2.31573" gradientUnits="userSpaceOnUse">
<stop stop-color="#FF1B2D"/>
<stop offset="1" stop-color="#DF006B"/>
</linearGradient>
<linearGradient id="paint17_linear" x1="1.11557" y1="0.583256" x2="22.6628" y2="2.31573" gradientUnits="userSpaceOnUse">
<stop stop-color="#FF1B2D"/>
<stop offset="1" stop-color="#DF006B"/>
</linearGradient>
<linearGradient id="paint18_linear" x1="1.11557" y1="0.583256" x2="22.6628" y2="2.31573" gradientUnits="userSpaceOnUse">
<stop stop-color="#FF1B2D"/>
<stop offset="1" stop-color="#DF006B"/>
</linearGradient>
<linearGradient id="paint19_linear" x1="1.11557" y1="0.583256" x2="22.6628" y2="2.31573" gradientUnits="userSpaceOnUse">
<stop stop-color="#FF1B2D"/>
<stop offset="1" stop-color="#DF006B"/>
</linearGradient>
<linearGradient id="paint20_linear" x1="1.11557" y1="0.583256" x2="22.6628" y2="2.31573" gradientUnits="userSpaceOnUse">
<stop stop-color="#FF1B2D"/>
<stop offset="1" stop-color="#DF006B"/>
</linearGradient>
<linearGradient id="paint21_linear" x1="1.11557" y1="0.583256" x2="22.6628" y2="2.31573" gradientUnits="userSpaceOnUse">
<stop stop-color="#FF1B2D"/>
<stop offset="1" stop-color="#DF006B"/>
</linearGradient>
<linearGradient id="paint22_linear" x1="1.11557" y1="0.583256" x2="22.6628" y2="2.31573" gradientUnits="userSpaceOnUse">
<stop stop-color="#FF1B2D"/>
<stop offset="1" stop-color="#DF006B"/>
</linearGradient>
<linearGradient id="paint23_linear" x1="1.11557" y1="0.583256" x2="22.6628" y2="2.31573" gradientUnits="userSpaceOnUse">
<stop stop-color="#FF1B2D"/>
<stop offset="1" stop-color="#DF006B"/>
</linearGradient>
<linearGradient id="paint24_linear" x1="1.11557" y1="0.583256" x2="22.6628" y2="2.31573" gradientUnits="userSpaceOnUse">
<stop stop-color="#FF1B2D"/>
<stop offset="1" stop-color="#DF006B"/>
</linearGradient>
<linearGradient id="paint25_linear" x1="1.11557" y1="0.583256" x2="22.6628" y2="2.31573" gradientUnits="userSpaceOnUse">
<stop stop-color="#FF1B2D"/>
<stop offset="1" stop-color="#DF006B"/>
</linearGradient>
<linearGradient id="paint26_linear" x1="1.11557" y1="0.583256" x2="22.6628" y2="2.31573" gradientUnits="userSpaceOnUse">
<stop stop-color="#FF1B2D"/>
<stop offset="1" stop-color="#DF006B"/>
</linearGradient>
</defs>
</svg>
