<svg width="24" height="24" viewBox="0 0 24 24" fill="none" xmlns="http://www.w3.org/2000/svg">
<path fill-rule="evenodd" clip-rule="evenodd" d="M14.3027 3.04017C12.9486 1.98619 11.0523 1.98645 9.69758 3.03996L3.69752 7.70701C2.78351 8.41736 2.25 9.51 2.25 10.667V18C2.25 20.0712 3.92879 21.75 6 21.75H18C20.0712 21.75 21.75 20.0712 21.75 18V10.667C21.75 9.51 21.2162 8.41713 20.3022 7.70677L14.3027 3.04017ZM4.61848 8.891L10.6184 4.22405C11.4317 3.59161 12.5696 3.592 13.3815 4.224L19.3818 8.89124C19.9296 9.31689 20.25 9.97214 20.25 10.667V18C20.25 19.2428 19.2428 20.25 18 20.25H6C4.75721 20.25 3.75 19.2428 3.75 18V10.667C3.75 9.97214 4.07067 9.31666 4.61848 8.891ZM8.53057 13.7079C8.23781 13.4149 7.76294 13.4147 7.46991 13.7074C7.17688 14.0002 7.17667 14.4751 7.46943 14.7681C9.97051 17.2714 14.0276 17.2711 16.5303 14.7683C16.8232 14.4754 16.8232 14.0006 16.5303 13.7077C16.2374 13.4148 15.7626 13.4148 15.4697 13.7077C13.5524 15.6249 10.4455 15.6246 8.53057 13.7079Z" fill="#6C89A9"/>
</svg>
