<svg width="24" height="24" viewBox="0 0 24 24" fill="none" xmlns="http://www.w3.org/2000/svg">
<path fill-rule="evenodd" clip-rule="evenodd" d="M5.99734 11.7496C5.55655 11.7496 5.13381 11.9247 4.82212 12.2364L3.52642 13.5321C3.23353 13.825 2.75866 13.825 2.46576 13.5321C2.17287 13.2392 2.17287 12.7643 2.46576 12.4714L3.76146 11.1757C4.35445 10.5827 5.15872 10.2496 5.99734 10.2496C6.83596 10.2496 7.64022 10.5827 8.23321 11.1757L12.5302 15.4727C12.8231 15.7656 12.8231 16.2404 12.5302 16.5333C12.2373 16.8262 11.7624 16.8262 11.4695 16.5333L7.17255 12.2364C6.86087 11.9247 6.43813 11.7496 5.99734 11.7496Z" fill="#6C89A9"/>
<path fill-rule="evenodd" clip-rule="evenodd" d="M16.1793 15.2376C15.5303 14.5886 14.4779 14.5886 13.8289 15.2376L7.53242 21.5341C7.23953 21.827 6.76466 21.827 6.47176 21.5341C6.17887 21.2412 6.17887 20.7663 6.47176 20.4734L12.7682 14.177C14.0031 12.9421 16.0051 12.9421 17.24 14.177L21.1808 18.1178C21.4737 18.4107 21.4737 18.8855 21.1808 19.1784C20.8879 19.4713 20.413 19.4713 20.1201 19.1784L16.1793 15.2376Z" fill="#6C89A9"/>
<path fill-rule="evenodd" clip-rule="evenodd" d="M18.1889 4.14176C18.1782 4.14176 18.1679 4.14602 18.1603 4.1536L14.9949 7.31907C14.9875 7.32641 14.9827 7.33706 14.9827 7.34747V8.64426H16.2782C16.2783 8.64426 16.2782 8.64426 16.2782 8.64426C16.2893 8.64421 16.3002 8.63978 16.3081 8.63194C16.3081 8.63191 16.308 8.63198 16.3081 8.63194L19.4728 5.46717C19.4804 5.4596 19.4852 5.4488 19.4852 5.43809C19.4852 5.42738 19.481 5.41711 19.4734 5.40955L18.218 4.15413C18.2104 4.14655 18.1996 4.14176 18.1889 4.14176ZM16.2788 10.1443H14.2327C13.8185 10.1443 13.4827 9.80847 13.4827 9.39426V7.3484C13.4827 7.34831 13.4827 7.34848 13.4827 7.3484C13.4825 6.93952 13.645 6.54711 13.9344 6.25823C13.9346 6.25806 13.9342 6.25839 13.9344 6.25823L17.0986 3.094C17.3875 2.80479 17.7801 2.64176 18.1889 2.64176C18.5977 2.64176 18.9897 2.80427 19.2786 3.09347L20.533 4.34783C20.5331 4.34792 20.5329 4.34774 20.533 4.34783C20.8223 4.63676 20.9852 5.02917 20.9852 5.43809C20.9852 5.84702 20.8226 6.23915 20.5333 6.52808C20.5332 6.52817 20.5333 6.52799 20.5333 6.52808L17.3686 9.69276C17.0797 9.98138 16.6872 10.1439 16.2788 10.1443Z" fill="#6C89A9"/>
<path fill-rule="evenodd" clip-rule="evenodd" d="M6.99776 3.74625C5.20191 3.74625 3.74609 5.20207 3.74609 6.99791V17.0021C3.74609 18.7979 5.20191 20.2537 6.99776 20.2537H17.0019C18.7978 20.2537 20.2536 18.7979 20.2536 17.0021V9.99916C20.2536 9.58495 20.5894 9.24916 21.0036 9.24916C21.4178 9.24916 21.7536 9.58495 21.7536 9.99916V17.0021C21.7536 19.6264 19.6262 21.7537 17.0019 21.7537H6.99776C4.37349 21.7537 2.24609 19.6264 2.24609 17.0021V6.99791C2.24609 4.37364 4.37349 2.24625 6.99776 2.24625H13.0003C13.4145 2.24625 13.7503 2.58203 13.7503 2.99625C13.7503 3.41046 13.4145 3.74625 13.0003 3.74625H6.99776Z" fill="#6C89A9"/>
</svg>
