<svg width="24" height="24" viewBox="0 0 24 24" fill="none" xmlns="http://www.w3.org/2000/svg">
<path fill-rule="evenodd" clip-rule="evenodd" d="M12 20.25C16.5568 20.25 20.25 16.5568 20.25 12C20.25 7.44321 16.5568 3.75 12 3.75C7.44322 3.75 3.75 7.44321 3.75 12C3.75 16.5568 7.44321 20.25 12 20.25ZM12 2.25C17.3852 2.25 21.75 6.61479 21.75 12C21.75 17.3852 17.3852 21.75 12 21.75C6.61479 21.75 2.25 17.3852 2.25 12C2.25 6.61478 6.61479 2.25 12 2.25ZM12 17.25C11.5858 17.25 11.25 16.9142 11.25 16.5L11.25 11.5C11.25 11.0858 11.5858 10.75 12 10.75C12.4142 10.75 12.75 11.0858 12.75 11.5L12.75 16.5C12.75 16.9142 12.4142 17.25 12 17.25ZM13.001 7.75001C13.005 8.30258 12.5565 8.75104 12.0039 8.75104C11.4474 8.75104 10.9989 8.30258 10.9989 7.75001C10.9989 7.19744 11.4474 6.74898 11.9999 6.74898C12.5525 6.74898 13.001 7.19744 13.001 7.75001Z" fill="#6C89A9"/>
</svg>
