<svg width="24" height="24" viewBox="0 0 24 24" fill="none" xmlns="http://www.w3.org/2000/svg">
<path fill-rule="evenodd" clip-rule="evenodd" d="M15.4495 17.4926L15.4517 17.4926L18.6347 17.4926C20.1566 17.4969 21.3893 18.7296 21.3936 20.2515L21.3936 20.2537L21.3936 20.6436C21.3936 21.323 20.8428 21.8738 20.1634 21.8738H13.9208C13.2414 21.8738 12.6906 21.323 12.6906 20.6436V20.2515C12.6949 18.7296 13.9276 17.4969 15.4495 17.4926ZM15.4529 18.9926C14.7568 18.9951 14.1931 19.5588 14.1906 20.2549V20.3738H19.8936V20.2549C19.8911 19.5588 19.3274 18.9951 18.6313 18.9926H15.4529Z" fill="#6C89A9"/>
<path fill-rule="evenodd" clip-rule="evenodd" d="M17.8553 13.0795C17.4749 12.7134 16.8965 12.6472 16.4432 12.9179C15.9898 13.1886 15.7738 13.7293 15.9157 14.2378C16.0301 14.6478 16.3581 14.9634 16.7722 15.0621C17.2858 15.1844 17.8177 14.9478 18.0709 14.4845C18.324 14.0211 18.2357 13.4457 17.8553 13.0795ZM15.6741 11.6301C16.7082 11.0125 18.0276 11.1636 18.8955 11.9988C19.7633 12.834 19.9647 14.1467 19.3872 15.2036C18.8098 16.2606 17.5963 16.8003 16.4246 16.5212C15.48 16.2963 14.7319 15.5763 14.4709 14.641C14.1472 13.4809 14.64 12.2476 15.6741 11.6301Z" fill="#6C89A9"/>
<path fill-rule="evenodd" clip-rule="evenodd" d="M4.40493 15.5718L4.40707 15.5718L7.59006 15.5718C9.11197 15.5761 10.3447 16.8088 10.349 18.3307L10.349 18.3329L10.349 18.7228C10.349 19.4022 9.79822 19.953 9.1188 19.953H2.8762C2.19678 19.953 1.646 19.4022 1.646 18.7228V18.3307C1.65034 16.8088 2.88302 15.5761 4.40493 15.5718ZM4.40827 17.0718C3.71219 17.0743 3.14849 17.638 3.146 18.3341V18.453H8.849V18.3341C8.84653 17.638 8.28282 17.0743 7.58672 17.0718H4.40827Z" fill="#6C89A9"/>
<path fill-rule="evenodd" clip-rule="evenodd" d="M6.81071 11.1587C6.43028 10.7926 5.85187 10.7264 5.39855 10.9971C4.94524 11.2678 4.72921 11.8085 4.87113 12.317C4.98554 12.727 5.31348 13.0426 5.72757 13.1413C6.24119 13.2636 6.77315 13.027 7.02629 12.5637C7.27944 12.1003 7.19114 11.5249 6.81071 11.1587ZM4.62948 9.70928C5.66357 9.09174 6.98304 9.24275 7.85086 10.078C8.71869 10.9132 8.92012 12.2259 8.34264 13.2828C7.76517 14.3398 6.55168 14.8795 5.38002 14.6004C4.4354 14.3755 3.68733 13.6555 3.42633 12.7202C3.10259 11.5601 3.5954 10.3268 4.62948 9.70928Z" fill="#6C89A9"/>
<path fill-rule="evenodd" clip-rule="evenodd" d="M8.3688 4.79699C8.3688 3.32195 9.56455 2.12619 11.0396 2.12619H17.7624C19.2374 2.12619 20.4332 3.32195 20.4332 4.79699V6.71779C20.4332 8.19283 19.2374 9.38859 17.7624 9.38859H15.3343C15.2977 9.38844 15.2621 9.40118 15.2338 9.42459L15.229 9.42858L13.2601 11.0318L13.2588 11.0329C12.8907 11.3339 12.3821 11.3957 11.9525 11.1917C11.5227 10.9876 11.2492 10.5541 11.25 10.0784V9.38859H11.0396C9.56455 9.38859 8.3688 8.19283 8.3688 6.71779V4.79699ZM11.0396 3.62619C10.393 3.62619 9.8688 4.15038 9.8688 4.79699V6.71779C9.8688 7.36441 10.393 7.88859 11.0396 7.88859H12C12.4142 7.88859 12.75 8.22438 12.75 8.63859V9.51282L14.2797 8.26711C14.5778 8.02134 14.9523 7.88744 15.3387 7.88859L15.3404 7.8886L15.3374 7.88859H15.3387H17.7624C18.409 7.88859 18.9332 7.36441 18.9332 6.71779V4.79699C18.9332 4.15037 18.409 3.62619 17.7624 3.62619H11.0396Z" fill="#6C89A9"/>
</svg>
