<svg width="24" height="24" viewBox="0 0 24 24" fill="none" xmlns="http://www.w3.org/2000/svg">
<path fill-rule="evenodd" clip-rule="evenodd" d="M19.9107 4.67315C14.8076 2.77562 9.19242 2.77562 4.08932 4.67315L4.07185 4.6799C2.98463 5.11536 2.16878 6.04122 1.87358 7.1746L1.86873 7.19432C1.01488 10.8789 1.04481 14.7132 1.95607 18.384L1.96135 18.4041C2.20706 19.2883 2.87735 19.992 3.74862 20.2803L3.74965 20.2806L4.88414 20.6587L4.8858 20.6592C5.76324 20.9544 6.71887 20.5129 7.06327 19.6534L8.46463 16.15C8.50205 16.0565 8.5927 15.9954 8.69337 15.9957L8.69559 15.9957H15.3041C15.4064 15.9957 15.4983 16.0579 15.5363 16.1529L16.9347 19.6491C17.2788 20.5095 18.2339 20.9525 19.113 20.6594L20.2506 20.2801L20.2516 20.2798C21.1228 19.9914 21.793 19.2879 22.0386 18.4037L22.0439 18.3836C22.9551 14.7129 22.985 10.8788 22.1312 7.19438L22.1264 7.17465C21.8312 6.04126 21.0154 5.11538 19.9281 4.6799L19.9107 4.67315ZM18.6386 19.2364C18.513 19.2783 18.3766 19.215 18.3274 19.0921L16.929 15.5958C16.6633 14.9314 16.0197 14.4957 15.3041 14.4957H8.69675H8.69559V15.2457L8.69782 14.4957L8.69675 14.4957C7.9817 14.494 7.33782 14.9288 7.07202 15.5926L5.67069 19.0959C5.62213 19.217 5.48744 19.2791 5.36381 19.2374L5.36109 19.2365L4.22209 18.8569L4.2203 18.8563C3.82656 18.7262 3.52296 18.4097 3.40911 18.0114C2.55844 14.5772 2.5305 10.9906 3.32756 7.54349C3.50399 6.87797 3.98331 6.33418 4.62146 6.07563C9.38171 4.30812 14.6183 4.30812 19.3785 6.07563C20.0167 6.3342 20.496 6.87798 20.6724 7.54349C21.4694 10.9905 21.4414 14.5769 20.5909 18.0111C20.477 18.4093 20.1735 18.7258 19.7798 18.856L19.778 18.8565L18.6386 19.2364ZM7.5 7.75C7.91421 7.75 8.25 8.08579 8.25 8.5V9.25H9C9.41421 9.25 9.75 9.58579 9.75 10C9.75 10.4142 9.41421 10.75 9 10.75H8.25V11.5C8.25 11.9142 7.91421 12.25 7.5 12.25C7.08579 12.25 6.75 11.9142 6.75 11.5V10.75H6C5.58579 10.75 5.25 10.4142 5.25 10C5.25 9.58579 5.58579 9.25 6 9.25H6.75V8.5C6.75 8.08579 7.08579 7.75 7.5 7.75ZM15.1 10.0011C15.1003 9.75542 15.0028 9.51966 14.8291 9.34591C14.6553 9.17215 14.4196 9.07467 14.1738 9.07498C13.6633 9.07562 13.2498 9.48981 13.25 10.0004C13.2502 10.5109 13.6641 10.9248 14.1746 10.925C14.6852 10.9252 15.0994 10.5117 15.1 10.0011ZM18.479 9.34591C18.6527 9.51966 18.7502 9.75542 18.7499 10.0011C18.7493 10.5117 18.3351 10.9252 17.8245 10.925C17.314 10.9248 16.9001 10.5109 16.8999 10.0004C16.8997 9.48981 17.3132 9.07562 17.8237 9.07498C18.0695 9.07467 18.3052 9.17215 18.479 9.34591ZM16.0011 10.9C15.7554 10.8997 15.5196 10.9972 15.3459 11.1709C15.1721 11.3447 15.0746 11.5804 15.075 11.8262C15.0756 12.3367 15.4898 12.7502 16.0003 12.75C16.5109 12.7498 16.9247 12.3359 16.925 11.8254C16.9252 11.3148 16.5117 10.9006 16.0011 10.9ZM15.3459 7.52093C15.5196 7.34717 15.7554 7.24969 16.0011 7.25C16.5117 7.25064 16.9252 7.66483 16.925 8.17539C16.9247 8.68595 16.5109 9.09979 16.0003 9.1C15.4898 9.10021 15.0756 8.68672 15.075 8.17616C15.0746 7.93044 15.1721 7.69468 15.3459 7.52093Z" fill="#6C89A9"/>
</svg>
