<svg width="24" height="24" viewBox="0 0 24 24" fill="none" xmlns="http://www.w3.org/2000/svg">
<path fill-rule="evenodd" clip-rule="evenodd" d="M12 1.25C12.4142 1.25 12.75 1.58579 12.75 2V4C12.75 4.41421 12.4142 4.75 12 4.75C11.5858 4.75 11.25 4.41421 11.25 4V2C11.25 1.58579 11.5858 1.25 12 1.25ZM12.75 20C12.75 19.5858 12.4142 19.25 12 19.25C11.5858 19.25 11.25 19.5858 11.25 20V22C11.25 22.4142 11.5858 22.75 12 22.75C12.4142 22.75 12.75 22.4142 12.75 22V20ZM8.9948 8.9948C7.33507 10.6545 7.33507 13.3455 8.9948 15.0052C10.6545 16.6649 13.3455 16.6649 15.0052 15.0052C16.6649 13.3455 16.6649 10.6545 15.0052 8.9948C13.3455 7.33507 10.6545 7.33507 8.9948 8.9948ZM16.0659 7.93413C13.8204 5.68862 10.1796 5.68862 7.93413 7.93413C5.68862 10.1796 5.68862 13.8204 7.93413 16.0659C10.1796 18.3114 13.8204 18.3114 16.0659 16.0659C18.3114 13.8204 18.3114 10.1796 16.0659 7.93413ZM19.6004 4.39966C19.8933 4.69256 19.8933 5.16743 19.6004 5.46032L18.8904 6.17032C18.5975 6.46322 18.1227 6.46322 17.8298 6.17032C17.5369 5.87743 17.5369 5.40256 17.8298 5.10966L18.5398 4.39966C18.8327 4.10677 19.3075 4.10677 19.6004 4.39966ZM6.17026 18.8903C6.46315 18.5974 6.46315 18.1225 6.17026 17.8297C5.87737 17.5368 5.40249 17.5368 5.1096 17.8297L4.3996 18.5397C4.10671 18.8325 4.10671 19.3074 4.3996 19.6003C4.69249 19.8932 5.16737 19.8932 5.46026 19.6003L6.17026 18.8903ZM19.25 12C19.25 11.5858 19.5858 11.25 20 11.25H22C22.4142 11.25 22.75 11.5858 22.75 12C22.75 12.4142 22.4142 12.75 22 12.75H20C19.5858 12.75 19.25 12.4142 19.25 12ZM2 11.25C1.58579 11.25 1.25 11.5858 1.25 12C1.25 12.4142 1.58579 12.75 2 12.75H4C4.41421 12.75 4.75 12.4142 4.75 12C4.75 11.5858 4.41421 11.25 4 11.25H2ZM17.8298 17.8297C18.1227 17.5368 18.5975 17.5368 18.8904 17.8297L19.6004 18.5397C19.8933 18.8325 19.8933 19.3074 19.6004 19.6003C19.3075 19.8932 18.8327 19.8932 18.5398 19.6003L17.8298 18.8903C17.5369 18.5974 17.5369 18.1225 17.8298 17.8297ZM5.46026 4.39966C5.16737 4.10677 4.69249 4.10677 4.3996 4.39966C4.10671 4.69256 4.10671 5.16743 4.3996 5.46032L5.1096 6.17032C5.40249 6.46322 5.87737 6.46322 6.17026 6.17032C6.46315 5.87743 6.46315 5.40256 6.17026 5.10966L5.46026 4.39966Z" fill="#6C89A9"/>
</svg>
