<svg width="24" height="24" viewBox="0 0 24 24" fill="none" xmlns="http://www.w3.org/2000/svg">
<path fill-rule="evenodd" clip-rule="evenodd" d="M12.0008 7.24833C12.4151 7.24833 12.7508 7.58412 12.7508 7.99833V8.99875C12.7508 9.41296 12.4151 9.74875 12.0008 9.74875C11.5866 9.74875 11.2508 9.41296 11.2508 8.99875V7.99833C11.2508 7.58412 11.5866 7.24833 12.0008 7.24833Z" fill="#6C89A9"/>
<path fill-rule="evenodd" clip-rule="evenodd" d="M12.0008 14.2512C12.4151 14.2512 12.7508 14.587 12.7508 15.0012V16.0017C12.7508 16.4159 12.4151 16.7517 12.0008 16.7517C11.5866 16.7517 11.2508 16.4159 11.2508 16.0017V15.0012C11.2508 14.587 11.5866 14.2512 12.0008 14.2512Z" fill="#6C89A9"/>
<path fill-rule="evenodd" clip-rule="evenodd" d="M11.404 8.24761H12.5057C13.2793 8.25297 13.9928 8.66589 14.3829 9.334C14.5918 9.6917 14.4712 10.151 14.1135 10.3599C13.7558 10.5687 13.2965 10.4481 13.0876 10.0904C12.9649 9.88018 12.7407 9.75004 12.4974 9.74761H11.4044C11.0738 9.74799 10.7953 9.99459 10.7549 10.3227C10.7146 10.6509 10.9251 10.9577 11.2458 11.0382L13.1208 11.5092C13.1209 11.5092 13.1207 11.5092 13.1208 11.5092C14.1758 11.7739 14.8684 12.7833 14.7355 13.8628C14.6026 14.9425 13.686 15.7538 12.5983 15.7547L11.4948 15.7547C10.7201 15.7481 10.0064 15.3334 9.61693 14.6637C9.40869 14.3057 9.53014 13.8466 9.88821 13.6383C10.2463 13.4301 10.7053 13.5515 10.9136 13.9096C11.0363 14.1207 11.2609 14.2517 11.505 14.2547H12.5971C12.5972 14.2547 12.5969 14.2547 12.5971 14.2547C12.9275 14.2542 13.2064 14.0076 13.2467 13.6796C13.2871 13.3514 13.0766 13.0446 12.7559 12.9641L10.8808 12.4931C10.8808 12.4931 10.8809 12.4931 10.8808 12.4931C9.82592 12.2283 9.13331 11.219 9.26618 10.1394C9.39907 9.05983 10.3163 8.24848 11.404 8.24761Z" fill="#6C89A9"/>
<path fill-rule="evenodd" clip-rule="evenodd" d="M11.9998 3.74625C7.44142 3.74625 3.74609 7.44158 3.74609 12C3.74609 16.5584 7.44142 20.2537 11.9998 20.2537C16.5583 20.2537 20.2536 16.5584 20.2536 12C20.2536 7.44158 16.5583 3.74625 11.9998 3.74625ZM11.9998 2.24625C6.613 2.24625 2.24609 6.61315 2.24609 12C2.24609 17.3868 6.613 21.7537 11.9998 21.7537C17.3867 21.7537 21.7536 17.3868 21.7536 12C21.7536 6.61315 17.3867 2.24625 11.9998 2.24625Z" fill="#6C89A9"/>
<path fill-rule="evenodd" clip-rule="evenodd" d="M11.9998 3.74625C7.44142 3.74625 3.74609 7.44158 3.74609 12C3.74609 16.5584 7.44142 20.2537 11.9998 20.2537C16.5583 20.2537 20.2536 16.5584 20.2536 12C20.2536 7.44158 16.5583 3.74625 11.9998 3.74625ZM11.9998 2.24625C6.613 2.24625 2.24609 6.61315 2.24609 12C2.24609 17.3868 6.613 21.7537 11.9998 21.7537C17.3867 21.7537 21.7536 17.3868 21.7536 12C21.7536 6.61315 17.3867 2.24625 11.9998 2.24625Z" fill="#6C89A9"/>
</svg>
