<svg width="24" height="24" viewBox="0 0 24 24" fill="none" xmlns="http://www.w3.org/2000/svg">
<path fill-rule="evenodd" clip-rule="evenodd" d="M2.24634 3.99667C2.24634 3.58246 2.58212 3.24667 2.99634 3.24667H3.99675C4.41097 3.24667 4.74675 3.58246 4.74675 3.99667C4.74675 4.41089 4.41097 4.74667 3.99675 4.74667H2.99634C2.58212 4.74667 2.24634 4.41089 2.24634 3.99667ZM7.24854 3.99667C7.24854 3.58246 7.58432 3.24667 7.99854 3.24667H20.0035C20.4177 3.24667 20.7535 3.58246 20.7535 3.99667C20.7535 4.41089 20.4177 4.74667 20.0035 4.74667H7.99854C7.58432 4.74667 7.24854 4.41089 7.24854 3.99667ZM2.99634 7.24835C2.58212 7.24835 2.24634 7.58414 2.24634 7.99835C2.24634 8.41257 2.58212 8.74835 2.99634 8.74835H3.99675C4.41097 8.74835 4.74675 8.41257 4.74675 7.99835C4.74675 7.58414 4.41097 7.24835 3.99675 7.24835H2.99634ZM2.24634 12C2.24634 11.5858 2.58212 11.25 2.99634 11.25H3.99675C4.41097 11.25 4.74675 11.5858 4.74675 12C4.74675 12.4142 4.41097 12.75 3.99675 12.75H2.99634C2.58212 12.75 2.24634 12.4142 2.24634 12ZM7.99854 7.24835C7.58432 7.24835 7.24854 7.58414 7.24854 7.99835C7.24854 8.41257 7.58432 8.74835 7.99854 8.74835H20.0035C20.4177 8.74835 20.7535 8.41257 20.7535 7.99835C20.7535 7.58414 20.4177 7.24835 20.0035 7.24835H7.99854ZM7.24854 12C7.24854 11.5858 7.58432 11.25 7.99854 11.25H9.99937C10.4136 11.25 10.7494 11.5858 10.7494 12C10.7494 12.4142 10.4136 12.75 9.99937 12.75H7.99854C7.58432 12.75 7.24854 12.4142 7.24854 12ZM12.75 16.0017C12.75 13.7108 14.715 11.747 17.0053 11.7496L17.0055 11.7496C19.3526 11.7513 21.2542 13.6544 21.2542 16.0017C21.2542 18.3497 19.3509 20.2537 17.0021 20.2537C14.654 20.2537 12.75 18.3505 12.75 16.0017ZM11.25 16.0017C11.25 12.8824 13.8868 10.2463 17.0066 10.2496L17.0069 10.2496C20.182 10.252 22.7542 12.8267 22.7542 16.0017C22.7542 19.1779 20.1795 21.7537 17.0021 21.7537C13.8258 21.7537 11.25 19.1791 11.25 16.0017ZM18.9472 14.0567C19.24 14.3496 19.24 14.8245 18.9472 15.1174L18.0629 16.0017L18.9472 16.8859C19.24 17.1788 19.24 17.6537 18.9472 17.9466C18.6543 18.2395 18.1794 18.2395 17.8865 17.9466L17.0022 17.0623L16.118 17.9466C15.8251 18.2395 15.3502 18.2395 15.0573 17.9466C14.7644 17.6537 14.7644 17.1788 15.0573 16.8859L15.9416 16.0017L15.0573 15.1174C14.7644 14.8245 14.7644 14.3496 15.0573 14.0567C15.3502 13.7638 15.8251 13.7638 16.118 14.0567L17.0022 14.941L17.8865 14.0567C18.1794 13.7638 18.6543 13.7638 18.9472 14.0567Z" fill="#6C89A9"/>
</svg>
