<svg width="24" height="24" viewBox="0 0 24 24" fill="none" xmlns="http://www.w3.org/2000/svg">
<path fill-rule="evenodd" clip-rule="evenodd" d="M11.75 3.25C12.1642 3.25 12.5 3.58579 12.5 4V17.1893L14.2197 15.4697C14.5126 15.1768 14.9874 15.1768 15.2803 15.4697C15.5732 15.7626 15.5732 16.2374 15.2803 16.5303L12.2803 19.5303C12.2084 19.6022 12.1255 19.6565 12.0371 19.6931C11.9599 19.7251 11.8762 19.7446 11.7886 19.749C11.7758 19.7497 11.7629 19.75 11.75 19.75C11.6483 19.75 11.5513 19.7298 11.4629 19.6931C11.3745 19.6565 11.2916 19.6022 11.2197 19.5303L8.21967 16.5303C7.92678 16.2374 7.92678 15.7626 8.21967 15.4697C8.51256 15.1768 8.98744 15.1768 9.28033 15.4697L11 17.1893V4C11 3.58579 11.3358 3.25 11.75 3.25Z" fill="#6C89A9"/>
</svg>
