<svg width="24" height="24" viewBox="0 0 24 24" fill="none" xmlns="http://www.w3.org/2000/svg">
<path fill-rule="evenodd" clip-rule="evenodd" d="M12.5 19C12.5 19.4142 12.1642 19.75 11.75 19.75C11.3358 19.75 11 19.4142 11 19V5.81066L9.28033 7.53033C8.98744 7.82322 8.51256 7.82322 8.21967 7.53033C7.92678 7.23744 7.92678 6.76256 8.21967 6.46967L11.2197 3.46967C11.2916 3.39776 11.3745 3.34351 11.4629 3.30691C11.5513 3.27024 11.6483 3.25 11.75 3.25C11.7629 3.25 11.7758 3.25033 11.7886 3.25098C11.8762 3.25542 11.9599 3.27491 12.0371 3.30691C12.1255 3.34351 12.2084 3.39776 12.2803 3.46967L15.2803 6.46967C15.5732 6.76256 15.5732 7.23744 15.2803 7.53033C14.9874 7.82322 14.5126 7.82322 14.2197 7.53033L12.5 5.81066V19Z" fill="#6C89A9"/>
</svg>
