<svg width="24" height="24" viewBox="0 0 24 24" fill="none" xmlns="http://www.w3.org/2000/svg">
<path fill-rule="evenodd" clip-rule="evenodd" d="M11.25 5C11.25 4.58579 11.5858 4.25 12 4.25H20C20.4142 4.25 20.75 4.58579 20.75 5C20.75 5.41421 20.4142 5.75 20 5.75H12C11.5858 5.75 11.25 5.41421 11.25 5Z" fill="#6C89A9"/>
<path fill-rule="evenodd" clip-rule="evenodd" d="M6 3.75C5.30964 3.75 4.75 4.30964 4.75 5C4.75 5.69036 5.30964 6.25 6 6.25C6.69036 6.25 7.25 5.69036 7.25 5C7.25 4.30964 6.69036 3.75 6 3.75ZM3.25 5C3.25 3.48122 4.48122 2.25 6 2.25C7.51878 2.25 8.75 3.48122 8.75 5C8.75 6.51878 7.51878 7.75 6 7.75C4.48122 7.75 3.25 6.51878 3.25 5Z" fill="#6C89A9"/>
<path fill-rule="evenodd" clip-rule="evenodd" d="M11.25 12C11.25 11.5858 11.5858 11.25 12 11.25H20C20.4142 11.25 20.75 11.5858 20.75 12C20.75 12.4142 20.4142 12.75 20 12.75H12C11.5858 12.75 11.25 12.4142 11.25 12Z" fill="#6C89A9"/>
<path fill-rule="evenodd" clip-rule="evenodd" d="M11.25 19C11.25 18.5858 11.5858 18.25 12 18.25H20C20.4142 18.25 20.75 18.5858 20.75 19C20.75 19.4142 20.4142 19.75 20 19.75H12C11.5858 19.75 11.25 19.4142 11.25 19Z" fill="#6C89A9"/>
<path fill-rule="evenodd" clip-rule="evenodd" d="M6 10.75C5.30964 10.75 4.75 11.3096 4.75 12C4.75 12.6904 5.30964 13.25 6 13.25C6.69036 13.25 7.25 12.6904 7.25 12C7.25 11.3096 6.69036 10.75 6 10.75ZM3.25 12C3.25 10.4812 4.48122 9.25 6 9.25C7.51878 9.25 8.75 10.4812 8.75 12C8.75 13.5188 7.51878 14.75 6 14.75C4.48122 14.75 3.25 13.5188 3.25 12Z" fill="#6C89A9"/>
<path fill-rule="evenodd" clip-rule="evenodd" d="M6 17.75C5.30964 17.75 4.75 18.3096 4.75 19C4.75 19.6904 5.30964 20.25 6 20.25C6.69036 20.25 7.25 19.6904 7.25 19C7.25 18.3096 6.69036 17.75 6 17.75ZM3.25 19C3.25 17.4812 4.48122 16.25 6 16.25C7.51878 16.25 8.75 17.4812 8.75 19C8.75 20.5188 7.51878 21.75 6 21.75C4.48122 21.75 3.25 20.5188 3.25 19Z" fill="#6C89A9"/>
</svg>
