<svg width="24" height="24" viewBox="0 0 24 24" fill="none" xmlns="http://www.w3.org/2000/svg">
<path fill-rule="evenodd" clip-rule="evenodd" d="M10.25 4.00002C10.25 3.58581 10.5858 3.25002 11 3.25002H20C20.4142 3.25002 20.75 3.58581 20.75 4.00002C20.75 4.41424 20.4142 4.75002 20 4.75002H11C10.5858 4.75002 10.25 4.41424 10.25 4.00002Z" fill="#6C89A9"/>
<path fill-rule="evenodd" clip-rule="evenodd" d="M10.4 9.00002C10.4 8.58581 10.7358 8.25002 11.15 8.25002H20C20.4142 8.25002 20.75 8.58581 20.75 9.00002C20.75 9.41424 20.4142 9.75002 20 9.75002H11.15C10.7358 9.75002 10.4 9.41424 10.4 9.00002Z" fill="#6C89A9"/>
<path fill-rule="evenodd" clip-rule="evenodd" d="M5.53702 3.30711C5.81728 3.4232 6.00001 3.69668 6.00001 4.00002V9.00002C6.00001 9.41424 5.66422 9.75002 5.25001 9.75002C4.8358 9.75002 4.50001 9.41424 4.50001 9.00002V5.80907C4.20553 6.07291 3.75267 6.06334 3.46968 5.78035C3.17679 5.48746 3.17679 5.01259 3.46968 4.71969L4.71968 3.46969C4.93418 3.25519 5.25677 3.19103 5.53702 3.30711Z" fill="#6C89A9"/>
<path fill-rule="evenodd" clip-rule="evenodd" d="M10.25 15C10.25 14.5858 10.5858 14.25 11 14.25H20C20.4142 14.25 20.75 14.5858 20.75 15C20.75 15.4142 20.4142 15.75 20 15.75H11C10.5858 15.75 10.25 15.4142 10.25 15Z" fill="#6C89A9"/>
<path fill-rule="evenodd" clip-rule="evenodd" d="M10.4 20C10.4 19.5858 10.7358 19.25 11.15 19.25H20C20.4142 19.25 20.75 19.5858 20.75 20C20.75 20.4142 20.4142 20.75 20 20.75H11.15C10.7358 20.75 10.4 20.4142 10.4 20Z" fill="#6C89A9"/>
<path fill-rule="evenodd" clip-rule="evenodd" d="M5.00001 15.75C4.86194 15.75 4.75001 15.862 4.75001 16C4.75001 16.4142 4.41422 16.75 4.00001 16.75C3.5858 16.75 3.25001 16.4142 3.25001 16C3.25001 15.0335 4.03351 14.25 5.00001 14.25H5.61449C6.46612 14.25 7.22222 14.795 7.49152 15.6029C7.7113 16.2623 7.56903 16.9886 7.11673 17.5163L5.63066 19.25H7.00001C7.41422 19.25 7.75001 19.5858 7.75001 20C7.75001 20.4142 7.41422 20.75 7.00001 20.75H4.00001C3.70711 20.75 3.44102 20.5795 3.31863 20.3134C3.19624 20.0473 3.23995 19.7343 3.43057 19.5119L5.97784 16.5401C6.08724 16.4124 6.12166 16.2368 6.0685 16.0773C6.00336 15.8818 5.82048 15.75 5.61449 15.75H5.00001Z" fill="#6C89A9"/>
<path fill-rule="evenodd" clip-rule="evenodd" d="M3.25001 9.00002C3.25001 8.58581 3.5858 8.25002 4.00001 8.25002H6.50001C6.91422 8.25002 7.25001 8.58581 7.25001 9.00002C7.25001 9.41424 6.91422 9.75002 6.50001 9.75002H4.00001C3.5858 9.75002 3.25001 9.41424 3.25001 9.00002Z" fill="#6C89A9"/>
</svg>
