<svg width="24" height="24" viewBox="0 0 24 24" fill="none" xmlns="http://www.w3.org/2000/svg">
<path fill-rule="evenodd" clip-rule="evenodd" d="M2.24634 4.99708C2.24634 3.47784 3.47793 2.24625 4.99717 2.24625H18.0026C19.5218 2.24625 20.7534 3.47784 20.7534 4.99708V8.99875C20.7534 9.41296 20.4176 9.74875 20.0034 9.74875C19.5892 9.74875 19.2534 9.41296 19.2534 8.99875V4.99708C19.2534 4.30626 18.6934 3.74625 18.0026 3.74625H4.99717C4.30635 3.74625 3.74634 4.30626 3.74634 4.99708V19.0029C3.74634 19.6937 4.30635 20.2537 4.99717 20.2537H9.99925C10.4135 20.2537 10.7493 20.5895 10.7493 21.0037C10.7493 21.418 10.4135 21.7537 9.99925 21.7537H4.99717C3.47793 21.7537 2.24634 20.5222 2.24634 19.0029V4.99708ZM6.24805 6.99792C6.24805 6.58371 6.58383 6.24792 6.99805 6.24792H16.0018C16.416 6.24792 16.7518 6.58371 16.7518 6.99792C16.7518 7.41214 16.416 7.74792 16.0018 7.74792H6.99805C6.58383 7.74792 6.24805 7.41214 6.24805 6.99792ZM6.99805 10.2496C6.58383 10.2496 6.24805 10.5854 6.24805 10.9996C6.24805 11.4138 6.58383 11.7496 6.99805 11.7496H12.0001C12.4143 11.7496 12.7501 11.4138 12.7501 10.9996C12.7501 10.5854 12.4143 10.2496 12.0001 10.2496H6.99805ZM6.24805 15.0013C6.24805 14.587 6.58383 14.2513 6.99805 14.2513H9.9993C10.4135 14.2513 10.7493 14.587 10.7493 15.0013C10.7493 15.4155 10.4135 15.7513 9.9993 15.7513H6.99805C6.58383 15.7513 6.24805 15.4155 6.24805 15.0013ZM16.725 13.75C15.082 13.75 13.75 15.082 13.75 16.725C13.75 18.368 15.082 19.7 16.725 19.7C18.368 19.7 19.7 18.368 19.7 16.725C19.7 15.082 18.368 13.75 16.725 13.75ZM12.25 16.725C12.25 14.2535 14.2535 12.25 16.725 12.25C19.1965 12.25 21.2 14.2535 21.2 16.725C21.2 17.6899 20.8946 18.5835 20.3752 19.3144L21.5343 20.4734C21.8272 20.7663 21.8272 21.2412 21.5343 21.5341C21.2414 21.827 20.7665 21.827 20.4736 21.5341L19.3146 20.375C18.5837 20.8945 17.69 21.2 16.725 21.2C14.2535 21.2 12.25 19.1965 12.25 16.725Z" fill="#6C89A9"/>
</svg>
