<svg width="24" height="24" viewBox="0 0 24 24" fill="none" xmlns="http://www.w3.org/2000/svg">
<path fill-rule="evenodd" clip-rule="evenodd" d="M18 3.5H6C4.61929 3.5 3.5 4.61929 3.5 6V18C3.5 19.3807 4.61929 20.5 6 20.5H18C19.3807 20.5 20.5 19.3807 20.5 18V6C20.5 4.61929 19.3807 3.5 18 3.5ZM6 2C3.79086 2 2 3.79086 2 6V18C2 20.2091 3.79086 22 6 22H18C20.2091 22 22 20.2091 22 18V6C22 3.79086 20.2091 2 18 2H6Z" fill="#6C89A9"/>
<path fill-rule="evenodd" clip-rule="evenodd" d="M12.3691 4.96962C12.4347 4.56064 12.8195 4.28232 13.2285 4.34798C14.3736 4.53182 15.4628 4.97031 16.4159 5.63113C17.369 6.29195 18.1616 7.15826 18.7353 8.16617C19.309 9.17409 19.6492 10.2979 19.7308 11.4548C19.8124 12.6117 19.6333 13.7721 19.2067 14.8506C19.0543 15.2358 18.6186 15.4245 18.2334 15.2722C17.8482 15.1198 17.6595 14.6841 17.8119 14.2989C18.1559 13.4292 18.3003 12.4933 18.2345 11.5603C18.1687 10.6274 17.8944 9.72104 17.4317 8.9082C16.969 8.09537 16.3298 7.39674 15.5612 6.86382C14.7926 6.33089 13.9142 5.97727 12.9907 5.82902C12.5817 5.76336 12.3034 5.37859 12.3691 4.96962Z" fill="#6C89A9"/>
<path fill-rule="evenodd" clip-rule="evenodd" d="M6.07572 15.8033C5.7053 15.9887 5.25475 15.8387 5.06938 15.4683C4.53203 14.3945 4.25153 13.2106 4.25001 12.0098C4.24848 10.8091 4.52598 9.62445 5.0606 8.54931C5.24503 8.17842 5.6952 8.02727 6.06609 8.2117C6.43698 8.39612 6.58814 8.8463 6.40371 9.21719C5.97256 10.0842 5.74878 11.0396 5.75 12.0079C5.75123 12.9763 5.97744 13.9311 6.41079 14.797C6.59616 15.1674 6.44614 15.618 6.07572 15.8033Z" fill="#6C89A9"/>
<path fill-rule="evenodd" clip-rule="evenodd" d="M7.56147 4.39157C7.75704 4.2506 8.00846 4.21225 8.23717 4.28849L11.2372 5.28849C11.5434 5.39057 11.75 5.67718 11.75 6V16C11.75 16.4142 11.4142 16.75 11 16.75C10.5858 16.75 10.25 16.4142 10.25 16V6.54057L8.75 6.04057V19C8.75 19.4142 8.41421 19.75 8 19.75C7.58579 19.75 7.25 19.4142 7.25 19V5C7.25 4.75892 7.36589 4.53253 7.56147 4.39157Z" fill="#6C89A9"/>
<path fill-rule="evenodd" clip-rule="evenodd" d="M17.6084 15.5615C17.7494 15.757 17.7877 16.0085 17.7115 16.2372L16.7115 19.2372C16.6094 19.5434 16.3228 19.75 16 19.75H8C7.58579 19.75 7.25 19.4142 7.25 19C7.25 18.5858 7.58579 18.25 8 18.25H15.4594L15.9594 16.75H11C10.5858 16.75 10.25 16.4142 10.25 16C10.25 15.5858 10.5858 15.25 11 15.25H17C17.2411 15.25 17.4675 15.3659 17.6084 15.5615Z" fill="#6C89A9"/>
</svg>
