<svg width="24" height="24" viewBox="0 0 24 24" fill="none" xmlns="http://www.w3.org/2000/svg">
<path fill-rule="evenodd" clip-rule="evenodd" d="M10.8119 4.5C7.32595 4.5 4.5 7.32595 4.5 10.8119C4.5 14.2979 7.32595 17.1239 10.8119 17.1239C12.5451 17.1239 14.1152 16.4253 15.2558 15.2944C15.262 15.2877 15.2684 15.2812 15.2748 15.2747C15.2813 15.2682 15.2879 15.2619 15.2945 15.2557C16.4254 14.115 17.1239 12.5451 17.1239 10.8119C17.1239 7.32595 14.2979 4.5 10.8119 4.5ZM10.8119 18.6239C12.6991 18.6239 14.43 17.9547 15.7802 16.8407L19.2265 20.287C19.5194 20.5799 19.9943 20.5799 20.2872 20.287C20.58 19.9941 20.58 19.5192 20.2872 19.2263L16.8409 15.78C17.9548 14.4298 18.6239 12.699 18.6239 10.8119C18.6239 6.49753 15.1264 3 10.8119 3C6.49753 3 3 6.49753 3 10.8119C3 15.1264 6.49753 18.6239 10.8119 18.6239ZM15.3179 9.24722C15.5906 8.93549 15.559 8.46167 15.2473 8.1889C14.9356 7.91614 14.4618 7.94773 14.189 8.25946L11.303 11.5577L9.6421 9.30789C9.51754 9.13917 9.32803 9.0303 9.11953 9.0077C8.91104 8.9851 8.7026 9.05083 8.54478 9.18895L6.2595 11.1889C5.9478 11.4617 5.91625 11.9356 6.18904 12.2473C6.46183 12.559 6.93566 12.5905 7.24736 12.3177L8.91936 10.8544L10.65 13.1988C10.7849 13.3815 10.9954 13.4933 11.2224 13.5027C11.4493 13.5121 11.6683 13.4182 11.8179 13.2472L15.3179 9.24722Z" fill="#6C89A9"/>
</svg>
