<svg width="24" height="24" viewBox="0 0 24 24" fill="none" xmlns="http://www.w3.org/2000/svg">
<path fill-rule="evenodd" clip-rule="evenodd" d="M2.75 6C2.75 5.30921 3.30921 4.75 4 4.75H17.967C18.6758 4.75 19.25 5.32421 19.25 6.033V6.053C19.25 6.51693 18.9929 6.94329 18.5825 7.15942L12.5145 10.3554C11.5662 10.8542 10.4336 10.854 9.4855 10.3544L3.43485 7.1676C3.01349 6.94514 2.75 6.50822 2.75 6.033V6.03299V6ZM1.25 6.03299V6C1.25 4.48079 2.48079 3.25 4 3.25H17.967C19.5042 3.25 20.75 4.49579 20.75 6.033V6.053V13.3544C21.9842 14.315 22.7781 15.8147 22.7781 17.4998C22.7781 20.3993 20.4276 22.7498 17.5281 22.7498C15.0594 22.7498 12.9887 21.0459 12.4279 18.75H5C2.92879 18.75 1.25 17.0712 1.25 15V6.033V6.03299ZM19.7111 14.4503C19.6231 14.4136 19.5437 14.3605 19.4764 14.295C18.9086 13.949 18.2416 13.7498 17.5281 13.7498C15.457 13.7498 13.7781 15.4287 13.7781 17.4998C13.7781 19.5708 15.457 21.2498 17.5281 21.2498C19.5991 21.2498 21.2781 19.5708 21.2781 17.4998C21.2781 16.2431 20.6599 15.1308 19.7111 14.4503ZM19.25 8.50318V12.5387C18.7106 12.3515 18.1312 12.2498 17.5281 12.2498C14.7123 12.2498 12.4143 14.4665 12.2839 17.25H5C3.75721 17.25 2.75 16.2428 2.75 15V8.50223L8.78634 11.6815C10.1722 12.4118 11.8279 12.4116 13.2135 11.6826L19.25 8.50318ZM19.7803 17.1823C20.0732 16.8894 20.0732 16.4146 19.7803 16.1217C19.4874 15.8288 19.0126 15.8288 18.7197 16.1217L17.0622 17.7791L16.2805 16.9969C15.9878 16.7039 15.5129 16.7037 15.2199 16.9965C14.9269 17.2893 14.9267 17.7641 15.2195 18.0571L16.5315 19.3701C16.6721 19.5109 16.8629 19.59 17.0619 19.59C17.2608 19.59 17.4516 19.511 17.5923 19.3703L19.7803 17.1823Z" fill="#6C89A9"/>
</svg>
