<svg width="24" height="24" viewBox="0 0 24 24" fill="none" xmlns="http://www.w3.org/2000/svg">
<path fill-rule="evenodd" clip-rule="evenodd" d="M3.75 5C3.75 4.30921 4.30921 3.75 5 3.75H19C19.6908 3.75 20.25 4.30921 20.25 5V14.25H16.618C15.9545 14.25 15.3491 14.6256 15.0522 15.2176L14.6048 16.1124C14.5628 16.1966 14.4769 16.25 14.382 16.25H9.618C9.52353 16.25 9.43657 16.1967 9.39342 16.1108L8.94709 15.2181C8.65105 14.6245 8.04505 14.25 7.382 14.25H3.75V5ZM2.25 15V5C2.25 3.48079 3.48079 2.25 5 2.25H19C20.5192 2.25 21.75 3.48079 21.75 5V15V19C21.75 20.5192 20.5192 21.75 19 21.75H5C3.48079 21.75 2.25 20.5192 2.25 19V15ZM20.25 15.75V19C20.25 19.6908 19.6908 20.25 19 20.25H5C4.30921 20.25 3.75 19.6908 3.75 19V15.75H7.382C7.47686 15.75 7.56318 15.8042 7.60518 15.8884L8.05258 16.7832C8.34946 17.3752 8.95453 17.75 9.618 17.75H14.382C15.045 17.75 15.6512 17.3752 15.9472 16.7816L16.3935 15.889C16.4367 15.8031 16.5236 15.75 16.618 15.75H20.25ZM6.25 7C6.25 6.58579 6.58579 6.25 7 6.25H17C17.4142 6.25 17.75 6.58579 17.75 7C17.75 7.41421 17.4142 7.75 17 7.75H7C6.58579 7.75 6.25 7.41421 6.25 7ZM7 10.25C6.58579 10.25 6.25 10.5858 6.25 11C6.25 11.4142 6.58579 11.75 7 11.75H17C17.4142 11.75 17.75 11.4142 17.75 11C17.75 10.5858 17.4142 10.25 17 10.25H7Z" fill="#6C89A9"/>
</svg>
