<svg width="24" height="24" viewBox="0 0 24 24" fill="none" xmlns="http://www.w3.org/2000/svg">
<path fill-rule="evenodd" clip-rule="evenodd" d="M14.7 15.5C15.1 15.2 15.3 14.8 15.2 14.3L14.9 12.7L16 11.6C16.3 11.3 16.5 10.8 16.3 10.4C16.1 9.99999 15.8 9.59999 15.3 9.59999L13.7 9.39999L13 7.99999C12.8 7.59999 12.4 7.29999 11.9 7.29999C11.4 7.29999 11 7.59999 10.8 7.99999L10.1 9.39999L8.6 9.59999C8.1 9.69999 7.8 9.99999 7.6 10.4C7.5 10.8 7.6 11.3 7.9 11.6L9 12.7L8.7 14.3C8.6 14.8 8.8 15.2 9.2 15.5C9.4 15.7 9.7 15.7 9.9 15.7C10.1 15.7 10.3 15.7 10.5 15.6L11.9 14.9L13.3 15.6C13.8 15.8 14.3 15.8 14.7 15.5ZM12.4 13.4C12.3 13.4 12.3 13.4 12.4 13.4C12.1 13.3 11.9 13.3 11.6 13.4L10.4 14L10.6 12.6C10.6 12.4 10.6 12.1 10.4 11.9L9.4 10.9L10.8 10.7C11 10.7 11.3 10.5 11.4 10.3L12 9.09999L12.6 10.4C12.7 10.6 12.9 10.8 13.2 10.8L14.6 11L13.6 12C13.4 12.2 13.3 12.4 13.4 12.7L13.6 14.1L12.4 13.4Z" fill="#6C89A9"/>
<path fill-rule="evenodd" clip-rule="evenodd" d="M9 17.7C7 17.8 5.7 19.2 5.5 21C5.5 21.4 5.6 21.9 5.9 22.2C6.2 22.5 6.6 22.6 7 22.6H7.1C9 22.5 10.3 21.1 10.5 19.3C10.5 18.9 10.4 18.4 10.1 18.1C9.8 17.9 9.4 17.7 9 17.7ZM7.1 21.2C7.2 20.1 7.9 19.3 9.1 19.2C9 20.3 8.2 21.1 7.1 21.2Z" fill="#6C89A9"/>
<path fill-rule="evenodd" clip-rule="evenodd" d="M6.6 15.8C6.6 15.4 6.4 15 6.1 14.7C5.4 14.1 4.6 13.8 3.7 13.8C2.8 13.8 2 14.1 1.3 14.7C1 15 0.8 15.4 0.8 15.9C0.8 16.3 1 16.7 1.3 17C2 17.6 2.8 17.9 3.7 17.9C4.6 17.9 5.4 17.6 6.1 17C6.4 16.7 6.6 16.3 6.6 15.8ZM3.7 16.4C3.2 16.4 2.7 16.2 2.3 15.9C2.7 15.5 3.2 15.3 3.7 15.3C4.2 15.3 4.7 15.5 5.1 15.8C4.7 16.2 4.2 16.4 3.7 16.4Z" fill="#6C89A9"/>
<path fill-rule="evenodd" clip-rule="evenodd" d="M3.9 12H4C4.4 12 4.8 11.8 5 11.6C5.3 11.3 5.5 10.9 5.5 10.4C5.4 8.49999 4 7.09999 2.1 6.99999H2C1.6 6.99999 1.2 7.09999 1 7.39999C0.7 7.69999 0.5 8.09999 0.5 8.59999C0.6 10.5 2 11.8 3.9 12ZM4 10.5C2.9 10.4 2.1 9.59999 2 8.49999C3.1 8.59999 3.9 9.39999 4 10.5Z" fill="#6C89A9"/>
<path fill-rule="evenodd" clip-rule="evenodd" d="M6.3 7.19999C6.7 7.19999 7.1 6.99999 7.4 6.69999C8.7 5.19999 8.7 3.29999 7.4 1.79999C7.2 1.49999 6.7 1.29999 6.3 1.29999C5.9 1.29999 5.5 1.49999 5.2 1.79999C3.9 3.29999 3.9 5.19999 5.2 6.69999C5.4 6.99999 5.9 7.19999 6.3 7.19999ZM6.3 2.79999C7.1 3.69999 7.1 4.79999 6.3 5.69999C5.5 4.79999 5.5 3.69999 6.3 2.79999Z" fill="#6C89A9"/>
<path fill-rule="evenodd" clip-rule="evenodd" d="M15 17.7C14.5 17.7 14.1 17.9 13.8 18.1C13.5 18.4 13.3 18.8 13.4 19.3C13.5 21.2 14.9 22.5 16.8 22.6H16.9C17.3 22.6 17.7 22.4 18 22.2C18.3 21.9 18.5 21.5 18.4 21C18.3 19.2 16.9 17.8 15 17.7ZM15 19.2C16.1 19.3 16.9 20 17 21.2C15.8 21.1 15 20.3 15 19.2Z" fill="#6C89A9"/>
<path fill-rule="evenodd" clip-rule="evenodd" d="M20.3 13.8C19.4 13.8 18.6 14.1 17.9 14.7C17.6 15 17.4 15.4 17.4 15.8C17.4 16.2 17.6 16.6 17.9 16.9C18.6 17.5 19.4 17.8 20.3 17.8C21.2 17.8 22 17.5 22.7 16.9C23 16.6 23.2 16.2 23.2 15.8C23.2 15.4 23 15 22.7 14.7C22 14.1 21.2 13.8 20.3 13.8ZM20.3 16.4C19.8 16.4 19.3 16.2 18.9 15.8C19.3 15.4 19.8 15.3 20.3 15.3C20.8 15.3 21.3 15.5 21.7 15.9C21.3 16.2 20.8 16.4 20.3 16.4Z" fill="#6C89A9"/>
<path fill-rule="evenodd" clip-rule="evenodd" d="M18.5 10.4C18.5 10.8 18.6 11.3 19 11.6C19.3 11.9 19.7 12 20 12H20.1C22 11.8 23.3 10.5 23.4 8.59999C23.4 8.19999 23.3 7.69999 22.9 7.39999C22.8 7.09999 22.4 6.99999 22 6.99999H21.9C20 7.09999 18.6 8.49999 18.5 10.4ZM22 8.49999C21.9 9.59999 21.2 10.4 20 10.5C20.1 9.39999 20.9 8.59999 22 8.49999Z" fill="#6C89A9"/>
<path fill-rule="evenodd" clip-rule="evenodd" d="M17.7 7.19999C18.1 7.19999 18.5 6.99999 18.8 6.69999C20.1 5.19999 20.1 3.29999 18.8 1.79999C18.5 1.49999 18.1 1.29999 17.7 1.29999C17.3 1.29999 16.9 1.49999 16.6 1.79999C15.3 3.29999 15.3 5.19999 16.6 6.69999C16.9 6.99999 17.3 7.19999 17.7 7.19999ZM17.7 2.79999C18.5 3.69999 18.5 4.79999 17.7 5.69999C16.9 4.79999 16.9 3.69999 17.7 2.79999Z" fill="#6C89A9"/>
</svg>
