<svg width="24" height="24" viewBox="0 0 24 24" fill="none" xmlns="http://www.w3.org/2000/svg">
<path fill-rule="evenodd" clip-rule="evenodd" d="M16 2.25C16.4142 2.25 16.75 2.58579 16.75 3V10.74C16.75 11.1542 16.4142 11.49 16 11.49C15.5858 11.49 15.25 11.1542 15.25 10.74V3C15.25 2.58579 15.5858 2.25 16 2.25Z" fill="#6C89A9"/>
<path fill-rule="evenodd" clip-rule="evenodd" d="M8 2.25C8.41421 2.25 8.75 2.58579 8.75 3V10.74C8.75 11.1542 8.41421 11.49 8 11.49C7.58579 11.49 7.25 11.1542 7.25 10.74V3C7.25 2.58579 7.58579 2.25 8 2.25Z" fill="#6C89A9"/>
<path fill-rule="evenodd" clip-rule="evenodd" d="M13.3876 9.11322L14.7172 11.8085L17.6897 12.2408C18.961 12.4254 19.4657 13.9871 18.5475 14.8821L16.3959 16.9779L16.9042 19.938C17.1212 21.2018 15.7952 22.1686 14.6581 21.5709L11.9995 20.1735L9.34005 21.5714C8.20499 22.166 6.87747 21.2036 7.09482 19.9381L7.60305 16.9779L5.45167 14.8822C4.53343 13.9872 5.0377 12.4254 6.30908 12.2408L9.28171 11.8086L10.6103 9.11339C11.1783 7.96177 12.8196 7.9616 13.3876 9.11322ZM11.9995 18.5758C11.8678 18.5759 11.7383 18.6107 11.6246 18.676L8.64395 20.2426C8.63478 20.2474 8.62871 20.249 8.62607 20.2495C8.62322 20.2501 8.62081 20.2502 8.61828 20.2499C8.61264 20.2494 8.60288 20.2467 8.59224 20.239C8.5816 20.2312 8.57616 20.2229 8.57403 20.2179C8.57308 20.2157 8.57246 20.2136 8.57213 20.2108C8.57182 20.2082 8.5714 20.2023 8.57317 20.192L9.14818 16.8429C9.18998 16.5995 9.10925 16.3511 8.93233 16.1788L6.49849 13.8079C6.49094 13.8006 6.48774 13.7955 6.48644 13.7931C6.48504 13.7906 6.48422 13.7884 6.48367 13.7859C6.48243 13.7804 6.48196 13.7703 6.48602 13.7578C6.49008 13.7453 6.49634 13.7376 6.50035 13.734C6.50214 13.7324 6.50401 13.7312 6.50649 13.73C6.50881 13.729 6.51429 13.7267 6.52465 13.7252L9.88792 13.2362C10.1323 13.2007 10.3435 13.0471 10.4527 12.8256L11.9556 9.77678C11.9603 9.76737 11.9642 9.76258 11.9661 9.76062C11.968 9.75852 11.9699 9.75707 11.972 9.75582C11.9767 9.75303 11.986 9.7495 11.999 9.7495C12.012 9.7495 12.0213 9.75303 12.026 9.75582C12.0281 9.75707 12.03 9.75852 12.0319 9.76062C12.0338 9.76259 12.0377 9.76725 12.0424 9.77678L13.5464 12.8258C13.6556 13.0472 13.8668 13.2007 14.1111 13.2362L17.4741 13.7252C17.4844 13.7267 17.4902 13.729 17.4925 13.73C17.495 13.7312 17.4969 13.7324 17.4986 13.734C17.5027 13.7376 17.5089 13.7453 17.513 13.7578C17.517 13.7703 17.5166 13.7804 17.5153 13.7859C17.5148 13.7884 17.514 13.7906 17.5126 13.7931C17.5113 13.7955 17.5081 13.8006 17.5005 13.8079L15.0667 16.1788C14.8898 16.3511 14.809 16.5995 14.8508 16.8429L15.4258 20.1919C15.4276 20.2022 15.4272 20.2083 15.4269 20.2109L15.426 20.2151L15.4249 20.2182C15.4227 20.2233 15.4172 20.2318 15.4065 20.2395C15.3959 20.2472 15.3863 20.2498 15.381 20.2503C15.3786 20.2506 15.3763 20.2505 15.3736 20.2499C15.371 20.2494 15.3652 20.248 15.3559 20.2431L12.3744 18.676C12.2955 18.6307 12.209 18.6 12.1194 18.5855C12.0795 18.579 12.0394 18.5758 11.9995 18.5758Z" fill="#6C89A9"/>
<path fill-rule="evenodd" clip-rule="evenodd" d="M7 3.75C6.30921 3.75 5.75 4.30921 5.75 5V7.861C5.75 8.30916 5.99012 8.72297 6.37801 8.94533L10.435 11.2714C10.7944 11.4774 10.9187 11.9357 10.7126 12.295C10.5066 12.6544 10.0483 12.7787 9.68896 12.5726L5.63199 10.2467C4.7779 9.75702 4.25 8.84683 4.25 7.861V5C4.25 3.48079 5.48079 2.25 7 2.25H17C18.5192 2.25 19.75 3.48079 19.75 5V7.861C19.75 8.84626 19.2236 9.75698 18.3676 10.2469L14.311 12.5726C13.9517 12.7787 13.4934 12.6544 13.2874 12.295C13.0813 11.9357 13.2056 11.4774 13.565 11.2714L17.622 8.94535C18.0099 8.7233 18.25 8.30974 18.25 7.861V5C18.25 4.30921 17.6908 3.75 17 3.75H7Z" fill="#6C89A9"/>
</svg>
