<svg width="24" height="24" viewBox="0 0 24 24" fill="none" xmlns="http://www.w3.org/2000/svg">
<path fill-rule="evenodd" clip-rule="evenodd" d="M5.49731 7.24832C5.0831 7.24832 4.74731 7.58411 4.74731 7.99832C4.74731 8.41254 5.0831 8.74832 5.49731 8.74832H18.5024C18.9166 8.74832 19.2524 8.41254 19.2524 7.99832C19.2524 7.58411 18.9166 7.24832 18.5024 7.24832H5.49731ZM4.7478 12C4.7478 11.5858 5.08359 11.25 5.4978 11.25H18.5029C18.9171 11.25 19.2529 11.5858 19.2529 12C19.2529 12.4142 18.9171 12.75 18.5029 12.75H5.4978C5.08359 12.75 4.7478 12.4142 4.7478 12ZM4.7478 16.0016C4.7478 15.5874 5.08359 15.2516 5.4978 15.2516H18.5029C18.9171 15.2516 19.2529 15.5874 19.2529 16.0016C19.2529 16.4159 18.9171 16.7516 18.5029 16.7516H5.4978C5.08359 16.7516 4.7478 16.4159 4.7478 16.0016Z" fill="#6C89A9"/>
</svg>
