<svg width="24" height="24" viewBox="0 0 24 24" fill="none" xmlns="http://www.w3.org/2000/svg">
<path fill-rule="evenodd" clip-rule="evenodd" d="M16.3449 8.49188C16.6378 8.19898 16.6378 7.72411 16.3449 7.43122C16.052 7.13832 15.5771 7.13832 15.2843 7.43122L11.6169 11.0986C11.324 11.3915 11.324 11.8664 11.6169 12.1592C11.9098 12.4521 12.3847 12.4521 12.6775 12.1592L16.3449 8.49188ZM20.5043 7.43122C20.7972 7.72411 20.7972 8.19898 20.5043 8.49188L12.6806 16.3156C12.5399 16.4562 12.3492 16.5353 12.1503 16.5353C11.9514 16.5353 11.7606 16.4562 11.6199 16.3156L5.91449 10.6101C5.6216 10.3173 5.6216 9.84238 5.91449 9.54949C6.20739 9.2566 6.68226 9.2566 6.97515 9.54949L12.1503 14.7246L19.4437 7.43122C19.7366 7.13832 20.2114 7.13832 20.5043 7.43122ZM3.49555 11.5963C3.78844 11.3034 4.26332 11.3034 4.55621 11.5963L8.46807 15.5081C8.76096 15.801 8.76096 16.2759 8.46807 16.5688C8.17518 16.8617 7.7003 16.8617 7.40741 16.5688L3.49555 12.6569C3.20266 12.3641 3.20266 11.8892 3.49555 11.5963Z" fill="#6C89A9"/>
</svg>
