<svg width="24" height="24" viewBox="0 0 24 24" fill="none" xmlns="http://www.w3.org/2000/svg">
<path fill-rule="evenodd" clip-rule="evenodd" d="M9 2.25C7.54889 2.25 6.20059 2.48418 5.18714 2.88967C4.68248 3.09159 4.22382 3.3507 3.87889 3.6766C3.53248 4.00389 3.25099 4.45031 3.25 4.99864V5V17.0007C3.2505 17.5493 3.53164 17.996 3.87814 18.3236C4.22305 18.6498 4.68179 18.9089 5.18647 19.1107C6.19998 19.5161 7.54854 19.75 9 19.75C10.1334 19.75 11.1973 19.6058 12.0902 19.3509C12.2878 19.6559 12.5203 19.945 12.7877 20.2123C14.8376 22.2622 18.1624 22.2622 20.2123 20.2123C22.2622 18.1624 22.2622 14.8376 20.2123 12.7877C18.7355 11.3108 16.5968 10.898 14.75 11.5491V9.05593C14.7506 9.0374 14.751 9.01876 14.751 9C14.751 8.98705 14.7506 8.97418 14.75 8.96139V5C14.75 4.98867 14.7497 4.97741 14.7493 4.9662L14.7481 4.94678C14.7309 4.42217 14.4569 3.99343 14.1218 3.67646C13.777 3.35024 13.3181 3.09109 12.8134 2.88925C11.7998 2.48389 10.451 2.25 9 2.25ZM13.1489 18.1852C13.1478 18.1822 13.1467 18.1791 13.1455 18.1761C13.1294 18.1339 13.1098 18.0939 13.0872 18.0564C12.457 16.6735 12.7107 14.9859 13.8483 13.8483C14.0125 13.6841 14.1882 13.5384 14.3727 13.411C14.4029 13.3937 14.4317 13.3743 14.459 13.3532C15.9123 12.4088 17.8772 12.5738 19.1517 13.8483C20.6158 15.3124 20.6158 17.6876 19.1517 19.1517C17.6876 20.6158 15.3124 20.6158 13.8483 19.1517C13.5574 18.8607 13.3242 18.5338 13.1489 18.1852ZM11.4584 17.9675C10.7627 18.1428 9.92166 18.25 9 18.25C7.69046 18.25 6.53952 18.0364 5.74353 17.718C5.34346 17.558 5.06995 17.3862 4.90867 17.2337C4.75219 17.0857 4.75003 17.0065 4.75 16.9996V14.915C4.89025 14.9855 5.03636 15.0507 5.18654 15.1107C6.19995 15.5161 7.54852 15.75 8.99998 15.75C9.82826 15.75 10.6223 15.6735 11.3396 15.5327C11.1891 16.3398 11.2287 17.1755 11.4584 17.9675ZM4.75 12.9614C4.75065 12.9742 4.75098 12.9871 4.75098 13L4.75098 13.0001C4.75097 13.0048 4.75082 13.084 4.90922 13.2338C5.07032 13.3862 5.34366 13.558 5.74366 13.718C6.5395 14.0364 7.69043 14.25 8.99998 14.25C10.1679 14.25 11.2097 14.0793 11.9864 13.8162C12.2049 13.4493 12.472 13.1034 12.7877 12.7877C12.9355 12.6399 13.0899 12.5027 13.25 12.3762V10.916C13.1103 10.9861 12.9648 11.0509 12.8153 11.1107C11.8017 11.5161 10.4529 11.75 9.00098 11.75C7.54905 11.75 6.20024 11.5161 5.1867 11.1107C5.03646 11.0506 4.8903 10.9855 4.75 10.915V12.9614ZM4.75 8.96139C4.75065 8.97418 4.75098 8.98705 4.75098 9L4.75098 9.00008C4.75097 9.00478 4.75081 9.08398 4.90922 9.23382C5.07032 9.38622 5.34369 9.558 5.74375 9.71801C6.53972 10.0364 7.6909 10.25 9.00098 10.25C10.3111 10.25 11.4622 10.0364 12.2582 9.71801C12.6583 9.558 12.9316 9.38622 13.0927 9.23382C13.2219 9.11162 13.2456 9.0364 13.25 9.01027V6.91547C13.11 6.98579 12.9642 7.05079 12.8143 7.11074C11.8007 7.51613 10.4519 7.75 9 7.75C7.54807 7.75 6.19926 7.51613 5.18572 7.11074C5.03584 7.05079 4.89 6.98579 4.75 6.91547V8.96139ZM13.249 4.99932L13.2491 5.01002C13.2448 5.03592 13.2214 5.11123 13.0918 5.23382C12.9307 5.38621 12.6573 5.558 12.2572 5.71801C11.4613 6.03637 10.3101 6.25 9 6.25C7.68993 6.25 6.53874 6.03637 5.74278 5.71801C5.34272 5.558 5.06934 5.38621 4.90825 5.23382C4.7545 5.08839 4.75012 5.00951 4.75 5.00069C4.75013 4.99202 4.75462 4.91281 4.90905 4.7669C5.07056 4.6143 5.34427 4.44241 5.74436 4.28233C6.54041 3.96382 7.69111 3.75 9 3.75C10.309 3.75 11.4602 3.96361 12.2564 4.282C12.6565 4.44203 12.93 4.61382 13.0911 4.76619C13.2493 4.91588 13.249 4.99481 13.249 4.99923V4.99932Z" fill="#6C89A9"/>
</svg>
