<svg width="24" height="24" viewBox="0 0 24 24" fill="none" xmlns="http://www.w3.org/2000/svg">
<path fill-rule="evenodd" clip-rule="evenodd" d="M3.74634 5.76097C3.74634 5.07015 4.30635 4.51013 4.99717 4.51013H19.003C19.6938 4.51013 20.2538 5.07015 20.2538 5.76097V11.7635C20.2538 12.4543 19.6938 13.0143 19.003 13.0143H17.7527V8.76221C17.7527 8.34799 17.4169 8.01221 17.0027 8.01221H12.0001H11.9375H6.99805C6.58383 8.01221 6.24805 8.34799 6.24805 8.76221V13.0143H4.99717C4.30635 13.0143 3.74634 12.4543 3.74634 11.7635V5.76097ZM6.24805 14.5143H4.99717C3.47793 14.5143 2.24634 13.2827 2.24634 11.7635V5.76097C2.24634 4.24172 3.47793 3.01013 4.99717 3.01013H19.003C20.5222 3.01013 21.7538 4.24172 21.7538 5.76097V11.7635C21.7538 13.2827 20.5222 14.5143 19.003 14.5143H17.7527V19.2937C17.7529 19.8835 17.5187 20.4491 17.1016 20.8662C16.6846 21.2832 16.1186 21.5174 15.5289 21.5172H12.0001H11.9375H8.47186C7.88211 21.5174 7.31612 21.2832 6.8991 20.8662C6.48208 20.4491 6.24787 19.8835 6.24805 19.2937V14.5143ZM16.2527 13.7363C16.2523 13.7456 16.2522 13.7549 16.2522 13.7643C16.2522 13.7695 16.2522 13.7746 16.2523 13.7797C16.2524 13.7839 16.2525 13.7881 16.2527 13.7923V19.2937C16.2528 19.4855 16.1766 19.6699 16.041 19.8055C15.9053 19.9411 15.7214 20.0173 15.5295 20.0172H12.0001H11.9375H8.4712C8.27938 20.0173 8.0954 19.9411 7.95976 19.8055C7.82412 19.6699 7.74796 19.4855 7.74805 19.2937V9.51221H11.9375H12.0001H16.2527V13.7363ZM9.74951 17.8164C9.74951 17.4022 10.0853 17.0664 10.4995 17.0664H13.5008C13.915 17.0664 14.2508 17.4022 14.2508 17.8164C14.2508 18.2306 13.915 18.5664 13.5008 18.5664H10.4995C10.0853 18.5664 9.74951 18.2306 9.74951 17.8164ZM11.2505 13.3145C11.2505 12.9003 11.5863 12.5645 12.0005 12.5645C12.4147 12.5645 12.7505 12.9003 12.7505 13.3145C12.7505 13.7287 12.4147 14.0645 12.0005 14.0645C11.5863 14.0645 11.2505 13.7287 11.2505 13.3145ZM12.0005 11.0645C10.7578 11.0645 9.75049 12.0719 9.75049 13.3145C9.75049 14.5572 10.7578 15.5645 12.0005 15.5645C13.2431 15.5645 14.2505 14.5572 14.2505 13.3145C14.2505 12.0719 13.2431 11.0645 12.0005 11.0645Z" fill="#6C89A9"/>
</svg>
