<svg width="24" height="24" viewBox="0 0 24 24" fill="none" xmlns="http://www.w3.org/2000/svg">
<path fill-rule="evenodd" clip-rule="evenodd" d="M7.06554 3.53759C8.51193 2.68015 10.1959 2.17822 11.9999 2.17822C13.8039 2.17822 15.4879 2.68015 16.9342 3.53759C17.2906 3.74881 17.4082 4.20889 17.1969 4.5652C16.9857 4.92151 16.5256 5.03913 16.1693 4.8279C14.9426 4.10068 13.5213 3.67822 11.9999 3.67822C10.4785 3.67822 9.05718 4.10068 7.83046 4.8279C7.47415 5.03913 7.01407 4.92151 6.80284 4.5652C6.59162 4.20889 6.70923 3.74881 7.06554 3.53759ZM5.63138 5.55075C5.94773 5.81814 5.98742 6.29135 5.72003 6.6077C4.49114 8.06162 3.74634 9.94155 3.74634 12.001C3.74634 12.5082 3.79895 13.0084 3.88848 13.5045C3.96204 13.9121 3.69122 14.3022 3.28359 14.3758C2.87596 14.4493 2.48588 14.1785 2.41232 13.7709C2.30977 13.2026 2.24634 12.6122 2.24634 12.001C2.24634 9.57258 3.12621 7.3528 4.57443 5.6394C4.84182 5.32305 5.31503 5.28336 5.63138 5.55075ZM3.80671 15.827C4.1673 15.6231 4.62486 15.7502 4.82869 16.1108C6.03349 18.2421 8.14192 19.7769 10.6246 20.1972C11.033 20.2664 11.308 20.6535 11.2389 21.0619C11.1697 21.4703 10.7826 21.7453 10.3742 21.6762C7.43265 21.1782 4.94317 19.3615 3.52287 16.8489C3.31904 16.4883 3.44612 16.0308 3.80671 15.827ZM20.4773 16.8489C20.6811 16.4883 20.554 16.0308 20.1934 15.827C19.8328 15.6231 19.3753 15.7502 19.1715 16.1108C17.9667 18.2421 15.8582 19.7769 13.3755 20.1972C12.9671 20.2664 12.6921 20.6535 12.7613 21.0619C12.8304 21.4703 13.2175 21.7453 13.6259 21.6762C16.5675 21.1782 19.057 19.3615 20.4773 16.8489ZM19.4256 5.6394C19.1582 5.32305 18.685 5.28336 18.3686 5.55075C18.0523 5.81814 18.0126 6.29135 18.28 6.6077C19.5089 8.06162 20.2537 9.94155 20.2537 12.001C20.2537 12.5082 20.2011 13.0084 20.1115 13.5045C20.038 13.9121 20.3088 14.3022 20.7164 14.3758C21.1241 14.4493 21.5141 14.1785 21.5877 13.7709C21.6902 13.2026 21.7537 12.6122 21.7537 12.001C21.7537 9.57258 20.8738 7.3528 19.4256 5.6394ZM11.3938 13.4959C10.9911 13.094 10.3404 13.0946 9.93923 13.4957C9.53783 13.8971 9.53783 14.5487 9.93923 14.9501C10.3406 15.3515 10.9922 15.3515 11.3936 14.9501C11.5886 14.7551 11.6889 14.5011 11.6944 14.2454C11.6942 14.2379 11.6941 14.2304 11.6941 14.2229V14.1885C11.6857 13.9369 11.5856 13.6879 11.3938 13.4959ZM11.6941 11.9123C10.7657 11.4997 9.63998 11.6737 8.87857 12.4351C7.89139 13.4223 7.89139 15.0236 8.87857 16.0108C9.86575 16.998 11.4671 16.998 12.4543 16.0108C12.9616 15.5035 13.2082 14.8339 13.1941 14.1689V9.03891L14.875 9.59922C15.268 9.73021 15.6927 9.51784 15.8237 9.12488C15.9547 8.73192 15.7423 8.30718 15.3494 8.17619L12.6813 7.28682C12.4526 7.21059 12.2011 7.24894 12.0056 7.3899C11.81 7.53087 11.6941 7.75725 11.6941 7.99834V11.9123Z" fill="#6C89A9"/>
</svg>
