<svg width="24" height="24" viewBox="0 0 24 24" fill="none" xmlns="http://www.w3.org/2000/svg">
<path fill-rule="evenodd" clip-rule="evenodd" d="M18 3.5H6C4.61929 3.5 3.5 4.61929 3.5 6V18C3.5 19.3807 4.61929 20.5 6 20.5H18C19.3807 20.5 20.5 19.3807 20.5 18V6C20.5 4.61929 19.3807 3.5 18 3.5ZM6 2C3.79086 2 2 3.79086 2 6V18C2 20.2091 3.79086 22 6 22H18C20.2091 22 22 20.2091 22 18V6C22 3.79086 20.2091 2 18 2H6Z" fill="#6C89A9"/>
<path fill-rule="evenodd" clip-rule="evenodd" d="M7.18652 7.06123C7.15054 7.03253 7.09864 7.03582 7.06658 7.06885C7.03462 7.10179 7.03277 7.15358 7.06232 7.1887L15.4507 17.1609C15.4982 17.2174 15.5682 17.25 15.642 17.25H16.4868C16.6046 17.25 16.7064 17.1678 16.7312 17.0527L17.1362 15.1752C17.1562 15.0824 17.1219 14.9862 17.0477 14.927L7.18652 7.06123ZM5.99021 6.02414C6.56 5.43709 7.48233 5.37844 8.12188 5.88858L17.983 13.7544C18.5026 14.1688 18.7426 14.8418 18.6024 15.4914L18.1975 17.369C18.0237 18.1747 17.3111 18.75 16.4868 18.75H15.642C15.1255 18.75 14.6353 18.5218 14.3028 18.1265L5.91443 8.15428C5.3893 7.53 5.42204 6.60953 5.99021 6.02414Z" fill="#6C89A9"/>
<path fill-rule="evenodd" clip-rule="evenodd" d="M13.6182 8.30941C12.2434 7.25676 13.0689 5.06035 14.7966 5.17369L15.6106 5.22708C16.0326 5.25476 16.4303 5.43433 16.7301 5.73257L17.272 6.27156C17.5625 6.56047 17.7424 6.94213 17.7804 7.35005L17.8251 7.83001C17.9666 9.34975 16.2306 10.3097 15.0187 9.38174L13.6182 8.30941ZM14.4363 6.98741C14.4458 7.02528 14.4684 7.07118 14.5301 7.11843L15.9306 8.19076C16.1037 8.32332 16.3517 8.1862 16.3315 7.96909L16.2868 7.48913C16.2814 7.43086 16.2557 7.37633 16.2142 7.33506L15.6723 6.79607C15.6295 6.75347 15.5727 6.72781 15.5124 6.72386L14.6985 6.67047C14.6209 6.66538 14.5737 6.68506 14.5416 6.70726C14.5043 6.73302 14.4692 6.77568 14.4481 6.83199C14.4269 6.8883 14.4252 6.94347 14.4363 6.98741ZM5.27085 14.9933C5.29787 13.3922 7.28301 12.6653 8.33755 13.8704L10.0482 15.8253C11.0292 16.9463 10.2503 18.7023 8.76083 18.7275L7.92138 18.7416C7.38108 18.7508 6.86686 18.5098 6.52818 18.0887L5.64231 16.9872C5.38592 16.6685 5.24931 16.27 5.25621 15.8609L5.27085 14.9933ZM7.20874 14.8582C7.05809 14.686 6.7745 14.7899 6.77064 15.0186L6.756 15.8862C6.75501 15.9447 6.77453 16.0016 6.81115 16.0471L7.69703 17.1486C7.74541 17.2087 7.81887 17.2431 7.89606 17.2418L8.7355 17.2277C8.94829 17.2241 9.05956 16.9732 8.91942 16.8131L7.20874 14.8582Z" fill="#6C89A9"/>
</svg>
