<svg width="24" height="24" viewBox="0 0 24 24" fill="none" xmlns="http://www.w3.org/2000/svg">
<path fill-rule="evenodd" clip-rule="evenodd" d="M4 3.25C3.03379 3.25 2.25 4.03379 2.25 5V19C2.25 20.5192 3.48079 21.75 5 21.75H19C20.5192 21.75 21.75 20.5192 21.75 19V13C21.75 12.0338 20.9662 11.25 20 11.25H17.75V5C17.75 4.03379 16.9662 3.25 16 3.25H4ZM16.25 12V5C16.25 4.86221 16.1378 4.75 16 4.75H4C3.86221 4.75 3.75 4.86221 3.75 5V19C3.75 19.6908 4.30921 20.25 5 20.25H16.5497C16.3581 19.875 16.25 19.4502 16.25 19V12ZM19 20.25C19.6908 20.25 20.25 19.6908 20.25 19V13C20.25 12.8622 20.1378 12.75 20 12.75H17.75V19C17.75 19.6908 18.3092 20.25 19 20.25ZM6.25 8C6.25 7.58579 6.58579 7.25 7 7.25H13C13.4142 7.25 13.75 7.58579 13.75 8C13.75 8.41421 13.4142 8.75 13 8.75H7C6.58579 8.75 6.25 8.41421 6.25 8ZM7 11.12C6.58579 11.12 6.25 11.4558 6.25 11.87C6.25 12.2842 6.58579 12.62 7 12.62H13C13.4142 12.62 13.75 12.2842 13.75 11.87C13.75 11.4558 13.4142 11.12 13 11.12H7ZM6.25 16.06C6.25 15.6458 6.58579 15.31 7 15.31H10C10.4142 15.31 10.75 15.6458 10.75 16.06C10.75 16.4742 10.4142 16.81 10 16.81H7C6.58579 16.81 6.25 16.4742 6.25 16.06Z" fill="#6C89A9"/>
</svg>
