<svg width="24" height="24" viewBox="0 0 24 24" fill="none" xmlns="http://www.w3.org/2000/svg">
<path fill-rule="evenodd" clip-rule="evenodd" d="M6.5 5.25C5.53321 5.25 4.75 6.03321 4.75 7C4.75 7.96679 5.53321 8.75 6.5 8.75C7.46679 8.75 8.25 7.96679 8.25 7C8.25 6.03321 7.46679 5.25 6.5 5.25ZM3.25 7C3.25 5.20479 4.70479 3.75 6.5 3.75C8.29521 3.75 9.75 5.20479 9.75 7C9.75 8.79521 8.29521 10.25 6.5 10.25C4.70479 10.25 3.25 8.79521 3.25 7Z" fill="#6C89A9"/>
<path fill-rule="evenodd" clip-rule="evenodd" d="M12.25 4.5C12.25 4.08579 12.5858 3.75 13 3.75H20C20.4142 3.75 20.75 4.08579 20.75 4.5C20.75 4.91421 20.4142 5.25 20 5.25H13C12.5858 5.25 12.25 4.91421 12.25 4.5Z" fill="#6C89A9"/>
<path fill-rule="evenodd" clip-rule="evenodd" d="M12.25 9.5C12.25 9.08579 12.5858 8.75 13 8.75H20C20.4142 8.75 20.75 9.08579 20.75 9.5C20.75 9.91421 20.4142 10.25 20 10.25H13C12.5858 10.25 12.25 9.91421 12.25 9.5Z" fill="#6C89A9"/>
<path fill-rule="evenodd" clip-rule="evenodd" d="M3.25 14.5C3.25 14.0858 3.58579 13.75 4 13.75H20C20.4142 13.75 20.75 14.0858 20.75 14.5C20.75 14.9142 20.4142 15.25 20 15.25H4C3.58579 15.25 3.25 14.9142 3.25 14.5Z" fill="#6C89A9"/>
<path fill-rule="evenodd" clip-rule="evenodd" d="M3.25 19.5C3.25 19.0858 3.58579 18.75 4 18.75H20C20.4142 18.75 20.75 19.0858 20.75 19.5C20.75 19.9142 20.4142 20.25 20 20.25H4C3.58579 20.25 3.25 19.9142 3.25 19.5Z" fill="#6C89A9"/>
</svg>
