<svg width="24" height="24" viewBox="0 0 24 24" fill="none" xmlns="http://www.w3.org/2000/svg">
<path fill-rule="evenodd" clip-rule="evenodd" d="M5.013 4.75C4.32052 4.75 3.75 5.31689 3.75 6.028V18.972C3.75 19.6831 4.32052 20.25 5.013 20.25H18.987C19.6795 20.25 20.25 19.6831 20.25 18.972V13.067C20.25 12.6528 20.5858 12.317 21 12.317C21.4142 12.317 21.75 12.6528 21.75 13.067V18.972C21.75 20.5009 20.5185 21.75 18.987 21.75H5.013C3.48148 21.75 2.25 20.5009 2.25 18.972V6.028C2.25 4.49911 3.48148 3.25 5.013 3.25H12C12.4142 3.25 12.75 3.58579 12.75 4C12.75 4.41421 12.4142 4.75 12 4.75H5.013ZM16.8837 4.05567C17.9576 2.98178 19.6984 2.98178 20.7723 4.05567L20.9443 4.22767C22.0182 5.30156 22.0182 7.04244 20.9443 8.11633L12.5543 16.5063L12.5523 16.5084C12.329 16.7299 12.05 16.8893 11.7409 16.9666C11.7409 16.9666 11.741 16.9666 11.7409 16.9666L8.00995 17.8996C7.75435 17.9635 7.48397 17.8886 7.29767 17.7023C7.11137 17.516 7.03649 17.2456 7.1004 16.9901L8.02018 13.3119C8.0258 13.2825 8.03316 13.2537 8.04216 13.2255C8.12195 12.9312 8.27738 12.662 8.49367 12.4457L15.2992 5.64018C15.2993 5.64001 15.299 5.64035 15.2992 5.64018C15.2993 5.64001 15.3 5.63933 15.3002 5.63916L16.8837 4.05567ZM15.83 7.23066L10.1933 12.8673C11.0917 13.1955 11.8045 13.9086 12.1322 14.8072L17.7693 9.17L15.83 7.23066ZM18.83 8.10934L16.8907 6.17L17.9443 5.11633C18.4324 4.62822 19.2236 4.62822 19.7117 5.11633L19.8837 5.28833C20.3718 5.77644 20.3718 6.56756 19.8837 7.05567L18.83 8.10934ZM10.8077 15.6538L8.85888 16.1411L9.34643 14.1914C10.0986 14.3071 10.6926 14.9014 10.8077 15.6538Z" fill="#6C89A9"/>
</svg>
