<svg width="24" height="24" viewBox="0 0 24 24" fill="none" xmlns="http://www.w3.org/2000/svg">
<path fill-rule="evenodd" clip-rule="evenodd" d="M17.0554 5.48489C13.8186 2.96583 9.13893 3.18979 6.16437 6.16435C4.00528 8.32262 3.29525 11.3796 4.03096 14.1344L4.72671 13.4387C5.0196 13.1458 5.49447 13.1458 5.78737 13.4387C6.08026 13.7316 6.08026 14.2065 5.78737 14.4993L4.24337 16.0433C4.06696 16.2198 3.81438 16.2969 3.56951 16.2492C3.32464 16.2014 3.11954 16.035 3.02232 15.8053C1.52083 12.2567 2.20766 7.99873 5.10371 5.10368M5.10371 5.10368C8.62115 1.58634 14.1515 1.32423 17.9767 4.30114C18.3036 4.55553 18.3623 5.02676 18.1079 5.35364C17.8535 5.68053 17.3823 5.73929 17.0554 5.48489" fill="#6C89A9"/>
<path fill-rule="evenodd" clip-rule="evenodd" d="M20.4306 7.75188C20.6754 7.79962 20.8805 7.966 20.9778 8.19576C22.4793 11.7445 21.7913 16.0023 18.8965 18.8972C15.3797 22.4161 9.85039 22.6755 6.02367 19.7001C5.69667 19.4458 5.6377 18.9747 5.89195 18.6477C6.1462 18.3207 6.6174 18.2617 6.9444 18.5159C10.1837 21.0346 14.8623 20.8119 17.8355 17.8368C19.9939 15.6785 20.7046 12.6214 19.9691 9.86663L19.2734 10.5623C18.9805 10.8552 18.5056 10.8552 18.2127 10.5623C17.9198 10.2695 17.9198 9.79458 18.2127 9.50168L19.7567 7.95768C19.9331 7.78127 20.1857 7.70413 20.4306 7.75188Z" fill="#6C89A9"/>
<path fill-rule="evenodd" clip-rule="evenodd" d="M14.6294 9.36968C14.9223 9.66258 14.9223 10.1375 14.6294 10.4303L10.4294 14.6303C10.1365 14.9232 9.6616 14.9232 9.36871 14.6303C9.07581 14.3375 9.07581 13.8626 9.36871 13.5697L13.5687 9.36968C13.8616 9.07679 14.3365 9.07679 14.6294 9.36968Z" fill="#6C89A9"/>
<path fill-rule="evenodd" clip-rule="evenodd" d="M14.7061 13.294C15.0981 13.686 15.0981 14.318 14.7061 14.706C14.3141 15.098 13.6821 15.098 13.2941 14.706C12.9021 14.314 12.9021 13.682 13.2941 13.294C13.6781 12.902 14.3141 12.902 14.7061 13.294Z" fill="#6C89A9"/>
<path fill-rule="evenodd" clip-rule="evenodd" d="M10.7081 9.29051C11.1001 9.68251 11.1001 10.3185 10.7081 10.7065C10.3161 11.0985 9.6801 11.0985 9.2921 10.7065C8.9001 10.3145 8.9001 9.67851 9.2921 9.29051C9.6841 8.90251 10.3161 8.90251 10.7081 9.29051Z" fill="#6C89A9"/>
</svg>
