<svg width="24" height="24" viewBox="0 0 24 24" fill="none" xmlns="http://www.w3.org/2000/svg">
<path d="M15.7585 22.025C15.4585 22.025 15.2585 22.025 14.9585 21.925C12.0585 21.425 9.05849 19.725 6.65849 17.225C4.25849 14.825 2.55849 11.925 2.05849 9.025C1.85849 7.725 2.15849 6.425 3.15849 5.525L3.85849 4.825C4.95849 3.725 6.65849 3.725 7.75849 4.825L8.75849 6.025C9.65849 6.925 9.65849 8.325 8.65849 9.325L7.85849 10.125C8.45849 11.425 9.25849 12.625 10.3585 13.725C11.4585 14.825 12.6585 15.625 13.9585 16.225L14.8585 15.325C15.6585 14.525 17.1585 14.425 18.0585 15.325L19.2585 16.525C20.3585 17.625 20.3585 19.325 19.2585 20.425L18.5585 21.125C17.8585 21.725 16.8585 22.025 15.7585 22.025ZM5.65849 5.525C5.35849 5.525 5.05849 5.625 4.75849 5.925L4.15849 6.525C3.55849 7.125 3.35849 7.925 3.45849 8.725C3.95849 11.325 5.45849 14.025 7.75849 16.225C10.0585 18.525 12.6585 20.025 15.2585 20.525C16.0585 20.725 16.8585 20.425 17.4585 19.925L18.1585 19.225C18.6585 18.725 18.6585 17.925 18.1585 17.425L16.9585 16.325C16.6585 16.025 16.1585 16.025 15.8585 16.325L14.9585 17.225C14.5585 17.625 13.8585 17.825 13.2585 17.525C11.7585 16.925 10.4585 15.925 9.25849 14.725C8.05849 13.525 7.05849 12.125 6.45849 10.725C6.25849 10.125 6.35849 9.425 6.85849 9.025L7.65849 8.225C8.05849 7.825 8.05849 7.325 7.75849 7.025L6.55849 5.925C6.35849 5.625 5.95849 5.525 5.65849 5.525Z" fill="#6C89A9"/>
</svg>
