<svg width="24" height="24" viewBox="0 0 24 24" fill="none" xmlns="http://www.w3.org/2000/svg">
<path fill-rule="evenodd" clip-rule="evenodd" d="M5.75 10C5.75 6.54821 8.54821 3.75 12 3.75C15.4518 3.75 18.25 6.54821 18.25 10C18.25 12.3384 16.6629 14.908 14.9245 16.9878C14.0731 18.0064 13.2196 18.8678 12.5782 19.4748C12.3566 19.6846 12.1608 19.8634 12 20.0073C11.8392 19.8634 11.6434 19.6846 11.4218 19.4748C10.7804 18.8678 9.92687 18.0064 9.07546 16.9878C7.33713 14.908 5.75 12.3384 5.75 10ZM11.5236 21.5793C11.5238 21.5794 11.5239 21.5795 12 21L12.4761 21.5795C12.1994 21.8068 11.8003 21.8065 11.5236 21.5793ZM11.5236 21.5793L12 21C12.4761 21.5795 12.4767 21.579 12.4769 21.5789L12.4783 21.5777L12.4832 21.5737L12.5003 21.5595C12.5149 21.5472 12.536 21.5296 12.5632 21.5066C12.6174 21.4607 12.6957 21.3937 12.7947 21.3071C12.9925 21.134 13.2733 20.8823 13.6093 20.5643C14.2804 19.9291 15.1769 19.0248 16.0755 17.9497C17.8371 15.842 19.75 12.9116 19.75 10C19.75 5.71979 16.2802 2.25 12 2.25C7.71979 2.25 4.25 5.71979 4.25 10C4.25 12.9116 6.16287 15.842 7.92454 17.9497C8.82313 19.0248 9.71961 19.9291 10.3907 20.5643C10.7267 20.8823 11.0075 21.134 11.2053 21.3071C11.3043 21.3937 11.3826 21.4607 11.4368 21.5066C11.464 21.5296 11.4851 21.5472 11.4997 21.5595L11.5168 21.5737L11.5217 21.5777L11.5236 21.5793ZM9.75 10C9.75 8.75721 10.7572 7.75 12 7.75C13.2428 7.75 14.25 8.75721 14.25 10C14.25 11.2428 13.2428 12.25 12 12.25C10.7572 12.25 9.75 11.2428 9.75 10ZM12 6.25C9.92879 6.25 8.25 7.92879 8.25 10C8.25 12.0712 9.92879 13.75 12 13.75C14.0712 13.75 15.75 12.0712 15.75 10C15.75 7.92879 14.0712 6.25 12 6.25Z" fill="#6C89A9"/>
</svg>
