<svg width="24" height="24" viewBox="0 0 24 24" fill="none" xmlns="http://www.w3.org/2000/svg">
<path fill-rule="evenodd" clip-rule="evenodd" d="M12.0001 3.74625C7.44167 3.74625 3.74634 7.44158 3.74634 12C3.74634 16.5584 7.44167 20.2537 12.0001 20.2537C16.5585 20.2537 20.2538 16.5584 20.2538 12C20.2538 7.44158 16.5585 3.74625 12.0001 3.74625ZM2.24634 12C2.24634 6.61315 6.61324 2.24625 12.0001 2.24625C17.3869 2.24625 21.7538 6.61315 21.7538 12C21.7538 17.3868 17.3869 21.7537 12.0001 21.7537C6.61324 21.7537 2.24634 17.3868 2.24634 12ZM11.9757 7.24767C13.6325 7.17535 15.0462 8.44337 15.1496 10.103C15.1506 10.1185 15.151 10.134 15.151 10.1496C15.151 11.1798 14.5925 12.1291 13.6918 12.6294L13.6918 12.6294L12.3643 13.367C12.0022 13.5681 11.5456 13.4377 11.3444 13.0756C11.1433 12.7135 11.2737 12.2569 11.6358 12.0557L12.9634 11.3182L12.9634 11.3182C13.3811 11.0861 13.6427 10.6492 13.6508 10.1726C13.5861 9.33534 12.8637 8.70059 12.0223 8.74717C11.9982 8.74851 11.974 8.74867 11.9498 8.74767C11.1835 8.71586 10.503 9.23387 10.3296 9.981C10.236 10.3845 9.83302 10.6357 9.42953 10.5421C9.02603 10.4485 8.77483 10.0455 8.86845 9.64197C9.20206 8.20413 10.5037 7.20363 11.9757 7.24767ZM12.6013 15.3005C12.4416 15.1409 12.2249 15.0513 11.9991 15.0516C11.5299 15.0522 11.1499 15.4328 11.1501 15.902C11.1503 16.3712 11.5306 16.7515 11.9998 16.7517C12.469 16.7519 12.8496 16.3719 12.8502 15.9027C12.8505 15.6769 12.7609 15.4602 12.6013 15.3005Z" fill="#6C89A9"/>
</svg>
