<svg width="24" height="24" viewBox="0 0 24 24" fill="none" xmlns="http://www.w3.org/2000/svg">
<path fill-rule="evenodd" clip-rule="evenodd" d="M2.58301 20.125C2.58301 19.7108 2.91879 19.375 3.33301 19.375H20.667C21.0812 19.375 21.417 19.7108 21.417 20.125C21.417 20.5392 21.0812 20.875 20.667 20.875H3.33301C2.91879 20.875 2.58301 20.5392 2.58301 20.125Z" fill="#6C89A9"/>
<path fill-rule="evenodd" clip-rule="evenodd" d="M2.58301 14.708C2.58301 14.2938 2.91879 13.958 3.33301 13.958H20.667C21.0812 13.958 21.417 14.2938 21.417 14.708C21.417 15.1222 21.0812 15.458 20.667 15.458H3.33301C2.91879 15.458 2.58301 15.1222 2.58301 14.708Z" fill="#6C89A9"/>
<path fill-rule="evenodd" clip-rule="evenodd" d="M15.584 9.292C15.584 8.87779 15.9198 8.542 16.334 8.542H20.667C21.0812 8.542 21.417 8.87779 21.417 9.292C21.417 9.70621 21.0812 10.042 20.667 10.042H16.334C15.9198 10.042 15.584 9.70621 15.584 9.292Z" fill="#6C89A9"/>
<path fill-rule="evenodd" clip-rule="evenodd" d="M6.53033 2.96967C6.82322 3.26256 6.82322 3.73744 6.53033 4.03033L4.06066 6.5L6.53033 8.96967C6.82322 9.26256 6.82322 9.73744 6.53033 10.0303C6.23744 10.3232 5.76256 10.3232 5.46967 10.0303L2.46967 7.03033C2.17678 6.73744 2.17678 6.26256 2.46967 5.96967L5.46967 2.96967C5.76256 2.67678 6.23744 2.67678 6.53033 2.96967Z" fill="#6C89A9"/>
<path fill-rule="evenodd" clip-rule="evenodd" d="M11.5303 2.96967C11.8232 3.26256 11.8232 3.73744 11.5303 4.03033L9.06066 6.5L11.5303 8.96967C11.8232 9.26256 11.8232 9.73744 11.5303 10.0303C11.2374 10.3232 10.7626 10.3232 10.4697 10.0303L7.46967 7.03033C7.17678 6.73744 7.17678 6.26256 7.46967 5.96967L10.4697 2.96967C10.7626 2.67678 11.2374 2.67678 11.5303 2.96967Z" fill="#6C89A9"/>
<path fill-rule="evenodd" clip-rule="evenodd" d="M15.584 3.875C15.584 3.46079 15.9198 3.125 16.334 3.125H20.667C21.0812 3.125 21.417 3.46079 21.417 3.875C21.417 4.28921 21.0812 4.625 20.667 4.625H16.334C15.9198 4.625 15.584 4.28921 15.584 3.875Z" fill="#6C89A9"/>
</svg>
