<svg width="24" height="24" viewBox="0 0 24 24" fill="none" xmlns="http://www.w3.org/2000/svg">
<path fill-rule="evenodd" clip-rule="evenodd" d="M12.95 1.49244L21.7206 6.57335C23.3435 7.5135 23.3916 9.83952 21.8091 10.8461L19.75 12.1557V17.3333C19.75 17.9236 19.5601 18.5309 19.132 19.0099C18.6244 19.5777 17.7079 20.5017 16.4987 21.288C15.2918 22.0728 13.7475 22.75 12 22.75C10.2737 22.75 8.67287 22.0886 7.39038 21.3226C6.10213 20.5531 5.08001 19.645 4.49642 19.0755C3.98789 18.5792 3.75 17.9096 3.75 17.2485V12.2234L1.75 10.9513V15C1.75 15.4142 1.41421 15.75 1 15.75C0.585786 15.75 0.25 15.4142 0.25 15V8.99999C0.25 8.81016 0.320526 8.6368 0.436805 8.50468C0.506768 7.74276 0.920683 7.00916 1.67297 6.57335L10.4436 1.49244C11.2187 1.04341 12.1748 1.04341 12.95 1.49244ZM13.0384 16.4243L18.25 13.1097V17.3333C18.25 17.6086 18.1624 17.8438 18.0137 18.0102C17.5576 18.5203 16.7407 19.3414 15.681 20.0305C14.6189 20.7212 13.3585 21.25 12 21.25C10.6475 21.25 9.31765 20.7265 8.15956 20.0348C7.00724 19.3465 6.07889 18.5239 5.54411 18.002C5.35925 17.8216 5.25 17.5563 5.25 17.2485V13.1774L10.3551 16.4243C11.1738 16.945 12.2198 16.945 13.0384 16.4243ZM12.198 2.79038C11.888 2.61077 11.5056 2.61077 11.1955 2.79038L2.42488 7.87129C1.77572 8.24735 1.75646 9.17776 2.38948 9.58037L11.1601 15.1587C11.4876 15.3669 11.906 15.3669 12.2334 15.1587L21.0041 9.58037C21.6371 9.17776 21.6178 8.24735 20.9687 7.87129L12.198 2.79038Z" fill="#6C89A9"/>
</svg>
