<svg width="24" height="24" viewBox="0 0 24 24" fill="none" xmlns="http://www.w3.org/2000/svg">
<path fill-rule="evenodd" clip-rule="evenodd" d="M6.87334 5.81281C6.58045 5.51992 6.10557 5.51992 5.81268 5.81281C5.51979 6.1057 5.51979 6.58058 5.81268 6.87347L10.9392 12L5.81268 17.1265C5.51979 17.4194 5.51979 17.8943 5.81268 18.1872C6.10557 18.4801 6.58045 18.4801 6.87334 18.1872L11.9999 13.0607L17.1264 18.1872C17.4193 18.4801 17.8942 18.4801 18.187 18.1872C18.4799 17.8943 18.4799 17.4194 18.187 17.1265L13.0605 12L18.187 6.87348C18.4799 6.58059 18.4799 6.10572 18.187 5.81282C17.8942 5.51993 17.4193 5.51993 17.1264 5.81282L11.9999 10.9393L6.87334 5.81281Z" fill="#6C89A9"/>
</svg>
