<svg width="24" height="24" viewBox="0 0 24 24" fill="none" xmlns="http://www.w3.org/2000/svg">
<path fill-rule="evenodd" clip-rule="evenodd" d="M11.287 2.30711C11.5673 2.4232 11.75 2.69668 11.75 3.00002V7.02253C17.4173 7.76479 21.75 12.8668 21.75 18.993V20C21.75 20.3531 21.5037 20.6584 21.1585 20.7331C20.8134 20.8077 20.4629 20.6315 20.317 20.3099C19.0392 17.4937 15.7694 15.3413 11.75 15.1013V19C11.75 19.3034 11.5673 19.5768 11.287 19.6929C11.0068 19.809 10.6842 19.7449 10.4697 19.5304L2.46967 11.5304C2.17678 11.2375 2.17678 10.7626 2.46967 10.4697L10.4697 2.46969C10.6842 2.25519 11.0068 2.19103 11.287 2.30711ZM10.25 14.331C10.25 14.3304 10.25 14.3297 10.25 14.329C10.25 13.9148 10.5858 13.579 11 13.579C14.6982 13.579 18.0331 15.0366 20.131 17.3484C19.4186 12.478 15.5916 8.75652 10.9506 8.4504C10.5564 8.42439 10.25 8.09707 10.25 7.70202V4.81068L4.06066 11L10.25 17.1894V14.333C10.25 14.3324 10.25 14.3317 10.25 14.331Z" fill="#6C89A9"/>
</svg>
