<svg width="24" height="24" viewBox="0 0 24 24" fill="none" xmlns="http://www.w3.org/2000/svg">
<path fill-rule="evenodd" clip-rule="evenodd" d="M20.6134 9.12761L21.4214 5.23969C21.7513 3.65297 20.3471 2.24883 18.7604 2.57871L14.8724 3.3867C13.5846 3.65439 12.4029 4.29255 11.4734 5.22299L9.15169 7.54401L6.38389 7.54401L6.37819 7.54404C5.91704 7.54754 5.47795 7.73329 5.15456 8.05668L2.3996 10.8116C1.71067 11.5031 2.04381 12.6857 2.99747 12.9109L5.78136 13.5685C5.67501 14.5727 5.93183 15.5743 6.4931 16.3974L6.51304 16.4264L5.33979 17.5997C5.04689 17.8926 5.04689 18.3674 5.33979 18.6603C5.63268 18.9532 6.10755 18.9532 6.40045 18.6603L7.57355 17.4872C7.62618 17.5238 7.67956 17.559 7.73365 17.593C8.53025 18.094 9.47936 18.3191 10.4303 18.218L11.088 21.0024C11.3133 21.9561 12.4959 22.2892 13.1873 21.6003L15.9423 18.8453C16.2656 18.5219 16.4514 18.0828 16.4549 17.6217V14.8488L18.7771 12.5267C19.7078 11.5971 20.3457 10.4156 20.6134 9.12761ZM14.9549 16.2897C14.054 17.0298 13.0148 17.5819 11.8998 17.9141L12.4448 20.2214L14.8816 17.7847C14.9277 17.7385 14.9539 17.6764 14.9549 17.6122V16.2897ZM10.861 16.6299C12.2468 16.3452 13.523 15.6594 14.5277 14.6547L17.7167 11.4657C17.9718 11.211 18.1986 10.9318 18.3945 10.6332C17.0078 8.69282 15.3072 6.99224 13.3668 5.6055C13.0684 5.80134 12.7894 6.02806 12.5347 6.28301L9.34441 9.47233C8.34335 10.4734 7.6594 11.7443 7.37226 13.125C7.36961 13.1405 7.36646 13.1559 7.3628 13.1714L7.36252 13.1726C7.33747 13.2972 7.31566 13.4227 7.29713 13.5489L7.29671 13.5518L7.28628 13.6209L7.28601 13.6227C7.1995 14.2207 7.3143 14.8225 7.6007 15.3388L12.4098 10.5297C12.7027 10.2368 13.1776 10.2368 13.4704 10.5297C13.7633 10.8226 13.7633 11.2974 13.4704 11.5903L8.66123 16.3995C9.1773 16.6857 9.77927 16.8002 10.377 16.7131L10.3785 16.7129L10.4516 16.7019C10.5819 16.6828 10.7113 16.6603 10.8399 16.6343C10.8469 16.6327 10.854 16.6313 10.861 16.6299ZM14.944 4.90948C16.4958 6.1101 17.89 7.50431 19.0906 9.05612C19.1104 8.97876 19.1285 8.90083 19.1448 8.8224L19.9528 4.93431C20.0628 4.4051 19.595 3.93725 19.0658 4.04729L15.1777 4.85531C15.0993 4.87161 15.0213 4.88968 14.944 4.90948ZM6.0857 12.0991C6.41826 10.9843 6.97012 9.94504 7.71034 9.04401L6.3877 9.04401C6.32352 9.045 6.26137 9.07119 6.21522 9.11734L3.77844 11.5541L6.0857 12.0991Z" fill="#6C89A9"/>
</svg>
