<svg width="24" height="24" viewBox="0 0 24 24" fill="none" xmlns="http://www.w3.org/2000/svg">
<path fill-rule="evenodd" clip-rule="evenodd" d="M2.75 6C2.75 5.86221 2.86221 5.75 3 5.75H21C21.1378 5.75 21.25 5.86221 21.25 6V8.54496C20.0167 9.25292 19.25 10.569 19.25 12C19.25 13.4319 20.0176 14.7485 21.25 15.4561V18C21.25 18.1378 21.1378 18.25 21 18.25H3C2.86221 18.25 2.75 18.1378 2.75 18V15.4557C3.98269 14.7481 4.75 13.4326 4.75 12C4.75 10.5671 3.98154 9.25186 2.75 8.54443V6ZM3.25 12C3.25 12.942 2.71846 13.8021 1.87583 14.2231L1.87351 14.2242C1.49328 14.4158 1.25 14.8058 1.25 15.236V18C1.25 18.9662 2.03379 19.75 3 19.75H21C21.9662 19.75 22.75 18.9662 22.75 18V15.236C22.75 14.8058 22.5067 14.4158 22.1265 14.2242C22.119 14.2204 22.1114 14.2168 22.1038 14.2132C21.2735 13.7889 20.75 12.9339 20.75 12C20.75 11.0721 21.2669 10.2218 22.0903 9.79478L22.0925 9.79366L22.1328 9.77259C22.5094 9.57988 22.75 9.19178 22.75 8.764V6C22.75 5.03379 21.9662 4.25 21 4.25H3C2.03379 4.25 1.25 5.03379 1.25 6V8.764C1.25 9.19415 1.49328 9.58419 1.87351 9.77578L1.87559 9.77682C2.71773 10.1979 3.25 11.0583 3.25 12ZM14.9603 10.1003C15.2532 9.80744 15.2532 9.33257 14.9603 9.03968C14.6674 8.74678 14.1925 8.74678 13.8996 9.03968L8.8996 14.0397C8.60671 14.3326 8.60671 14.8074 8.8996 15.1003C9.19249 15.3932 9.66737 15.3932 9.96026 15.1003L14.9603 10.1003ZM10.5003 9.49933C10.5003 10.0521 10.0522 10.5002 9.49942 10.5002C8.94665 10.5002 8.49854 10.0521 8.49854 9.49933C8.49854 8.94656 8.94665 8.49844 9.49942 8.49844C10.0522 8.49844 10.5003 8.94656 10.5003 9.49933ZM14.4999 15.5009C15.0527 15.5009 15.5008 15.0528 15.5008 14.5C15.5008 13.9472 15.0527 13.4991 14.4999 13.4991C13.9471 13.4991 13.499 13.9472 13.499 14.5C13.499 15.0528 13.9471 15.5009 14.4999 15.5009Z" fill="#6C89A9"/>
</svg>
