<svg width="24" height="24" viewBox="0 0 24 24" fill="none" xmlns="http://www.w3.org/2000/svg">
<path fill-rule="evenodd" clip-rule="evenodd" d="M2.25715 5.0204C2.24616 3.4931 3.4808 2.25 5.00713 2.25H16.1641C16.8945 2.25 17.5931 2.54032 18.1085 3.05567L20.9365 5.88367C21.452 6.39916 21.7421 7.09886 21.7421 7.828V19C21.7421 20.5192 20.5113 21.75 18.9921 21.75H5.11113C3.60034 21.75 2.37222 20.5318 2.36115 19.0206L2.25715 5.0204ZM3.75711 5.0096L3.86111 19.0094C3.86611 19.6961 4.42397 20.25 5.11113 20.25H18.9921C19.6829 20.25 20.2421 19.6908 20.2421 19V7.828C20.2421 7.49714 20.1103 7.17884 19.8758 6.94433L17.0478 4.11633C16.8132 3.88168 16.4958 3.75 16.1641 3.75H5.00713C4.3135 3.75 3.75215 4.31493 3.75711 5.0096Z" fill="#6C89A9"/>
<path fill-rule="evenodd" clip-rule="evenodd" d="M7.99313 2.25C8.40735 2.25 8.74313 2.58579 8.74313 3V6.909C8.74313 7.04679 8.85535 7.159 8.99313 7.159H14.9931C15.1309 7.159 15.2431 7.04679 15.2431 6.909V3C15.2431 2.58579 15.5789 2.25 15.9931 2.25C16.4073 2.25 16.7431 2.58579 16.7431 3V6.909C16.7431 7.87521 15.9593 8.659 14.9931 8.659H8.99313C8.02692 8.659 7.24313 7.87521 7.24313 6.909V3C7.24313 2.58579 7.57892 2.25 7.99313 2.25Z" fill="#6C89A9"/>
<path fill-rule="evenodd" clip-rule="evenodd" d="M8.28613 12.75C7.99035 12.75 7.75013 12.9902 7.75013 13.286V21C7.75013 21.4142 7.41435 21.75 7.00013 21.75C6.58592 21.75 6.25013 21.4142 6.25013 21V13.286C6.25013 12.1618 7.16192 11.25 8.28613 11.25H15.7151C16.8387 11.25 17.7501 12.1622 17.7501 13.286V21C17.7501 21.4142 17.4143 21.75 17.0001 21.75C16.5859 21.75 16.2501 21.4142 16.2501 21V13.286C16.2501 12.9898 16.0095 12.75 15.7151 12.75H8.28613Z" fill="#6C89A9"/>
</svg>
