<svg width="24" height="24" viewBox="0 0 24 24" fill="none" xmlns="http://www.w3.org/2000/svg">
<path fill-rule="evenodd" clip-rule="evenodd" d="M4.41591 4.35123C4.55415 4.23878 4.74543 4.21774 4.90481 4.29745L19.5032 11.5948C19.6567 11.6715 19.7537 11.8284 19.7537 12C19.7537 12.1716 19.6566 12.3286 19.5031 12.4053L4.90481 19.7026C4.74543 19.7823 4.55414 19.7612 4.41591 19.6488C4.27771 19.5364 4.2182 19.3533 4.2637 19.1811L5.96712 12.75H10.8831C11.2973 12.75 11.6331 12.4142 11.6331 12C11.6331 11.5858 11.2973 11.25 10.8831 11.25H5.96711L4.26366 4.81876C4.21816 4.64655 4.27771 4.46364 4.41591 4.35123ZM3.46937 3.18758C4.06492 2.70315 4.889 2.61247 5.57563 2.9558L20.1738 10.253C20.8356 10.5838 21.2537 11.2601 21.2537 12C21.2537 12.7399 20.8356 13.4163 20.1737 13.7471L5.57576 21.0441C4.88911 21.3876 4.06496 21.2969 3.46937 20.8124C2.87379 20.328 2.61726 19.5394 2.81366 18.7972L4.61404 12L2.81361 5.20266C2.61721 4.46046 2.87379 3.67204 3.46937 3.18758Z" fill="#6C89A9"/>
</svg>
