<svg width="24" height="24" viewBox="0 0 24 24" fill="none" xmlns="http://www.w3.org/2000/svg">
<path fill-rule="evenodd" clip-rule="evenodd" d="M12.0001 3.74625C7.44167 3.74625 3.74634 7.44158 3.74634 12C3.74634 16.5584 7.44167 20.2537 12.0001 20.2537C16.5585 20.2537 20.2538 16.5584 20.2538 12C20.2538 9.81097 19.3842 7.71159 17.8364 6.16371C16.2885 4.61584 14.1891 3.74625 12.0001 3.74625ZM2.24634 12C2.24634 6.61315 6.61324 2.24625 12.0001 2.24625C14.5869 2.24625 17.0678 3.27387 18.897 5.10305C20.7262 6.93224 21.7538 9.41314 21.7538 12C21.7538 17.3868 17.3869 21.7537 12.0001 21.7537C6.61324 21.7537 2.24634 17.3868 2.24634 12ZM13.0005 6.74811C13.4147 6.74811 13.7505 7.08389 13.7505 7.49811V8.98923L13.7505 8.99875L13.7505 9.00826V10.4994C13.7505 10.9136 13.4147 11.2494 13.0005 11.2494C12.5863 11.2494 12.2505 10.9136 12.2505 10.4994V9.74875H6.99805C6.58383 9.74875 6.24805 9.41296 6.24805 8.99875C6.24805 8.58454 6.58383 8.24875 6.99805 8.24875H12.2505V7.49811C12.2505 7.08389 12.5863 6.74811 13.0005 6.74811ZM14.7515 8.99875C14.7515 8.58454 15.0873 8.24875 15.5015 8.24875H17.0021C17.4163 8.24875 17.7521 8.58454 17.7521 8.99875C17.7521 9.41296 17.4163 9.74875 17.0021 9.74875H15.5015C15.0873 9.74875 14.7515 9.41296 14.7515 8.99875ZM11.6741 13.5006C11.6741 13.0864 11.3383 12.7506 10.9241 12.7506C10.5099 12.7506 10.1741 13.0864 10.1741 13.5006V16.5019C10.1741 16.9161 10.5099 17.2519 10.9241 17.2519C11.3383 17.2519 11.6741 16.9161 11.6741 16.5019V15.7513H17.0023C17.4165 15.7513 17.7523 15.4155 17.7523 15.0013C17.7523 14.587 17.4165 14.2513 17.0023 14.2513H11.6741V13.5006ZM6.99805 14.2513C6.58383 14.2513 6.24805 14.587 6.24805 15.0013C6.24805 15.4155 6.58383 15.7513 6.99805 15.7513H8.49867C8.91289 15.7513 9.24867 15.4155 9.24867 15.0013C9.24867 14.587 8.91289 14.2513 8.49867 14.2513H6.99805Z" fill="#6C89A9"/>
</svg>
