<svg width="24" height="24" viewBox="0 0 24 24" fill="none" xmlns="http://www.w3.org/2000/svg">
<path fill-rule="evenodd" clip-rule="evenodd" d="M18.1448 11.9999V11.9297L18.1448 11.1296C18.145 10.7156 18.2918 10.3149 18.5593 9.99896L19.5296 8.85174C19.5973 8.77096 19.6076 8.65598 19.5546 8.56476L18.7534 7.18267C18.7006 7.09106 18.5958 7.04255 18.4917 7.06147L17.0101 7.32877C16.6031 7.40207 16.1831 7.32894 15.8249 7.12227L14.3138 6.25049C13.9575 6.04315 13.6854 5.7173 13.5448 5.3298L13.544 5.32747L13.0358 3.91196C13 3.81244 12.9057 3.74619 12.8003 3.74619L12.0001 3.74619V3.74622H11.1997C11.0943 3.74622 11 3.81247 10.9642 3.91199L10.456 5.3275L10.4552 5.32983C10.3146 5.71733 10.0425 6.04318 9.68621 6.25052L8.17512 7.1223C7.81692 7.32897 7.39689 7.4021 6.9899 7.3288L5.50826 7.0615C5.40419 7.04258 5.29945 7.09109 5.24658 7.1827L4.44536 8.56479C4.39244 8.65601 4.40267 8.77099 4.47041 8.85177L5.44075 9.99899C5.7082 10.3149 5.85504 10.7157 5.85521 11.1296V12V12.8703C5.85504 13.2843 5.7082 13.685 5.44075 14.0009L4.47041 15.1482C4.40267 15.2289 4.39244 15.3439 4.44536 15.4351L5.24658 16.8172C5.29945 16.9088 5.40419 16.9574 5.50826 16.9384L6.9899 16.6711C7.39689 16.5978 7.81692 16.671 8.17512 16.8776L9.68621 17.7494C10.0425 17.9568 10.3146 18.2826 10.4552 18.6701L10.456 18.6724L10.9642 20.0879C11 20.1875 11.0943 20.2537 11.1997 20.2537H12.0001V20.2537H12.8003C12.9057 20.2537 13 20.1875 13.0358 20.088L13.544 18.6724L13.5448 18.6701C13.6854 18.2826 13.9575 17.9568 14.3138 17.7494L15.8249 16.8776C16.1831 16.671 16.6031 16.5979 17.0101 16.6712L18.4917 16.9384C18.5958 16.9574 18.7006 16.9089 18.7534 16.8172L19.5546 15.4352C19.6076 15.3439 19.5973 15.229 19.5296 15.1482L18.5593 14.001C18.2918 13.685 18.145 13.2843 18.1448 12.8703L18.1448 11.9999ZM19.6448 11.9999V11.9297V11.1298C19.6448 11.0706 19.6662 11.0128 19.7045 10.9676L20.6759 9.81917L20.677 9.81791C21.1525 9.25317 21.2224 8.45054 20.852 7.81193L20.0522 6.43222C19.6826 5.7924 18.9504 5.45369 18.2234 5.58567L16.744 5.85256C16.6858 5.86304 16.6257 5.85256 16.5745 5.82299L15.0674 4.95356C15.0156 4.92312 14.9756 4.87478 14.9549 4.8183L14.4475 3.40496C14.1979 2.70999 13.5389 2.24619 12.8003 2.24619H11.9999V2.24622H11.1997C10.4611 2.24622 9.80209 2.71002 9.5525 3.40499L9.0451 4.81833C9.0244 4.87481 8.98442 4.92315 8.93255 4.95359L7.42554 5.82302C7.3743 5.85259 7.31421 5.86307 7.25598 5.85259L5.77661 5.5857C5.04956 5.45372 4.31743 5.79243 3.9478 6.43225L3.14797 7.81196C2.77756 8.45057 2.84747 9.2532 3.32301 9.81794L3.32407 9.8192L4.29548 10.9677C4.33375 11.0129 4.35516 11.0706 4.35521 11.1298V12V12.8701C4.35516 12.9293 4.33375 12.9871 4.29548 13.0323L3.32407 14.1807L3.32301 14.182C2.84747 14.7467 2.77756 15.5494 3.14797 16.188L3.9478 17.5677C4.31743 18.2075 5.04956 18.5462 5.77661 18.4142L7.25598 18.1473C7.31421 18.1369 7.3743 18.1473 7.42554 18.1769L8.93255 19.0463C8.98442 19.0768 9.0244 19.1251 9.0451 19.1816L9.5525 20.5949C9.80209 21.2899 10.4611 21.7537 11.1997 21.7537H11.9999V21.7537H12.8003C13.5389 21.7537 14.1979 21.2899 14.4475 20.595L14.9549 19.1816C14.9756 19.1251 15.0156 19.0768 15.0674 19.0464L16.5745 18.1769C16.6257 18.1474 16.6858 18.1369 16.744 18.1474L18.2234 18.4142C18.9504 18.5462 19.6826 18.2075 20.0522 17.5677L20.852 16.188C21.2224 15.5494 21.1525 14.7467 20.677 14.182L20.6759 14.1807L19.7045 13.0323C19.6662 12.9871 19.6448 12.9294 19.6448 12.8701V11.9999ZM9.99902 12C9.99902 10.8948 10.895 9.99884 12.0002 9.99884C13.1054 9.99884 14.0013 10.8948 14.0013 12C14.0013 13.1052 13.1054 14.0011 12.0002 14.0011C10.895 14.0011 9.99902 13.1052 9.99902 12ZM12.0002 8.49884C10.0665 8.49884 8.49902 10.0664 8.49902 12C8.49902 13.9336 10.0665 15.5011 12.0002 15.5011C13.9338 15.5011 15.5013 13.9336 15.5013 12C15.5013 10.0664 13.9338 8.49884 12.0002 8.49884Z" fill="#6C89A9"/>
</svg>
