<svg width="24" height="24" viewBox="0 0 24 24" fill="none" xmlns="http://www.w3.org/2000/svg">
<path fill-rule="evenodd" clip-rule="evenodd" d="M18.6885 5.31148C17.9399 4.56284 16.7261 4.56284 15.9775 5.31148C15.4121 5.87688 15.2737 6.7076 15.5623 7.40287C15.588 7.43747 15.6109 7.47476 15.6309 7.5146C15.651 7.55493 15.6672 7.59621 15.6796 7.63799C15.7603 7.77528 15.8596 7.90467 15.9775 8.02253C16.7261 8.77116 17.9399 8.77116 18.6885 8.02253C19.4372 7.27389 19.4372 6.06011 18.6885 5.31148ZM14.9168 4.25082C14.0402 5.12749 13.7394 6.362 14.0146 7.48418L9.31157 9.83572C9.24036 9.74892 9.16424 9.66481 9.08319 9.58376C7.74876 8.24934 5.58524 8.24934 4.25082 9.58376C2.91639 10.9182 2.91639 13.0817 4.25082 14.4161C5.58524 15.7506 7.74876 15.7506 9.08319 14.4161C9.16421 14.3351 9.24032 14.251 9.3115 14.1643L14.0146 16.5158C13.7394 17.638 14.0402 18.8725 14.9168 19.7491C16.2513 21.0836 18.4148 21.0836 19.7492 19.7491C21.0836 18.4147 21.0836 16.2512 19.7492 14.9168C18.4148 13.5823 16.2513 13.5823 14.9168 14.9168C14.8342 14.9994 14.7568 15.0851 14.6844 15.1737L9.98383 12.8234C10.1174 12.2832 10.1174 11.7168 9.98386 11.1766L14.6844 8.82633C14.7568 8.91486 14.8343 9.00061 14.9168 9.08319C16.2513 10.4176 18.4148 10.4176 19.7492 9.08319C21.0836 7.74876 21.0836 5.58524 19.7492 4.25082C18.4148 2.91639 16.2513 2.91639 14.9168 4.25082ZM8.43057 12.7527C8.63511 12.2731 8.63515 11.7271 8.43069 11.2475C8.40789 11.2156 8.38729 11.1816 8.36922 11.1454C8.35144 11.1099 8.33675 11.0736 8.32505 11.0368C8.24348 10.8966 8.14264 10.7645 8.02253 10.6444C7.27389 9.89579 6.06011 9.89579 5.31148 10.6444C4.56284 11.3931 4.56284 12.6068 5.31148 13.3555C6.06011 14.1041 7.27389 14.1041 8.02253 13.3555C8.14268 13.2353 8.24354 13.1032 8.32513 12.9629C8.33681 12.9263 8.35148 12.8901 8.36922 12.8546C8.38726 12.8185 8.40782 12.7845 8.43057 12.7527ZM15.5623 16.5972C15.5879 16.5626 15.6109 16.5253 15.6309 16.4854C15.651 16.445 15.6672 16.4037 15.6796 16.3619C15.7604 16.2246 15.8596 16.0953 15.9775 15.9774C16.7261 15.2288 17.9399 15.2288 18.6885 15.9774C19.4372 16.7261 19.4372 17.9398 18.6885 18.6885C17.9399 19.4371 16.7261 19.4371 15.9775 18.6885C15.4121 18.1231 15.2737 17.2925 15.5623 16.5972Z" fill="#6C89A9"/>
</svg>
