<svg width="24" height="24" viewBox="0 0 24 24" fill="none" xmlns="http://www.w3.org/2000/svg">
<path fill-rule="evenodd" clip-rule="evenodd" d="M3.37305 2.875C2.95883 2.875 2.62305 3.21079 2.62305 3.625C2.62305 4.03921 2.95883 4.375 3.37305 4.375H4.70048L5.23514 6.77975L5.2357 6.78238L6.99772 14.9925C7.17087 15.7988 7.8831 16.375 8.708 16.375H17.125C17.9504 16.375 18.6631 15.7991 18.8363 14.9923L20.3385 7.99158C20.5709 6.90283 19.7422 5.875 18.627 5.875H6.57061L6.03417 3.46222C5.95788 3.11911 5.65354 2.875 5.30205 2.875H3.37305ZM8.46428 14.6775L6.89704 7.375H18.627C18.7856 7.375 18.9048 7.52131 18.8715 7.67842L17.3697 14.6775C17.345 14.7928 17.2436 14.875 17.125 14.875H8.708C8.5909 14.875 8.48913 14.7932 8.46428 14.6775ZM9.98075 19.625C9.98075 20.2454 9.47782 20.7483 8.85744 20.7483C8.23705 20.7483 7.73413 20.2454 7.73413 19.625C7.73413 19.0046 8.23705 18.5017 8.85744 18.5017C9.47782 18.5017 9.98075 19.0046 9.98075 19.625ZM17.4671 20.7483C18.0874 20.7483 18.5904 20.2454 18.5904 19.625C18.5904 19.0046 18.0874 18.5017 17.4671 18.5017C16.8467 18.5017 16.3438 19.0046 16.3438 19.625C16.3438 20.2454 16.8467 20.7483 17.4671 20.7483Z" fill="#6C89A9"/>
</svg>
