<svg width="24" height="24" viewBox="0 0 24 24" fill="none" xmlns="http://www.w3.org/2000/svg">
<path fill-rule="evenodd" clip-rule="evenodd" d="M5.99634 4.24707C3.92527 4.24707 2.24634 5.926 2.24634 7.99707V16.0029C2.24634 18.074 3.92527 19.7529 5.99634 19.7529H18.0038C20.0749 19.7529 21.7538 18.074 21.7538 16.0029V7.99707C21.7538 5.926 20.0749 4.24707 18.0038 4.24707H5.99634ZM3.74634 7.99707C3.74634 6.75443 4.7537 5.74707 5.99634 5.74707H18.0038C19.2465 5.74707 20.2538 6.75443 20.2538 7.99707V16.0029C20.2538 17.2455 19.2465 18.2529 18.0038 18.2529H5.99634C4.7537 18.2529 3.74634 17.2455 3.74634 16.0029V7.99707ZM7.89176 9.11065C7.53917 8.89327 7.07712 9.00288 6.85973 9.35546C6.64235 9.70805 6.75196 10.1701 7.10455 10.3875L10.0312 12.1919L10.4248 11.5535L10.0312 12.1919C11.2383 12.9361 12.7618 12.9361 13.9688 12.1919L13.5752 11.5535L13.9688 12.1919L16.8955 10.3875C17.2481 10.1701 17.3577 9.70805 17.1403 9.35546C16.9229 9.00288 16.4609 8.89327 16.1083 9.11065L13.1816 10.915C12.4572 11.3617 11.5429 11.3617 10.8184 10.915L7.89176 9.11065Z" fill="#6C89A9"/>
</svg>
