<svg width="24" height="24" viewBox="0 0 24 24" fill="none" xmlns="http://www.w3.org/2000/svg">
<path fill-rule="evenodd" clip-rule="evenodd" d="M17.8336 6.16637C14.6118 2.94454 9.3882 2.94454 6.16637 6.16637L6.16637 6.16637C2.94454 9.38818 2.94454 14.6118 6.16637 17.8336C9.38818 21.0554 14.6118 21.0554 17.8336 17.8336C21.0553 14.6119 21.0554 9.38857 17.834 6.16671L17.8336 6.16637ZM18.8943 5.10571C22.7019 8.91332 22.7019 15.0867 18.8943 18.8943C15.0867 22.7019 8.9133 22.7019 5.10571 18.8943C1.2981 15.0867 1.2981 8.9133 5.10571 5.10571C8.91332 1.2981 15.0867 1.2981 18.8943 5.10571ZM7.61957 8.61968C7.91247 8.32678 8.38734 8.32678 8.68023 8.61968L9.38023 9.31968C9.67313 9.61257 9.67313 10.0874 9.38023 10.3803C9.08734 10.6732 8.61247 10.6732 8.31957 10.3803L7.61957 9.68034C7.32668 9.38744 7.32668 8.91257 7.61957 8.61968ZM14.6196 9.31968C14.3267 9.61257 14.3267 10.0874 14.6196 10.3803C14.9125 10.6732 15.3873 10.6732 15.6802 10.3803L16.3802 9.68034C16.6731 9.38744 16.6731 8.91257 16.3802 8.61968C16.0873 8.32678 15.6125 8.32678 15.3196 8.61968L14.6196 9.31968ZM9.02715 16.5335C9.02928 16.5314 9.03007 16.5306 9.02715 16.5335V16.5335ZM14.681 16.2862C14.4767 16.1348 14.1663 15.9382 13.7572 15.7726C13.2966 15.5861 12.709 15.438 12 15.438C11.0599 15.438 10.3078 15.7196 9.78892 16.0025C9.5296 16.1439 9.33143 16.2841 9.20142 16.3858C9.11152 16.4561 9.06607 16.4963 9.02715 16.5335C8.73391 16.8233 8.26129 16.8221 7.96951 16.5301C7.62676 16.1871 7.72816 15.6816 8.06118 15.3842C8.11257 15.3383 8.18489 15.2765 8.27732 15.2042C8.46185 15.0599 8.72861 14.8721 9.07092 14.6855C9.75527 14.3124 10.7532 13.938 12 13.938C12.9232 13.938 13.7015 14.1317 14.3201 14.3822C14.8663 14.6033 15.2866 14.868 15.5742 15.0812C15.7904 15.2414 15.9333 15.3738 16.0017 15.4409C16.3089 15.7422 16.339 16.2393 16.015 16.5453C15.6872 16.8549 15.2669 16.7641 14.9542 16.5104C14.8626 16.436 14.776 16.3567 14.681 16.2862Z" fill="#6C89A9"/>
</svg>
