<svg width="24" height="24" viewBox="0 0 24 24" fill="none" xmlns="http://www.w3.org/2000/svg">
<path fill-rule="evenodd" clip-rule="evenodd" d="M11.6945 2.74685C15.993 2.60759 19.8749 5.30158 21.2484 9.37712C22.6219 13.4527 21.1625 17.9467 17.6565 20.4377L17.6488 20.4431C16.868 20.9833 15.9381 21.2665 14.9888 21.2535H9.0184C8.04964 21.2651 7.10153 20.973 6.30723 20.4181L6.29901 20.4123C3.74603 18.5777 2.23654 15.6227 2.24614 12.4789L2.24616 12.472C2.31009 7.23703 6.45663 2.96592 11.6875 2.74712L11.6945 2.74685ZM11.7466 4.24595C7.31487 4.43318 3.80208 8.05155 3.74612 12.4869C3.73912 15.1432 5.01418 17.6397 7.17023 19.1912C7.70774 19.5654 8.34893 19.7621 9.00392 19.7536L9.01368 19.7535L15.0054 19.7535C15.6427 19.7631 16.267 19.5738 16.7917 19.2121C19.7553 17.1038 20.9886 13.3031 19.827 9.85616C18.6652 6.40882 15.3823 4.12971 11.7466 4.24595ZM11.9999 5.74971C12.4141 5.74971 12.7499 6.0855 12.7499 6.49971V7.50013C12.7499 7.91434 12.4141 8.25013 11.9999 8.25013C11.5857 8.25013 11.2499 7.91434 11.2499 7.50013V6.49971C11.2499 6.0855 11.5857 5.74971 11.9999 5.74971ZM7.22483 7.72812C7.51772 7.43522 7.9926 7.43522 8.28549 7.72811L8.99278 8.43541C9.28568 8.7283 9.28568 9.20318 8.99278 9.49607C8.69989 9.78896 8.22502 9.78896 7.93213 9.49607L7.22483 8.78877C6.93194 8.49588 6.93194 8.02101 7.22483 7.72812ZM16.775 7.72812C17.0679 8.02101 17.0679 8.49588 16.775 8.78878L14.2185 11.3453C14.3988 11.6907 14.5007 12.0836 14.5007 12.5002C14.5007 13.8813 13.381 15.0009 11.9999 15.0009C10.6188 15.0009 9.4992 13.8813 9.4992 12.5002C9.4992 11.1191 10.6188 9.99948 11.9999 9.99948C12.4181 9.99948 12.8124 10.1021 13.1588 10.2837L15.7144 7.72812C16.0073 7.43522 16.4821 7.43522 16.775 7.72812ZM11.9999 11.4995C11.4472 11.4995 10.9992 11.9475 10.9992 12.5002C10.9992 13.0529 11.4472 13.5009 11.9999 13.5009C12.5526 13.5009 13.0007 13.0529 13.0007 12.5002C13.0007 11.9475 12.5526 11.4995 11.9999 11.4995ZM5.24743 12.5022C5.24743 12.088 5.58321 11.7522 5.99743 11.7522H6.99784C7.41206 11.7522 7.74784 12.088 7.74784 12.5022C7.74784 12.9164 7.41206 13.2522 6.99784 13.2522H5.99743C5.58321 13.2522 5.24743 12.9164 5.24743 12.5022ZM16.252 12.5022C16.252 12.088 16.5878 11.7522 17.002 11.7522H18.0024C18.4166 11.7522 18.7524 12.088 18.7524 12.5022C18.7524 12.9164 18.4166 13.2522 18.0024 13.2522H17.002C16.5878 13.2522 16.252 12.9164 16.252 12.5022ZM7.74847 17.0041C7.74847 16.5899 8.08426 16.2541 8.49847 16.2541H15.5014C15.9156 16.2541 16.2514 16.5899 16.2514 17.0041C16.2514 17.4183 15.9156 17.7541 15.5014 17.7541H8.49847C8.08426 17.7541 7.74847 17.4183 7.74847 17.0041Z" fill="#6C89A9"/>
</svg>
