<svg width="24" height="24" viewBox="0 0 24 24" fill="none" xmlns="http://www.w3.org/2000/svg">
<path fill-rule="evenodd" clip-rule="evenodd" d="M12 3.24667C12.4142 3.24667 12.75 3.58246 12.75 3.99667V7.18816L13.9708 5.96738C14.2637 5.67449 14.7385 5.67449 15.0314 5.96738C15.3243 6.26027 15.3243 6.73515 15.0314 7.02804L12.5304 9.52908C12.4522 9.6073 12.361 9.66463 12.2637 9.70107C12.1817 9.7319 12.0928 9.74876 12 9.74876C11.8829 9.74876 11.7721 9.72192 11.6733 9.67407C11.6265 9.65138 11.5814 9.62353 11.5392 9.59051C11.5125 9.56971 11.4873 9.54715 11.4636 9.52299L8.96869 7.02804C8.6758 6.73515 8.6758 6.26027 8.96869 5.96738C9.26159 5.67449 9.73646 5.67449 10.0294 5.96738L11.25 7.18803V3.99667C11.25 3.58246 11.5858 3.24667 12 3.24667ZM3.99683 11.25C3.58261 11.25 3.24683 11.5858 3.24683 12C3.24683 12.4142 3.58261 12.75 3.99683 12.75H20.0035C20.4177 12.75 20.7535 12.4142 20.7535 12C20.7535 11.5858 20.4177 11.25 20.0035 11.25H3.99683ZM11.5355 14.4123C11.5102 14.4323 11.4863 14.4539 11.4638 14.4769L8.96869 16.972C8.6758 17.2649 8.6758 17.7397 8.96869 18.0326C9.26159 18.3255 9.73646 18.3255 10.0294 18.0326L11.25 16.812V20.0033C11.25 20.4175 11.5858 20.7533 12 20.7533C12.4142 20.7533 12.75 20.4175 12.75 20.0033V16.8118L13.9708 18.0326C14.2637 18.3255 14.7385 18.3255 15.0314 18.0326C15.3243 17.7397 15.3243 17.2649 15.0314 16.972L12.5304 14.4709C12.451 14.3916 12.3583 14.3337 12.2595 14.2973C12.1786 14.2675 12.0912 14.2513 12 14.2513C11.8853 14.2513 11.7767 14.277 11.6795 14.323C11.6291 14.3468 11.5807 14.3766 11.5355 14.4123Z" fill="#6C89A9"/>
</svg>
