<svg width="24" height="24" viewBox="0 0 24 24" fill="none" xmlns="http://www.w3.org/2000/svg">
<path fill-rule="evenodd" clip-rule="evenodd" d="M12.0001 2.146C12.2864 2.14602 12.5477 2.30902 12.6736 2.56613L15.4349 8.20454L21.6093 9.114C21.891 9.1555 22.1249 9.35295 22.2131 9.6237C22.3013 9.89446 22.2286 10.1918 22.0254 10.3913L17.5552 14.7786L18.6104 20.9781C18.6583 21.2598 18.542 21.5443 18.3105 21.7118C18.0789 21.8792 17.7724 21.9005 17.5199 21.7667L12 18.8418L6.48019 21.7667C6.22769 21.9005 5.92111 21.8792 5.68956 21.7118C5.458 21.5443 5.34171 21.2598 5.38966 20.9781L6.44487 14.7786L1.97467 10.3913C1.77145 10.1918 1.69871 9.89446 1.7869 9.62371C1.87509 9.35296 2.109 9.15551 2.39071 9.114L8.56417 8.20454L11.3265 2.56604C11.4525 2.30894 11.7138 2.14598 12.0001 2.146ZM11.9999 4.60098L9.73754 9.21896C9.62883 9.44086 9.41779 9.59497 9.17333 9.63099L4.1026 10.378L7.77537 13.9827C7.95065 14.1548 8.0306 14.4017 7.98939 14.6438L7.12402 19.728L11.6489 17.3303C11.8685 17.2139 12.1315 17.2139 12.3512 17.3303L16.876 19.728L16.0107 14.6438C15.9694 14.4017 16.0494 14.1548 16.2247 13.9827L19.8974 10.378L14.8257 9.63099C14.5812 9.59498 14.3702 9.44082 14.2615 9.21887L11.9999 4.60098Z" fill="#6C89A9"/>
</svg>
