<svg width="24" height="24" viewBox="0 0 24 24" fill="none" xmlns="http://www.w3.org/2000/svg">
<path d="M20.5194 3.00164C20.2724 3.01914 20.0299 3.07559 19.8015 3.16878H19.7984C19.5791 3.25347 18.5366 3.68069 16.9516 4.32826L11.2718 6.65847C7.19629 8.32986 3.18999 9.97577 3.18999 9.97577L3.23769 9.95779C3.23769 9.95779 2.96148 10.0462 2.67295 10.2388C2.4947 10.3493 2.34131 10.4939 2.22207 10.6638C2.0805 10.8662 1.96663 11.1757 2.00895 11.4958C2.0782 12.0369 2.43828 12.3614 2.6968 12.5406C2.9584 12.722 3.20769 12.8067 3.20769 12.8067H3.21384L6.97086 14.0396C7.13936 14.5665 8.11574 17.6934 8.35041 18.4137C8.4889 18.8439 8.62355 19.113 8.79205 19.3183C8.8736 19.4233 8.96901 19.511 9.08365 19.5814C9.14325 19.6152 9.2068 19.6419 9.27292 19.6609L9.23445 19.6519C9.246 19.6549 9.25523 19.6639 9.26369 19.6669C9.29447 19.6751 9.31524 19.6781 9.35448 19.6841C9.94923 19.8595 10.427 19.4997 10.427 19.4997L10.454 19.4787L12.0626 18.0519C12.4175 17.7371 12.9448 17.715 13.3248 17.999L16.3899 20.2897L16.4746 20.3249C17.2494 20.6562 18.0342 20.4718 18.4489 20.1465C18.8667 19.819 19.029 19.4 19.029 19.4L19.0559 19.3326L21.9289 4.99532C22.0105 4.64155 22.0312 4.31027 21.9412 3.98874C21.8484 3.66332 21.6341 3.38344 21.3403 3.20401C21.0937 3.05794 20.8076 2.98744 20.5194 3.00164ZM20.4416 4.53812C20.4386 4.58534 20.4478 4.58009 20.4263 4.67078V4.67903L17.5802 18.8671C17.5679 18.8874 17.5471 18.9316 17.4902 18.9758C17.4302 19.0223 17.3825 19.0515 17.1324 18.9548L13.2382 16.0465C12.858 15.7625 12.3306 15.7849 11.9758 16.0999L9.83844 17.9977L10.4155 14.4076L17.8449 7.66206C18.1511 7.38474 18.0488 7.32628 18.0488 7.32628C18.0703 6.986 17.5864 7.22659 17.5864 7.22659L8.21807 12.8801L8.21499 12.8651L3.72473 11.3923V11.3893L3.71319 11.3871C3.72106 11.3845 3.72877 11.3815 3.73627 11.3781L3.76089 11.3661L3.78474 11.3579C3.78474 11.3579 7.79412 9.71195 11.8697 8.04055C13.9101 7.20336 15.966 6.36017 17.5471 5.7096C19.1283 5.06278 20.297 4.58834 20.3632 4.56286C20.4263 4.53887 20.3963 4.53812 20.4416 4.53812Z" fill="#6C89A9"/>
</svg>
