<svg width="24" height="24" viewBox="0 0 24 24" fill="none" xmlns="http://www.w3.org/2000/svg">
<path fill-rule="evenodd" clip-rule="evenodd" d="M8.75 6C8.75 5.58579 8.41421 5.25 8 5.25C7.58579 5.25 7.25 5.58579 7.25 6V12C7.25 14.6234 9.37665 16.75 12 16.75C14.6234 16.75 16.75 14.6234 16.75 12V6C16.75 5.58579 16.4142 5.25 16 5.25C15.5858 5.25 15.25 5.58579 15.25 6V12C15.25 13.7949 13.7949 15.25 12 15.25C10.2051 15.25 8.75 13.7949 8.75 12V6ZM7 18.25C6.58579 18.25 6.25 18.5858 6.25 19C6.25 19.4142 6.58579 19.75 7 19.75H17C17.4142 19.75 17.75 19.4142 17.75 19C17.75 18.5858 17.4142 18.25 17 18.25H7Z" fill="#6C89A9"/>
</svg>
