<svg width="24" height="24" viewBox="0 0 24 24" fill="none" xmlns="http://www.w3.org/2000/svg">
<path fill-rule="evenodd" clip-rule="evenodd" d="M11.7559 17.7225C11.371 18.2241 10.6186 18.2372 10.2159 17.7482C10.0628 17.5627 9.97796 17.3272 9.97796 17.084V13.813C9.97796 13.3988 9.64218 13.063 9.22796 13.063H6.13196C5.78148 13.063 5.45395 12.8877 5.25902 12.5965L4.93002 12.1055C4.75778 11.8477 4.70837 11.5269 4.79371 11.2314L6.15268 6.50952C6.28227 6.05945 6.69356 5.74999 7.16096 5.74999H13.45C13.742 5.74999 14.0208 5.8716 14.2185 6.08449L15.25 7.19468L15.25 13.1732L11.7559 17.7225ZM16.75 13.4283C16.75 13.4285 16.75 13.4286 16.75 13.4288V13.444C16.75 13.6128 16.8872 13.75 17.056 13.75H18.944C19.1128 13.75 19.25 13.6128 19.25 13.444V6.056C19.25 5.88721 19.1128 5.75 18.944 5.75H17.056C16.8872 5.75 16.75 5.88721 16.75 6.056V13.4283ZM15.8804 14.8149L12.946 18.6355C11.973 19.9034 10.0737 19.9346 9.0584 18.7022C8.68167 18.2458 8.47796 17.6727 8.47796 17.084V14.563H6.13196C5.28057 14.563 4.486 14.1381 4.0129 13.4315L3.6839 12.9405C3.26653 12.3166 3.14387 11.5387 3.35222 10.8166L4.71122 6.09456C5.02563 5.00262 6.02436 4.24999 7.16096 4.24999H13.45C14.158 4.24999 14.8352 4.54441 15.3174 5.0635L15.4577 5.2145C15.7604 4.64101 16.3626 4.25 17.056 4.25H18.944C19.9412 4.25 20.75 5.05879 20.75 6.056V13.444C20.75 14.4412 19.9412 15.25 18.944 15.25H17.056C16.6071 15.25 16.1964 15.0861 15.8804 14.8149Z" fill="#6C89A9"/>
</svg>
