<svg width="24" height="24" viewBox="0 0 24 24" fill="none" xmlns="http://www.w3.org/2000/svg">
<path fill-rule="evenodd" clip-rule="evenodd" d="M3.68512 9.24853H2.99634C2.58212 9.24853 2.24634 8.91275 2.24634 8.49853V5.49728C2.24634 5.08307 2.58212 4.74728 2.99634 4.74728C3.41055 4.74728 3.74634 5.08307 3.74634 5.49728V6.79513C6.00251 3.20771 10.3936 1.43482 14.5956 2.60111C19.3174 3.91167 22.3309 8.52556 21.6331 13.3759C20.9352 18.2263 16.7431 21.8034 11.8434 21.7296C6.94361 21.6558 2.86122 17.954 2.30976 13.0848C2.26315 12.6732 2.55902 12.3018 2.9706 12.2552C3.38218 12.2086 3.75362 12.5044 3.80024 12.916C4.26678 17.0355 7.72061 20.1673 11.866 20.2298C16.0113 20.2922 19.5579 17.2659 20.1484 13.1623C20.7388 9.05874 18.1893 5.15525 14.1945 4.04647C10.5798 3.04322 6.79993 4.61062 4.92124 7.74853H5.99759C6.4118 7.74853 6.74759 8.08432 6.74759 8.49853C6.74759 8.91275 6.4118 9.24853 5.99759 9.24853H3.71971C3.70821 9.2488 3.69667 9.2488 3.68512 9.24853ZM11.686 7.14029C12.1002 7.14029 12.436 7.47608 12.436 7.89029V11.8345L15.0881 12.8964C15.4726 13.0504 15.6596 13.4869 15.5056 13.8714C15.3516 14.256 14.9151 14.4429 14.5306 14.2889L11.4073 13.0384C11.1226 12.9244 10.936 12.6487 10.936 12.3421V7.89029C10.936 7.47608 11.2718 7.14029 11.686 7.14029Z" fill="#6C89A9"/>
</svg>
