<svg width="24" height="24" viewBox="0 0 24 24" fill="none" xmlns="http://www.w3.org/2000/svg">
<path fill-rule="evenodd" clip-rule="evenodd" d="M12.0169 3.26291C7.45851 3.26291 3.76318 6.95824 3.76318 11.5167C3.76318 16.0751 7.45851 19.7704 12.0169 19.7704C16.5754 19.7704 20.2707 16.0751 20.2707 11.5167C20.2707 6.95824 16.5754 3.26291 12.0169 3.26291ZM2.26318 11.5167C2.26318 6.12981 6.63009 1.76291 12.0169 1.76291C17.4038 1.76291 21.7707 6.12981 21.7707 11.5167C21.7707 16.9035 17.4038 21.2704 12.0169 21.2704C6.63009 21.2704 2.26318 16.9035 2.26318 11.5167ZM12.1646 11.3691V6.51456C12.1646 6.10034 11.8288 5.76456 11.4146 5.76456C11.0003 5.76456 10.6646 6.10034 10.6646 6.51456V12.1191C10.6646 12.5334 11.0003 12.8691 11.4146 12.8691H16.0665C16.4807 12.8691 16.8165 12.5334 16.8165 12.1191C16.8165 11.7049 16.4807 11.3691 16.0665 11.3691H12.1646Z" fill="#6C89A9"/>
</svg>
