<svg width="24" height="24" viewBox="0 0 24 24" fill="none" xmlns="http://www.w3.org/2000/svg">
<path fill-rule="evenodd" clip-rule="evenodd" d="M8.81104 4.12168C8.81104 3.91432 8.97914 3.74622 9.1865 3.74622H14.8138C15.0212 3.74622 15.1893 3.91432 15.1893 4.12168V5.62261H8.81104V4.12168ZM7.31104 5.62261V4.12168C7.31104 3.08589 8.15071 2.24622 9.1865 2.24622H14.8138C15.8496 2.24622 16.6893 3.08589 16.6893 4.12168V5.62261H20.0035C20.4177 5.62261 20.7535 5.9584 20.7535 6.37261C20.7535 6.78683 20.4177 7.12261 20.0035 7.12261H19.4475L18.5351 18.9829C18.4149 20.5464 17.1111 21.7537 15.543 21.7537H8.45722C6.88912 21.7537 5.5854 20.5464 5.46513 18.9829L4.55279 7.12261H3.99683C3.58261 7.12261 3.24683 6.78683 3.24683 6.37261C3.24683 5.9584 3.58261 5.62261 3.99683 5.62261H7.31104ZM8.05912 7.12262H6.05722L6.96071 18.8679C7.02086 19.6499 7.67293 20.2537 8.45722 20.2537H15.543C16.3273 20.2537 16.9794 19.6499 17.0395 18.8679L17.943 7.12262H15.9412L15.9393 7.12262H8.06104L8.05912 7.12262ZM13.9697 10.1245C14.3839 10.1245 14.7197 10.4603 14.7197 10.8745V16.5018C14.7197 16.916 14.3839 17.2518 13.9697 17.2518C13.5555 17.2518 13.2197 16.916 13.2197 16.5018V10.8745C13.2197 10.4603 13.5555 10.1245 13.9697 10.1245ZM10.7805 10.8745C10.7805 10.4603 10.4447 10.1245 10.0305 10.1245C9.61627 10.1245 9.28048 10.4603 9.28048 10.8745V16.5018C9.28048 16.916 9.61627 17.2518 10.0305 17.2518C10.4447 17.2518 10.7805 16.916 10.7805 16.5018V10.8745Z" fill="#6C89A9"/>
</svg>
