<svg width="24" height="24" viewBox="0 0 24 24" fill="none" xmlns="http://www.w3.org/2000/svg">
<path fill-rule="evenodd" clip-rule="evenodd" d="M12 9.74876C11.5858 9.74876 11.25 9.41297 11.25 8.99876V5.80748L10.0295 7.02805C9.73657 7.32094 9.2617 7.32094 8.96881 7.02805C8.67591 6.73516 8.67591 6.26028 8.96881 5.96739L11.4609 3.47526C11.5973 3.33431 11.7884 3.24667 12 3.24667C12.0819 3.24667 12.1607 3.25979 12.2345 3.28405C12.3427 3.31954 12.4445 3.38031 12.5305 3.46635L15.0316 5.96739C15.3244 6.26028 15.3244 6.73516 15.0316 7.02805C14.7387 7.32094 14.2638 7.32094 13.9709 7.02805L12.75 5.80719V8.99876C12.75 9.41297 12.4142 9.74876 12 9.74876ZM3.99683 11.25C3.58261 11.25 3.24683 11.5858 3.24683 12C3.24683 12.4142 3.58261 12.75 3.99683 12.75H20.0035C20.4177 12.75 20.7535 12.4142 20.7535 12C20.7535 11.5858 20.4177 11.25 20.0035 11.25H3.99683ZM12 20.7533C11.7885 20.7533 11.5974 20.6658 11.4611 20.5249L8.96881 18.0326C8.67591 17.7397 8.67591 17.2649 8.96881 16.972C9.2617 16.6791 9.73657 16.6791 10.0295 16.972L11.25 18.1925V15.0013C11.25 14.587 11.5858 14.2513 12 14.2513C12.4142 14.2513 12.75 14.587 12.75 15.0013V18.1928L13.9709 16.972C14.2638 16.6791 14.7387 16.6791 15.0316 16.972C15.3244 17.2649 15.3244 17.7397 15.0316 18.0326L12.5305 20.5337C12.4431 20.6211 12.3394 20.6824 12.2293 20.7177C12.157 20.7408 12.08 20.7533 12 20.7533Z" fill="#6C89A9"/>
</svg>
