<svg width="24" height="24" viewBox="0 0 24 24" fill="none" xmlns="http://www.w3.org/2000/svg">
<path fill-rule="evenodd" clip-rule="evenodd" d="M17.8336 6.16637C14.6118 2.94454 9.3882 2.94454 6.16637 6.16637L6.16637 6.16637C2.94454 9.38818 2.94454 14.6118 6.16637 17.8336C6.20106 17.8683 6.23598 17.9026 6.27112 17.9366C7.79296 16.5797 9.79827 15.75 12 15.75C14.2019 15.75 16.2074 16.5799 17.7292 17.9362C17.7642 17.9024 17.799 17.8682 17.8336 17.8336C21.0553 14.6119 21.0554 9.38857 17.834 6.16671L17.8336 6.16637ZM16.5393 18.8908C15.3057 17.8665 13.7256 17.25 12 17.25C10.2744 17.25 8.69461 17.8664 7.46106 18.8911C10.2057 20.703 13.7947 20.7029 16.5393 18.8908ZM18.8943 5.10571C22.7019 8.91332 22.7019 15.0867 18.8943 18.8943C15.0867 22.7019 8.9133 22.7019 5.10571 18.8943C1.2981 15.0867 1.2981 8.9133 5.10571 5.10571C8.91332 1.2981 15.0867 1.2981 18.8943 5.10571ZM13.4588 8.85424C12.6531 8.04859 11.3469 8.04859 10.5412 8.85424C9.7356 9.65988 9.7356 10.9661 10.5412 11.7718C11.3469 12.5774 12.6531 12.5774 13.4588 11.7718C14.2644 10.9661 14.2644 9.65988 13.4588 8.85424ZM14.5194 7.79357C13.128 6.40214 10.872 6.40214 9.48059 7.79357C8.08915 9.18501 8.08915 11.441 9.48059 12.8324C10.872 14.2238 13.128 14.2238 14.5194 12.8324C15.9109 11.441 15.9109 9.18501 14.5194 7.79357Z" fill="#6C89A9"/>
</svg>
