<svg width="24" height="24" viewBox="0 0 24 24" fill="none" xmlns="http://www.w3.org/2000/svg">
<path fill-rule="evenodd" clip-rule="evenodd" d="M5.25684 8.50854C5.25684 6.99448 6.48423 5.76709 7.99829 5.76709C9.51235 5.76709 10.7397 6.99448 10.7397 8.50854C10.7397 10.0226 9.51235 11.25 7.99829 11.25C6.48423 11.25 5.25684 10.0226 5.25684 8.50854ZM7.99829 4.26709C5.6558 4.26709 3.75684 6.16605 3.75684 8.50854C3.75684 10.851 5.6558 12.75 7.99829 12.75C10.3408 12.75 12.2397 10.851 12.2397 8.50854C12.2397 6.16605 10.3408 4.26709 7.99829 4.26709ZM15.251 9.49897C15.251 8.53189 16.0349 7.74792 17.002 7.74792C17.9691 7.74792 18.7531 8.53189 18.7531 9.49897C18.7531 10.466 17.9691 11.25 17.002 11.25C16.0349 11.25 15.251 10.466 15.251 9.49897ZM17.002 6.24792C15.2065 6.24792 13.751 7.70347 13.751 9.49897C13.751 11.2945 15.2065 12.75 17.002 12.75C18.7975 12.75 20.2531 11.2945 20.2531 9.49897C20.2531 7.70347 18.7975 6.24792 17.002 6.24792ZM5.98051 15.7513C4.19381 15.7513 2.74585 17.1992 2.74585 18.9859V20.0033C2.74585 20.4175 2.41006 20.7533 1.99585 20.7533C1.58164 20.7533 1.24585 20.4175 1.24585 20.0033V18.9859C1.24585 16.3708 3.36538 14.2513 5.98051 14.2513H10.0162C12.6313 14.2513 14.7508 16.3708 14.7508 18.9859V20.0033C14.7508 20.4175 14.4151 20.7533 14.0008 20.7533C13.5866 20.7533 13.2508 20.4175 13.2508 20.0033V18.9859C13.2508 17.1992 11.8029 15.7513 10.0162 15.7513H5.98051ZM17.0022 14.2513C16.588 14.2513 16.2522 14.587 16.2522 15.0013C16.2522 15.4155 16.588 15.7513 17.0022 15.7513H18.1047C19.8914 15.7513 21.3393 17.1992 21.3393 18.9859V20.0033C21.3393 20.4175 21.6751 20.7533 22.0893 20.7533C22.5035 20.7533 22.8393 20.4175 22.8393 20.0033V18.9859C22.8393 16.3708 20.7198 14.2513 18.1047 14.2513H17.0022Z" fill="#6C89A9"/>
</svg>
