<svg width="24" height="24" viewBox="0 0 24 24" fill="none" xmlns="http://www.w3.org/2000/svg">
<path fill-rule="evenodd" clip-rule="evenodd" d="M13.8858 3.75898C12.7198 3.08034 11.2792 3.08034 10.1132 3.75898L5.61366 6.37778C4.4598 7.04935 3.75 8.28374 3.75 9.6188V14.3806C3.75 15.7157 4.4598 16.9501 5.61366 17.6217L10.1142 20.2411C11.2802 20.9197 12.7208 20.9197 13.8868 20.2411L18.3863 17.6223C19.5402 16.9507 20.25 15.7163 20.25 14.3812V9.61938C20.25 8.28432 19.5402 7.04993 18.3863 6.37836L13.8858 3.75898ZM9.35862 2.46257C10.991 1.51248 13.008 1.51248 14.6404 2.46257L19.1409 5.08195C20.7563 6.02215 21.75 7.7503 21.75 9.61939V14.3812C21.75 16.2503 20.7563 17.9785 19.1409 18.9187L14.6414 21.5375C13.009 22.4876 10.992 22.4876 9.35962 21.5375L4.85912 18.9181C3.24372 17.9779 2.25 16.2497 2.25 14.3806V9.61881C2.25 7.74972 3.24372 6.02157 4.85912 5.08137L9.35862 2.46257Z" fill="#6C89A9"/>
<path fill-rule="evenodd" clip-rule="evenodd" d="M10.75 10.3247V13.6754L13.5423 12L10.75 10.3247ZM9.25 9.88311C9.25 8.91149 10.31 8.31135 11.1431 8.81124L14.6713 10.9281C15.4805 11.4137 15.4805 12.5864 14.6713 13.0719L11.1431 15.1888C10.31 15.6887 9.25 15.0885 9.25 14.1169V9.88311Z" fill="#6C89A9"/>
</svg>
