<svg width="24" height="24" viewBox="0 0 24 24" fill="none" xmlns="http://www.w3.org/2000/svg">
<path fill-rule="evenodd" clip-rule="evenodd" d="M18.9884 4.36681C18.6741 4.09707 18.2006 4.13324 17.9308 4.44758C17.6611 4.76193 17.6972 5.23543 18.0116 5.50516C19.6392 6.90182 20.75 9.26689 20.75 12.003C20.75 14.7351 19.6412 17.0986 18.0159 18.4964C17.7019 18.7665 17.6663 19.24 17.9364 19.554C18.2065 19.8681 18.68 19.9037 18.9941 19.6336C20.9848 17.9214 22.25 15.1249 22.25 12.003C22.25 8.87709 20.9828 6.07816 18.9884 4.36681ZM9.36876 4.68212C10.506 3.71682 12.25 4.52732 12.25 6.017V17.983C12.25 19.473 10.507 20.2827 9.36903 19.3181L5.60001 16.125H3.5C2.53379 16.125 1.75 15.3412 1.75 14.375V9.625C1.75 8.65878 2.53379 7.875 3.5 7.875H5.60001L9.3686 4.68226L9.36876 4.68212ZM10.75 6.017C10.75 5.80274 10.5002 5.68925 10.3394 5.82573L10.3388 5.82624L6.3598 9.19724C6.22434 9.31201 6.05255 9.375 5.875 9.375H3.5C3.36221 9.375 3.25 9.48721 3.25 9.625V14.375C3.25 14.5128 3.36221 14.625 3.5 14.625H5.875C6.05255 14.625 6.22434 14.688 6.3598 14.8028L10.3388 18.1738L10.339 18.1739C10.501 18.3113 10.75 18.197 10.75 17.983V6.017ZM14.9023 7.62262C15.1228 7.27202 15.5859 7.16659 15.9365 7.38716C17.3521 8.27771 18.2501 10.043 18.2501 12.005C18.2501 13.966 17.3526 15.733 15.9329 16.615C15.5811 16.8336 15.1187 16.7256 14.9001 16.3738C14.6815 16.022 14.7895 15.5595 15.1413 15.3409C16.0457 14.779 16.7501 13.542 16.7501 12.005C16.7501 10.469 16.0461 9.22826 15.1377 8.65682C14.7871 8.43625 14.6817 7.97323 14.9023 7.62262Z" fill="#6C89A9"/>
</svg>
