<svg width="24" height="24" viewBox="0 0 24 24" fill="none" xmlns="http://www.w3.org/2000/svg">
<path fill-rule="evenodd" clip-rule="evenodd" d="M12 3.75C7.44321 3.75 3.75 7.44321 3.75 12C3.75 16.5568 7.44321 20.25 12 20.25C16.5568 20.25 20.25 16.5568 20.25 12C20.25 7.44321 16.5568 3.75 12 3.75ZM12 21.75C6.61479 21.75 2.25 17.3852 2.25 12C2.25 6.61479 6.61479 2.25 12 2.25C17.3852 2.25 21.75 6.61479 21.75 12C21.75 17.3852 17.3852 21.75 12 21.75ZM12 6.75C12.4142 6.75 12.75 7.08579 12.75 7.5V12.5C12.75 12.9142 12.4142 13.25 12 13.25C11.5858 13.25 11.25 12.9142 11.25 12.5V7.5C11.25 7.08579 11.5858 6.75 12 6.75ZM10.9991 16.25C10.995 15.6974 11.4435 15.249 11.9961 15.249C12.5526 15.249 13.0011 15.6974 13.0011 16.25C13.0011 16.8026 12.5526 17.251 12.0001 17.251C11.4475 17.251 10.9991 16.8026 10.9991 16.25Z" fill="#6C89A9"/>
</svg>
