<svg width="24" height="24" viewBox="0 0 24 24" fill="none" xmlns="http://www.w3.org/2000/svg">
<path fill-rule="evenodd" clip-rule="evenodd" d="M10.5689 4.51354C10.8617 4.00661 11.403 3.71429 12.0002 3.71429C12.5975 3.71429 13.1389 4.00686 13.4318 4.51378L21.2692 18.0708C21.5469 18.5513 21.5145 19.0685 21.264 19.4954C21.0071 19.9329 20.5057 20.2857 19.8377 20.2857H4.16275C3.49411 20.2857 2.99249 19.9328 2.73573 19.4954C2.4853 19.0688 2.45314 18.5515 2.73123 18.0709L10.5689 4.51354ZM12.0002 2C13.0203 2 14.0962 2.50207 14.7213 3.58392L22.5588 17.1411C23.1918 18.2363 23.104 19.4876 22.5477 20.4353C21.9976 21.3722 21.0056 22 19.8377 22H4.16275C2.99456 22 2.00216 21.3724 1.45205 20.4353C0.895646 19.4874 0.808372 18.2358 1.44187 17.1407L9.27905 3.58416C9.90411 2.50214 10.9801 2 12.0002 2ZM12 8.63C12.4142 8.63 12.75 8.96579 12.75 9.38V13.12C12.75 13.5342 12.4142 13.87 12 13.87C11.5858 13.87 11.25 13.5342 11.25 13.12V9.38C11.25 8.96579 11.5858 8.63 12 8.63ZM13 16.375C13 16.9273 12.5523 17.375 12 17.375C11.4477 17.375 11 16.9273 11 16.375C11 15.8227 11.4477 15.375 12 15.375C12.5523 15.375 13 15.8227 13 16.375Z" fill="#6C89A9"/>
</svg>
