<svg width="24" height="24" viewBox="0 0 24 24" fill="none" xmlns="http://www.w3.org/2000/svg">
<path fill-rule="evenodd" clip-rule="evenodd" d="M14.083 4.444C14.083 3.50879 14.8418 2.75 15.777 2.75H19.555C20.4897 2.75 21.249 3.50727 21.249 4.444V19.556C21.249 20.4907 20.4917 21.25 19.555 21.25H14.833C14.8319 21.25 14.8307 21.25 14.8296 21.25H9.16602C9.16488 21.25 9.16374 21.25 9.1626 21.25H4.444C3.50727 21.25 2.75 20.4907 2.75 19.556V15.778C2.75 14.8413 3.5093 14.084 4.444 14.084H8.41602V10.111C8.41602 9.17426 9.17532 8.41699 10.11 8.41699H14.083V4.444ZM14.083 9.91699H10.11C10.0027 9.91699 9.91602 10.0037 9.91602 10.111V19.75H14.083V9.91699ZM8.41602 15.584H4.444C4.3367 15.584 4.25 15.6707 4.25 15.778V19.556C4.25 19.6633 4.33673 19.75 4.444 19.75H8.41602V15.584ZM15.583 4.444V19.75H19.555C19.6623 19.75 19.749 19.6633 19.749 19.556V4.444C19.749 4.33673 19.6623 4.25 19.555 4.25H15.777C15.6702 4.25 15.583 4.33721 15.583 4.444Z" fill="#6C89A9"/>
</svg>
