<svg width="24" height="24" viewBox="0 0 24 24" fill="none" xmlns="http://www.w3.org/2000/svg">
<path fill-rule="evenodd" clip-rule="evenodd" d="M12.0473 3.24668L12.0588 3.24667V3.2467C15.3553 3.25566 18.3171 5.26578 19.5422 8.32774L19.6993 8.71991C19.8533 9.10443 19.6664 9.54099 19.2819 9.69499C18.8974 9.849 18.4608 9.66213 18.3068 9.27761L18.1497 8.88517C17.151 6.38894 14.7351 4.75099 12.0473 4.74668C10.305 4.74948 8.61342 5.44277 7.38134 6.67489L4.80706 9.24916H6.998C7.41222 9.24916 7.748 9.58495 7.748 9.99916C7.748 10.4134 7.41222 10.7492 6.998 10.7492H2.99634C2.58212 10.7492 2.24634 10.4134 2.24634 9.99916V5.9975C2.24634 5.58328 2.58212 5.2475 2.99634 5.2475C3.41055 5.2475 3.74634 5.58328 3.74634 5.9975V8.18857L6.32066 5.61425C7.83168 4.10318 9.90073 3.25215 12.0372 3.2467V3.24667L12.0473 3.24668ZM11.9532 20.7533L11.9417 20.7533V20.7533C8.64521 20.7443 5.68334 18.7342 4.45826 15.6723L4.30119 15.2801C4.14719 14.8956 4.33405 14.459 4.71857 14.305C5.1031 14.151 5.53966 14.3379 5.69366 14.7224L5.85083 15.1148C6.84947 17.6111 9.26534 19.249 11.9532 19.2533C13.6955 19.2505 15.3871 18.5572 16.6191 17.3251L19.1934 14.7508H17.0025C16.5883 14.7508 16.2525 14.415 16.2525 14.0008C16.2525 13.5866 16.5883 13.2508 17.0025 13.2508H21.0042C21.4184 13.2508 21.7542 13.5866 21.7542 14.0008V18.0025C21.7542 18.4167 21.4184 18.7525 21.0042 18.7525C20.5899 18.7525 20.2542 18.4167 20.2542 18.0025V15.8114L17.6798 18.3858C16.1688 19.8968 14.0998 20.7479 11.9633 20.7533V20.7533L11.9532 20.7533Z" fill="#6C89A9"/>
</svg>
