<svg width="24" height="24" viewBox="0 0 24 24" fill="none" xmlns="http://www.w3.org/2000/svg">
<path fill-rule="evenodd" clip-rule="evenodd" d="M3.75 12C3.75 7.44321 7.44321 3.75 12 3.75C16.5568 3.75 20.25 7.44321 20.25 12C20.25 16.5568 16.5568 20.25 12 20.25C7.44321 20.25 3.75 16.5568 3.75 12ZM2.25 12C2.25 17.3852 6.61479 21.75 12 21.75C17.3852 21.75 21.75 17.3852 21.75 12C21.75 6.61479 17.3852 2.25 12 2.25C6.61479 2.25 2.25 6.61479 2.25 12ZM11.7919 8.99352C11.499 8.70069 11.0241 8.70078 10.7313 8.99373C10.4384 9.28669 10.4385 9.76156 10.7315 10.0544L12.6779 12L10.7315 13.9456C10.4385 14.2384 10.4384 14.7133 10.7313 15.0062C11.0241 15.2992 11.499 15.2993 11.7919 15.0065L14.269 12.5304C14.4097 12.3898 14.4888 12.199 14.4888 12C14.4888 11.801 14.4097 11.6102 14.269 11.4696L11.7919 8.99352Z" fill="#6C89A9"/>
</svg>
