<svg width="24" height="24" viewBox="0 0 24 24" fill="none" xmlns="http://www.w3.org/2000/svg">
<path fill-rule="evenodd" clip-rule="evenodd" d="M12 3.75C7.44321 3.75 3.75 7.44321 3.75 12C3.75 16.5568 7.44321 20.25 12 20.25C16.5568 20.25 20.25 16.5568 20.25 12C20.25 7.44321 16.5568 3.75 12 3.75ZM12 21.75C6.61479 21.75 2.25 17.3852 2.25 12C2.25 6.61479 6.61479 2.25 12 2.25C17.3852 2.25 21.75 6.61479 21.75 12C21.75 17.3852 17.3852 21.75 12 21.75ZM9.81066 11.25L11.5303 9.53033C11.8232 9.23744 11.8232 8.76256 11.5303 8.46967C11.2374 8.17678 10.7626 8.17678 10.4697 8.46967L7.46967 11.4697C7.39776 11.5416 7.34351 11.6245 7.30691 11.7129C7.27024 11.8013 7.25 11.8983 7.25 12C7.25 12.1017 7.27024 12.1987 7.30691 12.2871C7.34351 12.3755 7.39776 12.4584 7.46967 12.5303L10.4697 15.5303C10.7626 15.8232 11.2374 15.8232 11.5303 15.5303C11.8232 15.2374 11.8232 14.7626 11.5303 14.4697L9.81066 12.75H16C16.4142 12.75 16.75 12.4142 16.75 12C16.75 11.5858 16.4142 11.25 16 11.25H9.81066Z" fill="#6C89A9"/>
</svg>
