<svg width="24" height="24" viewBox="0 0 24 24" fill="none" xmlns="http://www.w3.org/2000/svg">
<path fill-rule="evenodd" clip-rule="evenodd" d="M12.6008 3.6047C14.4087 1.79681 17.3395 1.79681 19.1474 3.6047C20.9553 5.41259 20.9553 8.34347 19.1474 10.1514L11.9154 17.3834C10.7965 18.5023 8.98166 18.5023 7.86276 17.3834C6.74387 16.2645 6.74387 14.4496 7.86276 13.3307L13.3488 7.8447C13.6417 7.55181 14.1165 7.55181 14.4094 7.8447C14.7023 8.13759 14.7023 8.61247 14.4094 8.90536L8.92342 14.3914C8.39032 14.9245 8.39032 15.7896 8.92342 16.3227C9.45653 16.8558 10.3217 16.8558 10.8548 16.3227L18.0868 9.0907C19.3089 7.86859 19.3089 5.88747 18.0868 4.66536C16.8647 3.44325 14.8835 3.44325 13.6614 4.66536L6.42942 11.8974C4.51832 13.8085 4.51832 16.9056 6.42942 18.8167C8.34053 20.7278 11.4377 20.7278 13.3488 18.8167L17.7378 14.4277C18.0307 14.1348 18.5055 14.1348 18.7984 14.4277C19.0913 14.7206 19.0913 15.1955 18.7984 15.4884L14.4094 19.8774C11.9125 22.3743 7.86566 22.3743 5.36876 19.8774C2.87187 17.3805 2.87187 13.3336 5.36876 10.8367L12.6008 3.6047Z" fill="#6C89A9"/>
</svg>
