<svg width="24" height="24" viewBox="0 0 24 24" fill="none" xmlns="http://www.w3.org/2000/svg">
<path fill-rule="evenodd" clip-rule="evenodd" d="M11.7066 4.7933C13.7851 2.76599 17.1073 2.78669 19.1604 4.83976C21.2134 6.89283 21.2341 10.2151 19.2068 12.2936L19.2003 12.3003L17.0083 14.4921C16.7154 14.785 16.2406 14.785 15.9477 14.4921C15.6548 14.1992 15.6548 13.7244 15.9477 13.4315L18.1361 11.243C19.587 9.75214 19.5711 7.37181 18.0997 5.90042C16.6283 4.42904 14.248 4.41316 12.7571 5.86398L10.5687 8.05245C10.2758 8.34534 9.80089 8.34534 9.508 8.05245C9.21511 7.75955 9.21511 7.28468 9.508 6.99179L11.7066 4.7933ZM15.1986 8.80155C15.4915 9.09444 15.4915 9.56932 15.1986 9.86221L9.86236 15.1984C9.56947 15.4913 9.09459 15.4913 8.8017 15.1984C8.50881 14.9055 8.50881 14.4307 8.8017 14.1378L14.1379 8.80155C14.4308 8.50866 14.9057 8.50866 15.1986 8.80155ZM8.05254 10.5685C8.34543 10.2756 8.34543 9.80074 8.05254 9.50785C7.75964 9.21495 7.28477 9.21495 6.99188 9.50785L4.79992 11.6997L4.7934 11.7064C2.76608 13.7849 2.78679 17.1071 4.83985 19.1602C6.89292 21.2133 10.2152 21.234 12.2937 19.2067L14.4922 17.0082C14.7851 16.7153 14.7851 16.2404 14.4922 15.9475C14.1993 15.6546 13.7245 15.6546 13.4316 15.9475L11.2431 18.136C9.75223 19.5868 7.3719 19.5709 5.90051 18.0996C4.42913 16.6282 4.41325 14.2479 5.86407 12.757L8.05254 10.5685Z" fill="#6C89A9"/>
</svg>
