<svg width="24" height="24" viewBox="0 0 24 24" fill="none" xmlns="http://www.w3.org/2000/svg">
<path fill-rule="evenodd" clip-rule="evenodd" d="M12 2.24625C12.4142 2.24625 12.75 2.58203 12.75 2.99625V4.99708C12.75 5.41129 12.4142 5.74708 12 5.74708C11.5858 5.74708 11.25 5.41129 11.25 4.99708V2.99625C11.25 2.58203 11.5858 2.24625 12 2.24625ZM6.16615 4.26629C6.56976 4.35943 6.82144 4.76212 6.7283 5.16572L3.72705 18.1711C3.63391 18.5747 3.23122 18.8264 2.82762 18.7333C2.42401 18.6402 2.17233 18.2375 2.26547 17.8339L5.26672 4.82844C5.35986 4.42483 5.76255 4.17315 6.16615 4.26629ZM17.8339 4.26629C18.2375 4.17315 18.6402 4.42483 18.7333 4.82844L21.7346 17.8339C21.8277 18.2375 21.576 18.6402 21.1724 18.7333C20.7688 18.8264 20.3661 18.5747 20.273 18.1711L17.2717 5.16572C17.1786 4.76212 17.4303 4.35943 17.8339 4.26629ZM12 8.24875C12.4142 8.24875 12.75 8.58453 12.75 8.99875V10.9996C12.75 11.4138 12.4142 11.7496 12 11.7496C11.5858 11.7496 11.25 11.4138 11.25 10.9996V8.99875C11.25 8.58453 11.5858 8.24875 12 8.24875ZM12.0005 15.9496L9.06579 20.1333L11.8515 19.5665C11.9502 19.5464 12.052 19.5464 12.1507 19.5665L14.936 20.134L12.0005 15.9496ZM15.5438 20.2578C15.5436 20.2577 15.544 20.2578 15.5438 20.2578V20.2578ZM10.9732 14.8021C11.473 14.091 12.528 14.091 13.0278 14.8021L16.5226 19.7837C17.1763 20.7165 16.3474 21.9526 15.2445 21.7276L12.0009 21.0668L8.75314 21.7277C7.6546 21.9499 6.8214 20.7192 7.47774 19.7852L10.9732 14.8021Z" fill="#6C89A9"/>
</svg>
