<svg width="24" height="24" viewBox="0 0 24 24" fill="none" xmlns="http://www.w3.org/2000/svg">
<path fill-rule="evenodd" clip-rule="evenodd" d="M18.053 2.36518C16.302 1.90548 14.4394 2.42375 13.1776 3.72133L9.47987 7.41902C8.53783 8.36049 8.00854 9.63775 8.00854 10.9696C8.00854 12.2466 8.49514 13.4734 9.36561 14.4022C9.39622 14.4505 9.43249 14.4956 9.47399 14.5363C9.88009 14.9346 10.3516 15.2603 10.868 15.499C11.244 15.6728 11.6897 15.5089 11.8635 15.1329C12.0373 14.7569 11.8734 14.3112 11.4974 14.1374C11.1788 13.9902 10.8847 13.7955 10.625 13.5603C10.5999 13.5244 10.5717 13.4907 10.5403 13.4593C9.87972 12.7992 9.50854 11.9035 9.50854 10.9696C9.50854 10.0357 9.87991 9.13984 10.5405 8.47968L14.2421 4.7782L14.25 4.77005C15.135 3.85787 16.4428 3.49327 17.6721 3.81601C18.9013 4.13875 19.8613 5.09876 20.1841 6.32802C20.5068 7.55727 20.1421 8.865 19.23 9.74997L17.4912 11.4887C17.1983 11.7816 17.1983 12.2565 17.4912 12.5494C17.7841 12.8423 18.259 12.8423 18.5519 12.5494L20.2787 10.8225C21.5763 9.56069 22.0946 7.69803 21.6349 5.9471C21.1747 4.19428 19.8058 2.82538 18.053 2.36518ZM13.1215 8.51128C12.7456 8.33724 12.2998 8.50085 12.1258 8.87673C11.9517 9.2526 12.1153 9.6984 12.4912 9.87244C12.8508 10.0389 13.1791 10.2657 13.4621 10.5431C14.1212 11.203 14.4915 12.0976 14.4915 13.0305C14.4915 13.9644 14.1201 14.8602 13.4595 15.5204L9.76221 19.2177C8.38089 20.5538 6.18287 20.5359 4.8235 19.1766C3.46413 17.8172 3.44623 15.6192 4.78233 14.2379L6.50884 12.5114C6.80173 12.2185 6.80173 11.7436 6.50884 11.4507C6.21595 11.1578 5.74107 11.1578 5.44818 11.4507L3.7174 13.1814L3.70949 13.1895C1.79892 15.1588 1.82267 18.297 3.76284 20.2372C5.70301 22.1774 8.84129 22.2012 10.8106 20.2906L14.5202 16.581C15.4622 15.6396 15.9915 14.3623 15.9915 13.0305C15.9915 11.6985 15.4622 10.4212 14.52 9.47966L14.5153 9.47507C14.1093 9.07638 13.6379 8.75038 13.1215 8.51128Z" fill="#6C89A9"/>
</svg>
