<svg width="24" height="24" viewBox="0 0 24 24" fill="none" xmlns="http://www.w3.org/2000/svg">
<path d="M20.3124 13.28C20.1124 12.58 19.6124 11.98 18.9124 11.68L18.1124 11.28C17.8124 11.18 17.6124 10.88 17.5124 10.58L16.5124 7.98005C16.0124 6.68005 15.1124 5.58005 13.8124 4.98005C13.1124 4.58005 12.3124 4.48005 11.4124 4.48005L11.3124 4.18005C10.9124 2.68005 9.51242 1.98005 8.11242 2.48005C6.81242 2.98005 6.01242 4.38005 6.51242 5.78005L6.61242 6.08005C6.01242 6.58005 5.51242 7.18005 5.11242 7.98005C4.51242 9.28005 4.41242 10.68 4.91242 11.98L5.81242 14.58C5.91242 14.88 5.91242 15.28 5.71242 15.58L5.31242 16.38C5.01242 17.08 4.91242 17.78 5.21242 18.48C5.61242 19.58 6.61242 20.28 7.71242 20.28C8.01242 20.28 8.31242 20.28 8.61242 20.18L9.11242 19.98C9.61242 21.08 10.7124 21.68 11.8124 21.68C12.1124 21.68 12.5124 21.58 12.8124 21.48C14.3124 20.98 15.1124 19.48 14.8124 17.98L18.6124 16.68C19.3124 16.48 19.8124 15.98 20.1124 15.38C20.5124 14.68 20.5124 13.98 20.3124 13.28ZM7.91242 5.28005C7.71242 4.68005 8.01242 4.08005 8.61242 3.88005C9.21242 3.68005 9.81242 3.98005 10.0124 4.58005V4.68005C9.91242 4.68005 8.01242 5.28005 7.91242 5.28005ZM12.4124 20.08C11.7124 20.28 11.0124 20.08 10.6124 19.48L13.4124 18.48C13.4124 19.18 13.0124 19.78 12.4124 20.08ZM18.8124 14.68C18.7124 14.98 18.4124 15.18 18.1124 15.28L8.01242 18.68C7.41242 18.88 6.81242 18.58 6.51242 17.98C6.41242 17.68 6.41242 17.28 6.61242 16.98L7.01242 16.28C7.31242 15.58 7.41242 14.88 7.11242 14.18L6.21242 11.58C5.91242 10.58 5.91242 9.58005 6.41242 8.68005C6.91242 7.68005 7.71242 6.98005 8.61242 6.68005L10.3124 6.08005C10.7124 5.98005 11.1124 5.88005 11.5124 5.88005C12.1124 5.88005 12.6124 5.98005 13.2124 6.28005C14.1124 6.68005 14.8124 7.48005 15.1124 8.48005L16.0124 11.08C16.2124 11.78 16.7124 12.38 17.4124 12.68L18.2124 13.08C18.7758 13.2678 19.1432 14.1839 18.8124 14.68Z" fill="#6C89A9"/>
</svg>
