<svg width="24" height="24" viewBox="0 0 24 24" fill="none" xmlns="http://www.w3.org/2000/svg">
<path fill-rule="evenodd" clip-rule="evenodd" d="M15.6774 2.31974C16.0509 2.14055 16.4989 2.29804 16.6781 2.67149L17.1783 3.71403C17.3575 4.08748 17.2 4.53548 16.8265 4.71466C16.4531 4.89384 16.0051 4.73636 15.8259 4.3629L15.3257 3.32037C15.1465 2.94692 15.304 2.49892 15.6774 2.31974ZM20.5865 4.51523C20.8794 4.22234 20.8794 3.74746 20.5865 3.45457C20.2937 3.16167 19.8188 3.16167 19.5259 3.45456L18.6193 4.36111C18.3264 4.654 18.3264 5.12887 18.6193 5.42177C18.9122 5.71466 19.3871 5.71467 19.68 5.42177L20.5865 4.51523ZM10.5784 6.58923C6.80518 6.58923 3.74634 9.64807 3.74634 13.4213C3.74634 17.1946 6.80518 20.2534 10.5784 20.2534C14.3517 20.2534 17.4106 17.1946 17.4106 13.4213C17.4106 11.5471 16.6558 9.84911 15.4338 8.61471C15.4253 8.60701 15.417 8.59909 15.4089 8.59093C15.4007 8.58278 15.3928 8.57448 15.3851 8.56605C14.1507 7.34395 12.4527 6.58923 10.5784 6.58923ZM18.9106 13.4213C18.9106 11.3905 18.184 9.52944 16.9767 8.08377L17.68 7.38049C17.9729 7.0876 17.9729 6.61272 17.68 6.31983C17.3871 6.02694 16.9122 6.02694 16.6193 6.31983L15.916 7.0231C14.4704 5.81577 12.6093 5.08923 10.5784 5.08923C5.97675 5.08923 2.24634 8.81964 2.24634 13.4213C2.24634 18.023 5.97675 21.7534 10.5784 21.7534C15.1801 21.7534 18.9106 18.023 18.9106 13.4213ZM20.4061 6.83451C20.0398 6.64117 19.5861 6.78141 19.3928 7.14773C19.1994 7.51406 19.3397 7.96775 19.706 8.16109L20.6538 8.6613C21.0201 8.85464 21.4738 8.7144 21.6671 8.34808C21.8605 7.98175 21.7202 7.52806 21.3539 7.33472L20.4061 6.83451Z" fill="#6C89A9"/>
</svg>
