<svg width="24" height="24" viewBox="0 0 24 24" fill="none" xmlns="http://www.w3.org/2000/svg">
<path d="M21.2 4.80001C20.9 4.50001 20.4 4.30001 19.9 4.30001C19.1 4.30001 18.4 4.40001 17.7 4.50001V3.00001C17.7 2.40001 17.4 1.80001 16.9 1.50001C16.4 1.20001 15.8 1.20001 15.2 1.40001C13.4 2.30001 11.9 4.10001 11.3 5.90001C9.09995 4.90001 6.89995 4.40001 3.99995 4.30001C3.49995 4.30001 3.09995 4.50001 2.69995 4.80001C2.29995 5.10001 2.19995 5.50001 2.19995 6.00001V17.8C2.19995 18.8 2.99995 19.5 3.89995 19.5C6.99995 19.5 9.09995 20.1 11.6 21.5C11.7 21.5 11.8 21.6 11.9 21.6C11.9 21.6 11.9 21.6 12 21.6C12.1 21.6 12.2 21.6 12.3 21.5C14.7 20.1 16.9 19.5 20 19.5C20.9 19.5 21.7 18.7 21.7 17.8V6.00001C21.8 5.50001 21.6 5.10001 21.2 4.80001ZM12.8 6.70001C13.1 5.10001 14.4 3.60001 16 2.80001C16.1 2.80001 16.1 2.80001 16.2 2.80001C16.2 2.80001 16.3 2.90001 16.3 3.00001V15.2C16.3 15.3 16.2 15.4 16.1 15.4C14.8 15.8 13.6 16.7 12.8 17.8V6.70001ZM3.79995 17.9V6.00001C3.79995 5.90001 3.79995 5.80001 3.89995 5.80001C3.89995 5.80001 3.99995 5.70001 4.09995 5.70001C6.99995 5.80001 9.09995 6.30001 11.4 7.50001V19.6C8.99995 18.6 6.79995 18.1 3.99995 18.1C3.89995 18.1 3.79995 18 3.79995 17.9ZM20.2 17.9C20.2 18 20.1 18.1 20 18.1C17.5 18.1 15.4 18.5 13.4 19.4C14.1 18.3 15.3 17.3 16.5 16.9C17.2 16.7 17.7 16 17.7 15.3V6.00001C18.4 5.90001 19.1 5.80001 19.9 5.80001C20 5.80001 20.1 5.80001 20.1 5.90001C20.1 5.90001 20.2 6.00001 20.2 6.10001V17.9Z" fill="#6C89A9"/>
</svg>
