<svg width="24" height="24" viewBox="0 0 24 24" fill="none" xmlns="http://www.w3.org/2000/svg">
<path fill-rule="evenodd" clip-rule="evenodd" d="M12.9277 3.98868C14.8316 2.08479 17.9184 2.08479 19.8223 3.98868C21.7262 5.89257 21.7262 8.97945 19.8223 10.8833L17.6353 13.0703C17.3424 13.3632 16.8676 13.3632 16.5747 13.0703C16.2818 12.7774 16.2818 12.3026 16.5747 12.0097L18.7617 9.82268C20.0798 8.50457 20.0798 6.36745 18.7617 5.04934C17.4436 3.73123 15.3064 3.73123 13.9883 5.04934L11.8013 7.23634C11.5084 7.52923 11.0336 7.52923 10.7407 7.23634C10.4478 6.94345 10.4478 6.46857 10.7407 6.17568L12.9277 3.98868ZM10.6553 13.1557C10.9482 13.4486 10.9482 13.9234 10.6553 14.2163L8.78033 16.0913C8.48744 16.3842 8.01256 16.3842 7.71967 16.0913C7.42678 15.7984 7.42678 15.3236 7.71967 15.0307L9.59467 13.1557C9.88756 12.8628 10.3624 12.8628 10.6553 13.1557ZM16.2803 8.59133C16.5732 8.29844 16.5732 7.82357 16.2803 7.53067C15.9874 7.23778 15.5126 7.23778 15.2197 7.53067L13.3447 9.40567C13.0518 9.69857 13.0518 10.1734 13.3447 10.4663C13.6376 10.7592 14.1124 10.7592 14.4053 10.4663L16.2803 8.59133ZM4.43866 4.24967C4.73156 3.95678 5.20643 3.95678 5.49932 4.24967L19.5613 18.3117C19.8542 18.6046 19.8542 19.0794 19.5613 19.3723C19.2684 19.6652 18.7936 19.6652 18.5007 19.3723L4.43866 5.31033C4.14577 5.01744 4.14577 4.54256 4.43866 4.24967ZM7.42534 11.6123C7.71823 11.3194 7.71823 10.8446 7.42534 10.5517C7.13244 10.2588 6.65757 10.2588 6.36468 10.5517L4.17768 12.7387C2.27378 14.6426 2.27378 17.7294 4.17768 19.6333C6.08157 21.5372 9.16844 21.5372 11.0723 19.6333L13.2593 17.4463C13.5522 17.1534 13.5522 16.6786 13.2593 16.3857C12.9664 16.0928 12.4916 16.0928 12.1987 16.3857L10.0117 18.5727C8.69357 19.8908 6.55644 19.8908 5.23834 18.5727C3.92023 17.2546 3.92023 15.1174 5.23834 13.7993L7.42534 11.6123Z" fill="#6C89A9"/>
</svg>
