<svg width="24" height="24" viewBox="0 0 24 24" fill="none" xmlns="http://www.w3.org/2000/svg">
<path fill-rule="evenodd" clip-rule="evenodd" d="M8.24829 2.99625C8.24829 2.58203 7.9125 2.24625 7.49829 2.24625C7.08408 2.24625 6.74829 2.58203 6.74829 2.99625V3.74686H5.99634C3.92527 3.74686 2.24634 5.42579 2.24634 7.49686V9.49896V18.0037C2.24634 20.0748 3.92527 21.7537 5.99634 21.7537H18.0038C20.0749 21.7537 21.7538 20.0748 21.7538 18.0037V9.49896V7.49686C21.7538 5.42579 20.0749 3.74686 18.0038 3.74686H17.252V2.99625C17.252 2.58203 16.9162 2.24625 16.502 2.24625C16.0877 2.24625 15.752 2.58203 15.752 2.99625V3.74686H8.24829V2.99625ZM6.74829 5.24686V5.9975C6.74829 6.41171 7.08408 6.7475 7.49829 6.7475C7.9125 6.7475 8.24829 6.41171 8.24829 5.9975V5.24686H15.752V5.9975C15.752 6.41171 16.0877 6.7475 16.502 6.7475C16.9162 6.7475 17.252 6.41171 17.252 5.9975V5.24686H18.0038C19.2465 5.24686 20.2538 6.25422 20.2538 7.49686V8.74896H3.74634V7.49686C3.74634 6.25422 4.7537 5.24686 5.99634 5.24686H6.74829ZM3.74634 10.249V18.0037C3.74634 19.2464 4.7537 20.2537 5.99634 20.2537H18.0038C19.2465 20.2537 20.2538 19.2464 20.2538 18.0037V10.249H3.74634Z" fill="#6C89A9"/>
</svg>
