<svg width="24" height="24" viewBox="0 0 24 24" fill="none" xmlns="http://www.w3.org/2000/svg">
<path fill-rule="evenodd" clip-rule="evenodd" d="M10.8284 3.25C10.0991 3.25 9.39961 3.53973 8.88388 4.05546L7.76256 5.17678C7.71568 5.22366 7.65209 5.25 7.58579 5.25H5C3.48122 5.25 2.25 6.48122 2.25 8V17C2.25 18.5188 3.48122 19.75 5 19.75H19C20.5188 19.75 21.75 18.5188 21.75 17V8C21.75 6.48122 20.5188 5.25 19 5.25H16.4142C16.3479 5.25 16.2843 5.22366 16.2374 5.17678L15.1161 4.05546C14.6004 3.53973 13.9009 3.25 13.1716 3.25H10.8284ZM9.94454 5.11612C10.179 4.8817 10.4969 4.75 10.8284 4.75H13.1716C13.5031 4.75 13.821 4.8817 14.0555 5.11612L15.1768 6.23744C15.505 6.56563 15.9501 6.75 16.4142 6.75H19C19.6904 6.75 20.25 7.30964 20.25 8V17C20.25 17.6904 19.6904 18.25 19 18.25H5C4.30964 18.25 3.75 17.6904 3.75 17V8C3.75 7.30964 4.30964 6.75 5 6.75H7.58579C8.04992 6.75 8.49503 6.56562 8.82322 6.23744L9.94454 5.11612ZM12 8.75C10.2051 8.75 8.75 10.2051 8.75 12C8.75 13.7949 10.2051 15.25 12 15.25C13.7949 15.25 15.25 13.7949 15.25 12C15.25 10.2051 13.7949 8.75 12 8.75ZM7.25 12C7.25 9.37665 9.37665 7.25 12 7.25C14.6234 7.25 16.75 9.37665 16.75 12C16.75 14.6234 14.6234 16.75 12 16.75C9.37665 16.75 7.25 14.6234 7.25 12ZM18.5657 8.43438C18.716 8.58468 18.8002 8.7886 18.7999 9.00113C18.7993 9.44269 18.4411 9.80025 17.9995 9.80001C17.558 9.79978 17.2001 9.44184 17.2 9.00028C17.1998 8.55872 17.5574 8.20054 17.999 8.20001C18.2115 8.19976 18.4154 8.28408 18.5657 8.43438Z" fill="#6C89A9"/>
</svg>
