<svg width="24" height="24" viewBox="0 0 24 24" fill="none" xmlns="http://www.w3.org/2000/svg">
<path fill-rule="evenodd" clip-rule="evenodd" d="M15.2341 3.86292C13.1617 3.04046 10.8387 3.04044 8.7663 3.86286L9.66831 5.66112C11.1707 5.10958 12.8297 5.10962 14.332 5.66124L15.2341 3.86292ZM16.5753 4.5345L15.6735 6.33249C16.0634 6.58574 16.4328 6.88333 16.7747 7.22526C17.1144 7.56493 17.4122 7.93471 17.6667 8.32722L19.4642 7.42556C19.1096 6.84693 18.684 6.30393 18.1901 5.81003C17.6925 5.31242 17.1499 4.88724 16.5753 4.5345ZM18.3374 14.3311C18.9008 12.8004 18.8814 11.1484 18.3375 9.66886L20.1354 8.76702C20.945 10.8056 20.9761 13.1175 20.1353 15.2329L18.3374 14.3311ZM17.6667 15.6728C17.145 16.4779 16.4626 17.1543 15.6729 17.6663L16.5745 19.4637C17.7393 18.7497 18.7349 17.765 19.4642 16.5744L17.6667 15.6728ZM5.81014 5.81003C6.30779 5.31238 6.85045 4.88717 7.42502 4.53441L8.32685 6.33229C7.93686 6.58559 7.56729 6.88325 7.22527 7.22526C6.88563 7.5649 6.58786 7.93464 6.33341 8.32711L4.53598 7.42553C4.89063 6.84691 5.31624 6.30392 5.81014 5.81003ZM3.8648 8.76699C3.05518 10.8056 3.02409 13.1175 3.86497 15.2329L5.66264 14.3312C5.0992 12.8004 5.11866 11.1483 5.66256 9.66873L3.8648 8.76699ZM4.53603 16.5744L6.33341 15.6728C6.85511 16.4781 7.53762 17.1545 8.32745 17.6664L7.42588 19.4638C6.26103 18.7498 5.26532 17.765 4.53603 16.5744ZM9.6689 18.3376L8.76714 20.1354C9.77715 20.537 10.8709 20.754 12.0001 20.754C13.1294 20.754 14.2232 20.537 15.2332 20.1353L14.3314 18.3375C13.598 18.6075 12.8109 18.7525 12 18.7525C11.1893 18.7525 10.4022 18.6075 9.6689 18.3376ZM19.2507 4.74936C15.2463 0.744963 8.7539 0.744963 4.74948 4.74936C1.81686 7.68197 0.939566 12.0924 2.52668 15.924C4.1138 19.7557 7.85276 22.254 12.0001 22.254C16.1475 22.254 19.8864 19.7557 21.4735 15.924C23.0606 12.0924 22.1834 7.68197 19.2507 4.74936ZM8.28593 8.28592C10.3372 6.23469 13.6629 6.23469 15.7141 8.28592C17.2163 9.78812 17.6657 12.0473 16.8527 14.01C16.0397 15.9728 14.1244 17.2525 12 17.2525C9.87557 17.2525 7.96032 15.9728 7.14733 14.01C6.33435 12.0473 6.78373 9.78812 8.28593 8.28592ZM9.24927 12C9.24927 11.5858 9.58505 11.25 9.99927 11.25H11.25V9.99918C11.25 9.58496 11.5858 9.24918 12 9.24918C12.4142 9.24918 12.75 9.58496 12.75 9.99918V11.25H14.0009C14.4151 11.25 14.7509 11.5858 14.7509 12C14.7509 12.4142 14.4151 12.75 14.0009 12.75H12.75V14.0008C12.75 14.4151 12.4142 14.7508 12 14.7508C11.5858 14.7508 11.25 14.4151 11.25 14.0008V12.75H9.99927C9.58505 12.75 9.24927 12.4142 9.24927 12Z" fill="#6C89A9"/>
</svg>
