<svg width="24" height="24" viewBox="0 0 24 24" fill="none" xmlns="http://www.w3.org/2000/svg">
<path fill-rule="evenodd" clip-rule="evenodd" d="M9.78931 4.04938C12.6567 3.25174 15.7315 4.05964 17.8364 6.16377L17.8737 6.20129C19.4267 7.77432 20.2843 9.90529 20.253 12.117C20.2214 14.3451 19.2902 16.4658 17.6713 17.9968C14.4701 20.9574 9.52999 20.9574 6.32881 17.9968C4.1679 15.9523 3.27426 12.9031 3.98998 10.0155C4.70602 7.12664 6.92191 4.84702 9.78931 4.04938ZM18.8969 5.1029C16.4094 2.61637 12.7758 1.66165 9.38732 2.60425C5.9988 3.54685 3.3802 6.24076 2.53404 9.65463C1.68787 13.0685 2.74518 16.6736 5.30122 19.0896L5.30695 19.0949C9.08403 22.5913 14.916 22.5914 18.6931 19.095L18.6987 19.0897C20.6138 17.2802 21.7155 14.7728 21.7528 12.1383C21.7899 9.52461 20.7764 7.00637 18.9412 5.14746L18.8969 5.1029ZM10.9993 7.74792V11.9933L10.9993 12L10.9993 12.0067V15.2517H12.5005V7.74792H10.9993ZM9.49927 7.49813V11.25H7.74826C7.05778 11.25 6.49805 11.8097 6.49805 12.5002V15.5015C6.49805 16.1919 7.05778 16.7517 7.74826 16.7517H10.2458L10.2493 16.7517H13.249L13.2507 16.7517H15.7518C16.4422 16.7517 17.002 16.1919 17.002 15.5015V10.4994C17.002 9.80891 16.4422 9.24918 15.7518 9.24918H14.0005V7.49813C14.0005 6.80766 13.4408 6.24792 12.7503 6.24792H10.7495C10.059 6.24792 9.49927 6.80766 9.49927 7.49813ZM7.99805 12.75H9.49927V15.2517H7.99805V12.75ZM15.502 15.2517H14.0005V10.7492H15.502V15.2517Z" fill="#6C89A9"/>
</svg>
