<svg width="24" height="24" viewBox="0 0 24 24" fill="none" xmlns="http://www.w3.org/2000/svg">
<path fill-rule="evenodd" clip-rule="evenodd" d="M3.74634 12C3.74634 7.44158 7.44167 3.74625 12.0001 3.74625C16.5585 3.74625 20.2538 7.44158 20.2538 12C20.2538 16.5584 16.5585 20.2537 12.0001 20.2537C7.44167 20.2537 3.74634 16.5584 3.74634 12ZM12.0001 2.24625C6.61324 2.24625 2.24634 6.61315 2.24634 12C2.24634 17.3868 6.61324 21.7537 12.0001 21.7537C17.3869 21.7537 21.7538 17.3868 21.7538 12C21.7538 6.61315 17.3869 2.24625 12.0001 2.24625ZM16.0179 10.1323C16.3108 9.83943 16.3108 9.36455 16.0179 9.07166C15.725 8.77877 15.2501 8.77877 14.9572 9.07166L10.5965 13.4324L8.97296 11.8088C8.68006 11.5159 8.20519 11.5159 7.9123 11.8088C7.6194 12.1017 7.6194 12.5766 7.9123 12.8695L10.0802 15.0374C10.3731 15.3303 10.848 15.3303 11.1409 15.0374C11.1827 14.9955 11.2185 14.95 11.2484 14.9018L16.0179 10.1323Z" fill="#6C89A9"/>
</svg>
