<svg width="38" height="42" viewBox="0 0 38 42" fill="none" xmlns="http://www.w3.org/2000/svg">
<path d="M23.9556 2.41998H14.041V20.238H23.9556V2.41998Z" fill="#FF5F00"/>
<path d="M14.6707 11.3373C14.6693 9.62158 15.0583 7.92803 15.8081 6.38483C16.5579 4.84162 17.6489 3.48919 18.9985 2.42988C17.3269 1.11618 15.3194 0.299271 13.2055 0.0725137C11.0916 -0.154244 8.95656 0.218298 7.04436 1.14756C5.13217 2.07683 3.51998 3.52532 2.39207 5.3275C1.26415 7.12968 0.666016 9.21282 0.666016 11.3389C0.666016 13.4649 1.26415 15.548 2.39207 17.3502C3.51998 19.1524 5.13217 20.6009 7.04436 21.5302C8.95656 22.4594 11.0916 22.832 13.2055 22.6052C15.3194 22.3784 17.3269 21.5615 18.9985 20.2478C17.6484 19.1882 16.5572 17.8353 15.8074 16.2915C15.0576 14.7477 14.6689 13.0535 14.6707 11.3373V11.3373Z" fill="#EB001B"/>
<path d="M37.3322 11.3339C37.3322 13.4601 36.7339 15.5433 35.6058 17.3456C34.4777 19.1478 32.8652 20.5963 30.9528 21.5254C29.0403 22.4546 26.9051 22.8269 24.791 22.5998C22.677 22.3727 20.6695 21.5554 18.998 20.2413C20.3472 19.181 21.4378 17.8282 22.1878 16.2849C22.9378 14.7416 23.3275 13.0482 23.3275 11.3323C23.3275 9.61642 22.9378 7.92295 22.1878 6.37966C21.4378 4.83637 20.3472 3.48357 18.998 2.42331C20.6697 1.10904 22.6775 0.291698 24.7918 0.0647329C26.9061 -0.162232 29.0417 0.210341 30.9542 1.13986C32.8667 2.06937 34.4791 3.51831 35.607 5.32101C36.7349 7.12371 37.3327 9.20741 37.3322 11.3339Z" fill="#F79E1B"/>
<path d="M36.2438 18.3497V17.9846H36.3917V17.9122H36.0234V17.9877H36.1714V18.3529L36.2438 18.3497ZM36.9708 18.3497V17.9091H36.8733L36.7411 18.2238L36.6089 17.9091H36.4924V18.3497H36.5585V18.0192L36.6813 18.3056H36.7662L36.889 18.0192V18.3529L36.9708 18.3497Z" fill="#F79E1B"/>
<path d="M16.5542 41.7928H13.584L15.4418 30.2131H18.4119L16.5542 41.7928Z" fill="#00579F"/>
<path d="M27.3221 30.4962C26.7362 30.2619 25.807 30.0032 24.658 30.0032C21.7248 30.0032 19.6592 31.5799 19.6465 33.8341C19.6222 35.4973 21.1254 36.4211 22.2497 36.9757C23.3989 37.5423 23.7895 37.9122 23.7895 38.4173C23.7778 39.1931 22.8609 39.5506 22.0058 39.5506C20.8199 39.5506 20.1845 39.3663 19.2189 38.9347L18.8278 38.7497L18.4121 41.3491C19.1087 41.669 20.3922 41.9529 21.7248 41.9653C24.8414 41.9653 26.8704 40.413 26.8944 38.0108C26.9063 36.6926 26.1125 35.6825 24.4012 34.8571C23.3623 34.3273 22.7261 33.97 22.7261 33.4279C22.7383 32.9351 23.2642 32.4303 24.4369 32.4303C25.4025 32.4056 26.112 32.6396 26.6495 32.8737L26.9181 32.9967L27.3221 30.4962V30.4962Z" fill="#00579F"/>
<path d="M31.2693 37.6905C31.5139 37.0253 32.4552 34.4506 32.4552 34.4506C32.4428 34.4753 32.6993 33.7731 32.846 33.342L33.0535 34.3397C33.0535 34.3397 33.616 37.1115 33.7382 37.6905C33.2739 37.6905 31.856 37.6905 31.2693 37.6905ZM34.9357 30.2131H32.6382C31.9297 30.2131 31.3914 30.4223 31.0858 31.1738L26.6738 41.7926H29.7904C29.7904 41.7926 30.3035 40.3634 30.4138 40.0556C30.7557 40.0556 33.7875 40.0556 34.2274 40.0556C34.3126 40.4621 34.5818 41.7926 34.5818 41.7926H37.332L34.9357 30.2131V30.2131Z" fill="#00579F"/>
<path d="M11.1028 30.2131L8.19398 38.1093L7.87611 36.5079C7.33832 34.66 5.65171 32.6523 3.76953 31.6541L6.43394 41.7805H9.57491L14.2436 30.2131H11.1028V30.2131Z" fill="#00579F"/>
<path d="M5.49376 30.2131H0.714905L0.666016 30.447C4.39382 31.408 6.86267 33.7243 7.87701 36.5084L6.83815 31.1865C6.66711 30.4469 6.14151 30.2375 5.49376 30.2131Z" fill="#FAA61A"/>
</svg>
