<svg width="38" height="36" viewBox="0 0 38 36" fill="none" xmlns="http://www.w3.org/2000/svg">
<path fill-rule="evenodd" clip-rule="evenodd" d="M4 0.59375C2.18835 0.59375 0.71875 2.06335 0.71875 3.875V30.125C0.71875 32.9735 3.02647 35.2812 5.875 35.2812H32.125C34.9735 35.2812 37.2812 32.9735 37.2812 30.125V18.875C37.2812 17.0634 35.8116 15.5938 34 15.5938H29.7812V3.875C29.7812 2.06335 28.3116 0.59375 26.5 0.59375H4ZM26.9688 17V3.875C26.9688 3.61665 26.7584 3.40625 26.5 3.40625H4C3.74165 3.40625 3.53125 3.61665 3.53125 3.875V30.125C3.53125 31.4202 4.57978 32.4688 5.875 32.4688H27.5306C27.1714 31.7656 26.9688 30.9691 26.9688 30.125V17ZM32.125 32.4688C33.4202 32.4688 34.4688 31.4202 34.4688 30.125V18.875C34.4688 18.6166 34.2584 18.4062 34 18.4062H29.7812V30.125C29.7812 31.4202 30.8298 32.4688 32.125 32.4688ZM8.21875 9.5C8.21875 8.72335 8.84835 8.09375 9.625 8.09375H20.875C21.6516 8.09375 22.2812 8.72335 22.2812 9.5C22.2812 10.2767 21.6516 10.9062 20.875 10.9062H9.625C8.84835 10.9062 8.21875 10.2767 8.21875 9.5ZM9.625 15.35C8.84835 15.35 8.21875 15.9796 8.21875 16.7562C8.21875 17.5329 8.84835 18.1625 9.625 18.1625H20.875C21.6516 18.1625 22.2812 17.5329 22.2812 16.7562C22.2812 15.9796 21.6516 15.35 20.875 15.35H9.625ZM8.21875 24.6125C8.21875 23.8358 8.84835 23.2062 9.625 23.2062H15.25C16.0266 23.2062 16.6562 23.8358 16.6562 24.6125C16.6562 25.3891 16.0266 26.0187 15.25 26.0187H9.625C8.84835 26.0187 8.21875 25.3891 8.21875 24.6125Z" fill="#6C89A9"/>
</svg>
