<svg width="45" height="46" viewBox="0 0 45 46" fill="none" xmlns="http://www.w3.org/2000/svg">
<path d="M35.1145 28.8318C35.8712 29.123 36.1623 30.2567 36.2202 30.7513C36.3368 31.6535 36.0755 32.0025 35.7844 32.0025C35.4933 32.0025 35.0855 31.6535 34.6497 30.9556C34.2131 30.2567 34.0386 29.472 34.2718 29.0642C34.4165 28.802 34.7365 28.6863 35.1154 28.8318H35.1145ZM30.6934 32.1192C31.159 32.1192 31.6825 32.3226 32.1481 32.7294C33.0495 33.4862 33.3117 34.3586 32.8461 34.9987C32.5839 35.3188 32.1481 35.5222 31.6535 35.5222C31.159 35.5222 30.6355 35.3477 30.2865 35.0277C29.4719 34.3297 29.2396 33.1652 29.7622 32.526C29.9665 32.2638 30.2865 32.1192 30.6934 32.1192ZM20.5132 40.5255C9.45875 40.5255 0.5 31.5659 0.5 20.5123C0.5 9.45875 9.45965 0.5 20.5123 0.5C31.5659 0.5 40.5255 9.45965 40.5255 20.5123C40.5255 24.2643 39.4785 27.7849 37.7047 30.7811C37.6459 30.8679 37.5004 30.839 37.4714 30.7223C36.7735 25.8067 33.7773 23.1007 29.4141 22.2871C29.0353 22.2283 28.9774 21.9959 29.4719 21.9381C30.81 21.8214 32.7005 21.8504 33.6896 22.0249C33.7474 21.5303 33.7773 21.0068 33.7773 20.4834C33.7773 13.1818 27.8428 7.24731 20.5412 7.24731C13.2406 7.24731 7.30608 13.1818 7.30608 20.4834C7.30608 27.7849 13.2406 33.7194 20.5421 33.7194H21.1524C20.9451 32.5384 20.8572 31.3396 20.8902 30.141C20.92 29.3264 21.0945 29.2098 21.4435 29.8499C23.2761 33.0206 25.8944 35.8712 31.0134 37.0058C35.2021 37.9371 39.3909 39.0129 43.8996 44.7431C44.3065 45.2377 43.6962 45.7612 43.2306 45.3543C38.635 41.2813 34.4463 39.9433 30.6355 39.9433C26.3591 39.9731 23.4506 40.5255 20.5123 40.5255H20.5132Z" fill="#FF8C00"/>
</svg>
