<svg width="42" height="30" viewBox="0 0 42 30" fill="none" xmlns="http://www.w3.org/2000/svg">
<path d="M27.0156 0C18.8788 0 12.4062 6.56497 12.4062 14.6094C12.4062 22.7462 18.9713 29.2188 27.0156 29.2188C35.06 29.2188 41.625 22.6538 41.625 14.6094C41.625 6.56497 35.06 0 27.0156 0ZM27.0156 20.0648C24.0568 20.0648 21.5603 17.5682 21.5603 14.6094C21.5603 11.6505 24.0568 9.15397 27.0156 9.15397C29.9745 9.15397 32.471 11.6505 32.471 14.6094C32.3787 17.5682 29.9745 20.0648 27.0156 20.0648Z" fill="#8B3FFD"/>
<path d="M12.4062 3.4375V25.7812H7.14258L0.375 3.4375H12.4062Z" fill="#8B3FFD"/>
</svg>
