<svg width="34" height="40" viewBox="0 0 34 40" fill="none" xmlns="http://www.w3.org/2000/svg">
<path d="M28.8483 3.53567C27.0453 1.48466 23.7863 0.605347 19.6171 0.605347H7.51671C6.6637 0.605347 5.93887 1.22452 5.80531 2.06406L0.766986 33.9569C0.666822 34.5858 1.15472 35.1555 1.79339 35.1555H9.26364L11.1398 23.2783L11.0817 23.6502C11.2152 22.8107 11.9347 22.1915 12.7866 22.1915H16.3365C23.3102 22.1915 28.7707 19.3644 30.3658 11.1861C30.4132 10.9443 30.4541 10.7089 30.4897 10.4788C30.2883 10.3724 30.2883 10.3724 30.4897 10.4788C30.9646 7.45604 30.4864 5.39857 28.8483 3.53567Z" fill="#27346A"/>
<path d="M13.9983 9.38988C14.1975 9.29528 14.4194 9.24261 14.652 9.24261H24.1385C25.2618 9.24261 26.3097 9.31571 27.2672 9.46943C27.5419 9.5135 27.8079 9.56402 28.0664 9.62207C28.3249 9.67904 28.5758 9.74354 28.8192 9.81449C28.9409 9.84996 29.0605 9.88651 29.1779 9.92521C29.6485 10.0822 30.0869 10.2649 30.4897 10.4788C30.9646 7.45496 30.4864 5.39857 28.8483 3.53567C27.0443 1.48466 23.7863 0.605347 19.6171 0.605347H7.51563C6.6637 0.605347 5.93887 1.22452 5.80531 2.06406L0.766986 33.9558C0.666823 34.5858 1.15472 35.1544 1.79232 35.1544H9.26365L13.156 10.5186C13.2357 10.0134 13.561 9.5995 13.9983 9.38988Z" fill="#27346A"/>
<path d="M30.3658 11.1861C28.7707 19.3633 23.3102 22.1915 16.3364 22.1915H12.7855C11.9335 22.1915 11.2141 22.8106 11.0816 23.6502L8.74768 38.4179C8.66045 38.9683 9.08695 39.4671 9.64485 39.4671H15.9422C16.6875 39.4671 17.3219 38.9253 17.4382 38.1911L17.4996 37.8708L18.6865 30.3633L18.7629 29.9484C18.8793 29.2142 19.5136 28.6724 20.2589 28.6724H21.2013C27.3016 28.6724 32.0782 26.1989 33.474 19.0451C34.0567 16.0556 33.7552 13.5596 32.2139 11.8063C31.7465 11.2753 31.166 10.8367 30.4896 10.4788C30.453 10.7099 30.4131 10.9442 30.3658 11.1861Z" fill="#2790C3"/>
<path d="M28.8196 9.81443C28.5762 9.74348 28.3252 9.67899 28.0667 9.62201C27.8083 9.56504 27.5412 9.51452 27.2676 9.47044C26.309 9.31565 25.2622 9.24255 24.1377 9.24255H14.6524C14.4187 9.24255 14.1968 9.29523 13.9986 9.3909C13.5603 9.60051 13.2361 10.0133 13.1564 10.5196L11.1402 23.2782L11.082 23.6502C11.2145 22.8106 11.934 22.1915 12.7859 22.1915H16.3368C23.3106 22.1915 28.7711 19.3643 30.3662 11.1861C30.4136 10.9442 30.4534 10.7099 30.49 10.4788C30.0862 10.2659 29.6489 10.0821 29.1782 9.92623C29.0608 9.88753 28.9413 9.8499 28.8196 9.81443Z" fill="#1F264F"/>
</svg>
