<svg width="26" height="26" viewBox="0 0 26 26" fill="none" xmlns="http://www.w3.org/2000/svg">
<path fill-rule="evenodd" clip-rule="evenodd" d="M5.22183 5.22183C9.5176 0.926057 16.4824 0.92606 20.7781 5.22183L20.7786 5.22229C25.0739 9.51809 25.0738 16.4826 20.7781 20.7781C16.4824 25.0739 9.51757 25.0739 5.22183 20.7781C0.926057 16.4824 0.92606 9.51757 5.22183 5.22183L5.22183 5.22183ZM22.1924 22.1924C27.2692 17.1156 27.2692 8.88443 22.1924 3.80762C17.1156 -1.26921 8.88443 -1.2692 3.80762 3.80761C-1.26921 8.8844 -1.2692 17.1155 3.80761 22.1924C8.8844 27.2692 17.1155 27.2692 22.1924 22.1924ZM17.9349 8.29289C18.3254 8.68342 18.3254 9.31658 17.9349 9.70711L14.5281 13.1139L17.9349 16.5207C18.3254 16.9112 18.3254 17.5443 17.9349 17.9349C17.5443 18.3254 16.9112 18.3254 16.5207 17.9349L13.1139 14.5281L9.70711 17.9349C9.31658 18.3254 8.68342 18.3254 8.29289 17.9349C7.90237 17.5443 7.90237 16.9112 8.29289 16.5207L11.6997 13.1139L8.29289 9.70711C7.90237 9.31658 7.90237 8.68342 8.29289 8.29289C8.68342 7.90237 9.31658 7.90237 9.70711 8.29289L13.1139 11.6997L16.5207 8.29289C16.9112 7.90237 17.5443 7.90237 17.9349 8.29289Z" fill="#D80000"/>
</svg>
