<svg width="26" height="26" viewBox="0 0 26 26" fill="none" xmlns="http://www.w3.org/2000/svg">
<path fill-rule="evenodd" clip-rule="evenodd" d="M13 24C19.0757 24 24 19.0757 24 13C24 6.92428 19.0757 2 13 2C6.92429 2 2 6.92428 2 13C2 19.0757 6.92428 24 13 24ZM13 -1.91136e-06C20.1803 -1.28364e-06 26 5.81971 26 13C26 20.1803 20.1803 26 13 26C5.81971 26 -2.66085e-07 20.1803 3.61636e-07 13C9.89356e-07 5.81971 5.81972 -2.53908e-06 13 -1.91136e-06ZM13 20C12.4477 20 12 19.5523 12 19L12 12.3333C12 11.781 12.4477 11.3333 13 11.3333C13.5523 11.3333 14 11.781 14 12.3333L14 19C14 19.5523 13.5523 20 13 20ZM14.3346 7.33334C14.3399 8.0701 13.742 8.66805 13.0052 8.66805C12.2631 8.66805 11.6652 8.0701 11.6652 7.33334C11.6652 6.59659 12.2631 5.99864 12.9999 5.99864C13.7367 5.99864 14.3346 6.59659 14.3346 7.33334Z" fill="#009ED0"/>
</svg>
