<svg width="28" height="28" viewBox="0 0 28 28" fill="none" xmlns="http://www.w3.org/2000/svg">
<path fill-rule="evenodd" clip-rule="evenodd" d="M2.99512 14C2.99512 7.9221 7.92222 2.995 14.0001 2.995C20.078 2.995 25.0051 7.9221 25.0051 14C25.0051 20.0779 20.078 25.005 14.0001 25.005C7.92222 25.005 2.99512 20.0779 2.99512 14ZM14.0001 0.994995C6.81765 0.994995 0.995117 6.81753 0.995117 14C0.995117 21.1825 6.81765 27.005 14.0001 27.005C21.1826 27.005 27.0051 21.1825 27.0051 14C27.0051 6.81753 21.1826 0.994995 14.0001 0.994995ZM19.3572 11.5098C19.7477 11.1192 19.7477 10.4861 19.3572 10.0955C18.9667 9.70502 18.3335 9.70502 17.943 10.0955L12.1287 15.9098L9.96394 13.7451C9.57342 13.3545 8.94025 13.3545 8.54973 13.7451C8.15921 14.1356 8.15921 14.7688 8.54973 15.1593L11.4403 18.0498C11.8308 18.4403 12.4639 18.4403 12.8545 18.0498C12.9103 17.994 12.9581 17.9333 12.9979 17.869L19.3572 11.5098Z" fill="#00D008"/>
</svg>
