<svg width="26" height="26" viewBox="0 0 26 26" fill="none" xmlns="http://www.w3.org/2000/svg">
<path fill-rule="evenodd" clip-rule="evenodd" d="M13 2C6.92428 2 2 6.92428 2 13C2 19.0757 6.92428 24 13 24C19.0757 24 24 19.0757 24 13C24 6.92428 19.0757 2 13 2ZM13 26C5.81972 26 0 20.1803 0 13C0 5.81972 5.81972 0 13 0C20.1803 0 26 5.81972 26 13C26 20.1803 20.1803 26 13 26ZM13 6C13.5523 6 14 6.44772 14 7V13.6667C14 14.219 13.5523 14.6667 13 14.6667C12.4477 14.6667 12 14.219 12 13.6667V7C12 6.44772 12.4477 6 13 6ZM11.6654 18.6667C11.6601 17.9299 12.258 17.332 12.9948 17.332C13.7369 17.332 14.3348 17.9299 14.3348 18.6667C14.3348 19.4034 13.7369 20.0014 13.0001 20.0014C12.2633 20.0014 11.6654 19.4034 11.6654 18.6667Z" fill="url(#paint0_linear_717_382)"/>
<defs>
<linearGradient id="paint0_linear_717_382" x1="13" y1="0" x2="13" y2="26" gradientUnits="userSpaceOnUse">
<stop stop-color="#FF9900"/>
<stop offset="1" stop-color="#FF7A00"/>
</linearGradient>
</defs>
</svg>
