<svg width="16" height="16" viewBox="0 0 16 16" fill="none" xmlns="http://www.w3.org/2000/svg">
<path d="M10.4093 7.99749C10.4093 9.32623 9.33126 10.4043 8.00252 10.4043C6.67378 10.4043 5.59575 9.32623 5.59575 7.99749C5.59575 6.66876 6.67378 5.59072 8.00252 5.59072C9.33126 5.59072 10.4093 6.67377 10.4093 7.99749ZM8.00252 0C3.5901 0 0 3.5901 0 8.00251C0 12.4149 3.5901 16 8.00252 16C9.61707 16 11.1765 15.5186 12.5102 14.6061L12.5353 14.591L11.4572 13.3375L11.4372 13.3475C10.4093 14.0044 9.22597 14.3554 8.00252 14.3554C4.49766 14.3554 1.64463 11.5024 1.64463 7.99749C1.64463 4.49264 4.49766 1.63961 8.00252 1.63961C11.5074 1.63961 14.3604 4.49264 14.3604 7.99749C14.3604 8.45378 14.3103 8.91006 14.21 9.36634C14.0094 10.1937 13.4328 10.4444 12.9966 10.4093C12.5603 10.3742 12.0489 10.0633 12.0439 9.30116V7.99749C12.0439 5.76622 10.2288 3.95111 7.99751 3.95111C5.76623 3.95111 3.95112 5.76622 3.95112 7.99749C3.95112 10.2288 5.76623 12.0439 7.99751 12.0439C9.08056 12.0439 10.0984 11.6177 10.8656 10.8505C11.3118 11.5425 12.0389 11.9787 12.8662 12.0439C12.9364 12.0489 13.0116 12.0539 13.0818 12.0539C13.6635 12.0539 14.2401 11.8584 14.7064 11.5074C15.1877 11.1413 15.5437 10.6149 15.7393 9.98308C15.7694 9.8828 15.8296 9.64713 15.8296 9.64713V9.6371C15.9449 9.13068 16 8.62426 16 7.99749C16.005 3.5901 12.4149 0 8.00252 0Z" fill="#FF9E00"/>
</svg>
