<svg width="7" height="14" viewBox="0 0 7 14" fill="none" xmlns="http://www.w3.org/2000/svg">
<path d="M6.22736 7.03692H4.26981V14H1.37948V7.03692H0V4.54073H1.37948V2.96418C1.34891 2.5682 1.40441 2.17029 1.54216 1.79779C1.6799 1.42528 1.89664 1.08699 2.17747 0.806155C2.45831 0.52532 2.79659 0.30859 3.1691 0.170844C3.54161 0.0330978 3.93952 -0.0224005 4.3355 0.00816135H6.50325V2.43867H4.9267C4.84226 2.43479 4.75801 2.44969 4.68002 2.4823C4.60203 2.51492 4.53225 2.56442 4.4757 2.62725C4.41915 2.69009 4.37724 2.76468 4.353 2.84566C4.32876 2.92664 4.32278 3.01199 4.3355 3.09556V4.54073H6.56894L6.22736 7.03692Z" fill="#4267B2"/>
</svg>
