<svg width="15" height="13" viewBox="0 0 15 13" fill="none" xmlns="http://www.w3.org/2000/svg">
<path d="M15 1.46324C14.5823 2.09313 14.0698 2.63009 13.4626 3.0741C13.4686 3.19318 13.4716 3.32778 13.4716 3.47788C13.4716 4.31189 13.3517 5.14691 13.1118 5.98294C12.8719 6.81898 12.5055 7.61922 12.0126 8.38365C11.5196 9.14808 10.9324 9.8253 10.251 10.4153C9.56952 11.0053 8.7504 11.4758 7.79359 11.8266C6.83678 12.1775 5.81134 12.3529 4.71727 12.3529C3.00979 12.3529 1.43736 11.8856 0 10.951C0.255115 10.9798 0.499792 10.9941 0.734031 10.9941C2.16049 10.9941 3.43455 10.5487 4.55621 9.65784C3.89112 9.64548 3.29547 9.43791 2.76928 9.03514C2.24309 8.63238 1.88097 8.11772 1.68294 7.49117C1.87868 7.52898 2.07187 7.54787 2.26252 7.54787C2.53693 7.54787 2.80695 7.51159 3.07258 7.43902C2.3628 7.2949 1.77397 6.9365 1.3061 6.36382C0.838251 5.79115 0.604325 5.13017 0.604325 4.38089V4.34228C1.03999 4.58683 1.5047 4.71692 1.99845 4.73253C1.57798 4.44835 1.24461 4.07776 0.998341 3.62078C0.752056 3.1638 0.628913 2.66926 0.628913 2.13717C0.628913 1.57599 0.76762 1.05343 1.04503 0.569482C1.81691 1.52977 2.7522 2.29727 3.8509 2.87197C4.94962 3.44668 6.12834 3.76585 7.38705 3.82949C7.33336 3.60267 7.30647 3.36597 7.30637 3.11939C7.30637 2.25842 7.6069 1.52328 8.20797 0.913969C8.80904 0.304656 9.53419 0 10.3834 0C11.2726 0 12.0215 0.328221 12.6302 0.984664C13.3257 0.845002 13.9769 0.592389 14.5838 0.226824C14.35 0.972859 13.8994 1.54837 13.2321 1.95337C13.8454 1.87948 14.4347 1.71611 15 1.46324H15Z" fill="#00D1FF"/>
</svg>
