<svg width="16" height="11" viewBox="0 0 16 11" fill="none" xmlns="http://www.w3.org/2000/svg">
<path d="M15.6464 1.71569C15.5547 1.38408 15.3756 1.08175 15.1272 0.838828C14.8788 0.595902 14.5696 0.420849 14.2304 0.3311C12.9888 0 7.99169 0 7.99169 0C7.99169 0 2.99431 0.0100222 1.75269 0.341122C1.41353 0.430876 1.10434 0.605939 0.855904 0.848876C0.607466 1.09181 0.428452 1.39415 0.336689 1.72578C-0.0388739 3.88288 -0.184561 7.1698 0.347001 9.24061C0.438774 9.57223 0.617792 9.87455 0.866229 10.1175C1.11467 10.3604 1.42385 10.5355 1.763 10.6252C3.00463 10.9563 8.00188 10.9563 8.00188 10.9563C8.00188 10.9563 12.9991 10.9563 14.2406 10.6252C14.5798 10.5355 14.889 10.3604 15.1374 10.1175C15.3859 9.87456 15.5649 9.57224 15.6567 9.24061C16.0528 7.08046 16.1749 3.79561 15.6464 1.71576V1.71569Z" fill="#FF0000"/>
<path d="M6.40121 7.82589L10.5468 5.47812L6.40128 3.13036L6.40121 7.82589Z" fill="white"/>
</svg>
