<svg width="16" height="16" viewBox="0 0 16 16" fill="none" xmlns="http://www.w3.org/2000/svg">
<path fill-rule="evenodd" clip-rule="evenodd" d="M7.9119 0C4.61436 0.000313449 2.32944 0.0112842 1.15657 1.15663C0.0112996 2.32924 0.000326547 4.72148 0.000326547 7.91178C3.54276 7.80488 5.16269 7.71618 6.4547 6.45453C7.71627 5.16252 7.805 3.5426 7.9119 0ZM1.15637 14.8437C0.0110951 13.671 0.00012207 11.2788 0.00012207 8.08852C3.54256 8.19542 5.16249 8.28412 6.4545 9.54577C7.71607 10.8378 7.8048 12.4577 7.9117 16C4.61416 16 2.32924 15.9893 1.15637 14.8437ZM8.08854 16C8.19544 12.4577 8.28417 10.8378 9.54577 9.54577C10.8377 8.28412 12.4577 8.19542 16.0001 8.08852C15.9998 11.2788 15.9888 13.671 14.8436 14.8437C13.6707 15.9893 11.3861 16 8.08854 16ZM8.08854 0C8.19544 3.5426 8.28417 5.16252 9.54577 6.45453C10.8377 7.71618 12.4577 7.80488 16.0001 7.91178C15.9998 4.72148 15.9888 2.32924 14.8436 1.15663C13.6707 0.0112842 11.3861 0.000313449 8.08854 0Z" fill="white"/>
<path fill-rule="evenodd" clip-rule="evenodd" d="M16 8.08923V8.00083V7.91273C12.4576 7.80553 10.8376 7.71716 9.54562 6.45522C8.28405 5.16347 8.19532 3.54359 8.08842 0.000976562H7.99998H7.91158C7.80468 3.54359 7.71595 5.16347 6.45435 6.45522C5.16234 7.71716 3.54241 7.80553 0 7.91273V8.00083V8.08923C3.54241 8.1964 5.16234 8.2848 6.45435 9.54645C7.71595 10.8385 7.80468 12.4584 7.91158 16.001H7.99998H8.08842C8.19532 12.4584 8.28405 10.8385 9.54562 9.54645C10.8376 8.2848 12.4576 8.1964 16 8.08923Z" fill="url(#paint0_linear)"/>
<defs>
<linearGradient id="paint0_linear" x1="8" y1="0.000976562" x2="8" y2="16.001" gradientUnits="userSpaceOnUse">
<stop stop-color="#030E1B" stop-opacity="0.6"/>
<stop offset="0.0001" stop-color="#041324"/>
<stop offset="1" stop-color="#030E1B"/>
</linearGradient>
</defs>
</svg>
