<svg width="14" height="15" viewBox="0 0 14 15" fill="none" xmlns="http://www.w3.org/2000/svg">
<path d="M0.51384 12.8363L0.563045 12.9752C0.556744 12.9593 0.538742 12.9107 0.51384 12.8363ZM2.46105 9.68806C2.54746 8.94158 2.84089 8.52363 3.39385 8.09518C4.18504 7.51492 5.17334 7.84316 5.17334 7.84316V5.89595C5.41361 5.88954 5.65397 5.9044 5.89162 5.94035V8.44622C5.89162 8.44622 4.90361 8.11799 4.11243 8.69855C3.55977 9.12669 3.26574 9.54494 3.17963 10.2914C3.17693 10.6968 3.24983 11.2266 3.58557 11.6848C3.50256 11.6404 3.41795 11.5898 3.33174 11.533C2.59216 11.0148 2.45745 10.2374 2.46105 9.68806ZM9.97236 2.29556C9.4281 1.67329 9.22228 1.04502 9.14787 0.603676H9.83254C9.83254 0.603676 9.69603 1.7609 10.6909 2.89892L10.7047 2.91422C10.4366 2.73824 10.1907 2.53051 9.97236 2.29556ZM13.2706 4.05975V6.51521C13.2706 6.51521 12.3969 6.47951 11.7504 6.30789C10.8476 6.06787 10.2673 5.69973 10.2673 5.69973C10.2673 5.69973 9.86645 5.4372 9.83405 5.4189V10.4894C9.83405 10.7718 9.75994 11.4768 9.53401 12.0649C9.23908 12.8342 8.78393 13.3391 8.70022 13.4424C8.70022 13.4424 8.14666 14.1249 7.17006 14.5846C6.28976 14.9992 5.51688 14.9887 5.28585 14.9992C5.28585 14.9992 3.94981 15.0544 2.74758 14.2392C2.48761 14.0596 2.24493 13.8561 2.0227 13.6314L2.0287 13.6359C3.23123 14.4511 4.56698 14.3959 4.56698 14.3959C4.7983 14.3854 5.57119 14.3959 6.45118 13.9812C7.42689 13.5216 7.98135 12.839 7.98135 12.839C8.06415 12.7358 8.5214 12.2308 8.81513 11.4612C9.04046 10.8735 9.11517 10.1681 9.11517 9.88578V4.81583C9.14757 4.83443 9.54811 5.09696 9.54811 5.09696C9.54811 5.09696 10.1287 5.4654 11.0315 5.70513C11.6783 5.87674 12.5517 5.91245 12.5517 5.91245V3.98834C12.8506 4.05825 13.1053 4.07715 13.2706 4.05975Z" fill="#EE1D52"/>
<path d="M12.5521 3.98834V5.91185C12.5521 5.91185 11.6787 5.87614 11.0318 5.70453C10.129 5.4645 9.54845 5.09636 9.54845 5.09636C9.54845 5.09636 9.14791 4.83383 9.1155 4.81523V9.88638C9.1155 10.1687 9.04139 10.8741 8.81547 11.4618C8.52054 12.2314 8.06539 12.7364 7.98168 12.8396C7.98168 12.8396 7.42782 13.5222 6.45151 13.9818C5.57152 14.3965 4.79864 14.386 4.56731 14.3965C4.56731 14.3965 3.23157 14.4517 2.02904 13.6365L2.02304 13.632C1.89608 13.5037 1.77657 13.3683 1.6651 13.2263C1.28136 12.7382 1.04613 12.1609 0.987026 11.9962C0.986923 11.9955 0.986923 11.9948 0.987026 11.9941C0.891915 11.7079 0.692094 11.0205 0.719397 10.3547C0.767702 9.1801 1.16374 8.45912 1.26846 8.2785C1.54578 7.78596 1.90647 7.34527 2.33447 6.97606C2.71216 6.65747 3.14026 6.40397 3.60121 6.22598C4.09951 6.017 4.6331 5.90498 5.17338 5.89595V7.84316C5.17338 7.84316 4.18507 7.51612 3.39419 8.09518C2.84123 8.52363 2.54779 8.94158 2.46138 9.68806C2.45778 10.2374 2.5925 11.0148 3.33148 11.5333C3.41769 11.5903 3.5023 11.6409 3.58531 11.6851C3.71441 11.8602 3.87154 12.0127 4.05036 12.1366C4.77223 12.6134 5.3771 12.6467 6.15058 12.337C6.66634 12.13 7.05458 11.6635 7.2346 11.1465C7.34771 10.8237 7.34621 10.4987 7.34621 10.1627V0.603676H9.14641C9.22081 1.04502 9.42664 1.67329 9.97089 2.29556C10.1892 2.53051 10.4351 2.73824 10.7033 2.91422C10.7825 2.99973 11.1875 3.42248 11.7075 3.68201C11.9763 3.81616 12.2597 3.91894 12.5521 3.98834Z" fill="black"/>
<path d="M0.270538 11.3982V11.3997L0.314943 11.526C0.309842 11.5113 0.293341 11.4666 0.270538 11.3982Z" fill="#69C9D0"/>
<path d="M3.60123 6.22598C3.14028 6.40397 2.71218 6.65746 2.33449 6.97606C1.90635 7.34611 1.54575 7.78772 1.26878 8.2812C1.16406 8.46122 0.768022 9.1828 0.719716 10.3574C0.692413 11.0232 0.892235 11.7106 0.987345 11.9968C0.987242 11.9975 0.987242 11.9982 0.987345 11.9989C1.04735 12.1621 1.28168 12.7394 1.66542 13.229C1.77689 13.371 1.8964 13.5064 2.02336 13.6347C1.61657 13.3533 1.25378 13.0132 0.946841 12.6254C0.5664 12.1414 0.331774 11.5702 0.270568 11.4015C0.270496 11.4003 0.270496 11.3991 0.270568 11.3979V11.3958C0.175158 11.1099 -0.0252639 10.4222 0.00263912 9.75556C0.0509443 8.58093 0.446987 7.85996 0.551698 7.67934C0.82859 7.1858 1.1892 6.74417 1.61741 6.3742C1.99503 6.05549 2.42314 5.80199 2.88415 5.62412C3.1717 5.50481 3.47126 5.41679 3.77765 5.36159C4.23938 5.28099 4.71097 5.274 5.1749 5.34089V5.89594C4.63412 5.90479 4.1 6.01681 3.60123 6.22598Z" fill="#69C9D0"/>
<path d="M9.14796 0.603665H7.34777V10.163C7.34777 10.499 7.34777 10.8231 7.23616 11.1468C7.05434 11.6635 6.6676 12.13 6.15214 12.337C5.37836 12.6479 4.77349 12.6134 4.05191 12.1366C3.87279 12.0133 3.71525 11.8612 3.58566 11.6866C4.20043 12.0145 4.75069 12.0088 5.43236 11.7352C5.94752 11.5281 6.33486 11.0616 6.51608 10.5446C6.62949 10.2218 6.62799 9.89687 6.62799 9.56113V0H9.11376C9.11376 0 9.08586 0.237626 9.14796 0.603665ZM12.5521 3.45637V3.98833C12.2603 3.91882 11.9774 3.81604 11.709 3.682C11.1891 3.42247 10.784 2.99972 10.7048 2.91421C10.7967 2.97456 10.8921 3.02946 10.9905 3.07863C11.6226 3.39427 12.2452 3.48848 12.5521 3.45637Z" fill="#69C9D0"/>
</svg>
