<svg width="17" height="16" viewBox="0 0 17 16" fill="none" xmlns="http://www.w3.org/2000/svg">
<path d="M7.99843 1.44156C10.1354 1.44156 10.3862 1.45108 11.2308 1.48918C12.0119 1.52411 12.4342 1.6543 12.7168 1.76543C13.0915 1.91149 13.3582 2.08295 13.6377 2.36237C13.9171 2.64179 14.0917 2.90851 14.2346 3.28319C14.3426 3.56579 14.4759 3.98809 14.5108 4.7692C14.5489 5.61381 14.5585 5.86466 14.5585 8.00159C14.5585 10.1385 14.5489 10.3894 14.5108 11.234C14.4759 12.0151 14.3457 12.4374 14.2346 12.72C14.0885 13.0947 13.9171 13.3614 13.6377 13.6408C13.3582 13.9202 13.0915 14.0949 12.7168 14.2377C12.4342 14.3457 12.0119 14.4791 11.2308 14.514C10.3862 14.5521 10.1354 14.5616 7.99843 14.5616C5.86149 14.5616 5.61065 14.5521 4.76603 14.514C3.98493 14.4791 3.56262 14.3489 3.28002 14.2377C2.90534 14.0917 2.63862 13.9202 2.3592 13.6408C2.07978 13.3614 1.90514 13.0947 1.76226 12.72C1.6543 12.4374 1.52094 12.0151 1.48601 11.234C1.44791 10.3894 1.43838 10.1385 1.43838 8.00159C1.43838 5.86466 1.44791 5.61381 1.48601 4.7692C1.52094 3.98809 1.65112 3.56579 1.76226 3.28319C1.90832 2.90851 2.07978 2.64179 2.3592 2.36237C2.63862 2.08295 2.90534 1.90832 3.28002 1.76543C3.56262 1.65747 3.98493 1.52411 4.76603 1.48918C5.61065 1.44791 5.86467 1.44156 7.99843 1.44156ZM7.99843 0C5.82656 0 5.55349 0.0095257 4.69935 0.0476285C3.84839 0.0857313 3.26732 0.222266 2.75928 0.419131C2.23219 0.622346 1.78766 0.898591 1.34313 1.34312C0.898593 1.78766 0.625522 2.23536 0.419132 2.75928C0.222267 3.26732 0.0857315 3.84838 0.0476286 4.70252C0.00952572 5.55348 0 5.82655 0 7.99841C0 10.1703 0.00952572 10.4433 0.0476286 11.2975C0.0857315 12.1484 0.222267 12.7295 0.419132 13.2407C0.622347 13.7678 0.898593 14.2123 1.34313 14.6569C1.78766 15.1014 2.23537 15.3745 2.75928 15.5809C3.26732 15.7777 3.84839 15.9143 4.70253 15.9524C5.55667 15.9905 5.82656 16 8.0016 16C10.1766 16 10.4465 15.9905 11.3007 15.9524C12.1516 15.9143 12.7327 15.7777 13.2439 15.5809C13.771 15.3777 14.2155 15.1014 14.6601 14.6569C15.1046 14.2123 15.3777 13.7646 15.5841 13.2407C15.7809 12.7327 15.9175 12.1516 15.9556 11.2975C15.9937 10.4433 16.0032 10.1734 16.0032 7.99841C16.0032 5.82338 15.9937 5.55348 15.9556 4.69935C15.9175 3.84838 15.7809 3.26732 15.5841 2.7561C15.3809 2.22901 15.1046 1.78448 14.6601 1.33995C14.2155 0.895416 13.7678 0.622346 13.2439 0.415956C12.7359 0.219091 12.1548 0.0825561 11.3007 0.0444533C10.4434 0.0095257 10.1703 0 7.99843 0Z" fill="url(#paint0_radial)"/>
<path d="M7.99846 3.89286C5.73134 3.89286 3.88971 5.73132 3.88971 8.00161C3.88971 10.2719 5.72817 12.1104 7.99846 12.1104C10.2688 12.1104 12.1072 10.2719 12.1072 8.00161C12.1072 5.73132 10.2688 3.89286 7.99846 3.89286ZM7.99846 10.6656C6.52515 10.6656 5.33127 9.47174 5.33127 7.99843C5.33127 6.52513 6.52515 5.33124 7.99846 5.33124C9.47177 5.33124 10.6657 6.52513 10.6657 7.99843C10.6657 9.47174 9.47177 10.6656 7.99846 10.6656Z" fill="url(#paint1_radial)"/>
<path d="M12.2692 4.68669C12.7988 4.68669 13.2281 4.25736 13.2281 3.72777C13.2281 3.19817 12.7988 2.76884 12.2692 2.76884C11.7396 2.76884 11.3102 3.19817 11.3102 3.72777C11.3102 4.25736 11.7396 4.68669 12.2692 4.68669Z" fill="url(#paint2_radial)"/>
<defs>
<radialGradient id="paint0_radial" cx="0" cy="0" r="1" gradientUnits="userSpaceOnUse" gradientTransform="translate(2.40048 2) rotate(44.9943) scale(15.8408)">
<stop stop-color="#4368C6"/>
<stop offset="0.28125" stop-color="#A734BA"/>
<stop offset="0.59375" stop-color="#E24A6F"/>
<stop offset="1" stop-color="#FBB554"/>
</radialGradient>
<radialGradient id="paint1_radial" cx="0" cy="0" r="1" gradientUnits="userSpaceOnUse" gradientTransform="translate(5.12234 4.92005) rotate(45) scale(8.13491)">
<stop stop-color="#4368C6"/>
<stop offset="0.28125" stop-color="#A734BA"/>
<stop offset="0.59375" stop-color="#E24A6F"/>
<stop offset="1" stop-color="#FBB554"/>
</radialGradient>
<radialGradient id="paint2_radial" cx="0" cy="0" r="1" gradientUnits="userSpaceOnUse" gradientTransform="translate(11.5979 3.00857) rotate(45) scale(1.89857)">
<stop stop-color="#4368C6"/>
<stop offset="0.28125" stop-color="#A734BA"/>
<stop offset="0.59375" stop-color="#E24A6F"/>
<stop offset="1" stop-color="#FBB554"/>
</radialGradient>
</defs>
</svg>
