<svg width="22" height="16" viewBox="0 0 22 16" fill="none" xmlns="http://www.w3.org/2000/svg">
<path fill-rule="evenodd" clip-rule="evenodd" d="M0.966721 11.0431C0.662718 10.0342 0.5 8.96921 0.5 7.86842C0.5 7.55712 0.513013 7.24869 0.538555 6.94358L7.11672 9.50376C7.68156 9.14662 8.34726 8.93985 9.07349 8.93985H9.27522L12.2003 4.93609V4.8797C12.2003 2.47368 14.2983 0.5 16.8602 0.5C19.4222 0.5 21.5 2.45489 21.5 4.8797C21.5 7.28571 19.4222 9.2594 16.8602 9.2594H16.7594L12.5634 12.0602V12.2105C12.5634 14.015 10.9899 15.5 9.07349 15.5C7.37896 15.5 5.96686 14.3722 5.64409 12.8684L0.966721 11.0431ZM6.71326 13.282L8.22622 13.8647C9.2147 14.2406 10.3444 13.8083 10.7478 12.8872C11.1715 11.9662 10.7075 10.8947 9.71902 10.5188L8.14553 9.91729C8.75072 9.69173 9.4366 9.69173 10.0821 9.93609C10.7277 10.1805 11.232 10.6692 11.4942 11.2707C11.7565 11.8722 11.7565 12.5489 11.4942 13.1504C10.9294 14.4098 9.39625 15.0113 8.06484 14.485C7.43948 14.2406 6.9755 13.8083 6.71326 13.282ZM14.5404 4.87972C14.5404 3.67671 15.5893 2.69927 16.8602 2.69927C18.1513 2.69927 19.1801 3.67671 19.1801 4.87972C19.1801 6.08272 18.1311 7.06017 16.8602 7.06017C15.5692 7.06017 14.5404 6.08272 14.5404 4.87972ZM19.9467 4.87972C19.9467 3.28197 18.5548 1.96618 16.8401 1.96618C15.1254 1.96618 13.7334 3.28197 13.7334 4.87972C13.7334 6.47746 15.1254 7.79325 16.8401 7.79325C18.5749 7.79325 19.9467 6.47746 19.9467 4.87972Z" fill="#21252C"/>
</svg>
