<svg width="20" height="20" viewBox="0 0 20 20" fill="none" xmlns="http://www.w3.org/2000/svg">
<path fill-rule="evenodd" clip-rule="evenodd" d="M0.354148 9.74953C0.354148 4.37363 4.7609 0 10.1775 0C15.5937 0 20 4.37363 20 9.74953C20 15.1249 15.5937 19.498 10.1776 19.498C8.55317 19.498 6.94809 19.0974 5.52798 18.3387L0.338367 19.9878C0.312507 19.9961 0.286023 20 0.259734 20C0.191101 20 0.123914 19.9727 0.0743435 19.9221C0.00571067 19.8523 -0.0176878 19.7496 0.0137575 19.6569L1.70098 14.6799C0.81946 13.1903 0.354148 11.4883 0.354148 9.74953ZM5.89598 16.1907C7.1686 17.0258 8.64903 17.4671 10.1775 17.4671C14.4675 17.4671 17.9575 14.0051 17.9574 9.74953C17.9574 5.49348 14.4673 2.0309 10.1774 2.0309C5.88704 2.0309 2.39653 5.49348 2.39653 9.74953C2.39653 11.3854 2.9088 12.9499 3.8779 14.274C3.9279 14.3423 3.94149 14.4307 3.91434 14.5109L3.07512 16.9868L5.67481 16.1604C5.70059 16.1522 5.72708 16.1482 5.75352 16.1482C5.80352 16.1482 5.85321 16.1626 5.89598 16.1907ZM14.7517 11.4691C14.7787 11.4824 14.7952 11.4905 14.7989 11.4923C14.9899 11.5839 15.1408 11.6564 15.2283 11.8004C15.3561 12.012 15.3055 12.5951 15.1134 13.1288C14.8696 13.8064 13.7976 14.3618 13.3098 14.4051L13.2383 14.4119C13.1255 14.423 12.9976 14.4355 12.8379 14.4355H12.8378C12.4577 14.4355 11.7891 14.3704 10.377 13.8063C8.91036 13.2204 7.46352 11.9643 6.30293 10.2694C6.29983 10.2648 6.29688 10.2605 6.29407 10.2564C6.27873 10.2339 6.26786 10.218 6.26149 10.2095C5.95844 9.81008 5.25258 8.75988 5.25258 7.64762C5.25258 6.41176 5.84415 5.70906 6.19383 5.48859C6.52356 5.2807 7.26934 5.18254 7.40629 5.17676C7.4875 5.17334 7.49608 5.1724 7.50467 5.17213C7.50798 5.17203 7.5113 5.17203 7.51875 5.17203C7.80778 5.17203 8.01575 5.34742 8.17317 5.7241C8.18905 5.76196 8.2373 5.87806 8.30177 6.0332C8.5031 6.51765 8.86263 7.38278 8.88875 7.435C8.93079 7.51742 9.06079 7.77258 8.90856 8.075L8.8759 8.14066L8.87563 8.14121C8.8134 8.26735 8.75963 8.37634 8.63903 8.51664C8.60028 8.56145 8.56079 8.60898 8.52137 8.65645L8.52119 8.65666C8.438 8.75679 8.35202 8.86029 8.27266 8.93879C8.24551 8.96598 8.19289 9.01871 8.18719 9.03969C8.18721 9.03969 8.18724 9.03986 8.18729 9.04019C8.18778 9.04336 8.19061 9.06149 8.21161 9.09727C8.37442 9.37277 9.56161 11.0066 11.1257 11.686C11.194 11.7157 11.4197 11.8086 11.4327 11.8086C11.4473 11.8086 11.4716 11.7843 11.4894 11.764C11.6256 11.61 12.0665 11.0946 12.2122 10.8781C12.341 10.6854 12.5064 10.5873 12.7032 10.5873C12.8238 10.5873 12.9371 10.6244 13.0429 10.6623C13.2773 10.7467 14.4937 11.3427 14.7517 11.4691Z" fill="#11BB19"/>
</svg>
