<svg width="181" height="24" viewBox="0 0 181 24" fill="none" xmlns="http://www.w3.org/2000/svg">
<path d="M12.16 9.764C13.088 10.068 13.824 10.58 14.368 11.3C14.912 12.004 15.184 12.884 15.184 13.94C15.184 15.396 14.624 16.524 13.504 17.324C12.384 18.108 10.752 18.5 8.608 18.5H0.256V1.7H8.128C10.112 1.7 11.64 2.092 12.712 2.876C13.784 3.644 14.32 4.708 14.32 6.068C14.32 6.9 14.128 7.636 13.744 8.276C13.36 8.916 12.832 9.412 12.16 9.764ZM3.376 4.148V8.78H7.792C8.88 8.78 9.712 8.588 10.288 8.204C10.88 7.804 11.176 7.228 11.176 6.476C11.176 5.708 10.88 5.132 10.288 4.748C9.712 4.348 8.88 4.148 7.792 4.148H3.376ZM8.416 16.052C10.832 16.052 12.04 15.244 12.04 13.628C12.04 12.012 10.832 11.204 8.416 11.204H3.376V16.052H8.416ZM23.1218 5.54C25.0098 5.54 26.4498 5.996 27.4418 6.908C28.4498 7.804 28.9538 9.164 28.9538 10.988V18.5H26.1218V16.94C25.7538 17.5 25.2258 17.932 24.5378 18.236C23.8658 18.524 23.0498 18.668 22.0898 18.668C21.1298 18.668 20.2898 18.508 19.5698 18.188C18.8498 17.852 18.2898 17.396 17.8898 16.82C17.5058 16.228 17.3138 15.564 17.3138 14.828C17.3138 13.676 17.7378 12.756 18.5858 12.068C19.4498 11.364 20.8018 11.012 22.6418 11.012H25.9538V10.82C25.9538 9.924 25.6818 9.236 25.1378 8.756C24.6098 8.276 23.8178 8.036 22.7618 8.036C22.0418 8.036 21.3298 8.148 20.6258 8.372C19.9378 8.596 19.3538 8.908 18.8738 9.308L17.6978 7.124C18.3698 6.612 19.1778 6.22 20.1218 5.948C21.0658 5.676 22.0658 5.54 23.1218 5.54ZM22.7138 16.484C23.4658 16.484 24.1298 16.316 24.7058 15.98C25.2978 15.628 25.7138 15.132 25.9538 14.492V13.004H22.8578C21.1298 13.004 20.2658 13.572 20.2658 14.708C20.2658 15.252 20.4818 15.684 20.9138 16.004C21.3458 16.324 21.9458 16.484 22.7138 16.484ZM38.8011 18.668C37.4731 18.668 36.2811 18.388 35.2251 17.828C34.1691 17.268 33.3451 16.492 32.7531 15.5C32.1611 14.492 31.8651 13.356 31.8651 12.092C31.8651 10.828 32.1611 9.7 32.7531 8.708C33.3451 7.716 34.1611 6.94 35.2011 6.38C36.2571 5.82 37.4571 5.54 38.8011 5.54C40.0651 5.54 41.1691 5.796 42.1131 6.308C43.0731 6.82 43.7931 7.556 44.2731 8.516L41.9691 9.86C41.6011 9.268 41.1371 8.828 40.5771 8.54C40.0331 8.236 39.4331 8.084 38.7771 8.084C37.6571 8.084 36.7291 8.452 35.9931 9.188C35.2571 9.908 34.8891 10.876 34.8891 12.092C34.8891 13.308 35.2491 14.284 35.9691 15.02C36.7051 15.74 37.6411 16.1 38.7771 16.1C39.4331 16.1 40.0331 15.956 40.5771 15.668C41.1371 15.364 41.6011 14.916 41.9691 14.324L44.2731 15.668C43.7771 16.628 43.0491 17.372 42.0891 17.9C41.1451 18.412 40.0491 18.668 38.8011 18.668ZM51.9813 13.004L49.7493 15.116V18.5H46.7493V0.691999H49.7493V11.444L55.9653 5.684H59.5653L54.2133 11.06L60.0693 18.5H56.4213L51.9813 13.004ZM77.7271 18.5L77.7031 7.364L72.1831 16.58H70.7911L65.2711 7.508V18.5H62.2951V1.7H64.8631L71.5351 12.836L78.0871 1.7H80.6551L80.6791 18.5H77.7271ZM96.9289 5.684L90.9289 19.532C90.3689 20.924 89.6889 21.9 88.8889 22.46C88.0889 23.036 87.1209 23.324 85.9849 23.324C85.3449 23.324 84.7129 23.22 84.0889 23.012C83.4649 22.804 82.9529 22.516 82.5529 22.148L83.7529 19.94C84.0409 20.212 84.3769 20.428 84.7609 20.588C85.1609 20.748 85.5609 20.828 85.9609 20.828C86.4889 20.828 86.9209 20.692 87.2569 20.42C87.6089 20.148 87.9289 19.692 88.2169 19.052L88.4329 18.548L82.8409 5.684H85.9609L89.9929 15.164L94.0489 5.684H96.9289ZM114.524 18.5L114.5 7.364L108.98 16.58H107.588L102.068 7.508V18.5H99.0919V1.7H101.66L108.332 12.836L114.884 1.7H117.452L117.476 18.5H114.524ZM127.486 18.668C126.19 18.668 125.022 18.388 123.982 17.828C122.942 17.268 122.126 16.492 121.534 15.5C120.958 14.492 120.67 13.356 120.67 12.092C120.67 10.828 120.958 9.7 121.534 8.708C122.126 7.716 122.942 6.94 123.982 6.38C125.022 5.82 126.19 5.54 127.486 5.54C128.798 5.54 129.974 5.82 131.014 6.38C132.054 6.94 132.862 7.716 133.438 8.708C134.03 9.7 134.326 10.828 134.326 12.092C134.326 13.356 134.03 14.492 133.438 15.5C132.862 16.492 132.054 17.268 131.014 17.828C129.974 18.388 128.798 18.668 127.486 18.668ZM127.486 16.1C128.59 16.1 129.502 15.732 130.222 14.996C130.942 14.26 131.302 13.292 131.302 12.092C131.302 10.892 130.942 9.924 130.222 9.188C129.502 8.452 128.59 8.084 127.486 8.084C126.382 8.084 125.47 8.452 124.75 9.188C124.046 9.924 123.694 10.892 123.694 12.092C123.694 13.292 124.046 14.26 124.75 14.996C125.47 15.732 126.382 16.1 127.486 16.1ZM144.467 5.54C146.083 5.54 147.379 6.012 148.355 6.956C149.331 7.9 149.819 9.3 149.819 11.156V18.5H146.819V11.54C146.819 10.42 146.555 9.58 146.027 9.02C145.499 8.444 144.747 8.156 143.771 8.156C142.667 8.156 141.795 8.492 141.155 9.164C140.515 9.82 140.195 10.772 140.195 12.02V18.5H137.195V5.684H140.051V7.34C140.547 6.748 141.171 6.3 141.923 5.996C142.675 5.692 143.523 5.54 144.467 5.54ZM165.789 12.164C165.789 12.372 165.773 12.668 165.741 13.052H155.685C155.861 13.996 156.317 14.748 157.053 15.308C157.805 15.852 158.733 16.124 159.837 16.124C161.245 16.124 162.405 15.66 163.317 14.732L164.925 16.58C164.349 17.268 163.621 17.788 162.741 18.14C161.861 18.492 160.869 18.668 159.765 18.668C158.357 18.668 157.117 18.388 156.045 17.828C154.973 17.268 154.141 16.492 153.549 15.5C152.973 14.492 152.685 13.356 152.685 12.092C152.685 10.844 152.965 9.724 153.525 8.732C154.101 7.724 154.893 6.94 155.901 6.38C156.909 5.82 158.045 5.54 159.309 5.54C160.557 5.54 161.669 5.82 162.645 6.38C163.637 6.924 164.405 7.7 164.949 8.708C165.509 9.7 165.789 10.852 165.789 12.164ZM159.309 7.94C158.349 7.94 157.533 8.228 156.861 8.804C156.205 9.364 155.805 10.116 155.661 11.06H162.933C162.805 10.132 162.413 9.38 161.757 8.804C161.101 8.228 160.285 7.94 159.309 7.94ZM180.437 5.684L174.437 19.532C173.877 20.924 173.197 21.9 172.397 22.46C171.597 23.036 170.629 23.324 169.493 23.324C168.853 23.324 168.221 23.22 167.597 23.012C166.973 22.804 166.461 22.516 166.061 22.148L167.261 19.94C167.549 20.212 167.885 20.428 168.269 20.588C168.669 20.748 169.069 20.828 169.469 20.828C169.997 20.828 170.429 20.692 170.765 20.42C171.117 20.148 171.437 19.692 171.725 19.052L171.941 18.548L166.349 5.684H169.469L173.501 15.164L177.557 5.684H180.437Z" fill="#00255C"/>
</svg>
