<svg width="24" height="24" viewBox="0 0 24 24" fill="none" xmlns="http://www.w3.org/2000/svg">
<path fill-rule="evenodd" clip-rule="evenodd" d="M4 11.25C3.58579 11.25 3.25 11.5858 3.25 12C3.25 12.4142 3.58579 12.75 4 12.75C18.4096 12.75 5.59043 12.75 20 12.75C20.4142 12.75 20.75 12.4142 20.75 12C20.75 11.5858 20.4142 11.25 20 11.25C6.30155 11.25 17.6985 11.25 4 11.25Z" fill="#485363"/>
<path fill-rule="evenodd" clip-rule="evenodd" d="M4 5.25C3.58579 5.25 3.25 5.58579 3.25 6C3.25 6.41421 3.58579 6.75 4 6.75C18.4096 6.75 5.59043 6.75 20 6.75C20.4142 6.75 20.75 6.41421 20.75 6C20.75 5.58579 20.4142 5.25 20 5.25C6.30155 5.25 17.6985 5.25 4 5.25Z" fill="#485363"/>
<path fill-rule="evenodd" clip-rule="evenodd" d="M4 17.25C3.58579 17.25 3.25 17.5858 3.25 18C3.25 18.4142 3.58579 18.75 4 18.75C18.4096 18.75 5.59043 18.75 20 18.75C20.4142 18.75 20.75 18.4142 20.75 18C20.75 17.5858 20.4142 17.25 20 17.25C6.30155 17.25 17.6985 17.25 4 17.25Z" fill="#485363"/>
</svg>
